G04 #@! TF.FileFunction,Legend,Bot*
%FSLAX46Y46*%
G04 Gerber Fmt 4.6, Leading zero omitted, Abs format (unit mm)*
G04 Created by KiCad (PCBNEW 4.0.2-4+6225~38~ubuntu14.04.1-stable) date Wed 22 Jun 2016 06:39:26 PM CDT*
%MOMM*%
G01*
G04 APERTURE LIST*
%ADD10C,0.100000*%
%ADD11C,0.200000*%
%ADD12C,0.010000*%
%ADD13C,0.150000*%
G04 APERTURE END LIST*
D10*
D11*
X84340000Y-108000000D02*
X70490000Y-108000000D01*
X84986427Y-105892857D02*
X84836427Y-104692857D01*
X84300712Y-105892857D01*
X84150712Y-104692857D01*
X83264998Y-105835714D02*
X83386427Y-105892857D01*
X83614998Y-105892857D01*
X83722141Y-105835714D01*
X83764999Y-105721429D01*
X83707856Y-105264286D01*
X83636427Y-105150000D01*
X83514998Y-105092857D01*
X83286427Y-105092857D01*
X83179284Y-105150000D01*
X83136427Y-105264286D01*
X83150712Y-105378571D01*
X83736427Y-105492857D01*
X82086427Y-105092857D02*
X82186427Y-105892857D01*
X82600713Y-105092857D02*
X82679285Y-105721429D01*
X82636427Y-105835714D01*
X82529284Y-105892857D01*
X82357856Y-105892857D01*
X82236427Y-105835714D01*
X82172141Y-105778571D01*
X81614999Y-105892857D02*
X81514999Y-105092857D01*
X81543571Y-105321429D02*
X81472142Y-105207143D01*
X81407856Y-105150000D01*
X81286427Y-105092857D01*
X81172142Y-105092857D01*
X80700713Y-105892857D02*
X80807856Y-105835714D01*
X80857856Y-105778571D01*
X80900714Y-105664286D01*
X80857857Y-105321429D01*
X80786428Y-105207143D01*
X80722142Y-105150000D01*
X80600713Y-105092857D01*
X80429285Y-105092857D01*
X80322142Y-105150000D01*
X80272142Y-105207143D01*
X80229285Y-105321429D01*
X80272142Y-105664286D01*
X80343570Y-105778571D01*
X80407856Y-105835714D01*
X80529285Y-105892857D01*
X80700713Y-105892857D01*
X79686428Y-105092857D02*
X79786428Y-105892857D01*
X79700714Y-105207143D02*
X79636428Y-105150000D01*
X79514999Y-105092857D01*
X79343571Y-105092857D01*
X79236428Y-105150000D01*
X79193571Y-105264286D01*
X79272142Y-105892857D01*
X77836428Y-105835714D02*
X77672142Y-105892857D01*
X77386428Y-105892857D01*
X77264999Y-105835714D01*
X77200713Y-105778571D01*
X77129285Y-105664286D01*
X77114999Y-105550000D01*
X77157856Y-105435714D01*
X77207856Y-105378571D01*
X77315000Y-105321429D01*
X77536428Y-105264286D01*
X77643571Y-105207143D01*
X77693571Y-105150000D01*
X77736428Y-105035714D01*
X77722143Y-104921429D01*
X77650714Y-104807143D01*
X77586428Y-104750000D01*
X77464999Y-104692857D01*
X77179285Y-104692857D01*
X77014999Y-104750000D01*
X76643571Y-105892857D02*
X76543571Y-105092857D01*
X76493571Y-104692857D02*
X76557857Y-104750000D01*
X76507857Y-104807143D01*
X76443571Y-104750000D01*
X76493571Y-104692857D01*
X76507857Y-104807143D01*
X76072142Y-105892857D02*
X75972142Y-105092857D01*
X75986428Y-105207143D02*
X75922142Y-105150000D01*
X75800713Y-105092857D01*
X75629285Y-105092857D01*
X75522142Y-105150000D01*
X75479285Y-105264286D01*
X75557856Y-105892857D01*
X75479285Y-105264286D02*
X75407856Y-105150000D01*
X75286427Y-105092857D01*
X75114999Y-105092857D01*
X75007856Y-105150000D01*
X74964999Y-105264286D01*
X75043570Y-105892857D01*
X73857856Y-105092857D02*
X73957856Y-105892857D01*
X74372142Y-105092857D02*
X74450714Y-105721429D01*
X74407856Y-105835714D01*
X74300713Y-105892857D01*
X74129285Y-105892857D01*
X74007856Y-105835714D01*
X73943570Y-105778571D01*
X73214999Y-105892857D02*
X73322142Y-105835714D01*
X73365000Y-105721429D01*
X73236428Y-104692857D01*
X72243571Y-105892857D02*
X72165000Y-105264286D01*
X72207857Y-105150000D01*
X72315000Y-105092857D01*
X72543571Y-105092857D01*
X72665000Y-105150000D01*
X72236428Y-105835714D02*
X72357857Y-105892857D01*
X72643571Y-105892857D01*
X72750714Y-105835714D01*
X72793572Y-105721429D01*
X72779286Y-105607143D01*
X72707857Y-105492857D01*
X72586428Y-105435714D01*
X72300714Y-105435714D01*
X72179285Y-105378571D01*
X71743571Y-105092857D02*
X71286428Y-105092857D01*
X71522143Y-104692857D02*
X71650715Y-105721429D01*
X71607857Y-105835714D01*
X71500714Y-105892857D01*
X71386428Y-105892857D01*
X70815000Y-105892857D02*
X70922143Y-105835714D01*
X70972143Y-105778571D01*
X71015001Y-105664286D01*
X70972144Y-105321429D01*
X70900715Y-105207143D01*
X70836429Y-105150000D01*
X70715000Y-105092857D01*
X70543572Y-105092857D01*
X70436429Y-105150000D01*
X70386429Y-105207143D01*
X70343572Y-105321429D01*
X70386429Y-105664286D01*
X70457857Y-105778571D01*
X70522143Y-105835714D01*
X70643572Y-105892857D01*
X70815000Y-105892857D01*
X69900715Y-105892857D02*
X69800715Y-105092857D01*
X69829287Y-105321429D02*
X69757858Y-105207143D01*
X69693572Y-105150000D01*
X69572143Y-105092857D01*
X69457858Y-105092857D01*
X84204285Y-106842857D02*
X84204285Y-107642857D01*
X84204285Y-106957143D02*
X84147142Y-106900000D01*
X84032856Y-106842857D01*
X83861428Y-106842857D01*
X83747142Y-106900000D01*
X83689999Y-107014286D01*
X83689999Y-107642857D01*
X82661428Y-107585714D02*
X82775714Y-107642857D01*
X83004285Y-107642857D01*
X83118571Y-107585714D01*
X83175714Y-107471429D01*
X83175714Y-107014286D01*
X83118571Y-106900000D01*
X83004285Y-106842857D01*
X82775714Y-106842857D01*
X82661428Y-106900000D01*
X82604285Y-107014286D01*
X82604285Y-107128571D01*
X83175714Y-107242857D01*
X81575714Y-106842857D02*
X81575714Y-107642857D01*
X82090000Y-106842857D02*
X82090000Y-107471429D01*
X82032857Y-107585714D01*
X81918571Y-107642857D01*
X81747143Y-107642857D01*
X81632857Y-107585714D01*
X81575714Y-107528571D01*
X81004286Y-107642857D02*
X81004286Y-106842857D01*
X81004286Y-107071429D02*
X80947143Y-106957143D01*
X80890000Y-106900000D01*
X80775714Y-106842857D01*
X80661429Y-106842857D01*
X80090000Y-107642857D02*
X80204286Y-107585714D01*
X80261429Y-107528571D01*
X80318572Y-107414286D01*
X80318572Y-107071429D01*
X80261429Y-106957143D01*
X80204286Y-106900000D01*
X80090000Y-106842857D01*
X79918572Y-106842857D01*
X79804286Y-106900000D01*
X79747143Y-106957143D01*
X79690000Y-107071429D01*
X79690000Y-107414286D01*
X79747143Y-107528571D01*
X79804286Y-107585714D01*
X79918572Y-107642857D01*
X80090000Y-107642857D01*
X79347143Y-106842857D02*
X78890000Y-106842857D01*
X79175715Y-106442857D02*
X79175715Y-107471429D01*
X79118572Y-107585714D01*
X79004286Y-107642857D01*
X78890000Y-107642857D01*
X78490001Y-107642857D02*
X78490001Y-106842857D01*
X78490001Y-106442857D02*
X78547144Y-106500000D01*
X78490001Y-106557143D01*
X78432858Y-106500000D01*
X78490001Y-106442857D01*
X78490001Y-106557143D01*
X77918572Y-106842857D02*
X77918572Y-107642857D01*
X77918572Y-106957143D02*
X77861429Y-106900000D01*
X77747143Y-106842857D01*
X77575715Y-106842857D01*
X77461429Y-106900000D01*
X77404286Y-107014286D01*
X77404286Y-107642857D01*
X76832858Y-107642857D02*
X76832858Y-106442857D01*
X76718572Y-107185714D02*
X76375715Y-107642857D01*
X76375715Y-106842857D02*
X76832858Y-107300000D01*
X75404286Y-107585714D02*
X75518572Y-107642857D01*
X75747143Y-107642857D01*
X75861429Y-107585714D01*
X75918572Y-107471429D01*
X75918572Y-107014286D01*
X75861429Y-106900000D01*
X75747143Y-106842857D01*
X75518572Y-106842857D01*
X75404286Y-106900000D01*
X75347143Y-107014286D01*
X75347143Y-107128571D01*
X75918572Y-107242857D01*
X74832858Y-107642857D02*
X74832858Y-106842857D01*
X74832858Y-107071429D02*
X74775715Y-106957143D01*
X74718572Y-106900000D01*
X74604286Y-106842857D01*
X74490001Y-106842857D01*
X74090001Y-107528571D02*
X74032858Y-107585714D01*
X74090001Y-107642857D01*
X74147144Y-107585714D01*
X74090001Y-107528571D01*
X74090001Y-107642857D01*
X73004286Y-107585714D02*
X73118572Y-107642857D01*
X73347143Y-107642857D01*
X73461429Y-107585714D01*
X73518572Y-107528571D01*
X73575715Y-107414286D01*
X73575715Y-107071429D01*
X73518572Y-106957143D01*
X73461429Y-106900000D01*
X73347143Y-106842857D01*
X73118572Y-106842857D01*
X73004286Y-106900000D01*
X72318572Y-107642857D02*
X72432858Y-107585714D01*
X72490001Y-107528571D01*
X72547144Y-107414286D01*
X72547144Y-107071429D01*
X72490001Y-106957143D01*
X72432858Y-106900000D01*
X72318572Y-106842857D01*
X72147144Y-106842857D01*
X72032858Y-106900000D01*
X71975715Y-106957143D01*
X71918572Y-107071429D01*
X71918572Y-107414286D01*
X71975715Y-107528571D01*
X72032858Y-107585714D01*
X72147144Y-107642857D01*
X72318572Y-107642857D01*
X71404287Y-107642857D02*
X71404287Y-106842857D01*
X71404287Y-106957143D02*
X71347144Y-106900000D01*
X71232858Y-106842857D01*
X71061430Y-106842857D01*
X70947144Y-106900000D01*
X70890001Y-107014286D01*
X70890001Y-107642857D01*
X70890001Y-107014286D02*
X70832858Y-106900000D01*
X70718572Y-106842857D01*
X70547144Y-106842857D01*
X70432858Y-106900000D01*
X70375715Y-107014286D01*
X70375715Y-107642857D01*
X84500000Y-97700000D02*
X83928571Y-97700000D01*
X84614285Y-98042857D02*
X84214285Y-96842857D01*
X83814285Y-98042857D01*
X83414286Y-98042857D02*
X83414286Y-96842857D01*
X83128571Y-96842857D01*
X82957143Y-96900000D01*
X82842857Y-97014286D01*
X82785714Y-97128571D01*
X82728571Y-97357143D01*
X82728571Y-97528571D01*
X82785714Y-97757143D01*
X82842857Y-97871429D01*
X82957143Y-97985714D01*
X83128571Y-98042857D01*
X83414286Y-98042857D01*
X81871429Y-96842857D02*
X81871429Y-97700000D01*
X81928571Y-97871429D01*
X82042857Y-97985714D01*
X82214286Y-98042857D01*
X82328571Y-98042857D01*
X81300000Y-96842857D02*
X81300000Y-97814286D01*
X81242857Y-97928571D01*
X81185714Y-97985714D01*
X81071428Y-98042857D01*
X80842857Y-98042857D01*
X80728571Y-97985714D01*
X80671428Y-97928571D01*
X80614285Y-97814286D01*
X80614285Y-96842857D01*
X80100000Y-97985714D02*
X79928571Y-98042857D01*
X79642857Y-98042857D01*
X79528571Y-97985714D01*
X79471428Y-97928571D01*
X79414285Y-97814286D01*
X79414285Y-97700000D01*
X79471428Y-97585714D01*
X79528571Y-97528571D01*
X79642857Y-97471429D01*
X79871428Y-97414286D01*
X79985714Y-97357143D01*
X80042857Y-97300000D01*
X80100000Y-97185714D01*
X80100000Y-97071429D01*
X80042857Y-96957143D01*
X79985714Y-96900000D01*
X79871428Y-96842857D01*
X79585714Y-96842857D01*
X79414285Y-96900000D01*
X79071428Y-96842857D02*
X78385714Y-96842857D01*
X78728571Y-98042857D02*
X78728571Y-96842857D01*
X74421429Y-98042857D02*
X74421429Y-96842857D01*
X74021429Y-97700000D01*
X73621429Y-96842857D01*
X73621429Y-98042857D01*
X72821428Y-96842857D02*
X72592857Y-96842857D01*
X72478571Y-96900000D01*
X72364285Y-97014286D01*
X72307143Y-97242857D01*
X72307143Y-97642857D01*
X72364285Y-97871429D01*
X72478571Y-97985714D01*
X72592857Y-98042857D01*
X72821428Y-98042857D01*
X72935714Y-97985714D01*
X73050000Y-97871429D01*
X73107143Y-97642857D01*
X73107143Y-97242857D01*
X73050000Y-97014286D01*
X72935714Y-96900000D01*
X72821428Y-96842857D01*
X71792857Y-98042857D02*
X71792857Y-96842857D01*
X71507142Y-96842857D01*
X71335714Y-96900000D01*
X71221428Y-97014286D01*
X71164285Y-97128571D01*
X71107142Y-97357143D01*
X71107142Y-97528571D01*
X71164285Y-97757143D01*
X71221428Y-97871429D01*
X71335714Y-97985714D01*
X71507142Y-98042857D01*
X71792857Y-98042857D01*
X70592857Y-97414286D02*
X70192857Y-97414286D01*
X70021428Y-98042857D02*
X70592857Y-98042857D01*
X70592857Y-96842857D01*
X70021428Y-96842857D01*
D12*
G36*
X51899882Y-97750394D02*
X51864305Y-97751740D01*
X51831912Y-97754240D01*
X51805355Y-97757861D01*
X51794782Y-97760162D01*
X51744780Y-97777167D01*
X51703192Y-97799798D01*
X51669861Y-97828213D01*
X51644632Y-97862567D01*
X51627351Y-97903015D01*
X51619755Y-97935926D01*
X51618526Y-97948834D01*
X51617429Y-97971146D01*
X51616477Y-98002102D01*
X51615685Y-98040940D01*
X51615067Y-98086899D01*
X51614636Y-98139218D01*
X51614407Y-98197136D01*
X51614372Y-98229373D01*
X51614334Y-98489879D01*
X51766825Y-98489879D01*
X51766825Y-98430625D01*
X51789516Y-98452367D01*
X51809814Y-98468673D01*
X51832899Y-98480588D01*
X51860467Y-98488578D01*
X51894214Y-98493105D01*
X51935836Y-98494634D01*
X51943997Y-98494628D01*
X51977458Y-98493742D01*
X52006752Y-98491588D01*
X52029367Y-98488374D01*
X52035656Y-98486928D01*
X52078210Y-98470905D01*
X52117172Y-98447329D01*
X52150762Y-98417641D01*
X52177198Y-98383282D01*
X52187509Y-98364087D01*
X52197874Y-98332476D01*
X52203310Y-98295358D01*
X52203585Y-98265106D01*
X52061642Y-98265106D01*
X52057069Y-98292518D01*
X52043501Y-98315387D01*
X52021169Y-98333441D01*
X51993128Y-98345552D01*
X51975352Y-98349055D01*
X51950495Y-98351274D01*
X51921557Y-98352218D01*
X51891541Y-98351895D01*
X51863449Y-98350314D01*
X51840282Y-98347482D01*
X51829717Y-98345104D01*
X51812470Y-98338266D01*
X51797702Y-98329531D01*
X51792899Y-98325381D01*
X51780392Y-98305520D01*
X51771794Y-98277257D01*
X51767379Y-98241683D01*
X51766825Y-98221782D01*
X51766825Y-98178954D01*
X51877382Y-98180654D01*
X51913868Y-98181265D01*
X51941756Y-98181936D01*
X51962612Y-98182833D01*
X51978004Y-98184124D01*
X51989500Y-98185973D01*
X51998666Y-98188548D01*
X52007069Y-98192013D01*
X52013346Y-98195062D01*
X52038626Y-98212115D01*
X52054649Y-98233348D01*
X52061402Y-98258743D01*
X52061642Y-98265106D01*
X52203585Y-98265106D01*
X52203666Y-98256202D01*
X52198794Y-98218473D01*
X52194496Y-98201696D01*
X52176813Y-98160927D01*
X52150962Y-98125515D01*
X52118030Y-98096617D01*
X52079108Y-98075386D01*
X52073384Y-98073144D01*
X52051922Y-98066410D01*
X52026911Y-98061183D01*
X51997037Y-98057334D01*
X51960985Y-98054736D01*
X51917443Y-98053259D01*
X51865095Y-98052776D01*
X51864674Y-98052776D01*
X51766825Y-98052737D01*
X51766833Y-98005719D01*
X51768761Y-97970552D01*
X51775205Y-97943650D01*
X51787179Y-97923735D01*
X51805695Y-97909527D01*
X51831765Y-97899750D01*
X51854587Y-97894935D01*
X51882655Y-97891848D01*
X51913785Y-97891083D01*
X51944873Y-97892475D01*
X51972811Y-97895864D01*
X51994495Y-97901086D01*
X51998065Y-97902443D01*
X52013663Y-97911348D01*
X52029744Y-97924056D01*
X52034593Y-97928815D01*
X52051885Y-97947150D01*
X52110136Y-97902959D01*
X52130889Y-97886913D01*
X52148380Y-97872815D01*
X52161161Y-97861877D01*
X52167785Y-97855310D01*
X52168386Y-97854199D01*
X52164994Y-97848706D01*
X52156002Y-97838249D01*
X52143184Y-97824858D01*
X52139856Y-97821551D01*
X52103632Y-97792699D01*
X52060734Y-97770301D01*
X52020978Y-97757246D01*
X51999191Y-97753630D01*
X51969978Y-97751305D01*
X51935991Y-97750238D01*
X51899882Y-97750394D01*
X51899882Y-97750394D01*
G37*
X51899882Y-97750394D02*
X51864305Y-97751740D01*
X51831912Y-97754240D01*
X51805355Y-97757861D01*
X51794782Y-97760162D01*
X51744780Y-97777167D01*
X51703192Y-97799798D01*
X51669861Y-97828213D01*
X51644632Y-97862567D01*
X51627351Y-97903015D01*
X51619755Y-97935926D01*
X51618526Y-97948834D01*
X51617429Y-97971146D01*
X51616477Y-98002102D01*
X51615685Y-98040940D01*
X51615067Y-98086899D01*
X51614636Y-98139218D01*
X51614407Y-98197136D01*
X51614372Y-98229373D01*
X51614334Y-98489879D01*
X51766825Y-98489879D01*
X51766825Y-98430625D01*
X51789516Y-98452367D01*
X51809814Y-98468673D01*
X51832899Y-98480588D01*
X51860467Y-98488578D01*
X51894214Y-98493105D01*
X51935836Y-98494634D01*
X51943997Y-98494628D01*
X51977458Y-98493742D01*
X52006752Y-98491588D01*
X52029367Y-98488374D01*
X52035656Y-98486928D01*
X52078210Y-98470905D01*
X52117172Y-98447329D01*
X52150762Y-98417641D01*
X52177198Y-98383282D01*
X52187509Y-98364087D01*
X52197874Y-98332476D01*
X52203310Y-98295358D01*
X52203585Y-98265106D01*
X52061642Y-98265106D01*
X52057069Y-98292518D01*
X52043501Y-98315387D01*
X52021169Y-98333441D01*
X51993128Y-98345552D01*
X51975352Y-98349055D01*
X51950495Y-98351274D01*
X51921557Y-98352218D01*
X51891541Y-98351895D01*
X51863449Y-98350314D01*
X51840282Y-98347482D01*
X51829717Y-98345104D01*
X51812470Y-98338266D01*
X51797702Y-98329531D01*
X51792899Y-98325381D01*
X51780392Y-98305520D01*
X51771794Y-98277257D01*
X51767379Y-98241683D01*
X51766825Y-98221782D01*
X51766825Y-98178954D01*
X51877382Y-98180654D01*
X51913868Y-98181265D01*
X51941756Y-98181936D01*
X51962612Y-98182833D01*
X51978004Y-98184124D01*
X51989500Y-98185973D01*
X51998666Y-98188548D01*
X52007069Y-98192013D01*
X52013346Y-98195062D01*
X52038626Y-98212115D01*
X52054649Y-98233348D01*
X52061402Y-98258743D01*
X52061642Y-98265106D01*
X52203585Y-98265106D01*
X52203666Y-98256202D01*
X52198794Y-98218473D01*
X52194496Y-98201696D01*
X52176813Y-98160927D01*
X52150962Y-98125515D01*
X52118030Y-98096617D01*
X52079108Y-98075386D01*
X52073384Y-98073144D01*
X52051922Y-98066410D01*
X52026911Y-98061183D01*
X51997037Y-98057334D01*
X51960985Y-98054736D01*
X51917443Y-98053259D01*
X51865095Y-98052776D01*
X51864674Y-98052776D01*
X51766825Y-98052737D01*
X51766833Y-98005719D01*
X51768761Y-97970552D01*
X51775205Y-97943650D01*
X51787179Y-97923735D01*
X51805695Y-97909527D01*
X51831765Y-97899750D01*
X51854587Y-97894935D01*
X51882655Y-97891848D01*
X51913785Y-97891083D01*
X51944873Y-97892475D01*
X51972811Y-97895864D01*
X51994495Y-97901086D01*
X51998065Y-97902443D01*
X52013663Y-97911348D01*
X52029744Y-97924056D01*
X52034593Y-97928815D01*
X52051885Y-97947150D01*
X52110136Y-97902959D01*
X52130889Y-97886913D01*
X52148380Y-97872815D01*
X52161161Y-97861877D01*
X52167785Y-97855310D01*
X52168386Y-97854199D01*
X52164994Y-97848706D01*
X52156002Y-97838249D01*
X52143184Y-97824858D01*
X52139856Y-97821551D01*
X52103632Y-97792699D01*
X52060734Y-97770301D01*
X52020978Y-97757246D01*
X51999191Y-97753630D01*
X51969978Y-97751305D01*
X51935991Y-97750238D01*
X51899882Y-97750394D01*
G36*
X50379153Y-98489879D02*
X50531644Y-98489879D01*
X50531644Y-98417534D01*
X50551794Y-98435738D01*
X50579450Y-98456248D01*
X50612908Y-98474146D01*
X50647809Y-98487133D01*
X50651096Y-98488043D01*
X50677982Y-98492707D01*
X50710357Y-98494551D01*
X50744229Y-98493653D01*
X50775607Y-98490096D01*
X50797173Y-98485092D01*
X50840594Y-98466021D01*
X50879130Y-98438667D01*
X50911657Y-98404191D01*
X50937051Y-98363754D01*
X50952451Y-98324680D01*
X50954870Y-98313723D01*
X50956883Y-98298009D01*
X50958545Y-98276540D01*
X50959912Y-98248313D01*
X50961040Y-98212328D01*
X50961983Y-98167583D01*
X50962326Y-98146739D01*
X50962546Y-98123900D01*
X50813218Y-98123900D01*
X50813120Y-98157698D01*
X50812588Y-98183457D01*
X50811432Y-98203299D01*
X50809462Y-98219347D01*
X50806488Y-98233725D01*
X50802321Y-98248555D01*
X50801972Y-98249690D01*
X50786856Y-98285764D01*
X50766362Y-98313221D01*
X50740323Y-98332175D01*
X50708573Y-98342737D01*
X50670946Y-98345019D01*
X50661481Y-98344387D01*
X50641310Y-98341582D01*
X50622274Y-98337259D01*
X50613192Y-98334217D01*
X50588534Y-98320065D01*
X50568624Y-98299821D01*
X50553266Y-98272902D01*
X50542262Y-98238724D01*
X50535418Y-98196704D01*
X50532536Y-98146259D01*
X50533070Y-98095943D01*
X50535104Y-98055583D01*
X50538348Y-98023494D01*
X50543228Y-97997811D01*
X50550170Y-97976668D01*
X50559600Y-97958199D01*
X50567107Y-97946963D01*
X50583961Y-97927668D01*
X50603108Y-97914524D01*
X50626675Y-97906651D01*
X50656789Y-97903170D01*
X50673970Y-97902801D01*
X50697499Y-97903078D01*
X50713936Y-97904327D01*
X50726349Y-97907151D01*
X50737804Y-97912151D01*
X50746517Y-97917046D01*
X50766200Y-97930994D01*
X50781881Y-97947963D01*
X50793931Y-97969099D01*
X50802718Y-97995549D01*
X50808612Y-98028458D01*
X50811983Y-98068972D01*
X50813200Y-98118236D01*
X50813218Y-98123900D01*
X50962546Y-98123900D01*
X50962902Y-98087017D01*
X50962488Y-98036319D01*
X50960845Y-97993532D01*
X50957738Y-97957540D01*
X50952930Y-97927232D01*
X50946185Y-97901492D01*
X50937267Y-97879208D01*
X50925938Y-97859264D01*
X50911963Y-97840548D01*
X50895105Y-97821946D01*
X50892902Y-97819693D01*
X50855572Y-97788628D01*
X50814082Y-97766221D01*
X50769685Y-97752528D01*
X50723633Y-97747603D01*
X50677177Y-97751497D01*
X50631570Y-97764266D01*
X50588064Y-97785963D01*
X50560802Y-97805451D01*
X50531644Y-97829200D01*
X50531644Y-97463103D01*
X50379153Y-97463103D01*
X50379153Y-98489879D01*
X50379153Y-98489879D01*
G37*
X50379153Y-98489879D02*
X50531644Y-98489879D01*
X50531644Y-98417534D01*
X50551794Y-98435738D01*
X50579450Y-98456248D01*
X50612908Y-98474146D01*
X50647809Y-98487133D01*
X50651096Y-98488043D01*
X50677982Y-98492707D01*
X50710357Y-98494551D01*
X50744229Y-98493653D01*
X50775607Y-98490096D01*
X50797173Y-98485092D01*
X50840594Y-98466021D01*
X50879130Y-98438667D01*
X50911657Y-98404191D01*
X50937051Y-98363754D01*
X50952451Y-98324680D01*
X50954870Y-98313723D01*
X50956883Y-98298009D01*
X50958545Y-98276540D01*
X50959912Y-98248313D01*
X50961040Y-98212328D01*
X50961983Y-98167583D01*
X50962326Y-98146739D01*
X50962546Y-98123900D01*
X50813218Y-98123900D01*
X50813120Y-98157698D01*
X50812588Y-98183457D01*
X50811432Y-98203299D01*
X50809462Y-98219347D01*
X50806488Y-98233725D01*
X50802321Y-98248555D01*
X50801972Y-98249690D01*
X50786856Y-98285764D01*
X50766362Y-98313221D01*
X50740323Y-98332175D01*
X50708573Y-98342737D01*
X50670946Y-98345019D01*
X50661481Y-98344387D01*
X50641310Y-98341582D01*
X50622274Y-98337259D01*
X50613192Y-98334217D01*
X50588534Y-98320065D01*
X50568624Y-98299821D01*
X50553266Y-98272902D01*
X50542262Y-98238724D01*
X50535418Y-98196704D01*
X50532536Y-98146259D01*
X50533070Y-98095943D01*
X50535104Y-98055583D01*
X50538348Y-98023494D01*
X50543228Y-97997811D01*
X50550170Y-97976668D01*
X50559600Y-97958199D01*
X50567107Y-97946963D01*
X50583961Y-97927668D01*
X50603108Y-97914524D01*
X50626675Y-97906651D01*
X50656789Y-97903170D01*
X50673970Y-97902801D01*
X50697499Y-97903078D01*
X50713936Y-97904327D01*
X50726349Y-97907151D01*
X50737804Y-97912151D01*
X50746517Y-97917046D01*
X50766200Y-97930994D01*
X50781881Y-97947963D01*
X50793931Y-97969099D01*
X50802718Y-97995549D01*
X50808612Y-98028458D01*
X50811983Y-98068972D01*
X50813200Y-98118236D01*
X50813218Y-98123900D01*
X50962546Y-98123900D01*
X50962902Y-98087017D01*
X50962488Y-98036319D01*
X50960845Y-97993532D01*
X50957738Y-97957540D01*
X50952930Y-97927232D01*
X50946185Y-97901492D01*
X50937267Y-97879208D01*
X50925938Y-97859264D01*
X50911963Y-97840548D01*
X50895105Y-97821946D01*
X50892902Y-97819693D01*
X50855572Y-97788628D01*
X50814082Y-97766221D01*
X50769685Y-97752528D01*
X50723633Y-97747603D01*
X50677177Y-97751497D01*
X50631570Y-97764266D01*
X50588064Y-97785963D01*
X50560802Y-97805451D01*
X50531644Y-97829200D01*
X50531644Y-97463103D01*
X50379153Y-97463103D01*
X50379153Y-98489879D01*
G36*
X48950816Y-97749322D02*
X48889611Y-97754702D01*
X48836849Y-97765344D01*
X48792140Y-97781476D01*
X48755094Y-97803327D01*
X48725322Y-97831125D01*
X48702433Y-97865100D01*
X48686376Y-97904378D01*
X48684185Y-97911926D01*
X48682337Y-97919810D01*
X48680804Y-97928923D01*
X48679555Y-97940160D01*
X48678562Y-97954415D01*
X48677795Y-97972582D01*
X48677227Y-97995556D01*
X48676827Y-98024230D01*
X48676566Y-98059499D01*
X48676416Y-98102258D01*
X48676347Y-98153399D01*
X48676331Y-98213389D01*
X48676331Y-98489879D01*
X48823740Y-98489879D01*
X48823740Y-98428159D01*
X48840817Y-98446266D01*
X48855103Y-98458473D01*
X48874018Y-98470942D01*
X48887835Y-98478252D01*
X48900472Y-98483777D01*
X48912043Y-98487665D01*
X48924816Y-98490249D01*
X48941056Y-98491863D01*
X48963030Y-98492838D01*
X48991480Y-98493481D01*
X49027712Y-98493687D01*
X49055684Y-98492724D01*
X49077247Y-98490477D01*
X49093141Y-98487142D01*
X49140370Y-98469765D01*
X49180547Y-98445424D01*
X49201798Y-98427086D01*
X49229531Y-98393366D01*
X49249093Y-98355601D01*
X49260677Y-98315180D01*
X49264478Y-98273491D01*
X49262412Y-98250826D01*
X49120215Y-98250826D01*
X49119947Y-98276370D01*
X49116287Y-98289093D01*
X49104664Y-98311260D01*
X49087869Y-98327842D01*
X49063585Y-98341029D01*
X49059536Y-98342697D01*
X49047826Y-98346794D01*
X49035441Y-98349522D01*
X49020151Y-98351083D01*
X48999728Y-98351678D01*
X48971942Y-98351508D01*
X48963523Y-98351368D01*
X48933626Y-98350623D01*
X48911814Y-98349450D01*
X48896008Y-98347581D01*
X48884129Y-98344753D01*
X48874098Y-98340697D01*
X48872029Y-98339663D01*
X48854879Y-98327685D01*
X48842161Y-98310903D01*
X48833281Y-98287933D01*
X48827644Y-98257392D01*
X48825322Y-98230987D01*
X48822151Y-98178949D01*
X48936043Y-98180774D01*
X48975124Y-98181529D01*
X49005423Y-98182459D01*
X49028325Y-98183671D01*
X49045216Y-98185272D01*
X49057480Y-98187371D01*
X49066501Y-98190074D01*
X49068948Y-98191092D01*
X49094027Y-98206761D01*
X49111346Y-98227148D01*
X49120215Y-98250826D01*
X49262412Y-98250826D01*
X49260689Y-98231924D01*
X49249505Y-98191867D01*
X49231119Y-98154709D01*
X49205725Y-98121840D01*
X49173517Y-98094649D01*
X49153765Y-98083021D01*
X49138119Y-98075497D01*
X49122932Y-98069522D01*
X49106717Y-98064884D01*
X49087983Y-98061370D01*
X49065241Y-98058768D01*
X49037002Y-98056867D01*
X49001777Y-98055452D01*
X48958077Y-98054313D01*
X48951439Y-98054169D01*
X48822444Y-98051407D01*
X48824830Y-98001871D01*
X48826577Y-97975960D01*
X48829228Y-97957564D01*
X48833310Y-97944041D01*
X48838265Y-97934456D01*
X48855432Y-97916224D01*
X48881203Y-97902780D01*
X48915146Y-97894247D01*
X48956834Y-97890749D01*
X48989003Y-97891289D01*
X49027317Y-97895462D01*
X49057524Y-97903952D01*
X49080937Y-97917243D01*
X49094678Y-97930476D01*
X49104566Y-97940019D01*
X49112813Y-97944272D01*
X49114842Y-97944067D01*
X49123063Y-97938898D01*
X49136507Y-97929079D01*
X49153334Y-97916102D01*
X49171706Y-97901458D01*
X49189781Y-97886640D01*
X49205722Y-97873140D01*
X49217687Y-97862450D01*
X49223838Y-97856062D01*
X49224245Y-97855336D01*
X49221945Y-97847644D01*
X49212863Y-97836034D01*
X49198772Y-97822080D01*
X49181444Y-97807359D01*
X49162651Y-97793445D01*
X49144164Y-97781914D01*
X49138045Y-97778709D01*
X49096402Y-97762740D01*
X49048255Y-97752791D01*
X48992895Y-97748752D01*
X48950816Y-97749322D01*
X48950816Y-97749322D01*
G37*
X48950816Y-97749322D02*
X48889611Y-97754702D01*
X48836849Y-97765344D01*
X48792140Y-97781476D01*
X48755094Y-97803327D01*
X48725322Y-97831125D01*
X48702433Y-97865100D01*
X48686376Y-97904378D01*
X48684185Y-97911926D01*
X48682337Y-97919810D01*
X48680804Y-97928923D01*
X48679555Y-97940160D01*
X48678562Y-97954415D01*
X48677795Y-97972582D01*
X48677227Y-97995556D01*
X48676827Y-98024230D01*
X48676566Y-98059499D01*
X48676416Y-98102258D01*
X48676347Y-98153399D01*
X48676331Y-98213389D01*
X48676331Y-98489879D01*
X48823740Y-98489879D01*
X48823740Y-98428159D01*
X48840817Y-98446266D01*
X48855103Y-98458473D01*
X48874018Y-98470942D01*
X48887835Y-98478252D01*
X48900472Y-98483777D01*
X48912043Y-98487665D01*
X48924816Y-98490249D01*
X48941056Y-98491863D01*
X48963030Y-98492838D01*
X48991480Y-98493481D01*
X49027712Y-98493687D01*
X49055684Y-98492724D01*
X49077247Y-98490477D01*
X49093141Y-98487142D01*
X49140370Y-98469765D01*
X49180547Y-98445424D01*
X49201798Y-98427086D01*
X49229531Y-98393366D01*
X49249093Y-98355601D01*
X49260677Y-98315180D01*
X49264478Y-98273491D01*
X49262412Y-98250826D01*
X49120215Y-98250826D01*
X49119947Y-98276370D01*
X49116287Y-98289093D01*
X49104664Y-98311260D01*
X49087869Y-98327842D01*
X49063585Y-98341029D01*
X49059536Y-98342697D01*
X49047826Y-98346794D01*
X49035441Y-98349522D01*
X49020151Y-98351083D01*
X48999728Y-98351678D01*
X48971942Y-98351508D01*
X48963523Y-98351368D01*
X48933626Y-98350623D01*
X48911814Y-98349450D01*
X48896008Y-98347581D01*
X48884129Y-98344753D01*
X48874098Y-98340697D01*
X48872029Y-98339663D01*
X48854879Y-98327685D01*
X48842161Y-98310903D01*
X48833281Y-98287933D01*
X48827644Y-98257392D01*
X48825322Y-98230987D01*
X48822151Y-98178949D01*
X48936043Y-98180774D01*
X48975124Y-98181529D01*
X49005423Y-98182459D01*
X49028325Y-98183671D01*
X49045216Y-98185272D01*
X49057480Y-98187371D01*
X49066501Y-98190074D01*
X49068948Y-98191092D01*
X49094027Y-98206761D01*
X49111346Y-98227148D01*
X49120215Y-98250826D01*
X49262412Y-98250826D01*
X49260689Y-98231924D01*
X49249505Y-98191867D01*
X49231119Y-98154709D01*
X49205725Y-98121840D01*
X49173517Y-98094649D01*
X49153765Y-98083021D01*
X49138119Y-98075497D01*
X49122932Y-98069522D01*
X49106717Y-98064884D01*
X49087983Y-98061370D01*
X49065241Y-98058768D01*
X49037002Y-98056867D01*
X49001777Y-98055452D01*
X48958077Y-98054313D01*
X48951439Y-98054169D01*
X48822444Y-98051407D01*
X48824830Y-98001871D01*
X48826577Y-97975960D01*
X48829228Y-97957564D01*
X48833310Y-97944041D01*
X48838265Y-97934456D01*
X48855432Y-97916224D01*
X48881203Y-97902780D01*
X48915146Y-97894247D01*
X48956834Y-97890749D01*
X48989003Y-97891289D01*
X49027317Y-97895462D01*
X49057524Y-97903952D01*
X49080937Y-97917243D01*
X49094678Y-97930476D01*
X49104566Y-97940019D01*
X49112813Y-97944272D01*
X49114842Y-97944067D01*
X49123063Y-97938898D01*
X49136507Y-97929079D01*
X49153334Y-97916102D01*
X49171706Y-97901458D01*
X49189781Y-97886640D01*
X49205722Y-97873140D01*
X49217687Y-97862450D01*
X49223838Y-97856062D01*
X49224245Y-97855336D01*
X49221945Y-97847644D01*
X49212863Y-97836034D01*
X49198772Y-97822080D01*
X49181444Y-97807359D01*
X49162651Y-97793445D01*
X49144164Y-97781914D01*
X49138045Y-97778709D01*
X49096402Y-97762740D01*
X49048255Y-97752791D01*
X48992895Y-97748752D01*
X48950816Y-97749322D01*
G36*
X47647704Y-97757152D02*
X47596369Y-97774033D01*
X47550070Y-97799229D01*
X47509521Y-97832209D01*
X47475438Y-97872442D01*
X47448534Y-97919396D01*
X47437509Y-97946604D01*
X47432811Y-97960665D01*
X47429299Y-97973744D01*
X47426753Y-97987783D01*
X47424948Y-98004720D01*
X47423664Y-98026494D01*
X47422678Y-98055046D01*
X47422002Y-98081965D01*
X47419740Y-98179813D01*
X47874609Y-98179813D01*
X47871221Y-98208639D01*
X47861755Y-98249199D01*
X47843687Y-98284456D01*
X47817332Y-98313950D01*
X47784256Y-98336556D01*
X47771589Y-98342774D01*
X47759857Y-98346744D01*
X47746193Y-98348959D01*
X47727735Y-98349911D01*
X47705469Y-98350095D01*
X47680516Y-98349849D01*
X47662548Y-98348726D01*
X47648387Y-98346147D01*
X47634857Y-98341533D01*
X47618816Y-98334325D01*
X47598887Y-98323805D01*
X47579915Y-98312009D01*
X47567314Y-98302556D01*
X47555469Y-98293092D01*
X47546226Y-98287351D01*
X47543623Y-98286557D01*
X47537972Y-98289673D01*
X47526622Y-98298024D01*
X47511345Y-98310116D01*
X47493911Y-98324455D01*
X47476091Y-98339546D01*
X47459657Y-98353896D01*
X47446380Y-98366011D01*
X47438032Y-98374396D01*
X47436067Y-98377287D01*
X47439745Y-98383295D01*
X47449474Y-98393770D01*
X47463292Y-98406918D01*
X47479242Y-98420946D01*
X47495363Y-98434060D01*
X47508844Y-98443899D01*
X47525654Y-98453680D01*
X47547801Y-98464564D01*
X47570970Y-98474459D01*
X47574923Y-98475976D01*
X47592382Y-98482256D01*
X47607408Y-98486666D01*
X47622591Y-98489595D01*
X47640519Y-98491432D01*
X47663784Y-98492564D01*
X47690219Y-98493276D01*
X47722511Y-98493729D01*
X47747235Y-98493292D01*
X47766965Y-98491775D01*
X47784276Y-98488989D01*
X47800206Y-98485160D01*
X47852206Y-98466389D01*
X47897545Y-98439961D01*
X47936128Y-98405984D01*
X47967859Y-98364566D01*
X47992641Y-98315813D01*
X48010377Y-98259834D01*
X48012933Y-98248434D01*
X48021861Y-98189541D01*
X48024733Y-98128506D01*
X48021783Y-98067393D01*
X48019668Y-98052737D01*
X47874364Y-98052737D01*
X47572000Y-98052737D01*
X47575497Y-98026370D01*
X47585149Y-97987744D01*
X47602429Y-97954505D01*
X47626164Y-97927420D01*
X47655182Y-97907253D01*
X47688310Y-97894771D01*
X47724376Y-97890739D01*
X47762207Y-97895923D01*
X47771220Y-97898559D01*
X47802335Y-97913769D01*
X47829103Y-97937176D01*
X47850424Y-97967346D01*
X47865197Y-98002841D01*
X47870843Y-98028593D01*
X47874364Y-98052737D01*
X48019668Y-98052737D01*
X48013249Y-98008267D01*
X47999364Y-97953190D01*
X47980364Y-97904228D01*
X47971787Y-97887538D01*
X47954335Y-97861858D01*
X47930890Y-97835227D01*
X47904236Y-97810303D01*
X47877158Y-97789742D01*
X47857497Y-97778428D01*
X47805200Y-97759080D01*
X47750740Y-97749583D01*
X47703359Y-97749116D01*
X47647704Y-97757152D01*
X47647704Y-97757152D01*
G37*
X47647704Y-97757152D02*
X47596369Y-97774033D01*
X47550070Y-97799229D01*
X47509521Y-97832209D01*
X47475438Y-97872442D01*
X47448534Y-97919396D01*
X47437509Y-97946604D01*
X47432811Y-97960665D01*
X47429299Y-97973744D01*
X47426753Y-97987783D01*
X47424948Y-98004720D01*
X47423664Y-98026494D01*
X47422678Y-98055046D01*
X47422002Y-98081965D01*
X47419740Y-98179813D01*
X47874609Y-98179813D01*
X47871221Y-98208639D01*
X47861755Y-98249199D01*
X47843687Y-98284456D01*
X47817332Y-98313950D01*
X47784256Y-98336556D01*
X47771589Y-98342774D01*
X47759857Y-98346744D01*
X47746193Y-98348959D01*
X47727735Y-98349911D01*
X47705469Y-98350095D01*
X47680516Y-98349849D01*
X47662548Y-98348726D01*
X47648387Y-98346147D01*
X47634857Y-98341533D01*
X47618816Y-98334325D01*
X47598887Y-98323805D01*
X47579915Y-98312009D01*
X47567314Y-98302556D01*
X47555469Y-98293092D01*
X47546226Y-98287351D01*
X47543623Y-98286557D01*
X47537972Y-98289673D01*
X47526622Y-98298024D01*
X47511345Y-98310116D01*
X47493911Y-98324455D01*
X47476091Y-98339546D01*
X47459657Y-98353896D01*
X47446380Y-98366011D01*
X47438032Y-98374396D01*
X47436067Y-98377287D01*
X47439745Y-98383295D01*
X47449474Y-98393770D01*
X47463292Y-98406918D01*
X47479242Y-98420946D01*
X47495363Y-98434060D01*
X47508844Y-98443899D01*
X47525654Y-98453680D01*
X47547801Y-98464564D01*
X47570970Y-98474459D01*
X47574923Y-98475976D01*
X47592382Y-98482256D01*
X47607408Y-98486666D01*
X47622591Y-98489595D01*
X47640519Y-98491432D01*
X47663784Y-98492564D01*
X47690219Y-98493276D01*
X47722511Y-98493729D01*
X47747235Y-98493292D01*
X47766965Y-98491775D01*
X47784276Y-98488989D01*
X47800206Y-98485160D01*
X47852206Y-98466389D01*
X47897545Y-98439961D01*
X47936128Y-98405984D01*
X47967859Y-98364566D01*
X47992641Y-98315813D01*
X48010377Y-98259834D01*
X48012933Y-98248434D01*
X48021861Y-98189541D01*
X48024733Y-98128506D01*
X48021783Y-98067393D01*
X48019668Y-98052737D01*
X47874364Y-98052737D01*
X47572000Y-98052737D01*
X47575497Y-98026370D01*
X47585149Y-97987744D01*
X47602429Y-97954505D01*
X47626164Y-97927420D01*
X47655182Y-97907253D01*
X47688310Y-97894771D01*
X47724376Y-97890739D01*
X47762207Y-97895923D01*
X47771220Y-97898559D01*
X47802335Y-97913769D01*
X47829103Y-97937176D01*
X47850424Y-97967346D01*
X47865197Y-98002841D01*
X47870843Y-98028593D01*
X47874364Y-98052737D01*
X48019668Y-98052737D01*
X48013249Y-98008267D01*
X47999364Y-97953190D01*
X47980364Y-97904228D01*
X47971787Y-97887538D01*
X47954335Y-97861858D01*
X47930890Y-97835227D01*
X47904236Y-97810303D01*
X47877158Y-97789742D01*
X47857497Y-97778428D01*
X47805200Y-97759080D01*
X47750740Y-97749583D01*
X47703359Y-97749116D01*
X47647704Y-97757152D01*
G36*
X52490200Y-96606237D02*
X52450816Y-96618943D01*
X52413774Y-96639487D01*
X52403294Y-96646875D01*
X52369018Y-96677129D01*
X52342919Y-96711853D01*
X52324346Y-96752194D01*
X52312647Y-96799301D01*
X52311126Y-96809262D01*
X52309228Y-96829143D01*
X52307746Y-96857171D01*
X52306678Y-96891339D01*
X52306026Y-96929639D01*
X52305790Y-96970066D01*
X52305970Y-97010611D01*
X52306566Y-97049268D01*
X52307578Y-97084029D01*
X52309006Y-97112888D01*
X52310851Y-97133838D01*
X52311100Y-97135726D01*
X52321084Y-97183320D01*
X52337273Y-97223880D01*
X52360576Y-97259052D01*
X52391903Y-97290481D01*
X52400594Y-97297553D01*
X52427444Y-97316457D01*
X52453708Y-97329708D01*
X52482049Y-97338117D01*
X52515130Y-97342492D01*
X52552157Y-97343652D01*
X52578741Y-97343478D01*
X52597917Y-97342661D01*
X52612441Y-97340752D01*
X52625068Y-97337305D01*
X52638555Y-97331875D01*
X52646184Y-97328413D01*
X52671298Y-97315540D01*
X52696424Y-97299710D01*
X52724703Y-97278904D01*
X52731334Y-97273716D01*
X52732755Y-97274427D01*
X52733960Y-97279421D01*
X52734965Y-97289359D01*
X52735786Y-97304901D01*
X52736437Y-97326706D01*
X52736934Y-97355434D01*
X52737292Y-97391747D01*
X52737527Y-97436304D01*
X52737653Y-97489766D01*
X52737688Y-97546747D01*
X52737688Y-97824792D01*
X52716085Y-97806276D01*
X52679715Y-97781274D01*
X52637330Y-97762584D01*
X52591532Y-97751126D01*
X52550433Y-97747754D01*
X52506312Y-97752248D01*
X52462963Y-97765017D01*
X52422188Y-97784991D01*
X52385790Y-97811101D01*
X52355570Y-97842276D01*
X52333911Y-97876251D01*
X52327933Y-97888659D01*
X52322868Y-97900100D01*
X52318638Y-97911509D01*
X52315169Y-97923819D01*
X52312385Y-97937962D01*
X52310210Y-97954872D01*
X52308569Y-97975483D01*
X52307385Y-98000727D01*
X52306584Y-98031539D01*
X52306090Y-98068850D01*
X52305826Y-98113595D01*
X52305717Y-98166707D01*
X52305689Y-98224290D01*
X52305629Y-98489879D01*
X52452247Y-98489879D01*
X52454235Y-98252247D01*
X52454741Y-98193695D01*
X52455277Y-98144368D01*
X52455957Y-98103324D01*
X52456899Y-98069621D01*
X52458217Y-98042319D01*
X52460030Y-98020476D01*
X52462451Y-98003151D01*
X52465599Y-97989402D01*
X52469589Y-97978288D01*
X52474537Y-97968868D01*
X52480560Y-97960201D01*
X52487773Y-97951344D01*
X52491982Y-97946410D01*
X52512284Y-97926136D01*
X52533620Y-97912895D01*
X52558704Y-97905546D01*
X52590248Y-97902948D01*
X52595469Y-97902899D01*
X52619009Y-97903348D01*
X52636067Y-97905298D01*
X52650293Y-97909434D01*
X52664043Y-97915772D01*
X52682492Y-97927874D01*
X52699821Y-97943422D01*
X52705742Y-97950307D01*
X52712829Y-97959881D01*
X52718782Y-97969077D01*
X52723701Y-97978842D01*
X52727684Y-97990125D01*
X52730830Y-98003871D01*
X52733236Y-98021028D01*
X52735003Y-98042543D01*
X52736228Y-98069364D01*
X52737010Y-98102436D01*
X52737449Y-98142709D01*
X52737642Y-98191127D01*
X52737688Y-98248639D01*
X52737688Y-98489879D01*
X52890179Y-98489879D01*
X52890179Y-96972589D01*
X52737511Y-96972589D01*
X52735843Y-97026822D01*
X52730669Y-97072151D01*
X52721736Y-97109305D01*
X52708788Y-97139013D01*
X52691572Y-97162002D01*
X52669835Y-97179002D01*
X52664477Y-97181980D01*
X52636844Y-97191671D01*
X52604427Y-97195642D01*
X52570860Y-97193877D01*
X52539773Y-97186361D01*
X52530547Y-97182555D01*
X52505320Y-97165492D01*
X52484574Y-97140915D01*
X52470813Y-97112658D01*
X52463807Y-97084756D01*
X52458793Y-97049488D01*
X52455815Y-97009463D01*
X52454915Y-96967292D01*
X52456136Y-96925586D01*
X52459523Y-96886955D01*
X52465117Y-96854009D01*
X52466446Y-96848557D01*
X52479424Y-96813542D01*
X52498311Y-96786720D01*
X52523511Y-96767760D01*
X52555427Y-96756330D01*
X52583169Y-96752553D01*
X52620938Y-96752928D01*
X52652805Y-96759588D01*
X52679080Y-96772971D01*
X52700071Y-96793519D01*
X52716087Y-96821670D01*
X52727436Y-96857866D01*
X52734428Y-96902547D01*
X52737371Y-96956153D01*
X52737511Y-96972589D01*
X52890179Y-96972589D01*
X52890179Y-96609151D01*
X52737688Y-96609151D01*
X52737688Y-96675467D01*
X52711002Y-96654259D01*
X52669350Y-96626917D01*
X52624872Y-96609099D01*
X52576801Y-96600570D01*
X52534970Y-96600292D01*
X52490200Y-96606237D01*
X52490200Y-96606237D01*
G37*
X52490200Y-96606237D02*
X52450816Y-96618943D01*
X52413774Y-96639487D01*
X52403294Y-96646875D01*
X52369018Y-96677129D01*
X52342919Y-96711853D01*
X52324346Y-96752194D01*
X52312647Y-96799301D01*
X52311126Y-96809262D01*
X52309228Y-96829143D01*
X52307746Y-96857171D01*
X52306678Y-96891339D01*
X52306026Y-96929639D01*
X52305790Y-96970066D01*
X52305970Y-97010611D01*
X52306566Y-97049268D01*
X52307578Y-97084029D01*
X52309006Y-97112888D01*
X52310851Y-97133838D01*
X52311100Y-97135726D01*
X52321084Y-97183320D01*
X52337273Y-97223880D01*
X52360576Y-97259052D01*
X52391903Y-97290481D01*
X52400594Y-97297553D01*
X52427444Y-97316457D01*
X52453708Y-97329708D01*
X52482049Y-97338117D01*
X52515130Y-97342492D01*
X52552157Y-97343652D01*
X52578741Y-97343478D01*
X52597917Y-97342661D01*
X52612441Y-97340752D01*
X52625068Y-97337305D01*
X52638555Y-97331875D01*
X52646184Y-97328413D01*
X52671298Y-97315540D01*
X52696424Y-97299710D01*
X52724703Y-97278904D01*
X52731334Y-97273716D01*
X52732755Y-97274427D01*
X52733960Y-97279421D01*
X52734965Y-97289359D01*
X52735786Y-97304901D01*
X52736437Y-97326706D01*
X52736934Y-97355434D01*
X52737292Y-97391747D01*
X52737527Y-97436304D01*
X52737653Y-97489766D01*
X52737688Y-97546747D01*
X52737688Y-97824792D01*
X52716085Y-97806276D01*
X52679715Y-97781274D01*
X52637330Y-97762584D01*
X52591532Y-97751126D01*
X52550433Y-97747754D01*
X52506312Y-97752248D01*
X52462963Y-97765017D01*
X52422188Y-97784991D01*
X52385790Y-97811101D01*
X52355570Y-97842276D01*
X52333911Y-97876251D01*
X52327933Y-97888659D01*
X52322868Y-97900100D01*
X52318638Y-97911509D01*
X52315169Y-97923819D01*
X52312385Y-97937962D01*
X52310210Y-97954872D01*
X52308569Y-97975483D01*
X52307385Y-98000727D01*
X52306584Y-98031539D01*
X52306090Y-98068850D01*
X52305826Y-98113595D01*
X52305717Y-98166707D01*
X52305689Y-98224290D01*
X52305629Y-98489879D01*
X52452247Y-98489879D01*
X52454235Y-98252247D01*
X52454741Y-98193695D01*
X52455277Y-98144368D01*
X52455957Y-98103324D01*
X52456899Y-98069621D01*
X52458217Y-98042319D01*
X52460030Y-98020476D01*
X52462451Y-98003151D01*
X52465599Y-97989402D01*
X52469589Y-97978288D01*
X52474537Y-97968868D01*
X52480560Y-97960201D01*
X52487773Y-97951344D01*
X52491982Y-97946410D01*
X52512284Y-97926136D01*
X52533620Y-97912895D01*
X52558704Y-97905546D01*
X52590248Y-97902948D01*
X52595469Y-97902899D01*
X52619009Y-97903348D01*
X52636067Y-97905298D01*
X52650293Y-97909434D01*
X52664043Y-97915772D01*
X52682492Y-97927874D01*
X52699821Y-97943422D01*
X52705742Y-97950307D01*
X52712829Y-97959881D01*
X52718782Y-97969077D01*
X52723701Y-97978842D01*
X52727684Y-97990125D01*
X52730830Y-98003871D01*
X52733236Y-98021028D01*
X52735003Y-98042543D01*
X52736228Y-98069364D01*
X52737010Y-98102436D01*
X52737449Y-98142709D01*
X52737642Y-98191127D01*
X52737688Y-98248639D01*
X52737688Y-98489879D01*
X52890179Y-98489879D01*
X52890179Y-96972589D01*
X52737511Y-96972589D01*
X52735843Y-97026822D01*
X52730669Y-97072151D01*
X52721736Y-97109305D01*
X52708788Y-97139013D01*
X52691572Y-97162002D01*
X52669835Y-97179002D01*
X52664477Y-97181980D01*
X52636844Y-97191671D01*
X52604427Y-97195642D01*
X52570860Y-97193877D01*
X52539773Y-97186361D01*
X52530547Y-97182555D01*
X52505320Y-97165492D01*
X52484574Y-97140915D01*
X52470813Y-97112658D01*
X52463807Y-97084756D01*
X52458793Y-97049488D01*
X52455815Y-97009463D01*
X52454915Y-96967292D01*
X52456136Y-96925586D01*
X52459523Y-96886955D01*
X52465117Y-96854009D01*
X52466446Y-96848557D01*
X52479424Y-96813542D01*
X52498311Y-96786720D01*
X52523511Y-96767760D01*
X52555427Y-96756330D01*
X52583169Y-96752553D01*
X52620938Y-96752928D01*
X52652805Y-96759588D01*
X52679080Y-96772971D01*
X52700071Y-96793519D01*
X52716087Y-96821670D01*
X52727436Y-96857866D01*
X52734428Y-96902547D01*
X52737371Y-96956153D01*
X52737511Y-96972589D01*
X52890179Y-96972589D01*
X52890179Y-96609151D01*
X52737688Y-96609151D01*
X52737688Y-96675467D01*
X52711002Y-96654259D01*
X52669350Y-96626917D01*
X52624872Y-96609099D01*
X52576801Y-96600570D01*
X52534970Y-96600292D01*
X52490200Y-96606237D01*
G36*
X51075261Y-97752526D02*
X51032161Y-97764282D01*
X50992826Y-97783894D01*
X50976456Y-97795592D01*
X50962592Y-97806646D01*
X51017202Y-97871375D01*
X51071811Y-97936103D01*
X51085108Y-97927351D01*
X51109343Y-97913274D01*
X51131692Y-97905179D01*
X51156953Y-97901392D01*
X51160208Y-97901160D01*
X51198725Y-97903050D01*
X51232619Y-97913816D01*
X51261352Y-97933157D01*
X51284386Y-97960771D01*
X51292508Y-97975324D01*
X51306809Y-98004448D01*
X51308352Y-98247164D01*
X51309895Y-98489879D01*
X51461842Y-98489879D01*
X51461842Y-97757920D01*
X51309351Y-97757920D01*
X51309351Y-97830378D01*
X51286119Y-97808964D01*
X51250386Y-97782565D01*
X51209688Y-97763647D01*
X51165770Y-97752284D01*
X51120379Y-97748552D01*
X51075261Y-97752526D01*
X51075261Y-97752526D01*
G37*
X51075261Y-97752526D02*
X51032161Y-97764282D01*
X50992826Y-97783894D01*
X50976456Y-97795592D01*
X50962592Y-97806646D01*
X51017202Y-97871375D01*
X51071811Y-97936103D01*
X51085108Y-97927351D01*
X51109343Y-97913274D01*
X51131692Y-97905179D01*
X51156953Y-97901392D01*
X51160208Y-97901160D01*
X51198725Y-97903050D01*
X51232619Y-97913816D01*
X51261352Y-97933157D01*
X51284386Y-97960771D01*
X51292508Y-97975324D01*
X51306809Y-98004448D01*
X51308352Y-98247164D01*
X51309895Y-98489879D01*
X51461842Y-98489879D01*
X51461842Y-97757920D01*
X51309351Y-97757920D01*
X51309351Y-97830378D01*
X51286119Y-97808964D01*
X51250386Y-97782565D01*
X51209688Y-97763647D01*
X51165770Y-97752284D01*
X51120379Y-97748552D01*
X51075261Y-97752526D01*
G36*
X49788253Y-97759028D02*
X49731768Y-97760462D01*
X49651298Y-98009167D01*
X49635727Y-98057245D01*
X49621102Y-98102309D01*
X49607720Y-98143448D01*
X49595879Y-98179756D01*
X49585875Y-98210321D01*
X49578006Y-98234236D01*
X49572569Y-98250592D01*
X49569861Y-98258479D01*
X49569617Y-98259068D01*
X49568092Y-98254550D01*
X49564164Y-98241132D01*
X49558088Y-98219725D01*
X49550119Y-98191242D01*
X49540508Y-98156595D01*
X49529510Y-98116697D01*
X49517380Y-98072459D01*
X49504369Y-98024794D01*
X49500096Y-98009092D01*
X49431785Y-97757920D01*
X49351417Y-97757920D01*
X49324131Y-97757996D01*
X49300819Y-97758206D01*
X49283190Y-97758522D01*
X49272956Y-97758917D01*
X49271075Y-97759191D01*
X49272586Y-97764116D01*
X49276953Y-97777973D01*
X49283935Y-97800010D01*
X49293293Y-97829477D01*
X49304789Y-97865620D01*
X49318183Y-97907688D01*
X49333235Y-97954930D01*
X49349707Y-98006594D01*
X49367360Y-98061928D01*
X49385953Y-98120180D01*
X49387141Y-98123900D01*
X49503180Y-98487338D01*
X49636612Y-98490172D01*
X49650231Y-98445549D01*
X49654654Y-98430972D01*
X49661604Y-98407958D01*
X49670689Y-98377808D01*
X49681516Y-98341826D01*
X49693696Y-98301311D01*
X49706836Y-98257565D01*
X49720545Y-98211891D01*
X49726355Y-98192521D01*
X49739549Y-98148639D01*
X49751825Y-98108016D01*
X49762883Y-98071631D01*
X49772422Y-98040466D01*
X49780140Y-98015502D01*
X49785738Y-97997719D01*
X49788913Y-97988099D01*
X49789532Y-97986657D01*
X49791080Y-97991877D01*
X49795274Y-98005910D01*
X49801835Y-98027833D01*
X49810488Y-98056722D01*
X49820956Y-98091654D01*
X49832961Y-98131703D01*
X49846228Y-98175947D01*
X49860479Y-98223463D01*
X49864920Y-98238268D01*
X49939637Y-98487338D01*
X50006639Y-98488754D01*
X50073641Y-98490171D01*
X50094171Y-98425216D01*
X50099459Y-98408542D01*
X50107499Y-98383264D01*
X50117949Y-98350461D01*
X50130464Y-98311211D01*
X50144698Y-98266594D01*
X50160309Y-98217689D01*
X50176952Y-98165574D01*
X50194283Y-98111328D01*
X50210573Y-98060362D01*
X50306446Y-97760462D01*
X50227542Y-97759057D01*
X50197059Y-97758829D01*
X50172538Y-97759282D01*
X50155254Y-97760363D01*
X50146482Y-97762016D01*
X50145715Y-97762589D01*
X50143848Y-97768334D01*
X50139605Y-97782939D01*
X50133249Y-97805447D01*
X50125047Y-97834902D01*
X50115263Y-97870345D01*
X50104162Y-97910821D01*
X50092010Y-97955373D01*
X50079070Y-98003044D01*
X50076711Y-98011757D01*
X50063695Y-98059680D01*
X50051429Y-98104485D01*
X50040174Y-98145241D01*
X50030193Y-98181016D01*
X50021748Y-98210879D01*
X50015099Y-98233898D01*
X50010509Y-98249144D01*
X50008240Y-98255684D01*
X50008090Y-98255865D01*
X50005839Y-98251220D01*
X50001027Y-98238330D01*
X49994159Y-98218641D01*
X49985736Y-98193601D01*
X49976261Y-98164660D01*
X49974130Y-98158051D01*
X49964077Y-98126826D01*
X49951666Y-98088331D01*
X49937673Y-98044967D01*
X49922872Y-97999136D01*
X49908040Y-97953239D01*
X49893950Y-97909676D01*
X49893724Y-97908978D01*
X49844737Y-97757594D01*
X49788253Y-97759028D01*
X49788253Y-97759028D01*
G37*
X49788253Y-97759028D02*
X49731768Y-97760462D01*
X49651298Y-98009167D01*
X49635727Y-98057245D01*
X49621102Y-98102309D01*
X49607720Y-98143448D01*
X49595879Y-98179756D01*
X49585875Y-98210321D01*
X49578006Y-98234236D01*
X49572569Y-98250592D01*
X49569861Y-98258479D01*
X49569617Y-98259068D01*
X49568092Y-98254550D01*
X49564164Y-98241132D01*
X49558088Y-98219725D01*
X49550119Y-98191242D01*
X49540508Y-98156595D01*
X49529510Y-98116697D01*
X49517380Y-98072459D01*
X49504369Y-98024794D01*
X49500096Y-98009092D01*
X49431785Y-97757920D01*
X49351417Y-97757920D01*
X49324131Y-97757996D01*
X49300819Y-97758206D01*
X49283190Y-97758522D01*
X49272956Y-97758917D01*
X49271075Y-97759191D01*
X49272586Y-97764116D01*
X49276953Y-97777973D01*
X49283935Y-97800010D01*
X49293293Y-97829477D01*
X49304789Y-97865620D01*
X49318183Y-97907688D01*
X49333235Y-97954930D01*
X49349707Y-98006594D01*
X49367360Y-98061928D01*
X49385953Y-98120180D01*
X49387141Y-98123900D01*
X49503180Y-98487338D01*
X49636612Y-98490172D01*
X49650231Y-98445549D01*
X49654654Y-98430972D01*
X49661604Y-98407958D01*
X49670689Y-98377808D01*
X49681516Y-98341826D01*
X49693696Y-98301311D01*
X49706836Y-98257565D01*
X49720545Y-98211891D01*
X49726355Y-98192521D01*
X49739549Y-98148639D01*
X49751825Y-98108016D01*
X49762883Y-98071631D01*
X49772422Y-98040466D01*
X49780140Y-98015502D01*
X49785738Y-97997719D01*
X49788913Y-97988099D01*
X49789532Y-97986657D01*
X49791080Y-97991877D01*
X49795274Y-98005910D01*
X49801835Y-98027833D01*
X49810488Y-98056722D01*
X49820956Y-98091654D01*
X49832961Y-98131703D01*
X49846228Y-98175947D01*
X49860479Y-98223463D01*
X49864920Y-98238268D01*
X49939637Y-98487338D01*
X50006639Y-98488754D01*
X50073641Y-98490171D01*
X50094171Y-98425216D01*
X50099459Y-98408542D01*
X50107499Y-98383264D01*
X50117949Y-98350461D01*
X50130464Y-98311211D01*
X50144698Y-98266594D01*
X50160309Y-98217689D01*
X50176952Y-98165574D01*
X50194283Y-98111328D01*
X50210573Y-98060362D01*
X50306446Y-97760462D01*
X50227542Y-97759057D01*
X50197059Y-97758829D01*
X50172538Y-97759282D01*
X50155254Y-97760363D01*
X50146482Y-97762016D01*
X50145715Y-97762589D01*
X50143848Y-97768334D01*
X50139605Y-97782939D01*
X50133249Y-97805447D01*
X50125047Y-97834902D01*
X50115263Y-97870345D01*
X50104162Y-97910821D01*
X50092010Y-97955373D01*
X50079070Y-98003044D01*
X50076711Y-98011757D01*
X50063695Y-98059680D01*
X50051429Y-98104485D01*
X50040174Y-98145241D01*
X50030193Y-98181016D01*
X50021748Y-98210879D01*
X50015099Y-98233898D01*
X50010509Y-98249144D01*
X50008240Y-98255684D01*
X50008090Y-98255865D01*
X50005839Y-98251220D01*
X50001027Y-98238330D01*
X49994159Y-98218641D01*
X49985736Y-98193601D01*
X49976261Y-98164660D01*
X49974130Y-98158051D01*
X49964077Y-98126826D01*
X49951666Y-98088331D01*
X49937673Y-98044967D01*
X49922872Y-97999136D01*
X49908040Y-97953239D01*
X49893950Y-97909676D01*
X49893724Y-97908978D01*
X49844737Y-97757594D01*
X49788253Y-97759028D01*
G36*
X48143678Y-97750676D02*
X48120720Y-97755336D01*
X48092904Y-97764368D01*
X48065383Y-97776369D01*
X48041967Y-97789559D01*
X48032092Y-97796780D01*
X48020790Y-97806209D01*
X48074369Y-97869747D01*
X48092532Y-97891044D01*
X48108496Y-97909305D01*
X48121094Y-97923231D01*
X48129161Y-97931525D01*
X48131467Y-97933285D01*
X48137408Y-97930860D01*
X48149146Y-97924584D01*
X48160402Y-97918036D01*
X48174150Y-97910396D01*
X48186257Y-97905842D01*
X48200208Y-97903605D01*
X48219491Y-97902915D01*
X48229023Y-97902899D01*
X48261828Y-97904941D01*
X48287771Y-97911622D01*
X48309523Y-97924055D01*
X48329760Y-97943358D01*
X48331914Y-97945838D01*
X48339483Y-97954918D01*
X48345851Y-97963604D01*
X48351120Y-97972831D01*
X48355395Y-97983530D01*
X48358779Y-97996634D01*
X48361377Y-98013076D01*
X48363291Y-98033789D01*
X48364627Y-98059705D01*
X48365489Y-98091757D01*
X48365979Y-98130878D01*
X48366203Y-98178000D01*
X48366263Y-98234056D01*
X48366265Y-98254101D01*
X48366265Y-98489879D01*
X48518757Y-98489879D01*
X48518757Y-97757920D01*
X48366265Y-97757920D01*
X48366265Y-97830667D01*
X48344662Y-97809227D01*
X48312847Y-97784377D01*
X48274669Y-97765575D01*
X48232301Y-97753342D01*
X48187913Y-97748202D01*
X48143678Y-97750676D01*
X48143678Y-97750676D01*
G37*
X48143678Y-97750676D02*
X48120720Y-97755336D01*
X48092904Y-97764368D01*
X48065383Y-97776369D01*
X48041967Y-97789559D01*
X48032092Y-97796780D01*
X48020790Y-97806209D01*
X48074369Y-97869747D01*
X48092532Y-97891044D01*
X48108496Y-97909305D01*
X48121094Y-97923231D01*
X48129161Y-97931525D01*
X48131467Y-97933285D01*
X48137408Y-97930860D01*
X48149146Y-97924584D01*
X48160402Y-97918036D01*
X48174150Y-97910396D01*
X48186257Y-97905842D01*
X48200208Y-97903605D01*
X48219491Y-97902915D01*
X48229023Y-97902899D01*
X48261828Y-97904941D01*
X48287771Y-97911622D01*
X48309523Y-97924055D01*
X48329760Y-97943358D01*
X48331914Y-97945838D01*
X48339483Y-97954918D01*
X48345851Y-97963604D01*
X48351120Y-97972831D01*
X48355395Y-97983530D01*
X48358779Y-97996634D01*
X48361377Y-98013076D01*
X48363291Y-98033789D01*
X48364627Y-98059705D01*
X48365489Y-98091757D01*
X48365979Y-98130878D01*
X48366203Y-98178000D01*
X48366263Y-98234056D01*
X48366265Y-98254101D01*
X48366265Y-98489879D01*
X48518757Y-98489879D01*
X48518757Y-97757920D01*
X48366265Y-97757920D01*
X48366265Y-97830667D01*
X48344662Y-97809227D01*
X48312847Y-97784377D01*
X48274669Y-97765575D01*
X48232301Y-97753342D01*
X48187913Y-97748202D01*
X48143678Y-97750676D01*
G36*
X53280314Y-96601876D02*
X53256322Y-96603082D01*
X53237718Y-96605381D01*
X53222120Y-96609010D01*
X53215495Y-96611125D01*
X53178773Y-96625594D01*
X53148245Y-96642317D01*
X53119940Y-96663644D01*
X53106805Y-96675430D01*
X53080820Y-96701903D01*
X53059763Y-96728742D01*
X53043189Y-96757339D01*
X53030650Y-96789083D01*
X53021702Y-96825364D01*
X53015896Y-96867573D01*
X53012787Y-96917100D01*
X53011925Y-96970872D01*
X53012379Y-97018575D01*
X53013892Y-97057917D01*
X53016654Y-97090667D01*
X53020858Y-97118595D01*
X53026695Y-97143467D01*
X53032713Y-97162475D01*
X53052905Y-97205285D01*
X53081500Y-97244790D01*
X53116914Y-97279588D01*
X53157563Y-97308276D01*
X53201864Y-97329450D01*
X53231268Y-97338378D01*
X53259124Y-97342846D01*
X53292943Y-97345128D01*
X53328887Y-97345231D01*
X53363120Y-97343160D01*
X53391802Y-97338920D01*
X53395206Y-97338142D01*
X53440132Y-97322389D01*
X53482711Y-97298172D01*
X53521285Y-97266980D01*
X53554194Y-97230298D01*
X53579778Y-97189615D01*
X53591530Y-97162196D01*
X53598678Y-97139211D01*
X53604073Y-97115105D01*
X53607864Y-97088231D01*
X53610199Y-97056943D01*
X53611227Y-97019594D01*
X53611111Y-96978894D01*
X53463127Y-96978894D01*
X53462025Y-97012873D01*
X53459665Y-97045213D01*
X53456198Y-97073562D01*
X53451778Y-97095566D01*
X53448658Y-97104915D01*
X53429701Y-97138468D01*
X53405569Y-97163986D01*
X53388956Y-97175073D01*
X53352661Y-97190414D01*
X53317151Y-97196037D01*
X53281103Y-97191967D01*
X53243194Y-97178228D01*
X53242219Y-97177764D01*
X53215517Y-97161336D01*
X53194742Y-97139578D01*
X53177893Y-97110307D01*
X53175487Y-97104915D01*
X53170557Y-97087970D01*
X53166487Y-97063236D01*
X53163429Y-97033067D01*
X53161537Y-96999816D01*
X53160961Y-96965834D01*
X53161856Y-96933476D01*
X53163200Y-96915434D01*
X53169650Y-96871391D01*
X53180008Y-96835715D01*
X53194953Y-96807138D01*
X53215163Y-96784388D01*
X53241315Y-96766194D01*
X53243451Y-96765023D01*
X53255485Y-96759547D01*
X53268723Y-96756205D01*
X53286091Y-96754527D01*
X53310518Y-96754047D01*
X53312073Y-96754046D01*
X53336958Y-96754476D01*
X53354628Y-96756078D01*
X53368012Y-96759320D01*
X53380036Y-96764670D01*
X53380694Y-96765023D01*
X53407301Y-96782937D01*
X53427917Y-96805316D01*
X53443220Y-96833430D01*
X53453887Y-96868550D01*
X53460596Y-96911947D01*
X53460946Y-96915434D01*
X53462818Y-96945630D01*
X53463127Y-96978894D01*
X53611111Y-96978894D01*
X53611098Y-96974539D01*
X53610682Y-96950360D01*
X53609524Y-96906857D01*
X53607846Y-96871720D01*
X53605350Y-96843151D01*
X53601742Y-96819352D01*
X53596725Y-96798526D01*
X53590002Y-96778874D01*
X53581277Y-96758600D01*
X53577913Y-96751476D01*
X53565306Y-96730930D01*
X53546575Y-96707366D01*
X53524115Y-96683223D01*
X53500319Y-96660939D01*
X53477582Y-96642954D01*
X53462023Y-96633428D01*
X53434962Y-96620698D01*
X53411212Y-96611794D01*
X53387767Y-96606076D01*
X53361619Y-96602906D01*
X53329763Y-96601643D01*
X53312073Y-96601526D01*
X53280314Y-96601876D01*
X53280314Y-96601876D01*
G37*
X53280314Y-96601876D02*
X53256322Y-96603082D01*
X53237718Y-96605381D01*
X53222120Y-96609010D01*
X53215495Y-96611125D01*
X53178773Y-96625594D01*
X53148245Y-96642317D01*
X53119940Y-96663644D01*
X53106805Y-96675430D01*
X53080820Y-96701903D01*
X53059763Y-96728742D01*
X53043189Y-96757339D01*
X53030650Y-96789083D01*
X53021702Y-96825364D01*
X53015896Y-96867573D01*
X53012787Y-96917100D01*
X53011925Y-96970872D01*
X53012379Y-97018575D01*
X53013892Y-97057917D01*
X53016654Y-97090667D01*
X53020858Y-97118595D01*
X53026695Y-97143467D01*
X53032713Y-97162475D01*
X53052905Y-97205285D01*
X53081500Y-97244790D01*
X53116914Y-97279588D01*
X53157563Y-97308276D01*
X53201864Y-97329450D01*
X53231268Y-97338378D01*
X53259124Y-97342846D01*
X53292943Y-97345128D01*
X53328887Y-97345231D01*
X53363120Y-97343160D01*
X53391802Y-97338920D01*
X53395206Y-97338142D01*
X53440132Y-97322389D01*
X53482711Y-97298172D01*
X53521285Y-97266980D01*
X53554194Y-97230298D01*
X53579778Y-97189615D01*
X53591530Y-97162196D01*
X53598678Y-97139211D01*
X53604073Y-97115105D01*
X53607864Y-97088231D01*
X53610199Y-97056943D01*
X53611227Y-97019594D01*
X53611111Y-96978894D01*
X53463127Y-96978894D01*
X53462025Y-97012873D01*
X53459665Y-97045213D01*
X53456198Y-97073562D01*
X53451778Y-97095566D01*
X53448658Y-97104915D01*
X53429701Y-97138468D01*
X53405569Y-97163986D01*
X53388956Y-97175073D01*
X53352661Y-97190414D01*
X53317151Y-97196037D01*
X53281103Y-97191967D01*
X53243194Y-97178228D01*
X53242219Y-97177764D01*
X53215517Y-97161336D01*
X53194742Y-97139578D01*
X53177893Y-97110307D01*
X53175487Y-97104915D01*
X53170557Y-97087970D01*
X53166487Y-97063236D01*
X53163429Y-97033067D01*
X53161537Y-96999816D01*
X53160961Y-96965834D01*
X53161856Y-96933476D01*
X53163200Y-96915434D01*
X53169650Y-96871391D01*
X53180008Y-96835715D01*
X53194953Y-96807138D01*
X53215163Y-96784388D01*
X53241315Y-96766194D01*
X53243451Y-96765023D01*
X53255485Y-96759547D01*
X53268723Y-96756205D01*
X53286091Y-96754527D01*
X53310518Y-96754047D01*
X53312073Y-96754046D01*
X53336958Y-96754476D01*
X53354628Y-96756078D01*
X53368012Y-96759320D01*
X53380036Y-96764670D01*
X53380694Y-96765023D01*
X53407301Y-96782937D01*
X53427917Y-96805316D01*
X53443220Y-96833430D01*
X53453887Y-96868550D01*
X53460596Y-96911947D01*
X53460946Y-96915434D01*
X53462818Y-96945630D01*
X53463127Y-96978894D01*
X53611111Y-96978894D01*
X53611098Y-96974539D01*
X53610682Y-96950360D01*
X53609524Y-96906857D01*
X53607846Y-96871720D01*
X53605350Y-96843151D01*
X53601742Y-96819352D01*
X53596725Y-96798526D01*
X53590002Y-96778874D01*
X53581277Y-96758600D01*
X53577913Y-96751476D01*
X53565306Y-96730930D01*
X53546575Y-96707366D01*
X53524115Y-96683223D01*
X53500319Y-96660939D01*
X53477582Y-96642954D01*
X53462023Y-96633428D01*
X53434962Y-96620698D01*
X53411212Y-96611794D01*
X53387767Y-96606076D01*
X53361619Y-96602906D01*
X53329763Y-96601643D01*
X53312073Y-96601526D01*
X53280314Y-96601876D01*
G36*
X51868391Y-96601464D02*
X51817892Y-96610769D01*
X51771857Y-96628618D01*
X51729239Y-96655399D01*
X51695201Y-96685193D01*
X51666959Y-96716421D01*
X51644673Y-96748760D01*
X51627824Y-96783746D01*
X51615894Y-96822917D01*
X51608363Y-96867808D01*
X51604712Y-96919956D01*
X51604168Y-96954584D01*
X51604168Y-97031044D01*
X52057982Y-97031044D01*
X52055008Y-97059850D01*
X52049729Y-97085438D01*
X52039855Y-97112272D01*
X52026933Y-97137152D01*
X52012510Y-97156881D01*
X52004424Y-97164434D01*
X51980674Y-97181160D01*
X51959697Y-97192041D01*
X51937983Y-97198215D01*
X51912022Y-97200823D01*
X51891360Y-97201147D01*
X51853303Y-97199171D01*
X51821601Y-97192841D01*
X51792998Y-97181110D01*
X51764235Y-97162928D01*
X51757827Y-97158161D01*
X51743503Y-97147758D01*
X51732163Y-97140416D01*
X51726470Y-97137788D01*
X51720988Y-97140926D01*
X51709811Y-97149338D01*
X51694698Y-97161521D01*
X51677403Y-97175973D01*
X51659682Y-97191189D01*
X51643292Y-97205668D01*
X51629989Y-97217906D01*
X51621528Y-97226401D01*
X51619417Y-97229413D01*
X51623282Y-97235775D01*
X51633617Y-97246344D01*
X51648531Y-97259545D01*
X51666135Y-97273800D01*
X51684537Y-97287534D01*
X51701849Y-97299169D01*
X51706269Y-97301851D01*
X51735318Y-97317559D01*
X51762820Y-97328950D01*
X51791482Y-97336701D01*
X51824009Y-97341492D01*
X51863111Y-97344001D01*
X51876111Y-97344399D01*
X51907779Y-97344905D01*
X51932011Y-97344467D01*
X51951508Y-97342880D01*
X51968973Y-97339940D01*
X51984371Y-97336189D01*
X52036128Y-97317621D01*
X52081149Y-97291561D01*
X52119541Y-97257893D01*
X52151413Y-97216505D01*
X52176874Y-97167282D01*
X52194746Y-97114914D01*
X52198734Y-97099096D01*
X52201653Y-97083815D01*
X52203664Y-97067060D01*
X52204924Y-97046824D01*
X52205596Y-97021095D01*
X52205837Y-96987864D01*
X52205849Y-96975131D01*
X52205718Y-96939146D01*
X52205215Y-96911319D01*
X52204864Y-96903968D01*
X52057975Y-96903968D01*
X51755505Y-96903968D01*
X51759026Y-96879823D01*
X51768605Y-96842477D01*
X51785232Y-96809003D01*
X51807698Y-96780967D01*
X51834796Y-96759937D01*
X51859985Y-96748911D01*
X51899059Y-96742088D01*
X51936268Y-96744641D01*
X51970459Y-96755806D01*
X52000478Y-96774817D01*
X52025172Y-96800911D01*
X52043387Y-96833322D01*
X52053971Y-96871285D01*
X52054919Y-96878160D01*
X52057975Y-96903968D01*
X52204864Y-96903968D01*
X52204180Y-96889643D01*
X52202452Y-96872112D01*
X52199870Y-96856719D01*
X52196273Y-96841457D01*
X52194626Y-96835347D01*
X52174410Y-96776974D01*
X52148281Y-96726751D01*
X52116334Y-96684759D01*
X52078666Y-96651082D01*
X52035370Y-96625804D01*
X51986544Y-96609006D01*
X51932283Y-96600773D01*
X51924400Y-96600316D01*
X51868391Y-96601464D01*
X51868391Y-96601464D01*
G37*
X51868391Y-96601464D02*
X51817892Y-96610769D01*
X51771857Y-96628618D01*
X51729239Y-96655399D01*
X51695201Y-96685193D01*
X51666959Y-96716421D01*
X51644673Y-96748760D01*
X51627824Y-96783746D01*
X51615894Y-96822917D01*
X51608363Y-96867808D01*
X51604712Y-96919956D01*
X51604168Y-96954584D01*
X51604168Y-97031044D01*
X52057982Y-97031044D01*
X52055008Y-97059850D01*
X52049729Y-97085438D01*
X52039855Y-97112272D01*
X52026933Y-97137152D01*
X52012510Y-97156881D01*
X52004424Y-97164434D01*
X51980674Y-97181160D01*
X51959697Y-97192041D01*
X51937983Y-97198215D01*
X51912022Y-97200823D01*
X51891360Y-97201147D01*
X51853303Y-97199171D01*
X51821601Y-97192841D01*
X51792998Y-97181110D01*
X51764235Y-97162928D01*
X51757827Y-97158161D01*
X51743503Y-97147758D01*
X51732163Y-97140416D01*
X51726470Y-97137788D01*
X51720988Y-97140926D01*
X51709811Y-97149338D01*
X51694698Y-97161521D01*
X51677403Y-97175973D01*
X51659682Y-97191189D01*
X51643292Y-97205668D01*
X51629989Y-97217906D01*
X51621528Y-97226401D01*
X51619417Y-97229413D01*
X51623282Y-97235775D01*
X51633617Y-97246344D01*
X51648531Y-97259545D01*
X51666135Y-97273800D01*
X51684537Y-97287534D01*
X51701849Y-97299169D01*
X51706269Y-97301851D01*
X51735318Y-97317559D01*
X51762820Y-97328950D01*
X51791482Y-97336701D01*
X51824009Y-97341492D01*
X51863111Y-97344001D01*
X51876111Y-97344399D01*
X51907779Y-97344905D01*
X51932011Y-97344467D01*
X51951508Y-97342880D01*
X51968973Y-97339940D01*
X51984371Y-97336189D01*
X52036128Y-97317621D01*
X52081149Y-97291561D01*
X52119541Y-97257893D01*
X52151413Y-97216505D01*
X52176874Y-97167282D01*
X52194746Y-97114914D01*
X52198734Y-97099096D01*
X52201653Y-97083815D01*
X52203664Y-97067060D01*
X52204924Y-97046824D01*
X52205596Y-97021095D01*
X52205837Y-96987864D01*
X52205849Y-96975131D01*
X52205718Y-96939146D01*
X52205215Y-96911319D01*
X52204864Y-96903968D01*
X52057975Y-96903968D01*
X51755505Y-96903968D01*
X51759026Y-96879823D01*
X51768605Y-96842477D01*
X51785232Y-96809003D01*
X51807698Y-96780967D01*
X51834796Y-96759937D01*
X51859985Y-96748911D01*
X51899059Y-96742088D01*
X51936268Y-96744641D01*
X51970459Y-96755806D01*
X52000478Y-96774817D01*
X52025172Y-96800911D01*
X52043387Y-96833322D01*
X52053971Y-96871285D01*
X52054919Y-96878160D01*
X52057975Y-96903968D01*
X52204864Y-96903968D01*
X52204180Y-96889643D01*
X52202452Y-96872112D01*
X52199870Y-96856719D01*
X52196273Y-96841457D01*
X52194626Y-96835347D01*
X52174410Y-96776974D01*
X52148281Y-96726751D01*
X52116334Y-96684759D01*
X52078666Y-96651082D01*
X52035370Y-96625804D01*
X51986544Y-96609006D01*
X51932283Y-96600773D01*
X51924400Y-96600316D01*
X51868391Y-96601464D01*
G36*
X50166953Y-96600429D02*
X50128725Y-96602435D01*
X50093455Y-96606231D01*
X50064365Y-96611724D01*
X50064004Y-96611816D01*
X50040387Y-96619149D01*
X50014349Y-96629371D01*
X49987570Y-96641564D01*
X49961731Y-96654812D01*
X49938513Y-96668196D01*
X49919595Y-96680799D01*
X49906660Y-96691705D01*
X49901387Y-96699995D01*
X49901346Y-96700604D01*
X49904436Y-96705655D01*
X49912715Y-96716511D01*
X49924703Y-96731412D01*
X49938915Y-96748599D01*
X49953869Y-96766312D01*
X49968083Y-96782791D01*
X49980074Y-96796277D01*
X49988359Y-96805009D01*
X49991322Y-96807390D01*
X49996475Y-96804991D01*
X50008066Y-96798636D01*
X50023810Y-96789587D01*
X50027534Y-96787401D01*
X50064139Y-96767873D01*
X50097872Y-96754911D01*
X50132581Y-96747453D01*
X50172110Y-96744433D01*
X50183556Y-96744244D01*
X50209230Y-96744299D01*
X50227461Y-96745163D01*
X50240968Y-96747251D01*
X50252466Y-96750978D01*
X50264285Y-96756559D01*
X50286521Y-96772436D01*
X50301084Y-96792088D01*
X50307878Y-96813710D01*
X50306808Y-96835503D01*
X50297778Y-96855664D01*
X50280695Y-96872390D01*
X50270714Y-96878143D01*
X50260047Y-96882425D01*
X50246460Y-96886003D01*
X50228324Y-96889135D01*
X50204007Y-96892080D01*
X50171879Y-96895097D01*
X50154936Y-96896506D01*
X50106185Y-96900991D01*
X50066148Y-96906073D01*
X50033375Y-96912206D01*
X50006415Y-96919845D01*
X49983816Y-96929446D01*
X49964129Y-96941461D01*
X49945902Y-96956347D01*
X49937110Y-96964781D01*
X49913978Y-96994673D01*
X49896905Y-97030800D01*
X49886213Y-97071007D01*
X49882223Y-97113137D01*
X49885258Y-97155035D01*
X49895639Y-97194543D01*
X49900938Y-97207131D01*
X49923192Y-97243060D01*
X49953852Y-97274868D01*
X49991700Y-97301714D01*
X50035520Y-97322757D01*
X50084093Y-97337155D01*
X50091137Y-97338580D01*
X50120000Y-97342537D01*
X50154469Y-97344860D01*
X50191304Y-97345548D01*
X50227266Y-97344601D01*
X50259113Y-97342017D01*
X50280033Y-97338643D01*
X50325942Y-97325792D01*
X50371802Y-97308003D01*
X50415304Y-97286468D01*
X50454142Y-97262381D01*
X50486006Y-97236934D01*
X50495850Y-97227109D01*
X50508344Y-97213669D01*
X50405812Y-97111137D01*
X50371645Y-97137325D01*
X50337880Y-97161463D01*
X50307191Y-97178943D01*
X50276764Y-97190695D01*
X50243786Y-97197645D01*
X50205445Y-97200723D01*
X50178372Y-97201096D01*
X50145448Y-97200493D01*
X50120416Y-97198564D01*
X50101030Y-97194733D01*
X50085044Y-97188423D01*
X50070211Y-97179058D01*
X50059626Y-97170642D01*
X50044215Y-97151970D01*
X50036011Y-97129627D01*
X50035202Y-97106273D01*
X50041971Y-97084568D01*
X50052630Y-97070498D01*
X50061224Y-97063508D01*
X50071539Y-97057852D01*
X50085010Y-97053207D01*
X50103072Y-97049249D01*
X50127158Y-97045656D01*
X50158703Y-97042106D01*
X50193621Y-97038774D01*
X50240575Y-97033919D01*
X50278981Y-97028401D01*
X50310457Y-97021683D01*
X50336621Y-97013226D01*
X50359090Y-97002492D01*
X50379483Y-96988943D01*
X50399416Y-96972040D01*
X50402293Y-96969346D01*
X50429320Y-96937454D01*
X50447649Y-96900864D01*
X50457593Y-96858881D01*
X50459088Y-96843727D01*
X50458140Y-96793959D01*
X50448343Y-96749034D01*
X50429948Y-96709262D01*
X50403204Y-96674953D01*
X50368363Y-96646418D01*
X50325674Y-96623966D01*
X50275387Y-96607908D01*
X50267147Y-96606058D01*
X50239386Y-96602149D01*
X50204914Y-96600303D01*
X50166953Y-96600429D01*
X50166953Y-96600429D01*
G37*
X50166953Y-96600429D02*
X50128725Y-96602435D01*
X50093455Y-96606231D01*
X50064365Y-96611724D01*
X50064004Y-96611816D01*
X50040387Y-96619149D01*
X50014349Y-96629371D01*
X49987570Y-96641564D01*
X49961731Y-96654812D01*
X49938513Y-96668196D01*
X49919595Y-96680799D01*
X49906660Y-96691705D01*
X49901387Y-96699995D01*
X49901346Y-96700604D01*
X49904436Y-96705655D01*
X49912715Y-96716511D01*
X49924703Y-96731412D01*
X49938915Y-96748599D01*
X49953869Y-96766312D01*
X49968083Y-96782791D01*
X49980074Y-96796277D01*
X49988359Y-96805009D01*
X49991322Y-96807390D01*
X49996475Y-96804991D01*
X50008066Y-96798636D01*
X50023810Y-96789587D01*
X50027534Y-96787401D01*
X50064139Y-96767873D01*
X50097872Y-96754911D01*
X50132581Y-96747453D01*
X50172110Y-96744433D01*
X50183556Y-96744244D01*
X50209230Y-96744299D01*
X50227461Y-96745163D01*
X50240968Y-96747251D01*
X50252466Y-96750978D01*
X50264285Y-96756559D01*
X50286521Y-96772436D01*
X50301084Y-96792088D01*
X50307878Y-96813710D01*
X50306808Y-96835503D01*
X50297778Y-96855664D01*
X50280695Y-96872390D01*
X50270714Y-96878143D01*
X50260047Y-96882425D01*
X50246460Y-96886003D01*
X50228324Y-96889135D01*
X50204007Y-96892080D01*
X50171879Y-96895097D01*
X50154936Y-96896506D01*
X50106185Y-96900991D01*
X50066148Y-96906073D01*
X50033375Y-96912206D01*
X50006415Y-96919845D01*
X49983816Y-96929446D01*
X49964129Y-96941461D01*
X49945902Y-96956347D01*
X49937110Y-96964781D01*
X49913978Y-96994673D01*
X49896905Y-97030800D01*
X49886213Y-97071007D01*
X49882223Y-97113137D01*
X49885258Y-97155035D01*
X49895639Y-97194543D01*
X49900938Y-97207131D01*
X49923192Y-97243060D01*
X49953852Y-97274868D01*
X49991700Y-97301714D01*
X50035520Y-97322757D01*
X50084093Y-97337155D01*
X50091137Y-97338580D01*
X50120000Y-97342537D01*
X50154469Y-97344860D01*
X50191304Y-97345548D01*
X50227266Y-97344601D01*
X50259113Y-97342017D01*
X50280033Y-97338643D01*
X50325942Y-97325792D01*
X50371802Y-97308003D01*
X50415304Y-97286468D01*
X50454142Y-97262381D01*
X50486006Y-97236934D01*
X50495850Y-97227109D01*
X50508344Y-97213669D01*
X50405812Y-97111137D01*
X50371645Y-97137325D01*
X50337880Y-97161463D01*
X50307191Y-97178943D01*
X50276764Y-97190695D01*
X50243786Y-97197645D01*
X50205445Y-97200723D01*
X50178372Y-97201096D01*
X50145448Y-97200493D01*
X50120416Y-97198564D01*
X50101030Y-97194733D01*
X50085044Y-97188423D01*
X50070211Y-97179058D01*
X50059626Y-97170642D01*
X50044215Y-97151970D01*
X50036011Y-97129627D01*
X50035202Y-97106273D01*
X50041971Y-97084568D01*
X50052630Y-97070498D01*
X50061224Y-97063508D01*
X50071539Y-97057852D01*
X50085010Y-97053207D01*
X50103072Y-97049249D01*
X50127158Y-97045656D01*
X50158703Y-97042106D01*
X50193621Y-97038774D01*
X50240575Y-97033919D01*
X50278981Y-97028401D01*
X50310457Y-97021683D01*
X50336621Y-97013226D01*
X50359090Y-97002492D01*
X50379483Y-96988943D01*
X50399416Y-96972040D01*
X50402293Y-96969346D01*
X50429320Y-96937454D01*
X50447649Y-96900864D01*
X50457593Y-96858881D01*
X50459088Y-96843727D01*
X50458140Y-96793959D01*
X50448343Y-96749034D01*
X50429948Y-96709262D01*
X50403204Y-96674953D01*
X50368363Y-96646418D01*
X50325674Y-96623966D01*
X50275387Y-96607908D01*
X50267147Y-96606058D01*
X50239386Y-96602149D01*
X50204914Y-96600303D01*
X50166953Y-96600429D01*
G36*
X49466935Y-96600080D02*
X49416349Y-96609040D01*
X49377997Y-96621069D01*
X49345527Y-96636771D01*
X49315502Y-96658132D01*
X49288839Y-96682721D01*
X49254857Y-96722241D01*
X49229956Y-96763978D01*
X49213057Y-96809785D01*
X49211542Y-96815538D01*
X49208021Y-96835727D01*
X49205293Y-96863964D01*
X49203358Y-96898185D01*
X49202220Y-96936323D01*
X49201878Y-96976313D01*
X49202334Y-97016089D01*
X49203588Y-97053585D01*
X49205643Y-97086735D01*
X49208499Y-97113474D01*
X49211369Y-97128893D01*
X49227043Y-97175481D01*
X49249604Y-97216631D01*
X49280534Y-97254922D01*
X49288276Y-97262886D01*
X49325450Y-97295261D01*
X49364318Y-97319058D01*
X49406531Y-97334912D01*
X49453735Y-97343460D01*
X49502327Y-97345426D01*
X49525476Y-97344951D01*
X49545994Y-97344182D01*
X49560949Y-97343245D01*
X49565865Y-97342684D01*
X49612184Y-97329992D01*
X49656495Y-97308401D01*
X49697162Y-97279167D01*
X49732549Y-97243551D01*
X49761021Y-97202811D01*
X49769995Y-97185599D01*
X49779964Y-97162544D01*
X49787676Y-97139486D01*
X49793387Y-97114684D01*
X49797355Y-97086398D01*
X49799834Y-97052889D01*
X49801081Y-97012416D01*
X49801149Y-97002854D01*
X49651369Y-97002854D01*
X49648332Y-97049686D01*
X49641567Y-97088472D01*
X49630806Y-97120016D01*
X49615782Y-97145118D01*
X49596227Y-97164584D01*
X49573972Y-97178219D01*
X49534909Y-97192042D01*
X49495816Y-97195699D01*
X49456676Y-97189191D01*
X49437560Y-97182328D01*
X49411601Y-97166548D01*
X49387976Y-97143093D01*
X49369085Y-97114458D01*
X49365895Y-97107912D01*
X49361987Y-97098321D01*
X49359067Y-97087898D01*
X49356948Y-97074893D01*
X49355441Y-97057555D01*
X49354357Y-97034136D01*
X49353509Y-97002886D01*
X49353245Y-96990380D01*
X49352970Y-96941766D01*
X49354531Y-96901875D01*
X49358271Y-96869374D01*
X49364535Y-96842930D01*
X49373665Y-96821209D01*
X49386006Y-96802880D01*
X49401900Y-96786609D01*
X49406853Y-96782389D01*
X49435074Y-96765084D01*
X49467466Y-96754967D01*
X49501915Y-96751847D01*
X49536307Y-96755534D01*
X49568530Y-96765835D01*
X49596469Y-96782560D01*
X49614892Y-96801185D01*
X49627057Y-96819225D01*
X49636146Y-96838299D01*
X49642645Y-96860372D01*
X49647038Y-96887411D01*
X49649812Y-96921380D01*
X49650945Y-96947174D01*
X49651369Y-97002854D01*
X49801149Y-97002854D01*
X49801365Y-96972589D01*
X49800951Y-96925184D01*
X49799522Y-96886152D01*
X49796800Y-96853724D01*
X49792507Y-96826133D01*
X49786362Y-96801612D01*
X49778087Y-96778393D01*
X49767404Y-96754710D01*
X49766790Y-96753458D01*
X49740364Y-96710872D01*
X49706612Y-96674414D01*
X49666647Y-96644540D01*
X49621584Y-96621711D01*
X49572535Y-96606386D01*
X49520614Y-96599023D01*
X49466935Y-96600080D01*
X49466935Y-96600080D01*
G37*
X49466935Y-96600080D02*
X49416349Y-96609040D01*
X49377997Y-96621069D01*
X49345527Y-96636771D01*
X49315502Y-96658132D01*
X49288839Y-96682721D01*
X49254857Y-96722241D01*
X49229956Y-96763978D01*
X49213057Y-96809785D01*
X49211542Y-96815538D01*
X49208021Y-96835727D01*
X49205293Y-96863964D01*
X49203358Y-96898185D01*
X49202220Y-96936323D01*
X49201878Y-96976313D01*
X49202334Y-97016089D01*
X49203588Y-97053585D01*
X49205643Y-97086735D01*
X49208499Y-97113474D01*
X49211369Y-97128893D01*
X49227043Y-97175481D01*
X49249604Y-97216631D01*
X49280534Y-97254922D01*
X49288276Y-97262886D01*
X49325450Y-97295261D01*
X49364318Y-97319058D01*
X49406531Y-97334912D01*
X49453735Y-97343460D01*
X49502327Y-97345426D01*
X49525476Y-97344951D01*
X49545994Y-97344182D01*
X49560949Y-97343245D01*
X49565865Y-97342684D01*
X49612184Y-97329992D01*
X49656495Y-97308401D01*
X49697162Y-97279167D01*
X49732549Y-97243551D01*
X49761021Y-97202811D01*
X49769995Y-97185599D01*
X49779964Y-97162544D01*
X49787676Y-97139486D01*
X49793387Y-97114684D01*
X49797355Y-97086398D01*
X49799834Y-97052889D01*
X49801081Y-97012416D01*
X49801149Y-97002854D01*
X49651369Y-97002854D01*
X49648332Y-97049686D01*
X49641567Y-97088472D01*
X49630806Y-97120016D01*
X49615782Y-97145118D01*
X49596227Y-97164584D01*
X49573972Y-97178219D01*
X49534909Y-97192042D01*
X49495816Y-97195699D01*
X49456676Y-97189191D01*
X49437560Y-97182328D01*
X49411601Y-97166548D01*
X49387976Y-97143093D01*
X49369085Y-97114458D01*
X49365895Y-97107912D01*
X49361987Y-97098321D01*
X49359067Y-97087898D01*
X49356948Y-97074893D01*
X49355441Y-97057555D01*
X49354357Y-97034136D01*
X49353509Y-97002886D01*
X49353245Y-96990380D01*
X49352970Y-96941766D01*
X49354531Y-96901875D01*
X49358271Y-96869374D01*
X49364535Y-96842930D01*
X49373665Y-96821209D01*
X49386006Y-96802880D01*
X49401900Y-96786609D01*
X49406853Y-96782389D01*
X49435074Y-96765084D01*
X49467466Y-96754967D01*
X49501915Y-96751847D01*
X49536307Y-96755534D01*
X49568530Y-96765835D01*
X49596469Y-96782560D01*
X49614892Y-96801185D01*
X49627057Y-96819225D01*
X49636146Y-96838299D01*
X49642645Y-96860372D01*
X49647038Y-96887411D01*
X49649812Y-96921380D01*
X49650945Y-96947174D01*
X49651369Y-97002854D01*
X49801149Y-97002854D01*
X49801365Y-96972589D01*
X49800951Y-96925184D01*
X49799522Y-96886152D01*
X49796800Y-96853724D01*
X49792507Y-96826133D01*
X49786362Y-96801612D01*
X49778087Y-96778393D01*
X49767404Y-96754710D01*
X49766790Y-96753458D01*
X49740364Y-96710872D01*
X49706612Y-96674414D01*
X49666647Y-96644540D01*
X49621584Y-96621711D01*
X49572535Y-96606386D01*
X49520614Y-96599023D01*
X49466935Y-96600080D01*
G36*
X48925401Y-96842049D02*
X48925383Y-96901389D01*
X48925245Y-96951491D01*
X48924862Y-96993284D01*
X48924109Y-97027697D01*
X48922860Y-97055656D01*
X48920989Y-97078091D01*
X48918371Y-97095931D01*
X48914880Y-97110103D01*
X48910391Y-97121535D01*
X48904779Y-97131157D01*
X48897917Y-97139897D01*
X48889681Y-97148682D01*
X48883045Y-97155341D01*
X48853726Y-97178037D01*
X48821215Y-97191837D01*
X48787101Y-97196738D01*
X48752975Y-97192735D01*
X48720424Y-97179824D01*
X48691039Y-97158000D01*
X48688864Y-97155860D01*
X48679433Y-97146272D01*
X48671491Y-97137409D01*
X48664911Y-97128338D01*
X48659565Y-97118126D01*
X48655324Y-97105841D01*
X48652061Y-97090549D01*
X48649647Y-97071317D01*
X48647955Y-97047214D01*
X48646856Y-97017304D01*
X48646222Y-96980657D01*
X48645926Y-96936339D01*
X48645838Y-96883417D01*
X48645833Y-96842387D01*
X48645833Y-96609151D01*
X48493341Y-96609151D01*
X48493341Y-97341110D01*
X48645833Y-97341110D01*
X48645833Y-97269083D01*
X48669347Y-97289781D01*
X48701204Y-97312761D01*
X48737864Y-97331028D01*
X48768394Y-97340802D01*
X48801323Y-97345439D01*
X48838478Y-97345951D01*
X48875449Y-97342541D01*
X48907830Y-97335410D01*
X48911312Y-97334275D01*
X48956839Y-97313658D01*
X48996246Y-97285314D01*
X49028781Y-97250084D01*
X49053696Y-97208809D01*
X49070240Y-97162328D01*
X49072147Y-97154058D01*
X49073714Y-97141169D01*
X49075030Y-97118345D01*
X49076098Y-97085546D01*
X49076916Y-97042733D01*
X49077487Y-96989867D01*
X49077810Y-96926909D01*
X49077892Y-96868136D01*
X49077892Y-96609151D01*
X48925401Y-96609151D01*
X48925401Y-96842049D01*
X48925401Y-96842049D01*
G37*
X48925401Y-96842049D02*
X48925383Y-96901389D01*
X48925245Y-96951491D01*
X48924862Y-96993284D01*
X48924109Y-97027697D01*
X48922860Y-97055656D01*
X48920989Y-97078091D01*
X48918371Y-97095931D01*
X48914880Y-97110103D01*
X48910391Y-97121535D01*
X48904779Y-97131157D01*
X48897917Y-97139897D01*
X48889681Y-97148682D01*
X48883045Y-97155341D01*
X48853726Y-97178037D01*
X48821215Y-97191837D01*
X48787101Y-97196738D01*
X48752975Y-97192735D01*
X48720424Y-97179824D01*
X48691039Y-97158000D01*
X48688864Y-97155860D01*
X48679433Y-97146272D01*
X48671491Y-97137409D01*
X48664911Y-97128338D01*
X48659565Y-97118126D01*
X48655324Y-97105841D01*
X48652061Y-97090549D01*
X48649647Y-97071317D01*
X48647955Y-97047214D01*
X48646856Y-97017304D01*
X48646222Y-96980657D01*
X48645926Y-96936339D01*
X48645838Y-96883417D01*
X48645833Y-96842387D01*
X48645833Y-96609151D01*
X48493341Y-96609151D01*
X48493341Y-97341110D01*
X48645833Y-97341110D01*
X48645833Y-97269083D01*
X48669347Y-97289781D01*
X48701204Y-97312761D01*
X48737864Y-97331028D01*
X48768394Y-97340802D01*
X48801323Y-97345439D01*
X48838478Y-97345951D01*
X48875449Y-97342541D01*
X48907830Y-97335410D01*
X48911312Y-97334275D01*
X48956839Y-97313658D01*
X48996246Y-97285314D01*
X49028781Y-97250084D01*
X49053696Y-97208809D01*
X49070240Y-97162328D01*
X49072147Y-97154058D01*
X49073714Y-97141169D01*
X49075030Y-97118345D01*
X49076098Y-97085546D01*
X49076916Y-97042733D01*
X49077487Y-96989867D01*
X49077810Y-96926909D01*
X49077892Y-96868136D01*
X49077892Y-96609151D01*
X48925401Y-96609151D01*
X48925401Y-96842049D01*
G36*
X47466698Y-96605589D02*
X47414025Y-96620226D01*
X47374672Y-96637669D01*
X47359388Y-96646881D01*
X47341174Y-96659629D01*
X47321818Y-96674429D01*
X47303107Y-96689797D01*
X47286826Y-96704251D01*
X47274764Y-96716307D01*
X47268706Y-96724480D01*
X47268326Y-96725973D01*
X47271923Y-96730627D01*
X47281809Y-96740669D01*
X47296627Y-96754787D01*
X47315022Y-96771671D01*
X47322750Y-96778612D01*
X47377174Y-96827207D01*
X47402808Y-96803057D01*
X47432068Y-96779192D01*
X47461509Y-96763649D01*
X47494342Y-96755046D01*
X47520192Y-96752456D01*
X47565416Y-96754091D01*
X47604749Y-96763958D01*
X47638071Y-96781916D01*
X47665260Y-96807827D01*
X47686197Y-96841553D01*
X47700760Y-96882955D01*
X47708830Y-96931895D01*
X47710552Y-96971628D01*
X47707484Y-97026493D01*
X47698204Y-97073389D01*
X47682597Y-97112484D01*
X47660548Y-97143944D01*
X47631940Y-97167936D01*
X47596658Y-97184627D01*
X47556799Y-97193880D01*
X47515664Y-97194881D01*
X47475392Y-97186799D01*
X47438104Y-97170334D01*
X47405920Y-97146186D01*
X47402772Y-97143080D01*
X47391017Y-97131895D01*
X47381803Y-97124460D01*
X47378176Y-97122624D01*
X47372566Y-97125757D01*
X47361480Y-97134189D01*
X47346935Y-97146351D01*
X47340760Y-97151766D01*
X47322366Y-97168103D01*
X47303842Y-97184544D01*
X47288755Y-97197924D01*
X47286824Y-97199635D01*
X47265785Y-97218277D01*
X47288659Y-97241948D01*
X47330239Y-97278886D01*
X47376175Y-97308741D01*
X47424456Y-97330326D01*
X47452273Y-97338479D01*
X47486016Y-97343778D01*
X47525267Y-97345747D01*
X47565951Y-97344453D01*
X47603994Y-97339961D01*
X47624140Y-97335685D01*
X47678042Y-97316895D01*
X47725307Y-97290507D01*
X47765803Y-97256742D01*
X47799393Y-97215818D01*
X47825943Y-97167954D01*
X47845319Y-97113369D01*
X47857386Y-97052282D01*
X47862009Y-96984912D01*
X47861518Y-96949715D01*
X47855733Y-96884627D01*
X47843589Y-96826941D01*
X47824805Y-96775908D01*
X47799099Y-96730782D01*
X47766192Y-96690816D01*
X47762978Y-96687557D01*
X47723032Y-96654593D01*
X47677424Y-96629108D01*
X47627570Y-96611283D01*
X47574886Y-96601300D01*
X47520790Y-96599342D01*
X47466698Y-96605589D01*
X47466698Y-96605589D01*
G37*
X47466698Y-96605589D02*
X47414025Y-96620226D01*
X47374672Y-96637669D01*
X47359388Y-96646881D01*
X47341174Y-96659629D01*
X47321818Y-96674429D01*
X47303107Y-96689797D01*
X47286826Y-96704251D01*
X47274764Y-96716307D01*
X47268706Y-96724480D01*
X47268326Y-96725973D01*
X47271923Y-96730627D01*
X47281809Y-96740669D01*
X47296627Y-96754787D01*
X47315022Y-96771671D01*
X47322750Y-96778612D01*
X47377174Y-96827207D01*
X47402808Y-96803057D01*
X47432068Y-96779192D01*
X47461509Y-96763649D01*
X47494342Y-96755046D01*
X47520192Y-96752456D01*
X47565416Y-96754091D01*
X47604749Y-96763958D01*
X47638071Y-96781916D01*
X47665260Y-96807827D01*
X47686197Y-96841553D01*
X47700760Y-96882955D01*
X47708830Y-96931895D01*
X47710552Y-96971628D01*
X47707484Y-97026493D01*
X47698204Y-97073389D01*
X47682597Y-97112484D01*
X47660548Y-97143944D01*
X47631940Y-97167936D01*
X47596658Y-97184627D01*
X47556799Y-97193880D01*
X47515664Y-97194881D01*
X47475392Y-97186799D01*
X47438104Y-97170334D01*
X47405920Y-97146186D01*
X47402772Y-97143080D01*
X47391017Y-97131895D01*
X47381803Y-97124460D01*
X47378176Y-97122624D01*
X47372566Y-97125757D01*
X47361480Y-97134189D01*
X47346935Y-97146351D01*
X47340760Y-97151766D01*
X47322366Y-97168103D01*
X47303842Y-97184544D01*
X47288755Y-97197924D01*
X47286824Y-97199635D01*
X47265785Y-97218277D01*
X47288659Y-97241948D01*
X47330239Y-97278886D01*
X47376175Y-97308741D01*
X47424456Y-97330326D01*
X47452273Y-97338479D01*
X47486016Y-97343778D01*
X47525267Y-97345747D01*
X47565951Y-97344453D01*
X47603994Y-97339961D01*
X47624140Y-97335685D01*
X47678042Y-97316895D01*
X47725307Y-97290507D01*
X47765803Y-97256742D01*
X47799393Y-97215818D01*
X47825943Y-97167954D01*
X47845319Y-97113369D01*
X47857386Y-97052282D01*
X47862009Y-96984912D01*
X47861518Y-96949715D01*
X47855733Y-96884627D01*
X47843589Y-96826941D01*
X47824805Y-96775908D01*
X47799099Y-96730782D01*
X47766192Y-96690816D01*
X47762978Y-96687557D01*
X47723032Y-96654593D01*
X47677424Y-96629108D01*
X47627570Y-96611283D01*
X47574886Y-96601300D01*
X47520790Y-96599342D01*
X47466698Y-96605589D01*
G36*
X46902419Y-96601011D02*
X46848160Y-96610692D01*
X46796813Y-96629172D01*
X46783841Y-96635576D01*
X46752513Y-96656022D01*
X46721377Y-96683439D01*
X46693231Y-96714974D01*
X46670874Y-96747772D01*
X46667182Y-96754542D01*
X46655525Y-96778808D01*
X46646759Y-96802064D01*
X46640508Y-96826386D01*
X46636398Y-96853849D01*
X46634053Y-96886530D01*
X46633097Y-96926505D01*
X46633020Y-96943361D01*
X46632945Y-97031044D01*
X47085959Y-97031044D01*
X47082443Y-97055189D01*
X47071997Y-97098180D01*
X47054274Y-97134465D01*
X47029495Y-97163708D01*
X46997883Y-97185576D01*
X46994981Y-97187038D01*
X46980153Y-97193788D01*
X46966935Y-97198017D01*
X46952121Y-97200298D01*
X46932506Y-97201203D01*
X46915054Y-97201326D01*
X46890675Y-97201050D01*
X46873044Y-97199783D01*
X46858752Y-97196869D01*
X46844386Y-97191650D01*
X46829419Y-97184842D01*
X46809034Y-97174329D01*
X46789446Y-97162804D01*
X46775316Y-97153073D01*
X46763334Y-97144134D01*
X46754618Y-97138630D01*
X46752362Y-97137788D01*
X46747329Y-97140883D01*
X46736098Y-97149364D01*
X46720208Y-97162023D01*
X46701198Y-97177652D01*
X46696204Y-97181827D01*
X46673848Y-97200635D01*
X46658882Y-97214462D01*
X46651127Y-97225118D01*
X46650407Y-97234410D01*
X46656543Y-97244147D01*
X46669358Y-97256139D01*
X46687431Y-97271161D01*
X46723046Y-97296373D01*
X46763429Y-97317820D01*
X46804573Y-97333526D01*
X46824216Y-97338617D01*
X46857196Y-97343456D01*
X46895363Y-97345646D01*
X46935057Y-97345239D01*
X46972620Y-97342287D01*
X47004394Y-97336839D01*
X47007511Y-97336055D01*
X47060051Y-97317709D01*
X47105670Y-97291994D01*
X47144419Y-97258853D01*
X47176348Y-97218225D01*
X47201508Y-97170050D01*
X47219950Y-97114270D01*
X47227670Y-97077939D01*
X47230313Y-97055684D01*
X47232073Y-97026203D01*
X47232948Y-96992398D01*
X47232939Y-96957172D01*
X47232046Y-96923425D01*
X47230869Y-96903968D01*
X47085457Y-96903968D01*
X46780608Y-96903968D01*
X46783443Y-96887448D01*
X46794540Y-96843406D01*
X46811440Y-96807467D01*
X46834397Y-96779216D01*
X46862086Y-96759101D01*
X46877190Y-96751379D01*
X46890424Y-96746796D01*
X46905470Y-96744559D01*
X46926008Y-96743874D01*
X46932845Y-96743852D01*
X46955487Y-96744262D01*
X46971646Y-96746015D01*
X46984988Y-96749898D01*
X46999181Y-96756694D01*
X47003273Y-96758930D01*
X47034125Y-96781404D01*
X47057647Y-96810688D01*
X47073985Y-96847006D01*
X47082147Y-96882365D01*
X47085457Y-96903968D01*
X47230869Y-96903968D01*
X47230269Y-96894060D01*
X47227668Y-96872322D01*
X47213317Y-96812166D01*
X47192469Y-96759496D01*
X47164866Y-96713771D01*
X47136167Y-96680228D01*
X47104801Y-96652208D01*
X47072898Y-96631655D01*
X47036858Y-96616518D01*
X47011198Y-96609040D01*
X46957471Y-96600378D01*
X46902419Y-96601011D01*
X46902419Y-96601011D01*
G37*
X46902419Y-96601011D02*
X46848160Y-96610692D01*
X46796813Y-96629172D01*
X46783841Y-96635576D01*
X46752513Y-96656022D01*
X46721377Y-96683439D01*
X46693231Y-96714974D01*
X46670874Y-96747772D01*
X46667182Y-96754542D01*
X46655525Y-96778808D01*
X46646759Y-96802064D01*
X46640508Y-96826386D01*
X46636398Y-96853849D01*
X46634053Y-96886530D01*
X46633097Y-96926505D01*
X46633020Y-96943361D01*
X46632945Y-97031044D01*
X47085959Y-97031044D01*
X47082443Y-97055189D01*
X47071997Y-97098180D01*
X47054274Y-97134465D01*
X47029495Y-97163708D01*
X46997883Y-97185576D01*
X46994981Y-97187038D01*
X46980153Y-97193788D01*
X46966935Y-97198017D01*
X46952121Y-97200298D01*
X46932506Y-97201203D01*
X46915054Y-97201326D01*
X46890675Y-97201050D01*
X46873044Y-97199783D01*
X46858752Y-97196869D01*
X46844386Y-97191650D01*
X46829419Y-97184842D01*
X46809034Y-97174329D01*
X46789446Y-97162804D01*
X46775316Y-97153073D01*
X46763334Y-97144134D01*
X46754618Y-97138630D01*
X46752362Y-97137788D01*
X46747329Y-97140883D01*
X46736098Y-97149364D01*
X46720208Y-97162023D01*
X46701198Y-97177652D01*
X46696204Y-97181827D01*
X46673848Y-97200635D01*
X46658882Y-97214462D01*
X46651127Y-97225118D01*
X46650407Y-97234410D01*
X46656543Y-97244147D01*
X46669358Y-97256139D01*
X46687431Y-97271161D01*
X46723046Y-97296373D01*
X46763429Y-97317820D01*
X46804573Y-97333526D01*
X46824216Y-97338617D01*
X46857196Y-97343456D01*
X46895363Y-97345646D01*
X46935057Y-97345239D01*
X46972620Y-97342287D01*
X47004394Y-97336839D01*
X47007511Y-97336055D01*
X47060051Y-97317709D01*
X47105670Y-97291994D01*
X47144419Y-97258853D01*
X47176348Y-97218225D01*
X47201508Y-97170050D01*
X47219950Y-97114270D01*
X47227670Y-97077939D01*
X47230313Y-97055684D01*
X47232073Y-97026203D01*
X47232948Y-96992398D01*
X47232939Y-96957172D01*
X47232046Y-96923425D01*
X47230869Y-96903968D01*
X47085457Y-96903968D01*
X46780608Y-96903968D01*
X46783443Y-96887448D01*
X46794540Y-96843406D01*
X46811440Y-96807467D01*
X46834397Y-96779216D01*
X46862086Y-96759101D01*
X46877190Y-96751379D01*
X46890424Y-96746796D01*
X46905470Y-96744559D01*
X46926008Y-96743874D01*
X46932845Y-96743852D01*
X46955487Y-96744262D01*
X46971646Y-96746015D01*
X46984988Y-96749898D01*
X46999181Y-96756694D01*
X47003273Y-96758930D01*
X47034125Y-96781404D01*
X47057647Y-96810688D01*
X47073985Y-96847006D01*
X47082147Y-96882365D01*
X47085457Y-96903968D01*
X47230869Y-96903968D01*
X47230269Y-96894060D01*
X47227668Y-96872322D01*
X47213317Y-96812166D01*
X47192469Y-96759496D01*
X47164866Y-96713771D01*
X47136167Y-96680228D01*
X47104801Y-96652208D01*
X47072898Y-96631655D01*
X47036858Y-96616518D01*
X47011198Y-96609040D01*
X46957471Y-96600378D01*
X46902419Y-96601011D01*
G36*
X51097104Y-96604451D02*
X51053984Y-96617154D01*
X51013737Y-96637068D01*
X50977697Y-96663934D01*
X50947199Y-96697494D01*
X50926055Y-96732262D01*
X50920062Y-96745007D01*
X50914979Y-96757406D01*
X50910731Y-96770391D01*
X50907242Y-96784896D01*
X50904439Y-96801851D01*
X50902246Y-96822190D01*
X50900589Y-96846845D01*
X50899393Y-96876749D01*
X50898583Y-96912833D01*
X50898084Y-96956030D01*
X50897822Y-97007273D01*
X50897721Y-97067494D01*
X50897712Y-97085687D01*
X50897624Y-97341110D01*
X51050115Y-97341110D01*
X51050115Y-97110367D01*
X51050137Y-97055564D01*
X51050228Y-97009922D01*
X51050428Y-96972436D01*
X51050775Y-96942102D01*
X51051309Y-96917914D01*
X51052069Y-96898868D01*
X51053094Y-96883958D01*
X51054424Y-96872180D01*
X51056097Y-96862529D01*
X51058152Y-96854000D01*
X51060398Y-96846333D01*
X51075699Y-96812134D01*
X51097956Y-96785183D01*
X51126629Y-96765863D01*
X51161178Y-96754554D01*
X51194617Y-96751526D01*
X51231186Y-96756360D01*
X51263950Y-96770322D01*
X51291966Y-96792783D01*
X51314293Y-96823119D01*
X51320527Y-96835347D01*
X51323236Y-96841412D01*
X51325497Y-96847424D01*
X51327357Y-96854328D01*
X51328863Y-96863070D01*
X51330062Y-96874595D01*
X51331000Y-96889848D01*
X51331726Y-96909774D01*
X51332285Y-96935318D01*
X51332725Y-96967427D01*
X51333093Y-97007045D01*
X51333436Y-97055117D01*
X51333728Y-97100936D01*
X51335230Y-97341110D01*
X51487258Y-97341110D01*
X51487258Y-96609151D01*
X51334766Y-96609151D01*
X51334766Y-96681256D01*
X51309057Y-96658141D01*
X51271604Y-96630915D01*
X51230346Y-96612191D01*
X51186620Y-96601711D01*
X51141761Y-96599218D01*
X51097104Y-96604451D01*
X51097104Y-96604451D01*
G37*
X51097104Y-96604451D02*
X51053984Y-96617154D01*
X51013737Y-96637068D01*
X50977697Y-96663934D01*
X50947199Y-96697494D01*
X50926055Y-96732262D01*
X50920062Y-96745007D01*
X50914979Y-96757406D01*
X50910731Y-96770391D01*
X50907242Y-96784896D01*
X50904439Y-96801851D01*
X50902246Y-96822190D01*
X50900589Y-96846845D01*
X50899393Y-96876749D01*
X50898583Y-96912833D01*
X50898084Y-96956030D01*
X50897822Y-97007273D01*
X50897721Y-97067494D01*
X50897712Y-97085687D01*
X50897624Y-97341110D01*
X51050115Y-97341110D01*
X51050115Y-97110367D01*
X51050137Y-97055564D01*
X51050228Y-97009922D01*
X51050428Y-96972436D01*
X51050775Y-96942102D01*
X51051309Y-96917914D01*
X51052069Y-96898868D01*
X51053094Y-96883958D01*
X51054424Y-96872180D01*
X51056097Y-96862529D01*
X51058152Y-96854000D01*
X51060398Y-96846333D01*
X51075699Y-96812134D01*
X51097956Y-96785183D01*
X51126629Y-96765863D01*
X51161178Y-96754554D01*
X51194617Y-96751526D01*
X51231186Y-96756360D01*
X51263950Y-96770322D01*
X51291966Y-96792783D01*
X51314293Y-96823119D01*
X51320527Y-96835347D01*
X51323236Y-96841412D01*
X51325497Y-96847424D01*
X51327357Y-96854328D01*
X51328863Y-96863070D01*
X51330062Y-96874595D01*
X51331000Y-96889848D01*
X51331726Y-96909774D01*
X51332285Y-96935318D01*
X51332725Y-96967427D01*
X51333093Y-97007045D01*
X51333436Y-97055117D01*
X51333728Y-97100936D01*
X51335230Y-97341110D01*
X51487258Y-97341110D01*
X51487258Y-96609151D01*
X51334766Y-96609151D01*
X51334766Y-96681256D01*
X51309057Y-96658141D01*
X51271604Y-96630915D01*
X51230346Y-96612191D01*
X51186620Y-96601711D01*
X51141761Y-96599218D01*
X51097104Y-96604451D01*
G36*
X47949006Y-96604527D02*
X47904891Y-96617114D01*
X47864456Y-96637668D01*
X47860308Y-96640422D01*
X47849395Y-96648769D01*
X47843244Y-96655253D01*
X47842746Y-96656576D01*
X47845831Y-96661790D01*
X47854209Y-96673038D01*
X47866525Y-96688660D01*
X47881422Y-96707000D01*
X47897545Y-96726401D01*
X47913536Y-96745205D01*
X47928040Y-96761754D01*
X47935566Y-96770020D01*
X47950445Y-96786022D01*
X47975976Y-96770152D01*
X47994062Y-96760398D01*
X48011704Y-96755000D01*
X48033974Y-96752452D01*
X48036013Y-96752331D01*
X48075452Y-96754286D01*
X48109672Y-96764778D01*
X48138350Y-96783645D01*
X48161162Y-96810721D01*
X48165676Y-96818329D01*
X48180734Y-96845513D01*
X48182188Y-97093311D01*
X48183642Y-97341110D01*
X48335767Y-97341110D01*
X48335767Y-96609151D01*
X48183275Y-96609151D01*
X48183275Y-96676414D01*
X48162411Y-96657564D01*
X48126626Y-96631831D01*
X48085611Y-96613559D01*
X48041148Y-96602851D01*
X47995019Y-96599807D01*
X47949006Y-96604527D01*
X47949006Y-96604527D01*
G37*
X47949006Y-96604527D02*
X47904891Y-96617114D01*
X47864456Y-96637668D01*
X47860308Y-96640422D01*
X47849395Y-96648769D01*
X47843244Y-96655253D01*
X47842746Y-96656576D01*
X47845831Y-96661790D01*
X47854209Y-96673038D01*
X47866525Y-96688660D01*
X47881422Y-96707000D01*
X47897545Y-96726401D01*
X47913536Y-96745205D01*
X47928040Y-96761754D01*
X47935566Y-96770020D01*
X47950445Y-96786022D01*
X47975976Y-96770152D01*
X47994062Y-96760398D01*
X48011704Y-96755000D01*
X48033974Y-96752452D01*
X48036013Y-96752331D01*
X48075452Y-96754286D01*
X48109672Y-96764778D01*
X48138350Y-96783645D01*
X48161162Y-96810721D01*
X48165676Y-96818329D01*
X48180734Y-96845513D01*
X48182188Y-97093311D01*
X48183642Y-97341110D01*
X48335767Y-97341110D01*
X48335767Y-96609151D01*
X48183275Y-96609151D01*
X48183275Y-96676414D01*
X48162411Y-96657564D01*
X48126626Y-96631831D01*
X48085611Y-96613559D01*
X48041148Y-96602851D01*
X47995019Y-96599807D01*
X47949006Y-96604527D01*
G36*
X50053042Y-91160130D02*
X49993080Y-91160169D01*
X49941861Y-91160255D01*
X49898674Y-91160408D01*
X49862806Y-91160645D01*
X49833547Y-91160986D01*
X49810185Y-91161448D01*
X49792008Y-91162050D01*
X49778305Y-91162810D01*
X49768364Y-91163747D01*
X49761474Y-91164879D01*
X49756923Y-91166225D01*
X49753999Y-91167802D01*
X49751992Y-91169630D01*
X49751935Y-91169692D01*
X49749505Y-91174938D01*
X49746063Y-91186639D01*
X49741523Y-91205207D01*
X49735801Y-91231055D01*
X49728812Y-91264596D01*
X49720471Y-91306243D01*
X49710693Y-91356408D01*
X49699394Y-91415504D01*
X49686488Y-91483944D01*
X49677544Y-91531783D01*
X49663654Y-91605950D01*
X49651419Y-91670554D01*
X49640748Y-91726047D01*
X49631546Y-91772880D01*
X49623721Y-91811507D01*
X49617179Y-91842377D01*
X49611829Y-91865944D01*
X49607577Y-91882659D01*
X49604329Y-91892973D01*
X49602453Y-91896841D01*
X49597662Y-91900899D01*
X49587778Y-91906719D01*
X49572228Y-91914556D01*
X49550438Y-91924665D01*
X49521835Y-91937301D01*
X49485845Y-91952720D01*
X49441895Y-91971176D01*
X49389411Y-91992926D01*
X49352013Y-92008308D01*
X49299231Y-92029836D01*
X49250904Y-92049285D01*
X49207750Y-92066380D01*
X49170490Y-92080843D01*
X49139842Y-92092398D01*
X49116526Y-92100770D01*
X49101263Y-92105680D01*
X49095258Y-92106931D01*
X49090161Y-92105563D01*
X49081388Y-92101383D01*
X49068455Y-92094074D01*
X49050877Y-92083319D01*
X49028170Y-92068800D01*
X48999847Y-92050202D01*
X48965425Y-92027207D01*
X48924419Y-91999499D01*
X48876344Y-91966760D01*
X48820715Y-91928674D01*
X48785192Y-91904280D01*
X48722104Y-91861013D01*
X48666973Y-91823409D01*
X48619465Y-91791249D01*
X48579245Y-91764315D01*
X48545980Y-91742387D01*
X48519335Y-91725245D01*
X48498977Y-91712671D01*
X48484571Y-91704445D01*
X48475783Y-91700348D01*
X48473691Y-91699806D01*
X48470202Y-91699590D01*
X48466448Y-91700149D01*
X48461899Y-91701972D01*
X48456030Y-91705550D01*
X48448313Y-91711372D01*
X48438219Y-91719928D01*
X48425223Y-91731708D01*
X48408795Y-91747203D01*
X48388409Y-91766902D01*
X48363538Y-91791296D01*
X48333654Y-91820873D01*
X48298229Y-91856124D01*
X48256736Y-91897540D01*
X48208648Y-91945609D01*
X48203018Y-91951239D01*
X48153743Y-92000550D01*
X48111204Y-92043219D01*
X48074917Y-92079759D01*
X48044398Y-92110685D01*
X48019164Y-92136509D01*
X47998731Y-92157745D01*
X47982614Y-92174909D01*
X47970330Y-92188514D01*
X47961395Y-92199074D01*
X47955326Y-92207102D01*
X47951638Y-92213113D01*
X47949847Y-92217621D01*
X47949455Y-92220579D01*
X47950624Y-92225810D01*
X47954380Y-92234284D01*
X47961094Y-92246580D01*
X47971138Y-92263277D01*
X47984885Y-92284954D01*
X48002706Y-92312188D01*
X48024974Y-92345558D01*
X48052060Y-92385643D01*
X48084337Y-92433021D01*
X48112850Y-92474675D01*
X48144349Y-92520622D01*
X48175209Y-92565647D01*
X48204752Y-92608759D01*
X48232300Y-92648968D01*
X48257174Y-92685284D01*
X48278696Y-92716716D01*
X48296187Y-92742274D01*
X48308969Y-92760966D01*
X48313631Y-92767793D01*
X48327796Y-92789458D01*
X48339482Y-92809047D01*
X48347578Y-92824578D01*
X48350976Y-92834068D01*
X48351016Y-92834687D01*
X48349010Y-92842528D01*
X48343302Y-92858566D01*
X48334356Y-92881724D01*
X48322636Y-92910926D01*
X48308605Y-92945096D01*
X48292729Y-92983157D01*
X48275470Y-93024034D01*
X48257293Y-93066650D01*
X48238662Y-93109927D01*
X48220041Y-93152791D01*
X48201893Y-93194165D01*
X48184683Y-93232972D01*
X48168875Y-93268136D01*
X48154933Y-93298581D01*
X48143321Y-93323230D01*
X48134502Y-93341008D01*
X48128941Y-93350837D01*
X48127980Y-93352071D01*
X48125933Y-93354371D01*
X48124159Y-93356399D01*
X48122068Y-93358276D01*
X48119069Y-93360127D01*
X48114571Y-93362074D01*
X48107983Y-93364240D01*
X48098714Y-93366748D01*
X48086172Y-93369722D01*
X48069768Y-93373283D01*
X48048910Y-93377555D01*
X48023006Y-93382661D01*
X47991467Y-93388724D01*
X47953700Y-93395867D01*
X47909116Y-93404212D01*
X47857122Y-93413883D01*
X47797129Y-93425003D01*
X47728545Y-93437695D01*
X47650778Y-93452081D01*
X47619238Y-93457917D01*
X47568681Y-93467348D01*
X47527244Y-93475262D01*
X47494029Y-93481865D01*
X47468136Y-93487360D01*
X47448666Y-93491952D01*
X47434721Y-93495844D01*
X47425401Y-93499241D01*
X47419806Y-93502348D01*
X47418457Y-93503507D01*
X47416457Y-93505707D01*
X47414729Y-93508500D01*
X47413250Y-93512608D01*
X47411997Y-93518756D01*
X47410947Y-93527664D01*
X47410077Y-93540057D01*
X47409363Y-93556656D01*
X47408783Y-93578185D01*
X47408314Y-93605366D01*
X47407931Y-93638922D01*
X47407612Y-93679576D01*
X47407334Y-93728050D01*
X47407074Y-93785067D01*
X47406808Y-93851350D01*
X47406739Y-93869126D01*
X47405368Y-94224400D01*
X47417156Y-94238104D01*
X47419812Y-94240872D01*
X47423267Y-94243468D01*
X47428251Y-94246055D01*
X47435495Y-94248793D01*
X47445728Y-94251843D01*
X47459680Y-94255365D01*
X47478081Y-94259520D01*
X47501662Y-94264470D01*
X47531152Y-94270373D01*
X47567282Y-94277393D01*
X47610781Y-94285688D01*
X47662379Y-94295421D01*
X47722807Y-94306751D01*
X47763418Y-94314348D01*
X47830592Y-94326937D01*
X47888464Y-94337858D01*
X47937737Y-94347261D01*
X47979111Y-94355294D01*
X48013288Y-94362107D01*
X48040969Y-94367849D01*
X48062855Y-94372670D01*
X48079648Y-94376719D01*
X48092049Y-94380145D01*
X48100759Y-94383097D01*
X48106479Y-94385725D01*
X48109831Y-94388102D01*
X48114103Y-94395043D01*
X48121589Y-94410416D01*
X48131862Y-94433162D01*
X48144495Y-94462220D01*
X48159063Y-94496530D01*
X48175139Y-94535031D01*
X48192297Y-94576665D01*
X48210110Y-94620370D01*
X48228153Y-94665087D01*
X48246000Y-94709755D01*
X48263224Y-94753315D01*
X48279399Y-94794706D01*
X48294099Y-94832868D01*
X48306898Y-94866742D01*
X48317369Y-94895266D01*
X48325086Y-94917381D01*
X48329624Y-94932027D01*
X48330684Y-94937453D01*
X48329576Y-94942366D01*
X48326020Y-94950382D01*
X48319662Y-94962044D01*
X48310152Y-94977893D01*
X48297136Y-94998472D01*
X48280264Y-95024321D01*
X48259183Y-95055983D01*
X48233541Y-95093999D01*
X48202987Y-95138911D01*
X48167168Y-95191261D01*
X48141638Y-95228453D01*
X48099504Y-95289929D01*
X48063065Y-95343436D01*
X48032118Y-95389284D01*
X48006459Y-95427784D01*
X47985886Y-95459248D01*
X47970194Y-95483985D01*
X47959181Y-95502306D01*
X47952643Y-95514523D01*
X47950405Y-95520641D01*
X47950178Y-95524119D01*
X47950728Y-95527865D01*
X47952543Y-95532407D01*
X47956114Y-95538273D01*
X47961930Y-95545989D01*
X47970481Y-95556083D01*
X47982256Y-95569083D01*
X47997745Y-95585517D01*
X48017439Y-95605911D01*
X48041826Y-95630794D01*
X48071396Y-95660694D01*
X48106640Y-95696136D01*
X48148046Y-95737651D01*
X48196104Y-95785763D01*
X48201650Y-95791313D01*
X48250759Y-95840428D01*
X48293228Y-95882816D01*
X48329578Y-95918965D01*
X48360330Y-95949365D01*
X48386003Y-95974504D01*
X48407119Y-95994872D01*
X48424198Y-96010957D01*
X48437761Y-96023249D01*
X48448329Y-96032236D01*
X48456421Y-96038408D01*
X48462560Y-96042253D01*
X48467265Y-96044260D01*
X48471056Y-96044919D01*
X48471685Y-96044932D01*
X48476506Y-96044003D01*
X48483905Y-96040964D01*
X48494467Y-96035439D01*
X48508771Y-96027052D01*
X48527402Y-96015426D01*
X48550940Y-96000186D01*
X48579969Y-95980955D01*
X48615070Y-95957356D01*
X48656825Y-95929014D01*
X48705817Y-95895552D01*
X48755315Y-95861615D01*
X48802240Y-95829478D01*
X48847003Y-95798972D01*
X48888851Y-95770601D01*
X48927029Y-95744869D01*
X48960783Y-95722280D01*
X48989359Y-95703339D01*
X49012003Y-95688549D01*
X49027962Y-95678415D01*
X49036480Y-95673441D01*
X49037297Y-95673084D01*
X49043434Y-95671585D01*
X49050387Y-95671799D01*
X49059623Y-95674294D01*
X49072606Y-95679634D01*
X49090801Y-95688387D01*
X49115673Y-95701119D01*
X49132424Y-95709863D01*
X49162597Y-95725719D01*
X49193560Y-95742080D01*
X49222575Y-95757492D01*
X49246906Y-95770504D01*
X49257832Y-95776401D01*
X49287793Y-95791218D01*
X49310863Y-95799270D01*
X49327648Y-95800661D01*
X49338755Y-95795493D01*
X49342208Y-95790786D01*
X49344804Y-95784887D01*
X49351043Y-95770171D01*
X49360686Y-95747215D01*
X49373492Y-95716597D01*
X49389220Y-95678894D01*
X49407631Y-95634683D01*
X49428485Y-95584543D01*
X49451540Y-95529052D01*
X49476557Y-95468785D01*
X49503296Y-95404322D01*
X49531516Y-95336240D01*
X49560978Y-95265115D01*
X49589035Y-95197340D01*
X49625989Y-95107983D01*
X49659185Y-95027571D01*
X49688796Y-94955669D01*
X49714995Y-94891848D01*
X49737952Y-94835673D01*
X49757842Y-94786713D01*
X49774836Y-94744536D01*
X49789106Y-94708710D01*
X49800824Y-94678802D01*
X49810164Y-94654381D01*
X49817296Y-94635013D01*
X49822394Y-94620267D01*
X49825630Y-94609712D01*
X49827176Y-94602913D01*
X49827276Y-94599701D01*
X49821827Y-94588556D01*
X49809444Y-94576918D01*
X49795387Y-94567361D01*
X49716595Y-94514689D01*
X49647309Y-94461035D01*
X49586869Y-94405671D01*
X49534617Y-94347870D01*
X49489896Y-94286904D01*
X49452046Y-94222047D01*
X49420674Y-94153227D01*
X49393683Y-94072324D01*
X49376324Y-93989378D01*
X49368501Y-93905296D01*
X49370117Y-93820987D01*
X49381076Y-93737358D01*
X49401282Y-93655318D01*
X49430638Y-93575772D01*
X49469048Y-93499631D01*
X49494372Y-93458971D01*
X49547019Y-93389255D01*
X49606772Y-93326603D01*
X49673110Y-93271366D01*
X49745507Y-93223892D01*
X49823440Y-93184531D01*
X49906385Y-93153630D01*
X49982675Y-93133803D01*
X50011409Y-93129398D01*
X50047563Y-93126331D01*
X50088477Y-93124603D01*
X50131494Y-93124214D01*
X50173955Y-93125163D01*
X50213203Y-93127451D01*
X50246578Y-93131077D01*
X50262243Y-93133803D01*
X50350285Y-93157201D01*
X50433004Y-93189248D01*
X50510357Y-93229921D01*
X50582304Y-93279196D01*
X50648803Y-93337051D01*
X50685932Y-93375717D01*
X50739126Y-93442301D01*
X50783894Y-93513918D01*
X50820079Y-93589696D01*
X50847527Y-93668763D01*
X50866083Y-93750249D01*
X50875592Y-93833282D01*
X50875899Y-93916991D01*
X50866849Y-94000505D01*
X50848287Y-94082953D01*
X50824244Y-94153227D01*
X50797482Y-94213509D01*
X50766887Y-94269367D01*
X50731613Y-94321725D01*
X50690817Y-94371504D01*
X50643656Y-94419626D01*
X50589284Y-94467013D01*
X50526858Y-94514588D01*
X50455534Y-94563273D01*
X50439333Y-94573732D01*
X50424565Y-94586625D01*
X50417609Y-94599847D01*
X50417848Y-94603760D01*
X50419683Y-94611194D01*
X50423284Y-94622575D01*
X50428822Y-94638329D01*
X50436466Y-94658882D01*
X50446386Y-94684660D01*
X50458752Y-94716089D01*
X50473734Y-94753596D01*
X50491503Y-94797606D01*
X50512227Y-94848546D01*
X50536076Y-94906841D01*
X50563222Y-94972917D01*
X50593832Y-95047202D01*
X50628079Y-95130120D01*
X50655883Y-95197340D01*
X50686276Y-95270757D01*
X50715649Y-95341664D01*
X50743763Y-95409485D01*
X50770376Y-95473642D01*
X50795249Y-95533557D01*
X50818141Y-95588652D01*
X50838813Y-95638351D01*
X50857023Y-95682074D01*
X50872532Y-95719246D01*
X50885100Y-95749287D01*
X50894486Y-95771622D01*
X50900450Y-95785671D01*
X50902710Y-95790786D01*
X50911337Y-95799024D01*
X50925357Y-95800753D01*
X50945375Y-95795869D01*
X50971996Y-95784270D01*
X50987085Y-95776401D01*
X51007426Y-95765456D01*
X51034046Y-95751265D01*
X51064207Y-95735280D01*
X51095173Y-95718953D01*
X51112494Y-95709863D01*
X51141587Y-95694743D01*
X51163211Y-95683908D01*
X51178831Y-95676793D01*
X51189912Y-95672829D01*
X51197918Y-95671452D01*
X51204315Y-95672095D01*
X51207620Y-95673084D01*
X51214352Y-95676821D01*
X51228694Y-95685833D01*
X51249893Y-95699614D01*
X51277194Y-95717660D01*
X51309843Y-95739468D01*
X51347086Y-95764534D01*
X51388170Y-95792352D01*
X51432340Y-95822420D01*
X51478843Y-95854232D01*
X51489603Y-95861615D01*
X51545473Y-95899913D01*
X51593594Y-95932758D01*
X51634545Y-95960526D01*
X51668908Y-95983592D01*
X51697262Y-96002331D01*
X51720188Y-96017119D01*
X51738266Y-96028330D01*
X51752077Y-96036340D01*
X51762201Y-96041523D01*
X51769219Y-96044256D01*
X51773183Y-96044932D01*
X51776863Y-96044458D01*
X51781379Y-96042710D01*
X51787249Y-96039199D01*
X51794995Y-96033438D01*
X51805136Y-96024936D01*
X51818194Y-96013206D01*
X51834689Y-95997759D01*
X51855141Y-95978106D01*
X51880071Y-95953760D01*
X51909998Y-95924230D01*
X51945444Y-95889029D01*
X51986929Y-95847668D01*
X52034974Y-95799659D01*
X52043229Y-95791403D01*
X52092036Y-95742574D01*
X52134138Y-95700398D01*
X52170023Y-95664347D01*
X52200181Y-95633895D01*
X52225104Y-95608513D01*
X52245280Y-95587674D01*
X52261199Y-95570850D01*
X52273352Y-95557513D01*
X52282228Y-95547136D01*
X52288317Y-95539192D01*
X52292109Y-95533151D01*
X52294094Y-95528488D01*
X52294762Y-95524673D01*
X52294603Y-95521181D01*
X52294549Y-95520730D01*
X52292039Y-95513980D01*
X52285392Y-95501632D01*
X52274390Y-95483353D01*
X52258814Y-95458808D01*
X52238445Y-95427662D01*
X52213064Y-95389580D01*
X52182452Y-95344229D01*
X52146391Y-95291274D01*
X52104661Y-95230381D01*
X52103305Y-95228407D01*
X52063941Y-95171022D01*
X52030066Y-95121418D01*
X52001330Y-95079057D01*
X51977382Y-95043401D01*
X51957873Y-95013908D01*
X51942451Y-94990041D01*
X51930767Y-94971260D01*
X51922470Y-94957025D01*
X51917209Y-94946798D01*
X51914635Y-94940038D01*
X51914234Y-94937407D01*
X51916125Y-94929024D01*
X51921513Y-94912382D01*
X51929973Y-94888540D01*
X51941077Y-94858559D01*
X51954401Y-94823498D01*
X51969517Y-94784418D01*
X51986000Y-94742379D01*
X52003423Y-94698441D01*
X52021360Y-94653663D01*
X52039386Y-94609107D01*
X52057073Y-94565831D01*
X52073995Y-94524896D01*
X52089727Y-94487362D01*
X52103841Y-94454290D01*
X52115913Y-94426738D01*
X52125516Y-94405767D01*
X52132223Y-94392438D01*
X52135087Y-94388102D01*
X52138601Y-94385634D01*
X52144447Y-94382982D01*
X52153329Y-94379995D01*
X52165950Y-94376521D01*
X52183013Y-94372412D01*
X52205221Y-94367516D01*
X52233276Y-94361683D01*
X52267881Y-94354762D01*
X52309741Y-94346603D01*
X52359557Y-94337056D01*
X52418033Y-94325969D01*
X52479209Y-94314445D01*
X52536091Y-94303724D01*
X52590140Y-94293481D01*
X52640510Y-94283879D01*
X52686351Y-94275084D01*
X52726817Y-94267259D01*
X52761060Y-94260568D01*
X52788231Y-94255177D01*
X52807484Y-94251249D01*
X52817970Y-94248948D01*
X52819599Y-94248489D01*
X52823344Y-94246605D01*
X52826583Y-94243920D01*
X52829353Y-94239731D01*
X52831691Y-94233335D01*
X52833633Y-94224030D01*
X52835216Y-94211113D01*
X52836477Y-94193881D01*
X52837452Y-94171631D01*
X52838177Y-94143660D01*
X52838690Y-94109266D01*
X52839027Y-94067746D01*
X52839225Y-94018397D01*
X52839319Y-93960517D01*
X52839348Y-93893402D01*
X52839349Y-93869431D01*
X52839349Y-93519224D01*
X52827912Y-93506135D01*
X52824398Y-93502669D01*
X52819652Y-93499502D01*
X52812683Y-93496395D01*
X52802502Y-93493114D01*
X52788119Y-93489421D01*
X52768546Y-93485081D01*
X52742791Y-93479856D01*
X52709867Y-93473510D01*
X52668784Y-93465807D01*
X52625861Y-93457860D01*
X52544553Y-93442854D01*
X52472648Y-93429582D01*
X52409552Y-93417920D01*
X52354674Y-93407744D01*
X52307420Y-93398933D01*
X52267198Y-93391362D01*
X52233415Y-93384908D01*
X52205478Y-93379449D01*
X52182794Y-93374860D01*
X52164772Y-93371019D01*
X52150818Y-93367803D01*
X52140339Y-93365088D01*
X52132744Y-93362751D01*
X52127439Y-93360669D01*
X52123831Y-93358719D01*
X52121328Y-93356778D01*
X52119337Y-93354721D01*
X52117265Y-93352427D01*
X52116927Y-93352071D01*
X52112329Y-93344727D01*
X52104338Y-93329118D01*
X52093417Y-93306325D01*
X52080035Y-93277426D01*
X52064656Y-93243499D01*
X52047747Y-93205623D01*
X52029773Y-93164879D01*
X52011202Y-93122343D01*
X51992498Y-93079095D01*
X51974128Y-93036214D01*
X51956557Y-92994779D01*
X51940253Y-92955869D01*
X51925681Y-92920562D01*
X51913306Y-92889937D01*
X51903596Y-92865074D01*
X51897016Y-92847050D01*
X51894031Y-92836945D01*
X51893902Y-92835782D01*
X51893935Y-92833246D01*
X51894276Y-92830574D01*
X51895284Y-92827219D01*
X51897322Y-92822634D01*
X51900750Y-92816273D01*
X51905928Y-92807589D01*
X51913218Y-92796035D01*
X51922980Y-92781064D01*
X51935575Y-92762130D01*
X51951364Y-92738685D01*
X51970708Y-92710183D01*
X51993967Y-92676078D01*
X52021503Y-92635822D01*
X52053677Y-92588869D01*
X52090848Y-92534671D01*
X52133379Y-92472683D01*
X52137210Y-92467099D01*
X52173091Y-92414689D01*
X52203498Y-92369998D01*
X52228812Y-92332435D01*
X52249413Y-92301409D01*
X52265680Y-92276326D01*
X52277993Y-92256596D01*
X52286734Y-92241627D01*
X52292280Y-92230826D01*
X52295014Y-92223602D01*
X52295463Y-92220628D01*
X52294883Y-92216970D01*
X52292820Y-92212251D01*
X52288790Y-92205954D01*
X52282307Y-92197566D01*
X52272886Y-92186571D01*
X52260044Y-92172454D01*
X52243294Y-92154699D01*
X52222153Y-92132792D01*
X52196135Y-92106218D01*
X52164756Y-92074460D01*
X52127530Y-92037005D01*
X52083973Y-91993337D01*
X52042524Y-91951863D01*
X51993139Y-91902519D01*
X51950397Y-91859918D01*
X51913789Y-91823581D01*
X51882806Y-91793026D01*
X51856938Y-91767775D01*
X51835676Y-91747346D01*
X51818511Y-91731259D01*
X51804932Y-91719033D01*
X51794431Y-91710189D01*
X51786499Y-91704246D01*
X51780625Y-91700724D01*
X51776300Y-91699142D01*
X51774286Y-91698925D01*
X51767103Y-91700531D01*
X51755828Y-91705659D01*
X51739699Y-91714775D01*
X51717950Y-91728344D01*
X51689817Y-91746830D01*
X51654536Y-91770700D01*
X51639642Y-91780904D01*
X51566462Y-91831168D01*
X51501187Y-91875982D01*
X51443350Y-91915661D01*
X51392480Y-91950516D01*
X51348107Y-91980859D01*
X51309761Y-92007003D01*
X51276974Y-92029261D01*
X51249275Y-92047945D01*
X51226194Y-92063367D01*
X51207263Y-92075839D01*
X51192011Y-92085674D01*
X51179968Y-92093185D01*
X51170665Y-92098684D01*
X51163632Y-92102483D01*
X51158399Y-92104895D01*
X51154497Y-92106231D01*
X51151456Y-92106806D01*
X51149476Y-92106923D01*
X51141515Y-92105065D01*
X51124971Y-92099564D01*
X51100629Y-92090722D01*
X51069276Y-92078841D01*
X51031697Y-92064224D01*
X50988679Y-92047170D01*
X50941007Y-92027984D01*
X50892992Y-92008411D01*
X50835260Y-91984656D01*
X50786392Y-91964345D01*
X50745787Y-91947212D01*
X50712844Y-91932989D01*
X50686963Y-91921409D01*
X50667544Y-91912205D01*
X50653985Y-91905108D01*
X50645687Y-91899853D01*
X50642502Y-91896892D01*
X50639987Y-91891372D01*
X50636608Y-91880159D01*
X50632264Y-91862771D01*
X50626857Y-91838724D01*
X50620288Y-91807535D01*
X50612455Y-91768722D01*
X50603262Y-91721802D01*
X50592607Y-91666292D01*
X50580391Y-91601709D01*
X50567279Y-91531667D01*
X50553280Y-91456933D01*
X50540941Y-91391816D01*
X50530180Y-91335919D01*
X50520915Y-91288841D01*
X50513065Y-91250186D01*
X50506548Y-91219554D01*
X50501281Y-91196547D01*
X50497183Y-91180766D01*
X50494172Y-91171814D01*
X50492936Y-91169641D01*
X50490944Y-91167815D01*
X50488034Y-91166238D01*
X50483495Y-91164893D01*
X50476617Y-91163760D01*
X50466687Y-91162822D01*
X50452995Y-91162060D01*
X50434829Y-91161457D01*
X50411477Y-91160993D01*
X50382230Y-91160650D01*
X50346374Y-91160411D01*
X50303200Y-91160257D01*
X50251995Y-91160170D01*
X50192048Y-91160130D01*
X50122649Y-91160122D01*
X50122459Y-91160122D01*
X50053042Y-91160130D01*
X50053042Y-91160130D01*
G37*
X50053042Y-91160130D02*
X49993080Y-91160169D01*
X49941861Y-91160255D01*
X49898674Y-91160408D01*
X49862806Y-91160645D01*
X49833547Y-91160986D01*
X49810185Y-91161448D01*
X49792008Y-91162050D01*
X49778305Y-91162810D01*
X49768364Y-91163747D01*
X49761474Y-91164879D01*
X49756923Y-91166225D01*
X49753999Y-91167802D01*
X49751992Y-91169630D01*
X49751935Y-91169692D01*
X49749505Y-91174938D01*
X49746063Y-91186639D01*
X49741523Y-91205207D01*
X49735801Y-91231055D01*
X49728812Y-91264596D01*
X49720471Y-91306243D01*
X49710693Y-91356408D01*
X49699394Y-91415504D01*
X49686488Y-91483944D01*
X49677544Y-91531783D01*
X49663654Y-91605950D01*
X49651419Y-91670554D01*
X49640748Y-91726047D01*
X49631546Y-91772880D01*
X49623721Y-91811507D01*
X49617179Y-91842377D01*
X49611829Y-91865944D01*
X49607577Y-91882659D01*
X49604329Y-91892973D01*
X49602453Y-91896841D01*
X49597662Y-91900899D01*
X49587778Y-91906719D01*
X49572228Y-91914556D01*
X49550438Y-91924665D01*
X49521835Y-91937301D01*
X49485845Y-91952720D01*
X49441895Y-91971176D01*
X49389411Y-91992926D01*
X49352013Y-92008308D01*
X49299231Y-92029836D01*
X49250904Y-92049285D01*
X49207750Y-92066380D01*
X49170490Y-92080843D01*
X49139842Y-92092398D01*
X49116526Y-92100770D01*
X49101263Y-92105680D01*
X49095258Y-92106931D01*
X49090161Y-92105563D01*
X49081388Y-92101383D01*
X49068455Y-92094074D01*
X49050877Y-92083319D01*
X49028170Y-92068800D01*
X48999847Y-92050202D01*
X48965425Y-92027207D01*
X48924419Y-91999499D01*
X48876344Y-91966760D01*
X48820715Y-91928674D01*
X48785192Y-91904280D01*
X48722104Y-91861013D01*
X48666973Y-91823409D01*
X48619465Y-91791249D01*
X48579245Y-91764315D01*
X48545980Y-91742387D01*
X48519335Y-91725245D01*
X48498977Y-91712671D01*
X48484571Y-91704445D01*
X48475783Y-91700348D01*
X48473691Y-91699806D01*
X48470202Y-91699590D01*
X48466448Y-91700149D01*
X48461899Y-91701972D01*
X48456030Y-91705550D01*
X48448313Y-91711372D01*
X48438219Y-91719928D01*
X48425223Y-91731708D01*
X48408795Y-91747203D01*
X48388409Y-91766902D01*
X48363538Y-91791296D01*
X48333654Y-91820873D01*
X48298229Y-91856124D01*
X48256736Y-91897540D01*
X48208648Y-91945609D01*
X48203018Y-91951239D01*
X48153743Y-92000550D01*
X48111204Y-92043219D01*
X48074917Y-92079759D01*
X48044398Y-92110685D01*
X48019164Y-92136509D01*
X47998731Y-92157745D01*
X47982614Y-92174909D01*
X47970330Y-92188514D01*
X47961395Y-92199074D01*
X47955326Y-92207102D01*
X47951638Y-92213113D01*
X47949847Y-92217621D01*
X47949455Y-92220579D01*
X47950624Y-92225810D01*
X47954380Y-92234284D01*
X47961094Y-92246580D01*
X47971138Y-92263277D01*
X47984885Y-92284954D01*
X48002706Y-92312188D01*
X48024974Y-92345558D01*
X48052060Y-92385643D01*
X48084337Y-92433021D01*
X48112850Y-92474675D01*
X48144349Y-92520622D01*
X48175209Y-92565647D01*
X48204752Y-92608759D01*
X48232300Y-92648968D01*
X48257174Y-92685284D01*
X48278696Y-92716716D01*
X48296187Y-92742274D01*
X48308969Y-92760966D01*
X48313631Y-92767793D01*
X48327796Y-92789458D01*
X48339482Y-92809047D01*
X48347578Y-92824578D01*
X48350976Y-92834068D01*
X48351016Y-92834687D01*
X48349010Y-92842528D01*
X48343302Y-92858566D01*
X48334356Y-92881724D01*
X48322636Y-92910926D01*
X48308605Y-92945096D01*
X48292729Y-92983157D01*
X48275470Y-93024034D01*
X48257293Y-93066650D01*
X48238662Y-93109927D01*
X48220041Y-93152791D01*
X48201893Y-93194165D01*
X48184683Y-93232972D01*
X48168875Y-93268136D01*
X48154933Y-93298581D01*
X48143321Y-93323230D01*
X48134502Y-93341008D01*
X48128941Y-93350837D01*
X48127980Y-93352071D01*
X48125933Y-93354371D01*
X48124159Y-93356399D01*
X48122068Y-93358276D01*
X48119069Y-93360127D01*
X48114571Y-93362074D01*
X48107983Y-93364240D01*
X48098714Y-93366748D01*
X48086172Y-93369722D01*
X48069768Y-93373283D01*
X48048910Y-93377555D01*
X48023006Y-93382661D01*
X47991467Y-93388724D01*
X47953700Y-93395867D01*
X47909116Y-93404212D01*
X47857122Y-93413883D01*
X47797129Y-93425003D01*
X47728545Y-93437695D01*
X47650778Y-93452081D01*
X47619238Y-93457917D01*
X47568681Y-93467348D01*
X47527244Y-93475262D01*
X47494029Y-93481865D01*
X47468136Y-93487360D01*
X47448666Y-93491952D01*
X47434721Y-93495844D01*
X47425401Y-93499241D01*
X47419806Y-93502348D01*
X47418457Y-93503507D01*
X47416457Y-93505707D01*
X47414729Y-93508500D01*
X47413250Y-93512608D01*
X47411997Y-93518756D01*
X47410947Y-93527664D01*
X47410077Y-93540057D01*
X47409363Y-93556656D01*
X47408783Y-93578185D01*
X47408314Y-93605366D01*
X47407931Y-93638922D01*
X47407612Y-93679576D01*
X47407334Y-93728050D01*
X47407074Y-93785067D01*
X47406808Y-93851350D01*
X47406739Y-93869126D01*
X47405368Y-94224400D01*
X47417156Y-94238104D01*
X47419812Y-94240872D01*
X47423267Y-94243468D01*
X47428251Y-94246055D01*
X47435495Y-94248793D01*
X47445728Y-94251843D01*
X47459680Y-94255365D01*
X47478081Y-94259520D01*
X47501662Y-94264470D01*
X47531152Y-94270373D01*
X47567282Y-94277393D01*
X47610781Y-94285688D01*
X47662379Y-94295421D01*
X47722807Y-94306751D01*
X47763418Y-94314348D01*
X47830592Y-94326937D01*
X47888464Y-94337858D01*
X47937737Y-94347261D01*
X47979111Y-94355294D01*
X48013288Y-94362107D01*
X48040969Y-94367849D01*
X48062855Y-94372670D01*
X48079648Y-94376719D01*
X48092049Y-94380145D01*
X48100759Y-94383097D01*
X48106479Y-94385725D01*
X48109831Y-94388102D01*
X48114103Y-94395043D01*
X48121589Y-94410416D01*
X48131862Y-94433162D01*
X48144495Y-94462220D01*
X48159063Y-94496530D01*
X48175139Y-94535031D01*
X48192297Y-94576665D01*
X48210110Y-94620370D01*
X48228153Y-94665087D01*
X48246000Y-94709755D01*
X48263224Y-94753315D01*
X48279399Y-94794706D01*
X48294099Y-94832868D01*
X48306898Y-94866742D01*
X48317369Y-94895266D01*
X48325086Y-94917381D01*
X48329624Y-94932027D01*
X48330684Y-94937453D01*
X48329576Y-94942366D01*
X48326020Y-94950382D01*
X48319662Y-94962044D01*
X48310152Y-94977893D01*
X48297136Y-94998472D01*
X48280264Y-95024321D01*
X48259183Y-95055983D01*
X48233541Y-95093999D01*
X48202987Y-95138911D01*
X48167168Y-95191261D01*
X48141638Y-95228453D01*
X48099504Y-95289929D01*
X48063065Y-95343436D01*
X48032118Y-95389284D01*
X48006459Y-95427784D01*
X47985886Y-95459248D01*
X47970194Y-95483985D01*
X47959181Y-95502306D01*
X47952643Y-95514523D01*
X47950405Y-95520641D01*
X47950178Y-95524119D01*
X47950728Y-95527865D01*
X47952543Y-95532407D01*
X47956114Y-95538273D01*
X47961930Y-95545989D01*
X47970481Y-95556083D01*
X47982256Y-95569083D01*
X47997745Y-95585517D01*
X48017439Y-95605911D01*
X48041826Y-95630794D01*
X48071396Y-95660694D01*
X48106640Y-95696136D01*
X48148046Y-95737651D01*
X48196104Y-95785763D01*
X48201650Y-95791313D01*
X48250759Y-95840428D01*
X48293228Y-95882816D01*
X48329578Y-95918965D01*
X48360330Y-95949365D01*
X48386003Y-95974504D01*
X48407119Y-95994872D01*
X48424198Y-96010957D01*
X48437761Y-96023249D01*
X48448329Y-96032236D01*
X48456421Y-96038408D01*
X48462560Y-96042253D01*
X48467265Y-96044260D01*
X48471056Y-96044919D01*
X48471685Y-96044932D01*
X48476506Y-96044003D01*
X48483905Y-96040964D01*
X48494467Y-96035439D01*
X48508771Y-96027052D01*
X48527402Y-96015426D01*
X48550940Y-96000186D01*
X48579969Y-95980955D01*
X48615070Y-95957356D01*
X48656825Y-95929014D01*
X48705817Y-95895552D01*
X48755315Y-95861615D01*
X48802240Y-95829478D01*
X48847003Y-95798972D01*
X48888851Y-95770601D01*
X48927029Y-95744869D01*
X48960783Y-95722280D01*
X48989359Y-95703339D01*
X49012003Y-95688549D01*
X49027962Y-95678415D01*
X49036480Y-95673441D01*
X49037297Y-95673084D01*
X49043434Y-95671585D01*
X49050387Y-95671799D01*
X49059623Y-95674294D01*
X49072606Y-95679634D01*
X49090801Y-95688387D01*
X49115673Y-95701119D01*
X49132424Y-95709863D01*
X49162597Y-95725719D01*
X49193560Y-95742080D01*
X49222575Y-95757492D01*
X49246906Y-95770504D01*
X49257832Y-95776401D01*
X49287793Y-95791218D01*
X49310863Y-95799270D01*
X49327648Y-95800661D01*
X49338755Y-95795493D01*
X49342208Y-95790786D01*
X49344804Y-95784887D01*
X49351043Y-95770171D01*
X49360686Y-95747215D01*
X49373492Y-95716597D01*
X49389220Y-95678894D01*
X49407631Y-95634683D01*
X49428485Y-95584543D01*
X49451540Y-95529052D01*
X49476557Y-95468785D01*
X49503296Y-95404322D01*
X49531516Y-95336240D01*
X49560978Y-95265115D01*
X49589035Y-95197340D01*
X49625989Y-95107983D01*
X49659185Y-95027571D01*
X49688796Y-94955669D01*
X49714995Y-94891848D01*
X49737952Y-94835673D01*
X49757842Y-94786713D01*
X49774836Y-94744536D01*
X49789106Y-94708710D01*
X49800824Y-94678802D01*
X49810164Y-94654381D01*
X49817296Y-94635013D01*
X49822394Y-94620267D01*
X49825630Y-94609712D01*
X49827176Y-94602913D01*
X49827276Y-94599701D01*
X49821827Y-94588556D01*
X49809444Y-94576918D01*
X49795387Y-94567361D01*
X49716595Y-94514689D01*
X49647309Y-94461035D01*
X49586869Y-94405671D01*
X49534617Y-94347870D01*
X49489896Y-94286904D01*
X49452046Y-94222047D01*
X49420674Y-94153227D01*
X49393683Y-94072324D01*
X49376324Y-93989378D01*
X49368501Y-93905296D01*
X49370117Y-93820987D01*
X49381076Y-93737358D01*
X49401282Y-93655318D01*
X49430638Y-93575772D01*
X49469048Y-93499631D01*
X49494372Y-93458971D01*
X49547019Y-93389255D01*
X49606772Y-93326603D01*
X49673110Y-93271366D01*
X49745507Y-93223892D01*
X49823440Y-93184531D01*
X49906385Y-93153630D01*
X49982675Y-93133803D01*
X50011409Y-93129398D01*
X50047563Y-93126331D01*
X50088477Y-93124603D01*
X50131494Y-93124214D01*
X50173955Y-93125163D01*
X50213203Y-93127451D01*
X50246578Y-93131077D01*
X50262243Y-93133803D01*
X50350285Y-93157201D01*
X50433004Y-93189248D01*
X50510357Y-93229921D01*
X50582304Y-93279196D01*
X50648803Y-93337051D01*
X50685932Y-93375717D01*
X50739126Y-93442301D01*
X50783894Y-93513918D01*
X50820079Y-93589696D01*
X50847527Y-93668763D01*
X50866083Y-93750249D01*
X50875592Y-93833282D01*
X50875899Y-93916991D01*
X50866849Y-94000505D01*
X50848287Y-94082953D01*
X50824244Y-94153227D01*
X50797482Y-94213509D01*
X50766887Y-94269367D01*
X50731613Y-94321725D01*
X50690817Y-94371504D01*
X50643656Y-94419626D01*
X50589284Y-94467013D01*
X50526858Y-94514588D01*
X50455534Y-94563273D01*
X50439333Y-94573732D01*
X50424565Y-94586625D01*
X50417609Y-94599847D01*
X50417848Y-94603760D01*
X50419683Y-94611194D01*
X50423284Y-94622575D01*
X50428822Y-94638329D01*
X50436466Y-94658882D01*
X50446386Y-94684660D01*
X50458752Y-94716089D01*
X50473734Y-94753596D01*
X50491503Y-94797606D01*
X50512227Y-94848546D01*
X50536076Y-94906841D01*
X50563222Y-94972917D01*
X50593832Y-95047202D01*
X50628079Y-95130120D01*
X50655883Y-95197340D01*
X50686276Y-95270757D01*
X50715649Y-95341664D01*
X50743763Y-95409485D01*
X50770376Y-95473642D01*
X50795249Y-95533557D01*
X50818141Y-95588652D01*
X50838813Y-95638351D01*
X50857023Y-95682074D01*
X50872532Y-95719246D01*
X50885100Y-95749287D01*
X50894486Y-95771622D01*
X50900450Y-95785671D01*
X50902710Y-95790786D01*
X50911337Y-95799024D01*
X50925357Y-95800753D01*
X50945375Y-95795869D01*
X50971996Y-95784270D01*
X50987085Y-95776401D01*
X51007426Y-95765456D01*
X51034046Y-95751265D01*
X51064207Y-95735280D01*
X51095173Y-95718953D01*
X51112494Y-95709863D01*
X51141587Y-95694743D01*
X51163211Y-95683908D01*
X51178831Y-95676793D01*
X51189912Y-95672829D01*
X51197918Y-95671452D01*
X51204315Y-95672095D01*
X51207620Y-95673084D01*
X51214352Y-95676821D01*
X51228694Y-95685833D01*
X51249893Y-95699614D01*
X51277194Y-95717660D01*
X51309843Y-95739468D01*
X51347086Y-95764534D01*
X51388170Y-95792352D01*
X51432340Y-95822420D01*
X51478843Y-95854232D01*
X51489603Y-95861615D01*
X51545473Y-95899913D01*
X51593594Y-95932758D01*
X51634545Y-95960526D01*
X51668908Y-95983592D01*
X51697262Y-96002331D01*
X51720188Y-96017119D01*
X51738266Y-96028330D01*
X51752077Y-96036340D01*
X51762201Y-96041523D01*
X51769219Y-96044256D01*
X51773183Y-96044932D01*
X51776863Y-96044458D01*
X51781379Y-96042710D01*
X51787249Y-96039199D01*
X51794995Y-96033438D01*
X51805136Y-96024936D01*
X51818194Y-96013206D01*
X51834689Y-95997759D01*
X51855141Y-95978106D01*
X51880071Y-95953760D01*
X51909998Y-95924230D01*
X51945444Y-95889029D01*
X51986929Y-95847668D01*
X52034974Y-95799659D01*
X52043229Y-95791403D01*
X52092036Y-95742574D01*
X52134138Y-95700398D01*
X52170023Y-95664347D01*
X52200181Y-95633895D01*
X52225104Y-95608513D01*
X52245280Y-95587674D01*
X52261199Y-95570850D01*
X52273352Y-95557513D01*
X52282228Y-95547136D01*
X52288317Y-95539192D01*
X52292109Y-95533151D01*
X52294094Y-95528488D01*
X52294762Y-95524673D01*
X52294603Y-95521181D01*
X52294549Y-95520730D01*
X52292039Y-95513980D01*
X52285392Y-95501632D01*
X52274390Y-95483353D01*
X52258814Y-95458808D01*
X52238445Y-95427662D01*
X52213064Y-95389580D01*
X52182452Y-95344229D01*
X52146391Y-95291274D01*
X52104661Y-95230381D01*
X52103305Y-95228407D01*
X52063941Y-95171022D01*
X52030066Y-95121418D01*
X52001330Y-95079057D01*
X51977382Y-95043401D01*
X51957873Y-95013908D01*
X51942451Y-94990041D01*
X51930767Y-94971260D01*
X51922470Y-94957025D01*
X51917209Y-94946798D01*
X51914635Y-94940038D01*
X51914234Y-94937407D01*
X51916125Y-94929024D01*
X51921513Y-94912382D01*
X51929973Y-94888540D01*
X51941077Y-94858559D01*
X51954401Y-94823498D01*
X51969517Y-94784418D01*
X51986000Y-94742379D01*
X52003423Y-94698441D01*
X52021360Y-94653663D01*
X52039386Y-94609107D01*
X52057073Y-94565831D01*
X52073995Y-94524896D01*
X52089727Y-94487362D01*
X52103841Y-94454290D01*
X52115913Y-94426738D01*
X52125516Y-94405767D01*
X52132223Y-94392438D01*
X52135087Y-94388102D01*
X52138601Y-94385634D01*
X52144447Y-94382982D01*
X52153329Y-94379995D01*
X52165950Y-94376521D01*
X52183013Y-94372412D01*
X52205221Y-94367516D01*
X52233276Y-94361683D01*
X52267881Y-94354762D01*
X52309741Y-94346603D01*
X52359557Y-94337056D01*
X52418033Y-94325969D01*
X52479209Y-94314445D01*
X52536091Y-94303724D01*
X52590140Y-94293481D01*
X52640510Y-94283879D01*
X52686351Y-94275084D01*
X52726817Y-94267259D01*
X52761060Y-94260568D01*
X52788231Y-94255177D01*
X52807484Y-94251249D01*
X52817970Y-94248948D01*
X52819599Y-94248489D01*
X52823344Y-94246605D01*
X52826583Y-94243920D01*
X52829353Y-94239731D01*
X52831691Y-94233335D01*
X52833633Y-94224030D01*
X52835216Y-94211113D01*
X52836477Y-94193881D01*
X52837452Y-94171631D01*
X52838177Y-94143660D01*
X52838690Y-94109266D01*
X52839027Y-94067746D01*
X52839225Y-94018397D01*
X52839319Y-93960517D01*
X52839348Y-93893402D01*
X52839349Y-93869431D01*
X52839349Y-93519224D01*
X52827912Y-93506135D01*
X52824398Y-93502669D01*
X52819652Y-93499502D01*
X52812683Y-93496395D01*
X52802502Y-93493114D01*
X52788119Y-93489421D01*
X52768546Y-93485081D01*
X52742791Y-93479856D01*
X52709867Y-93473510D01*
X52668784Y-93465807D01*
X52625861Y-93457860D01*
X52544553Y-93442854D01*
X52472648Y-93429582D01*
X52409552Y-93417920D01*
X52354674Y-93407744D01*
X52307420Y-93398933D01*
X52267198Y-93391362D01*
X52233415Y-93384908D01*
X52205478Y-93379449D01*
X52182794Y-93374860D01*
X52164772Y-93371019D01*
X52150818Y-93367803D01*
X52140339Y-93365088D01*
X52132744Y-93362751D01*
X52127439Y-93360669D01*
X52123831Y-93358719D01*
X52121328Y-93356778D01*
X52119337Y-93354721D01*
X52117265Y-93352427D01*
X52116927Y-93352071D01*
X52112329Y-93344727D01*
X52104338Y-93329118D01*
X52093417Y-93306325D01*
X52080035Y-93277426D01*
X52064656Y-93243499D01*
X52047747Y-93205623D01*
X52029773Y-93164879D01*
X52011202Y-93122343D01*
X51992498Y-93079095D01*
X51974128Y-93036214D01*
X51956557Y-92994779D01*
X51940253Y-92955869D01*
X51925681Y-92920562D01*
X51913306Y-92889937D01*
X51903596Y-92865074D01*
X51897016Y-92847050D01*
X51894031Y-92836945D01*
X51893902Y-92835782D01*
X51893935Y-92833246D01*
X51894276Y-92830574D01*
X51895284Y-92827219D01*
X51897322Y-92822634D01*
X51900750Y-92816273D01*
X51905928Y-92807589D01*
X51913218Y-92796035D01*
X51922980Y-92781064D01*
X51935575Y-92762130D01*
X51951364Y-92738685D01*
X51970708Y-92710183D01*
X51993967Y-92676078D01*
X52021503Y-92635822D01*
X52053677Y-92588869D01*
X52090848Y-92534671D01*
X52133379Y-92472683D01*
X52137210Y-92467099D01*
X52173091Y-92414689D01*
X52203498Y-92369998D01*
X52228812Y-92332435D01*
X52249413Y-92301409D01*
X52265680Y-92276326D01*
X52277993Y-92256596D01*
X52286734Y-92241627D01*
X52292280Y-92230826D01*
X52295014Y-92223602D01*
X52295463Y-92220628D01*
X52294883Y-92216970D01*
X52292820Y-92212251D01*
X52288790Y-92205954D01*
X52282307Y-92197566D01*
X52272886Y-92186571D01*
X52260044Y-92172454D01*
X52243294Y-92154699D01*
X52222153Y-92132792D01*
X52196135Y-92106218D01*
X52164756Y-92074460D01*
X52127530Y-92037005D01*
X52083973Y-91993337D01*
X52042524Y-91951863D01*
X51993139Y-91902519D01*
X51950397Y-91859918D01*
X51913789Y-91823581D01*
X51882806Y-91793026D01*
X51856938Y-91767775D01*
X51835676Y-91747346D01*
X51818511Y-91731259D01*
X51804932Y-91719033D01*
X51794431Y-91710189D01*
X51786499Y-91704246D01*
X51780625Y-91700724D01*
X51776300Y-91699142D01*
X51774286Y-91698925D01*
X51767103Y-91700531D01*
X51755828Y-91705659D01*
X51739699Y-91714775D01*
X51717950Y-91728344D01*
X51689817Y-91746830D01*
X51654536Y-91770700D01*
X51639642Y-91780904D01*
X51566462Y-91831168D01*
X51501187Y-91875982D01*
X51443350Y-91915661D01*
X51392480Y-91950516D01*
X51348107Y-91980859D01*
X51309761Y-92007003D01*
X51276974Y-92029261D01*
X51249275Y-92047945D01*
X51226194Y-92063367D01*
X51207263Y-92075839D01*
X51192011Y-92085674D01*
X51179968Y-92093185D01*
X51170665Y-92098684D01*
X51163632Y-92102483D01*
X51158399Y-92104895D01*
X51154497Y-92106231D01*
X51151456Y-92106806D01*
X51149476Y-92106923D01*
X51141515Y-92105065D01*
X51124971Y-92099564D01*
X51100629Y-92090722D01*
X51069276Y-92078841D01*
X51031697Y-92064224D01*
X50988679Y-92047170D01*
X50941007Y-92027984D01*
X50892992Y-92008411D01*
X50835260Y-91984656D01*
X50786392Y-91964345D01*
X50745787Y-91947212D01*
X50712844Y-91932989D01*
X50686963Y-91921409D01*
X50667544Y-91912205D01*
X50653985Y-91905108D01*
X50645687Y-91899853D01*
X50642502Y-91896892D01*
X50639987Y-91891372D01*
X50636608Y-91880159D01*
X50632264Y-91862771D01*
X50626857Y-91838724D01*
X50620288Y-91807535D01*
X50612455Y-91768722D01*
X50603262Y-91721802D01*
X50592607Y-91666292D01*
X50580391Y-91601709D01*
X50567279Y-91531667D01*
X50553280Y-91456933D01*
X50540941Y-91391816D01*
X50530180Y-91335919D01*
X50520915Y-91288841D01*
X50513065Y-91250186D01*
X50506548Y-91219554D01*
X50501281Y-91196547D01*
X50497183Y-91180766D01*
X50494172Y-91171814D01*
X50492936Y-91169641D01*
X50490944Y-91167815D01*
X50488034Y-91166238D01*
X50483495Y-91164893D01*
X50476617Y-91163760D01*
X50466687Y-91162822D01*
X50452995Y-91162060D01*
X50434829Y-91161457D01*
X50411477Y-91160993D01*
X50382230Y-91160650D01*
X50346374Y-91160411D01*
X50303200Y-91160257D01*
X50251995Y-91160170D01*
X50192048Y-91160130D01*
X50122649Y-91160122D01*
X50122459Y-91160122D01*
X50053042Y-91160130D01*
D13*
X47769200Y-84093935D02*
X49777265Y-87320027D01*
X49777265Y-87320027D02*
X42730800Y-91706065D01*
X42730800Y-91706065D02*
X40722735Y-88479973D01*
X40722735Y-88479973D02*
X47769200Y-84093935D01*
X61349563Y-90183968D02*
X60049886Y-93754800D01*
X60049886Y-93754800D02*
X52250437Y-90916032D01*
X52250437Y-90916032D02*
X53550114Y-87345200D01*
X53550114Y-87345200D02*
X61349563Y-90183968D01*
X38950000Y-96350000D02*
X42750000Y-96350000D01*
X42750000Y-96350000D02*
X42750000Y-104650000D01*
X42750000Y-104650000D02*
X38950000Y-104650000D01*
X38950000Y-104650000D02*
X38950000Y-96350000D01*
X40777450Y-108649562D02*
X43245353Y-105760019D01*
X43245353Y-105760019D02*
X49556722Y-111150438D01*
X49556722Y-111150438D02*
X47088819Y-114039981D01*
X47088819Y-114039981D02*
X40777450Y-108649562D01*
X56657433Y-113723560D02*
X54626894Y-110511565D01*
X54626894Y-110511565D02*
X61642567Y-106076440D01*
X61642567Y-106076440D02*
X63673106Y-109288435D01*
X63673106Y-109288435D02*
X56657433Y-113723560D01*
X94468177Y-95528460D02*
X91852430Y-98284883D01*
X91852430Y-98284883D02*
X85831823Y-92571540D01*
X85831823Y-92571540D02*
X88447570Y-89815117D01*
X88447570Y-89815117D02*
X94468177Y-95528460D01*
X88447570Y-108334883D02*
X85831823Y-105578460D01*
X85831823Y-105578460D02*
X91852430Y-99865117D01*
X91852430Y-99865117D02*
X94468177Y-102621540D01*
X94468177Y-102621540D02*
X88447570Y-108334883D01*
X59258019Y-100450000D02*
G75*
G03X59258019Y-100450000I-250000J0D01*
G01*
X61730381Y-102818808D02*
X61871802Y-102960229D01*
X62508198Y-102960229D02*
X62366777Y-103101650D01*
X62013223Y-103101650D02*
X62083934Y-103172361D01*
X65018427Y-100450000D02*
X62190000Y-103278427D01*
X62190000Y-103278427D02*
X59361573Y-100450000D01*
X59361573Y-100450000D02*
X62190000Y-97621573D01*
X62190000Y-97621573D02*
X65018427Y-100450000D01*
X54440000Y-100950000D02*
X53540000Y-101850000D01*
X54440000Y-101150000D02*
X53740000Y-101850000D01*
X53940000Y-101850000D02*
X54440000Y-101350000D01*
X54240000Y-101850000D02*
X54440000Y-101650000D01*
X54040000Y-101850000D02*
X54440000Y-101450000D01*
X54440000Y-101850000D02*
X51240000Y-101850000D01*
X51240000Y-101850000D02*
X51240000Y-99050000D01*
X51240000Y-99050000D02*
X54440000Y-99050000D01*
X54440000Y-99050000D02*
X54440000Y-101850000D01*
X44940000Y-94700000D02*
X45940000Y-94700000D01*
X45940000Y-94700000D02*
X45940000Y-92700000D01*
X45940000Y-92700000D02*
X44940000Y-92700000D01*
X44940000Y-92700000D02*
X44940000Y-94700000D01*
X52740000Y-108700000D02*
X52740000Y-107700000D01*
X52740000Y-107700000D02*
X50740000Y-107700000D01*
X50740000Y-107700000D02*
X50740000Y-108700000D01*
X50740000Y-108700000D02*
X52740000Y-108700000D01*
X64100000Y-96700000D02*
X62900000Y-96700000D01*
X64100000Y-96700000D02*
X64100000Y-96200000D01*
X62900000Y-96200000D02*
X62900000Y-96700000D01*
X73750000Y-93250000D02*
G75*
G03X73750000Y-93250000I-1500000J0D01*
G01*
X69250000Y-92250000D02*
X69250000Y-94250000D01*
X75250000Y-94250000D02*
X75250000Y-92250000D01*
X69250000Y-96250000D02*
X75250000Y-96250000D01*
X75250000Y-90250000D02*
X69250000Y-90250000D01*
X83000000Y-93250000D02*
G75*
G03X83000000Y-93250000I-1500000J0D01*
G01*
X78500000Y-92250000D02*
X78500000Y-94250000D01*
X84500000Y-94250000D02*
X84500000Y-92250000D01*
X78500000Y-96250000D02*
X84500000Y-96250000D01*
X84500000Y-90250000D02*
X78500000Y-90250000D01*
X67290000Y-108400000D02*
X68690000Y-108400000D01*
X67290000Y-106500000D02*
X67290000Y-103800000D01*
X67290000Y-103800000D02*
X68690000Y-103800000D01*
X68690000Y-103800000D02*
X68690000Y-106500000D01*
M02*
