G04 #@! TF.FileFunction,Copper,L2,Bot,Signal*
%FSLAX46Y46*%
G04 Gerber Fmt 4.6, Leading zero omitted, Abs format (unit mm)*
G04 Created by KiCad (PCBNEW 4.0.2-4+6225~38~ubuntu14.04.1-stable) date Wed 22 Jun 2016 06:39:26 PM CDT*
%MOMM*%
G01*
G04 APERTURE LIST*
%ADD10C,0.100000*%
%ADD11C,0.150000*%
%ADD12C,0.300000*%
%ADD13R,1.200000X1.000000*%
%ADD14R,1.000000X1.200000*%
%ADD15R,0.500000X0.800000*%
%ADD16R,0.800000X0.500000*%
%ADD17C,1.200000*%
%ADD18R,1.700000X0.600000*%
%ADD19R,2.700000X1.000000*%
%ADD20C,3.000000*%
%ADD21R,1.400000X0.800000*%
%ADD22R,0.800000X0.300000*%
%ADD23R,0.300000X0.800000*%
%ADD24R,0.800000X0.800000*%
%ADD25R,0.600000X1.200000*%
%ADD26R,2.800000X1.000000*%
%ADD27R,1.250000X1.800000*%
%ADD28C,0.600000*%
%ADD29C,0.500000*%
%ADD30C,0.200000*%
G04 APERTURE END LIST*
D10*
D11*
X46742857Y-98664286D02*
X47542857Y-98950000D01*
X46742857Y-99235714D01*
X46342857Y-99921429D02*
X46342857Y-100035714D01*
X46400000Y-100150000D01*
X46457143Y-100207143D01*
X46571429Y-100264286D01*
X46800000Y-100321429D01*
X47085714Y-100321429D01*
X47314286Y-100264286D01*
X47428571Y-100207143D01*
X47485714Y-100150000D01*
X47542857Y-100035714D01*
X47542857Y-99921429D01*
X47485714Y-99807143D01*
X47428571Y-99750000D01*
X47314286Y-99692857D01*
X47085714Y-99635714D01*
X46800000Y-99635714D01*
X46571429Y-99692857D01*
X46457143Y-99750000D01*
X46400000Y-99807143D01*
X46342857Y-99921429D01*
X47428571Y-100835714D02*
X47485714Y-100892857D01*
X47542857Y-100835714D01*
X47485714Y-100778571D01*
X47428571Y-100835714D01*
X47542857Y-100835714D01*
X47542857Y-101464286D02*
X47542857Y-101692858D01*
X47485714Y-101807143D01*
X47428571Y-101864286D01*
X47257143Y-101978572D01*
X47028571Y-102035715D01*
X46571429Y-102035715D01*
X46457143Y-101978572D01*
X46400000Y-101921429D01*
X46342857Y-101807143D01*
X46342857Y-101578572D01*
X46400000Y-101464286D01*
X46457143Y-101407143D01*
X46571429Y-101350000D01*
X46857143Y-101350000D01*
X46971429Y-101407143D01*
X47028571Y-101464286D01*
X47085714Y-101578572D01*
X47085714Y-101807143D01*
X47028571Y-101921429D01*
X46971429Y-101978572D01*
X46857143Y-102035715D01*
X47542857Y-103178572D02*
X47542857Y-102492857D01*
X47542857Y-102835715D02*
X46342857Y-102835715D01*
X46514286Y-102721429D01*
X46628571Y-102607143D01*
X46685714Y-102492857D01*
D12*
X85147144Y-104004762D02*
X85147144Y-102004762D01*
X84004286Y-104004762D01*
X84004286Y-102004762D01*
X82290001Y-103909524D02*
X82480477Y-104004762D01*
X82861429Y-104004762D01*
X83051906Y-103909524D01*
X83147144Y-103719048D01*
X83147144Y-102957143D01*
X83051906Y-102766667D01*
X82861429Y-102671429D01*
X82480477Y-102671429D01*
X82290001Y-102766667D01*
X82194763Y-102957143D01*
X82194763Y-103147619D01*
X83147144Y-103338095D01*
X80480477Y-102671429D02*
X80480477Y-104004762D01*
X81337620Y-102671429D02*
X81337620Y-103719048D01*
X81242381Y-103909524D01*
X81051905Y-104004762D01*
X80766191Y-104004762D01*
X80575715Y-103909524D01*
X80480477Y-103814286D01*
X79528096Y-104004762D02*
X79528096Y-102671429D01*
X79528096Y-103052381D02*
X79432857Y-102861905D01*
X79337619Y-102766667D01*
X79147143Y-102671429D01*
X78956667Y-102671429D01*
X78004286Y-104004762D02*
X78194762Y-103909524D01*
X78290001Y-103814286D01*
X78385239Y-103623810D01*
X78385239Y-103052381D01*
X78290001Y-102861905D01*
X78194762Y-102766667D01*
X78004286Y-102671429D01*
X77718572Y-102671429D01*
X77528096Y-102766667D01*
X77432858Y-102861905D01*
X77337620Y-103052381D01*
X77337620Y-103623810D01*
X77432858Y-103814286D01*
X77528096Y-103909524D01*
X77718572Y-104004762D01*
X78004286Y-104004762D01*
X75813810Y-102957143D02*
X75528096Y-103052381D01*
X75432857Y-103147619D01*
X75337619Y-103338095D01*
X75337619Y-103623810D01*
X75432857Y-103814286D01*
X75528096Y-103909524D01*
X75718572Y-104004762D01*
X76480477Y-104004762D01*
X76480477Y-102004762D01*
X75813810Y-102004762D01*
X75623334Y-102100000D01*
X75528096Y-102195238D01*
X75432857Y-102385714D01*
X75432857Y-102576190D01*
X75528096Y-102766667D01*
X75623334Y-102861905D01*
X75813810Y-102957143D01*
X76480477Y-102957143D01*
X74670953Y-102671429D02*
X74194762Y-104004762D01*
X73718572Y-102671429D02*
X74194762Y-104004762D01*
X74385238Y-104480952D01*
X74480477Y-104576190D01*
X74670953Y-104671429D01*
X73242381Y-102671429D02*
X72480476Y-102671429D01*
X72956667Y-102004762D02*
X72956667Y-103719048D01*
X72861428Y-103909524D01*
X72670952Y-104004762D01*
X72480476Y-104004762D01*
X71051905Y-103909524D02*
X71242381Y-104004762D01*
X71623333Y-104004762D01*
X71813810Y-103909524D01*
X71909048Y-103719048D01*
X71909048Y-102957143D01*
X71813810Y-102766667D01*
X71623333Y-102671429D01*
X71242381Y-102671429D01*
X71051905Y-102766667D01*
X70956667Y-102957143D01*
X70956667Y-103147619D01*
X71909048Y-103338095D01*
X70194762Y-103909524D02*
X70004285Y-104004762D01*
X69623333Y-104004762D01*
X69432857Y-103909524D01*
X69337619Y-103719048D01*
X69337619Y-103623810D01*
X69432857Y-103433333D01*
X69623333Y-103338095D01*
X69909047Y-103338095D01*
X70099524Y-103242857D01*
X70194762Y-103052381D01*
X70194762Y-102957143D01*
X70099524Y-102766667D01*
X69909047Y-102671429D01*
X69623333Y-102671429D01*
X69432857Y-102766667D01*
D13*
X63500000Y-91000000D03*
X63500000Y-93000000D03*
D14*
X64750000Y-95000000D03*
X66750000Y-95000000D03*
D15*
X76100000Y-96700000D03*
X76100000Y-97900000D03*
D10*
G36*
X65920330Y-101666117D02*
X66273883Y-102019670D01*
X65708198Y-102585355D01*
X65354645Y-102231802D01*
X65920330Y-101666117D01*
X65920330Y-101666117D01*
G37*
G36*
X65071802Y-102514645D02*
X65425355Y-102868198D01*
X64859670Y-103433883D01*
X64506117Y-103080330D01*
X65071802Y-102514645D01*
X65071802Y-102514645D01*
G37*
G36*
X65509670Y-104083883D02*
X65156117Y-103730330D01*
X65721802Y-103164645D01*
X66075355Y-103518198D01*
X65509670Y-104083883D01*
X65509670Y-104083883D01*
G37*
G36*
X66358198Y-103235355D02*
X66004645Y-102881802D01*
X66570330Y-102316117D01*
X66923883Y-102669670D01*
X66358198Y-103235355D01*
X66358198Y-103235355D01*
G37*
G36*
X57565198Y-94757097D02*
X57394188Y-95226943D01*
X56642434Y-94953327D01*
X56813444Y-94483481D01*
X57565198Y-94757097D01*
X57565198Y-94757097D01*
G37*
G36*
X56437566Y-94346673D02*
X56266556Y-94816519D01*
X55514802Y-94542903D01*
X55685812Y-94073057D01*
X56437566Y-94346673D01*
X56437566Y-94346673D01*
G37*
G36*
X55365198Y-93957097D02*
X55194188Y-94426943D01*
X54442434Y-94153327D01*
X54613444Y-93683481D01*
X55365198Y-93957097D01*
X55365198Y-93957097D01*
G37*
G36*
X54237566Y-93546673D02*
X54066556Y-94016519D01*
X53314802Y-93742903D01*
X53485812Y-93273057D01*
X54237566Y-93546673D01*
X54237566Y-93546673D01*
G37*
D15*
X48850000Y-99750000D03*
X48850000Y-100950000D03*
D16*
X49940000Y-102400000D03*
X51140000Y-102400000D03*
X55140000Y-102400000D03*
X56340000Y-102400000D03*
D10*
G36*
X58509670Y-98983883D02*
X58156117Y-98630330D01*
X58721802Y-98064645D01*
X59075355Y-98418198D01*
X58509670Y-98983883D01*
X58509670Y-98983883D01*
G37*
G36*
X59358198Y-98135355D02*
X59004645Y-97781802D01*
X59570330Y-97216117D01*
X59923883Y-97569670D01*
X59358198Y-98135355D01*
X59358198Y-98135355D01*
G37*
D15*
X77600000Y-96700000D03*
X77600000Y-97900000D03*
D17*
X55500000Y-107350000D03*
X53650000Y-108900000D03*
X53400000Y-104650000D03*
X49650000Y-107950000D03*
X48700000Y-103750000D03*
X44250000Y-104550000D03*
X49850000Y-89800000D03*
X46400000Y-95850000D03*
X62100000Y-96400000D03*
X58350000Y-95000000D03*
X87200000Y-100900000D03*
X85400000Y-107900000D03*
X86550000Y-97750000D03*
X89450000Y-99100000D03*
X65700000Y-96350000D03*
X68350000Y-102950000D03*
X66050000Y-105300000D03*
X65050000Y-107700000D03*
X76900000Y-93000000D03*
X39850000Y-106700000D03*
X69250000Y-97450000D03*
X71100000Y-101300000D03*
D10*
G36*
X47243340Y-90487415D02*
X46344995Y-89044164D01*
X46854378Y-88727101D01*
X47752723Y-90170352D01*
X47243340Y-90487415D01*
X47243340Y-90487415D01*
G37*
G36*
X48304555Y-89826867D02*
X47406210Y-88383616D01*
X47915593Y-88066553D01*
X48813938Y-89509804D01*
X48304555Y-89826867D01*
X48304555Y-89826867D01*
G37*
G36*
X46182126Y-91147963D02*
X45283781Y-89704712D01*
X45793164Y-89387649D01*
X46691509Y-90830900D01*
X46182126Y-91147963D01*
X46182126Y-91147963D01*
G37*
G36*
X45120911Y-91808511D02*
X44222566Y-90365260D01*
X44731949Y-90048197D01*
X45630294Y-91491448D01*
X45120911Y-91808511D01*
X45120911Y-91808511D01*
G37*
G36*
X48421513Y-86750434D02*
X46994729Y-84458210D01*
X47843701Y-83929772D01*
X49270485Y-86221996D01*
X48421513Y-86750434D01*
X48421513Y-86750434D01*
G37*
G36*
X41969329Y-90766565D02*
X40542545Y-88474341D01*
X41391517Y-87945903D01*
X42818301Y-90238127D01*
X41969329Y-90766565D01*
X41969329Y-90766565D01*
G37*
G36*
X55993835Y-93715158D02*
X56575269Y-92117680D01*
X57139085Y-92322892D01*
X56557651Y-93920370D01*
X55993835Y-93715158D01*
X55993835Y-93715158D01*
G37*
G36*
X57168450Y-94142683D02*
X57749884Y-92545205D01*
X58313700Y-92750417D01*
X57732266Y-94347895D01*
X57168450Y-94142683D01*
X57168450Y-94142683D01*
G37*
G36*
X54819219Y-93287633D02*
X55400653Y-91690155D01*
X55964469Y-91895367D01*
X55383035Y-93492845D01*
X54819219Y-93287633D01*
X54819219Y-93287633D01*
G37*
G36*
X53644603Y-92860108D02*
X54226037Y-91262630D01*
X54789853Y-91467842D01*
X54208419Y-93065320D01*
X53644603Y-92860108D01*
X53644603Y-92860108D01*
G37*
G36*
X59661571Y-92336451D02*
X60585026Y-89799281D01*
X61524719Y-90141301D01*
X60601264Y-92678471D01*
X59661571Y-92336451D01*
X59661571Y-92336451D01*
G37*
G36*
X52519907Y-89737098D02*
X53443362Y-87199928D01*
X54383055Y-87541948D01*
X53459600Y-90079118D01*
X52519907Y-89737098D01*
X52519907Y-89737098D01*
G37*
D18*
X43250000Y-99875000D03*
X43250000Y-98625000D03*
X43250000Y-101125000D03*
X43250000Y-102375000D03*
D19*
X40200000Y-96700000D03*
X40200000Y-104300000D03*
D10*
G36*
X47030661Y-107217610D02*
X45926599Y-108510300D01*
X45470355Y-108120632D01*
X46574417Y-106827942D01*
X47030661Y-107217610D01*
X47030661Y-107217610D01*
G37*
G36*
X46080153Y-106405800D02*
X44976091Y-107698490D01*
X44519847Y-107308822D01*
X45623909Y-106016132D01*
X46080153Y-106405800D01*
X46080153Y-106405800D01*
G37*
G36*
X47981168Y-108029420D02*
X46877106Y-109322110D01*
X46420862Y-108932442D01*
X47524924Y-107639752D01*
X47981168Y-108029420D01*
X47981168Y-108029420D01*
G37*
G36*
X48931676Y-108841230D02*
X47827614Y-110133920D01*
X47371370Y-109744252D01*
X48475432Y-108451562D01*
X48931676Y-108841230D01*
X48931676Y-108841230D01*
G37*
G36*
X43112360Y-107224537D02*
X41358850Y-109277633D01*
X40598444Y-108628185D01*
X42351954Y-106575089D01*
X43112360Y-107224537D01*
X43112360Y-107224537D01*
G37*
G36*
X48891445Y-112160342D02*
X47137935Y-114213438D01*
X46377529Y-113563990D01*
X48131039Y-111510894D01*
X48891445Y-112160342D01*
X48891445Y-112160342D01*
G37*
G36*
X57138645Y-107326564D02*
X58047044Y-108763509D01*
X57539887Y-109084120D01*
X56631488Y-107647175D01*
X57138645Y-107326564D01*
X57138645Y-107326564D01*
G37*
G36*
X56082067Y-107994504D02*
X56990466Y-109431449D01*
X56483309Y-109752060D01*
X55574910Y-108315115D01*
X56082067Y-107994504D01*
X56082067Y-107994504D01*
G37*
G36*
X58195222Y-106658623D02*
X59103621Y-108095568D01*
X58596464Y-108416179D01*
X57688065Y-106979234D01*
X58195222Y-106658623D01*
X58195222Y-106658623D01*
G37*
G36*
X59251799Y-105990683D02*
X60160198Y-107427628D01*
X59653041Y-107748239D01*
X58744642Y-106311294D01*
X59251799Y-105990683D01*
X59251799Y-105990683D01*
G37*
G36*
X55986589Y-111071679D02*
X57429341Y-113353886D01*
X56584079Y-113888239D01*
X55141327Y-111606032D01*
X55986589Y-111071679D01*
X55986589Y-111071679D01*
G37*
G36*
X62410579Y-107010601D02*
X63853331Y-109292808D01*
X63008069Y-109827161D01*
X61565317Y-107544954D01*
X62410579Y-107010601D01*
X62410579Y-107010601D01*
G37*
G36*
X88148594Y-96631182D02*
X89318797Y-95398045D01*
X89754022Y-95811058D01*
X88583819Y-97044195D01*
X88148594Y-96631182D01*
X88148594Y-96631182D01*
G37*
G36*
X89055312Y-97491625D02*
X90225515Y-96258488D01*
X90660740Y-96671501D01*
X89490537Y-97904638D01*
X89055312Y-97491625D01*
X89055312Y-97491625D01*
G37*
G36*
X87241876Y-95770739D02*
X88412079Y-94537602D01*
X88847304Y-94950615D01*
X87677101Y-96183752D01*
X87241876Y-95770739D01*
X87241876Y-95770739D01*
G37*
G36*
X86335158Y-94910296D02*
X87505361Y-93677159D01*
X87940586Y-94090172D01*
X86770383Y-95323309D01*
X86335158Y-94910296D01*
X86335158Y-94910296D01*
G37*
G36*
X92061887Y-96829332D02*
X93920444Y-94870821D01*
X94645819Y-95559176D01*
X92787262Y-97517687D01*
X92061887Y-96829332D01*
X92061887Y-96829332D01*
G37*
G36*
X86549042Y-91597837D02*
X88407599Y-89639326D01*
X89132974Y-90327681D01*
X87274417Y-92286192D01*
X86549042Y-91597837D01*
X86549042Y-91597837D01*
G37*
G36*
X87677101Y-101966248D02*
X88847304Y-103199385D01*
X88412079Y-103612398D01*
X87241876Y-102379261D01*
X87677101Y-101966248D01*
X87677101Y-101966248D01*
G37*
G36*
X86770383Y-102826691D02*
X87940586Y-104059828D01*
X87505361Y-104472841D01*
X86335158Y-103239704D01*
X86770383Y-102826691D01*
X86770383Y-102826691D01*
G37*
G36*
X88583819Y-101105805D02*
X89754022Y-102338942D01*
X89318797Y-102751955D01*
X88148594Y-101518818D01*
X88583819Y-101105805D01*
X88583819Y-101105805D01*
G37*
G36*
X89490537Y-100245362D02*
X90660740Y-101478499D01*
X90225515Y-101891512D01*
X89055312Y-100658375D01*
X89490537Y-100245362D01*
X89490537Y-100245362D01*
G37*
G36*
X87274417Y-105863808D02*
X89132974Y-107822319D01*
X88407599Y-108510674D01*
X86549042Y-106552163D01*
X87274417Y-105863808D01*
X87274417Y-105863808D01*
G37*
G36*
X92787262Y-100632313D02*
X94645819Y-102590824D01*
X93920444Y-103279179D01*
X92061887Y-101320668D01*
X92787262Y-100632313D01*
X92787262Y-100632313D01*
G37*
G36*
X62190000Y-102147056D02*
X60492944Y-100450000D01*
X62190000Y-98752944D01*
X63887056Y-100450000D01*
X62190000Y-102147056D01*
X62190000Y-102147056D01*
G37*
G36*
X63399153Y-99396411D02*
X63243589Y-99240847D01*
X64092117Y-98392319D01*
X64247681Y-98547883D01*
X63399153Y-99396411D01*
X63399153Y-99396411D01*
G37*
G36*
X63717351Y-99714609D02*
X63561787Y-99559045D01*
X64410315Y-98710517D01*
X64565879Y-98866081D01*
X63717351Y-99714609D01*
X63717351Y-99714609D01*
G37*
G36*
X64035549Y-100032807D02*
X63879985Y-99877243D01*
X64728513Y-99028715D01*
X64884077Y-99184279D01*
X64035549Y-100032807D01*
X64035549Y-100032807D01*
G37*
G36*
X64353747Y-100351005D02*
X64198183Y-100195441D01*
X65046711Y-99346913D01*
X65202275Y-99502477D01*
X64353747Y-100351005D01*
X64353747Y-100351005D01*
G37*
G36*
X63080955Y-99078213D02*
X62925391Y-98922649D01*
X63773919Y-98074121D01*
X63929483Y-98229685D01*
X63080955Y-99078213D01*
X63080955Y-99078213D01*
G37*
G36*
X62762757Y-98760015D02*
X62607193Y-98604451D01*
X63455721Y-97755923D01*
X63611285Y-97911487D01*
X62762757Y-98760015D01*
X62762757Y-98760015D01*
G37*
G36*
X62444559Y-98441817D02*
X62288995Y-98286253D01*
X63137523Y-97437725D01*
X63293087Y-97593289D01*
X62444559Y-98441817D01*
X62444559Y-98441817D01*
G37*
G36*
X61935441Y-98441817D02*
X61086913Y-97593289D01*
X61242477Y-97437725D01*
X62091005Y-98286253D01*
X61935441Y-98441817D01*
X61935441Y-98441817D01*
G37*
G36*
X61617243Y-98760015D02*
X60768715Y-97911487D01*
X60924279Y-97755923D01*
X61772807Y-98604451D01*
X61617243Y-98760015D01*
X61617243Y-98760015D01*
G37*
G36*
X61299045Y-99078213D02*
X60450517Y-98229685D01*
X60606081Y-98074121D01*
X61454609Y-98922649D01*
X61299045Y-99078213D01*
X61299045Y-99078213D01*
G37*
G36*
X60980847Y-99396411D02*
X60132319Y-98547883D01*
X60287883Y-98392319D01*
X61136411Y-99240847D01*
X60980847Y-99396411D01*
X60980847Y-99396411D01*
G37*
G36*
X60662649Y-99714609D02*
X59814121Y-98866081D01*
X59969685Y-98710517D01*
X60818213Y-99559045D01*
X60662649Y-99714609D01*
X60662649Y-99714609D01*
G37*
G36*
X60344451Y-100032807D02*
X59495923Y-99184279D01*
X59651487Y-99028715D01*
X60500015Y-99877243D01*
X60344451Y-100032807D01*
X60344451Y-100032807D01*
G37*
G36*
X60026253Y-100351005D02*
X59177725Y-99502477D01*
X59333289Y-99346913D01*
X60181817Y-100195441D01*
X60026253Y-100351005D01*
X60026253Y-100351005D01*
G37*
G36*
X59333289Y-101553087D02*
X59177725Y-101397523D01*
X60026253Y-100548995D01*
X60181817Y-100704559D01*
X59333289Y-101553087D01*
X59333289Y-101553087D01*
G37*
G36*
X59651487Y-101871285D02*
X59495923Y-101715721D01*
X60344451Y-100867193D01*
X60500015Y-101022757D01*
X59651487Y-101871285D01*
X59651487Y-101871285D01*
G37*
G36*
X59969685Y-102189483D02*
X59814121Y-102033919D01*
X60662649Y-101185391D01*
X60818213Y-101340955D01*
X59969685Y-102189483D01*
X59969685Y-102189483D01*
G37*
G36*
X60287883Y-102507681D02*
X60132319Y-102352117D01*
X60980847Y-101503589D01*
X61136411Y-101659153D01*
X60287883Y-102507681D01*
X60287883Y-102507681D01*
G37*
G36*
X60606081Y-102825879D02*
X60450517Y-102670315D01*
X61299045Y-101821787D01*
X61454609Y-101977351D01*
X60606081Y-102825879D01*
X60606081Y-102825879D01*
G37*
G36*
X60924279Y-103144077D02*
X60768715Y-102988513D01*
X61617243Y-102139985D01*
X61772807Y-102295549D01*
X60924279Y-103144077D01*
X60924279Y-103144077D01*
G37*
G36*
X61242477Y-103462275D02*
X61086913Y-103306711D01*
X61935441Y-102458183D01*
X62091005Y-102613747D01*
X61242477Y-103462275D01*
X61242477Y-103462275D01*
G37*
G36*
X63137523Y-103462275D02*
X62288995Y-102613747D01*
X62444559Y-102458183D01*
X63293087Y-103306711D01*
X63137523Y-103462275D01*
X63137523Y-103462275D01*
G37*
G36*
X63455721Y-103144077D02*
X62607193Y-102295549D01*
X62762757Y-102139985D01*
X63611285Y-102988513D01*
X63455721Y-103144077D01*
X63455721Y-103144077D01*
G37*
G36*
X63773919Y-102825879D02*
X62925391Y-101977351D01*
X63080955Y-101821787D01*
X63929483Y-102670315D01*
X63773919Y-102825879D01*
X63773919Y-102825879D01*
G37*
G36*
X64092117Y-102507681D02*
X63243589Y-101659153D01*
X63399153Y-101503589D01*
X64247681Y-102352117D01*
X64092117Y-102507681D01*
X64092117Y-102507681D01*
G37*
G36*
X64410315Y-102189483D02*
X63561787Y-101340955D01*
X63717351Y-101185391D01*
X64565879Y-102033919D01*
X64410315Y-102189483D01*
X64410315Y-102189483D01*
G37*
G36*
X64728513Y-101871285D02*
X63879985Y-101022757D01*
X64035549Y-100867193D01*
X64884077Y-101715721D01*
X64728513Y-101871285D01*
X64728513Y-101871285D01*
G37*
G36*
X65046711Y-101553087D02*
X64198183Y-100704559D01*
X64353747Y-100548995D01*
X65202275Y-101397523D01*
X65046711Y-101553087D01*
X65046711Y-101553087D01*
G37*
D20*
X52840000Y-100450000D03*
D21*
X55440000Y-101250000D03*
X55440000Y-99650000D03*
X50240000Y-101250000D03*
X50240000Y-99650000D03*
D22*
X44790000Y-92950000D03*
X44790000Y-93450000D03*
X44790000Y-93950000D03*
X44790000Y-94450000D03*
X46090000Y-94450000D03*
X46090000Y-93950000D03*
X46090000Y-93450000D03*
X46090000Y-92950000D03*
D23*
X50990000Y-108850000D03*
X51490000Y-108850000D03*
X51990000Y-108850000D03*
X52490000Y-108850000D03*
X52490000Y-107550000D03*
X51990000Y-107550000D03*
X51490000Y-107550000D03*
X50990000Y-107550000D03*
D24*
X63500000Y-96150000D03*
X63500000Y-94250000D03*
D25*
X65750000Y-91100000D03*
X64800000Y-91100000D03*
X66700000Y-91100000D03*
X66700000Y-93400000D03*
X64800000Y-93400000D03*
D26*
X75050000Y-91250000D03*
X69450000Y-91250000D03*
X75050000Y-95250000D03*
X69450000Y-95250000D03*
X84300000Y-91250000D03*
X78700000Y-91250000D03*
X84300000Y-95250000D03*
X78700000Y-95250000D03*
D27*
X67990000Y-104800000D03*
X67990000Y-107400000D03*
D28*
X41140000Y-101600000D03*
X68000000Y-93800000D03*
X60090000Y-96950000D03*
X64165000Y-108650000D03*
X55840000Y-95400000D03*
X90640000Y-102600000D03*
X90740000Y-94100000D03*
X59840000Y-108700000D03*
X46740000Y-110100000D03*
X44140000Y-89500000D03*
X53140000Y-91700000D03*
X67090000Y-103350000D03*
X61300000Y-94000000D03*
X57275000Y-101300000D03*
X68000000Y-92400000D03*
X85700000Y-90200000D03*
X80100000Y-92325000D03*
X73925000Y-96025000D03*
X73925000Y-92900000D03*
X58600000Y-110200000D03*
X60400000Y-109350000D03*
X59050000Y-110950000D03*
X61250000Y-109450000D03*
X44700000Y-106200000D03*
X46900000Y-104950000D03*
X48600000Y-107000000D03*
X45550000Y-98600000D03*
X43450000Y-97600000D03*
X45250000Y-95600000D03*
X60950000Y-96850000D03*
X59700000Y-94950000D03*
X48250000Y-90650000D03*
X49150000Y-88550000D03*
X59300000Y-103950000D03*
X62940000Y-105650000D03*
X57700000Y-97950000D03*
X58500000Y-93850000D03*
X60100000Y-103500000D03*
X57900000Y-100700000D03*
X60550000Y-94400000D03*
X61200000Y-96000000D03*
X86240000Y-100350000D03*
X86190000Y-102200000D03*
D29*
X43240000Y-102375000D02*
X41940000Y-102400000D01*
X41940000Y-102400000D02*
X41140000Y-101600000D01*
D30*
X65050000Y-107700000D02*
X64100000Y-107700000D01*
X64850000Y-103500000D02*
X64850000Y-103050000D01*
X63600000Y-104750000D02*
X64850000Y-103500000D01*
X62950000Y-104750000D02*
X63600000Y-104750000D01*
X62300000Y-105400000D02*
X62950000Y-104750000D01*
X62300000Y-105900000D02*
X62300000Y-105400000D01*
X64100000Y-107700000D02*
X62300000Y-105900000D01*
X64850000Y-103050000D02*
X64965736Y-102974264D01*
D29*
X65050000Y-107700000D02*
X65050000Y-107750000D01*
X65050000Y-107750000D02*
X64150000Y-108650000D01*
X64150000Y-108650000D02*
X64165000Y-108650000D01*
X67990000Y-107400000D02*
X65350000Y-107400000D01*
X65350000Y-107400000D02*
X65050000Y-107700000D01*
D30*
X76100000Y-97900000D02*
X77700000Y-97900000D01*
X77700000Y-97900000D02*
X78300000Y-98500000D01*
X78300000Y-98500000D02*
X85100000Y-98500000D01*
X85100000Y-98500000D02*
X85600000Y-98000000D01*
X85600000Y-98000000D02*
X85600000Y-97300000D01*
X85600000Y-97300000D02*
X86800000Y-96100000D01*
X86800000Y-96100000D02*
X86800000Y-94900000D01*
X86800000Y-94900000D02*
X87119998Y-94528445D01*
D29*
X66750000Y-95000000D02*
X66800000Y-95000000D01*
X66800000Y-95000000D02*
X68000000Y-93800000D01*
X65750000Y-92000000D02*
X65750000Y-94250000D01*
X65750000Y-94250000D02*
X66500000Y-95000000D01*
X66500000Y-95000000D02*
X66750000Y-95000000D01*
X63500000Y-93000000D02*
X64250000Y-92250000D01*
X65750000Y-92000000D02*
X65750000Y-91250000D01*
X65500000Y-92250000D02*
X65750000Y-92000000D01*
X64250000Y-92250000D02*
X65500000Y-92250000D01*
X65750000Y-91250000D02*
X65750000Y-91000000D01*
X65750000Y-91000000D02*
X65750000Y-91100000D01*
D30*
X86890000Y-94650000D02*
X87119998Y-94528445D01*
X86740000Y-94900000D02*
X87119998Y-94528445D01*
X86590000Y-94850000D02*
X87119998Y-94528445D01*
X59464264Y-97575736D02*
X60090000Y-96950000D01*
X59464264Y-97675736D02*
X59464264Y-97575736D01*
X64840000Y-103100000D02*
X64965736Y-102974264D01*
X64565736Y-102825736D02*
X64840000Y-103100000D01*
X64840000Y-103100000D02*
X64965736Y-102974264D01*
D29*
X66590000Y-107425000D02*
X67865000Y-107425000D01*
X67865000Y-107425000D02*
X67940000Y-107350000D01*
X67940000Y-107350000D02*
X67990000Y-107400000D01*
X66915000Y-107425000D02*
X66590000Y-107425000D01*
X66590000Y-107425000D02*
X65365000Y-107425000D01*
X65365000Y-107425000D02*
X65390000Y-107425000D01*
X65390000Y-107425000D02*
X64165000Y-108650000D01*
D30*
X55976184Y-94444788D02*
X55976184Y-95263816D01*
X55976184Y-95263816D02*
X55840000Y-95400000D01*
X53776184Y-93644788D02*
X54240000Y-92350000D01*
X54240000Y-92350000D02*
X54207390Y-92199391D01*
X60634365Y-98894365D02*
X59490000Y-97750000D01*
X59490000Y-97750000D02*
X59464264Y-97675736D01*
X61540000Y-99800000D02*
X62190000Y-100450000D01*
X63745635Y-102005635D02*
X62740000Y-101000000D01*
X62740000Y-101000000D02*
X62190000Y-100450000D01*
X44920463Y-90941400D02*
X44798600Y-90941400D01*
X44798600Y-90941400D02*
X44440000Y-91300000D01*
X44440000Y-91300000D02*
X44440000Y-93500000D01*
X44440000Y-93500000D02*
X44440000Y-94000000D01*
X44440000Y-94000000D02*
X44440000Y-94500000D01*
X50840000Y-109300000D02*
X48140000Y-109300000D01*
X48140000Y-109300000D02*
X48158388Y-109247969D01*
D29*
X89840152Y-101090225D02*
X89840152Y-101100152D01*
X89840152Y-101100152D02*
X90640000Y-101900000D01*
X90640000Y-101900000D02*
X90640000Y-102600000D01*
X87119998Y-94528445D02*
X87119998Y-94520002D01*
X87119998Y-94520002D02*
X87840000Y-93800000D01*
X87840000Y-93800000D02*
X90440000Y-93800000D01*
X90440000Y-93800000D02*
X90740000Y-94100000D01*
X59427151Y-106863463D02*
X60040000Y-107900000D01*
X60040000Y-107900000D02*
X59840000Y-108700000D01*
X48158388Y-109247969D02*
X47540000Y-110000000D01*
X47540000Y-110000000D02*
X46740000Y-110100000D01*
X44920463Y-90941400D02*
X44140000Y-89500000D01*
X54207390Y-92199391D02*
X53140000Y-91700000D01*
X66890000Y-94850000D02*
X66890000Y-94800000D01*
X66990000Y-94800000D02*
X66890000Y-94800000D01*
D30*
X67190000Y-95150000D02*
X66840000Y-95150000D01*
X64565736Y-102825736D02*
X63940000Y-102200000D01*
X63940000Y-102200000D02*
X63745635Y-102005635D01*
X44440000Y-94500000D02*
X44790000Y-94450000D01*
X52490000Y-108850000D02*
X52490000Y-109222637D01*
X52490000Y-109222637D02*
X52412637Y-109300000D01*
X52412637Y-109300000D02*
X51440000Y-109300000D01*
X51440000Y-109300000D02*
X50840000Y-109300000D01*
X39850000Y-106700000D02*
X41600000Y-106700000D01*
X42400000Y-105900000D02*
X42400000Y-105866154D01*
X41600000Y-106700000D02*
X42400000Y-105900000D01*
D29*
X43550000Y-106950000D02*
X43650000Y-107800000D01*
X43550000Y-106950000D02*
X43500000Y-106800000D01*
X43500000Y-106800000D02*
X43350000Y-106650000D01*
X43100000Y-106450000D02*
X43100000Y-106458461D01*
X43350000Y-106650000D02*
X43100000Y-106450000D01*
X43500000Y-106796923D02*
X43550000Y-106950000D01*
X59250000Y-92700000D02*
X59200000Y-92500000D01*
X58450000Y-91800000D02*
X58450000Y-91798387D01*
X59050000Y-92000000D02*
X58450000Y-91800000D01*
X59150000Y-92100000D02*
X59050000Y-92000000D01*
X59200000Y-92200000D02*
X59150000Y-92100000D01*
X59200000Y-92300000D02*
X59200000Y-92200000D01*
X59200000Y-92400000D02*
X59200000Y-92300000D01*
X59200000Y-92500000D02*
X59200000Y-92400000D01*
X59550000Y-92814839D02*
X59250000Y-92700000D01*
X55650000Y-90850000D02*
X55650000Y-90837813D01*
X58450000Y-91798387D02*
X55650000Y-90850000D01*
X60800000Y-93293333D02*
X59550000Y-92814839D01*
X60800000Y-93293333D02*
X61240000Y-93000000D01*
X61240000Y-93000000D02*
X62440000Y-89900000D01*
X55540000Y-90800000D02*
X55650000Y-90837813D01*
X62440000Y-89900000D02*
X64750000Y-89900000D01*
X41450000Y-100550000D02*
X41500000Y-100600000D01*
X41450000Y-97950000D02*
X41450000Y-100550000D01*
X64800000Y-91100000D02*
X63600000Y-91100000D01*
X63600000Y-91100000D02*
X63500000Y-91000000D01*
X64800000Y-91100000D02*
X64800000Y-90050000D01*
X64750000Y-90000000D02*
X64750000Y-89900000D01*
X64800000Y-90050000D02*
X64750000Y-90000000D01*
X59015000Y-109336364D02*
X58965000Y-108450000D01*
X58965000Y-108450000D02*
X58640000Y-107950000D01*
X56090000Y-110338889D02*
X56740000Y-111375000D01*
X59915000Y-110850000D02*
X59015000Y-109336364D01*
X59815000Y-111450000D02*
X59915000Y-110850000D01*
X58090000Y-112525000D02*
X59815000Y-111450000D01*
X57365000Y-112375000D02*
X58090000Y-112525000D01*
X56740000Y-111375000D02*
X57365000Y-112375000D01*
X52140000Y-109900000D02*
X56090000Y-110338889D01*
X51140000Y-110100000D02*
X52140000Y-109900000D01*
X49440000Y-110900000D02*
X51140000Y-110100000D01*
X58640000Y-107950000D02*
X58370574Y-107531404D01*
X89640000Y-102700000D02*
X89640000Y-102800000D01*
X91540000Y-103300000D02*
X91540000Y-101200000D01*
X91340000Y-103500000D02*
X91540000Y-103300000D01*
X90340000Y-103500000D02*
X91340000Y-103500000D01*
X89640000Y-102800000D02*
X90340000Y-103500000D01*
X91540000Y-93500000D02*
X91540000Y-96500000D01*
X89840000Y-94600000D02*
X88840000Y-94600000D01*
X88840000Y-94600000D02*
X88340000Y-95100000D01*
X88340000Y-95100000D02*
X88026716Y-95388888D01*
X64750000Y-89900000D02*
X66340000Y-89900000D01*
X89640000Y-102700000D02*
X88940000Y-102000000D01*
X91540000Y-96500000D02*
X91540000Y-97100000D01*
X92240000Y-100500000D02*
X91540000Y-101200000D01*
X92240000Y-97800000D02*
X92240000Y-100500000D01*
X91540000Y-97100000D02*
X92240000Y-97800000D01*
X91540000Y-96300000D02*
X91540000Y-96500000D01*
X89840000Y-94600000D02*
X91540000Y-96300000D01*
X88940000Y-102000000D02*
X88933434Y-101950669D01*
X58440000Y-107700000D02*
X58370574Y-107531404D01*
X42440000Y-104000000D02*
X42440000Y-103975000D01*
X42440000Y-105900000D02*
X42400000Y-105866154D01*
X42400000Y-105866154D02*
X43100000Y-106458461D01*
X43100000Y-106458461D02*
X43500000Y-106796923D01*
X41500000Y-100600000D02*
X40740000Y-100600000D01*
X40240000Y-101900000D02*
X42440000Y-104000000D01*
X40240000Y-101200000D02*
X40240000Y-101900000D01*
X40740000Y-100600000D02*
X40240000Y-101200000D01*
X42440000Y-103975000D02*
X42440000Y-105900000D01*
X41540000Y-100600000D02*
X41500000Y-100600000D01*
X42240000Y-101100000D02*
X43040000Y-101100000D01*
X41540000Y-100600000D02*
X41540000Y-100600000D01*
X41540000Y-100600000D02*
X42240000Y-101100000D01*
X43040000Y-101100000D02*
X43240000Y-101125000D01*
X55840000Y-91500000D02*
X55440000Y-92400000D01*
X55540000Y-90800000D02*
X55840000Y-91500000D01*
X54440000Y-90400000D02*
X55540000Y-90800000D01*
X53540000Y-90800000D02*
X54440000Y-90400000D01*
X51240000Y-89900000D02*
X53540000Y-90800000D01*
X49640000Y-87600000D02*
X51240000Y-89900000D01*
X47440000Y-87500000D02*
X49640000Y-87600000D01*
X55440000Y-92400000D02*
X55382005Y-92626916D01*
X41900000Y-97500000D02*
X41450000Y-97950000D01*
X41900000Y-97500000D02*
X41900000Y-97493684D01*
X43440000Y-94900000D02*
X41900000Y-97493684D01*
X45640000Y-88600000D02*
X43940000Y-88600000D01*
X43840000Y-93300000D02*
X43440000Y-94900000D01*
X43240000Y-89100000D02*
X43840000Y-93300000D01*
X43940000Y-88600000D02*
X43240000Y-89100000D01*
X45981678Y-90280852D02*
X45440000Y-89400000D01*
X45640000Y-88600000D02*
X47440000Y-87500000D01*
X45440000Y-89400000D02*
X45640000Y-88600000D01*
X45750000Y-109600000D02*
X45740000Y-109600000D01*
X43650000Y-107800000D02*
X45750000Y-109600000D01*
X45740000Y-109600000D02*
X45740000Y-110300000D01*
X46540000Y-111000000D02*
X49440000Y-110900000D01*
X45740000Y-110300000D02*
X46540000Y-111000000D01*
X45740000Y-109600000D02*
X45740000Y-109600000D01*
X45740000Y-109500000D02*
X45740000Y-109600000D01*
X45740000Y-109500000D02*
X46440000Y-109400000D01*
X46440000Y-109400000D02*
X47140000Y-108600000D01*
X47140000Y-108600000D02*
X47207880Y-108436159D01*
X66700000Y-91100000D02*
X66700000Y-90050000D01*
X66750000Y-90000000D02*
X66750000Y-89900000D01*
X66700000Y-90050000D02*
X66750000Y-90000000D01*
X86700000Y-92460000D02*
X82910000Y-92460000D01*
X82400000Y-90750000D02*
X81550000Y-89900000D01*
X82400000Y-91950000D02*
X82400000Y-90750000D01*
X82910000Y-92460000D02*
X82400000Y-91950000D01*
X88240000Y-93000000D02*
X88940000Y-92300000D01*
X86700000Y-92460000D02*
X87240000Y-93000000D01*
X87240000Y-93000000D02*
X88240000Y-93000000D01*
X68240000Y-89900000D02*
X68890000Y-89900000D01*
X68890000Y-89900000D02*
X68890000Y-89900000D01*
X68890000Y-89900000D02*
X81550000Y-89900000D01*
X66990000Y-89900000D02*
X66990000Y-89900000D01*
X66990000Y-89900000D02*
X68240000Y-89900000D01*
X88940000Y-92300000D02*
X90340000Y-92300000D01*
X90340000Y-92300000D02*
X91540000Y-93500000D01*
X66340000Y-89900000D02*
X66750000Y-89900000D01*
X66750000Y-89900000D02*
X66990000Y-89900000D01*
D30*
X76900000Y-93000000D02*
X76850000Y-93000000D01*
D29*
X58550000Y-97350000D02*
X58350000Y-97150000D01*
X67140000Y-103400000D02*
X67090000Y-103350000D01*
D30*
X62500000Y-95200000D02*
X62500000Y-95300000D01*
X61300000Y-94000000D02*
X62500000Y-95200000D01*
D29*
X63500000Y-96200000D02*
X63400000Y-96200000D01*
X63400000Y-96200000D02*
X62500000Y-95300000D01*
X62500000Y-95300000D02*
X62400000Y-95200000D01*
X62400000Y-95200000D02*
X60700000Y-95200000D01*
X60700000Y-95200000D02*
X58550000Y-97350000D01*
X58550000Y-97350000D02*
X58500000Y-97400000D01*
X58500000Y-97400000D02*
X58500000Y-98400000D01*
X58500000Y-98400000D02*
X58615736Y-98524264D01*
X67140000Y-103400000D02*
X68040000Y-104300000D01*
X68040000Y-104300000D02*
X67990000Y-104800000D01*
X66515736Y-102775736D02*
X67140000Y-103400000D01*
X66464264Y-102775736D02*
X66515736Y-102775736D01*
X65814264Y-102125736D02*
X65865736Y-102125736D01*
X65865736Y-102125736D02*
X66440000Y-102700000D01*
X66440000Y-102700000D02*
X66464264Y-102775736D01*
D30*
X65814264Y-102125736D02*
X65690000Y-102250000D01*
X65690000Y-102250000D02*
X65290000Y-102250000D01*
D29*
X58515000Y-98400000D02*
X58615736Y-98524264D01*
D30*
X59540000Y-98450000D02*
X58740000Y-98450000D01*
X58740000Y-98450000D02*
X58640000Y-98550000D01*
X58640000Y-98550000D02*
X58615736Y-98524264D01*
X60316167Y-99212563D02*
X60302563Y-99212563D01*
X60302563Y-99212563D02*
X59540000Y-98450000D01*
X65290000Y-102250000D02*
X64640000Y-101600000D01*
X64640000Y-101600000D02*
X64382031Y-101369239D01*
X64382031Y-101369239D02*
X64409239Y-101369239D01*
X64409239Y-101369239D02*
X65290000Y-102250000D01*
X57275000Y-101300000D02*
X56400000Y-100425000D01*
X56400000Y-100425000D02*
X55925000Y-99950000D01*
X55925000Y-99950000D02*
X55440000Y-99650000D01*
D29*
X58350000Y-97150000D02*
X57400000Y-97150000D01*
X55600000Y-98950000D02*
X55600000Y-99650000D01*
X57400000Y-97150000D02*
X55600000Y-98950000D01*
X55600000Y-99650000D02*
X55440000Y-99650000D01*
X55450000Y-99600000D02*
X55440000Y-99650000D01*
D30*
X55400000Y-99650000D02*
X55400000Y-99600000D01*
X55400000Y-99600000D02*
X55440000Y-99650000D01*
X55825000Y-99750000D02*
X55440000Y-99650000D01*
D29*
X55440000Y-99650000D02*
X55740000Y-99650000D01*
D30*
X76850000Y-93000000D02*
X75150000Y-91300000D01*
X75150000Y-91300000D02*
X75050000Y-91250000D01*
X69450000Y-91250000D02*
X69150000Y-91250000D01*
X69150000Y-91250000D02*
X68000000Y-92400000D01*
X75050000Y-91250000D02*
X69350000Y-91250000D01*
X69350000Y-91250000D02*
X69300000Y-91200000D01*
X69300000Y-91200000D02*
X69450000Y-91250000D01*
X78700000Y-91250000D02*
X75150000Y-91250000D01*
X75150000Y-91250000D02*
X75100000Y-91200000D01*
X75100000Y-91200000D02*
X75050000Y-91250000D01*
X78700000Y-91250000D02*
X79025000Y-91250000D01*
X79025000Y-91250000D02*
X80100000Y-92325000D01*
X85700000Y-90200000D02*
X85125000Y-90775000D01*
X85125000Y-90775000D02*
X85125000Y-91250000D01*
X85125000Y-91250000D02*
X84300000Y-91250000D01*
X50240000Y-99650000D02*
X48950000Y-99650000D01*
X48950000Y-99650000D02*
X48850000Y-99750000D01*
X50240000Y-99650000D02*
X50490000Y-99650000D01*
X50240000Y-99650000D02*
X49990000Y-99650000D01*
X49990000Y-99650000D02*
X49940000Y-99600000D01*
X50240000Y-101250000D02*
X49990000Y-101250000D01*
X49990000Y-101250000D02*
X49940000Y-101300000D01*
X50240000Y-101250000D02*
X50240000Y-102400000D01*
X50240000Y-102400000D02*
X49940000Y-102400000D01*
X55440000Y-101250000D02*
X55190000Y-101250000D01*
X55190000Y-101250000D02*
X55140000Y-101300000D01*
X55440000Y-101250000D02*
X55440000Y-102350000D01*
X55440000Y-102350000D02*
X55140000Y-102400000D01*
X69450000Y-95250000D02*
X71575000Y-95250000D01*
X73925000Y-96025000D02*
X74300000Y-95650000D01*
X71575000Y-95250000D02*
X73925000Y-92900000D01*
X74300000Y-95650000D02*
X74300000Y-95225000D01*
X74300000Y-95225000D02*
X75050000Y-95250000D01*
X67900000Y-95750000D02*
X68200000Y-95450000D01*
X68200000Y-95450000D02*
X69450000Y-95250000D01*
X75050000Y-95250000D02*
X75850000Y-95250000D01*
X75850000Y-95250000D02*
X76100000Y-95500000D01*
X76100000Y-95500000D02*
X76100000Y-96700000D01*
X65700000Y-96350000D02*
X67300000Y-96350000D01*
X67300000Y-96350000D02*
X67650000Y-96000000D01*
X64650000Y-96899998D02*
X65100002Y-96899998D01*
X65100002Y-96899998D02*
X65700000Y-96300000D01*
X65700000Y-96300000D02*
X65700000Y-96350000D01*
X67650000Y-96000000D02*
X67900000Y-95750000D01*
X63850002Y-96899998D02*
X64650000Y-96899998D01*
X62791041Y-97939771D02*
X62810229Y-97939771D01*
X62810229Y-97939771D02*
X63850002Y-96899998D01*
X63140000Y-97600000D02*
X62791041Y-97939771D01*
X65250000Y-101250000D02*
X66650000Y-101250000D01*
X65250000Y-101250000D02*
X64890000Y-101250000D01*
X64890000Y-101250000D02*
X64790000Y-101150000D01*
X64790000Y-101150000D02*
X64700229Y-101051041D01*
X65090000Y-101325000D02*
X64700229Y-101051041D01*
X66650000Y-101250000D02*
X68350000Y-102950000D01*
X68350000Y-102950000D02*
X68350000Y-102900000D01*
X54950000Y-107300000D02*
X56500000Y-107300000D01*
X56500000Y-107300000D02*
X56900000Y-107700000D01*
X56900000Y-107700000D02*
X57313996Y-108199344D01*
X53700000Y-106800000D02*
X54450000Y-106800000D01*
X54450000Y-106800000D02*
X54950000Y-107300000D01*
X57313996Y-108199344D02*
X57199344Y-108199344D01*
X53700000Y-106800000D02*
X52200000Y-106800000D01*
X57550000Y-109150000D02*
X57550000Y-108700000D01*
X58600000Y-110200000D02*
X57550000Y-109150000D01*
X57550000Y-108700000D02*
X57313996Y-108199344D01*
X57040000Y-107750000D02*
X57313996Y-108199344D01*
X57090000Y-107800000D02*
X57313996Y-108199344D01*
X57313996Y-108199344D02*
X57313996Y-108198996D01*
X57313996Y-108198996D02*
X56765000Y-107650000D01*
X57313996Y-108199344D02*
X57313996Y-107973996D01*
X60800000Y-108950000D02*
X60400000Y-109350000D01*
X63109239Y-102659239D02*
X63667156Y-103217156D01*
X63667156Y-103217156D02*
X63667156Y-103467156D01*
X63109239Y-102642031D02*
X63109239Y-102659239D01*
X63440000Y-102975000D02*
X63109239Y-102642031D01*
X60950000Y-105500000D02*
X60900000Y-105550000D01*
X60900000Y-105550000D02*
X60800000Y-105650000D01*
X60800000Y-105650000D02*
X60800000Y-108950000D01*
X62550002Y-103899998D02*
X61550000Y-104900000D01*
X63234314Y-103899998D02*
X62550002Y-103899998D01*
X63667156Y-103467156D02*
X63234314Y-103899998D01*
X61550000Y-104900000D02*
X60950000Y-105500000D01*
X52000000Y-107000000D02*
X52000000Y-107450000D01*
X52200000Y-106800000D02*
X52000000Y-107000000D01*
X52000000Y-107450000D02*
X51990000Y-107550000D01*
X56257419Y-108867285D02*
X53667285Y-108867285D01*
X53667285Y-108867285D02*
X52450000Y-107650000D01*
X56257419Y-108867285D02*
X56217285Y-108867285D01*
X57950000Y-110950000D02*
X56400000Y-109400000D01*
X59050000Y-110950000D02*
X57950000Y-110950000D01*
X56400000Y-109400000D02*
X56257419Y-108867285D01*
X56257419Y-108867285D02*
X56257419Y-108817419D01*
X56257419Y-108817419D02*
X56149838Y-108925000D01*
X61600000Y-105450000D02*
X61300000Y-105750000D01*
X64200000Y-103100000D02*
X64200000Y-103500000D01*
X64200000Y-103500000D02*
X63400000Y-104300000D01*
X63400000Y-104300000D02*
X62750000Y-104300000D01*
X62750000Y-104300000D02*
X61600000Y-105450000D01*
X63427437Y-102327437D02*
X64200000Y-103100000D01*
X61300000Y-105750000D02*
X61250000Y-105800000D01*
X61250000Y-109450000D02*
X61250000Y-105800000D01*
X63427437Y-102323833D02*
X63427437Y-102327437D01*
X63640000Y-102550000D02*
X63427437Y-102323833D01*
X52450000Y-107650000D02*
X52490000Y-107550000D01*
X52500000Y-107450000D02*
X52490000Y-107550000D01*
X51300000Y-106800000D02*
X51350000Y-106800000D01*
X51500000Y-106950000D02*
X51500000Y-107350000D01*
X51350000Y-106800000D02*
X51500000Y-106950000D01*
X51500000Y-107350000D02*
X51490000Y-107550000D01*
X51490000Y-107250000D02*
X51490000Y-107550000D01*
X51300000Y-106800000D02*
X51200000Y-106800000D01*
X50550000Y-106800000D02*
X51300000Y-106800000D01*
X50350000Y-107000000D02*
X50550000Y-106800000D01*
X60312563Y-101687437D02*
X57700000Y-104300000D01*
X60316167Y-101687437D02*
X60312563Y-101687437D01*
X60190000Y-101800000D02*
X60316167Y-101687437D01*
X59990000Y-102000000D02*
X60316167Y-101687437D01*
X53400000Y-104650000D02*
X57350000Y-104650000D01*
X57350000Y-104650000D02*
X57700000Y-104300000D01*
X52550000Y-105150000D02*
X52900000Y-105150000D01*
X52900000Y-105150000D02*
X53450000Y-104600000D01*
X53450000Y-104600000D02*
X53400000Y-104650000D01*
X44700000Y-106200000D02*
X44200000Y-107200000D01*
X44950000Y-108150000D02*
X45850000Y-108050000D01*
X44250000Y-107550000D02*
X44950000Y-108150000D01*
X44200000Y-107200000D02*
X44250000Y-107550000D01*
X45850000Y-108050000D02*
X46257373Y-107624349D01*
X46257373Y-107624349D02*
X46257373Y-107582627D01*
X48600000Y-107000000D02*
X50350000Y-107000000D01*
X52550000Y-105150000D02*
X47100000Y-105150000D01*
X47100000Y-105150000D02*
X46900000Y-104950000D01*
X50800000Y-107950000D02*
X51000000Y-107750000D01*
X51000000Y-107750000D02*
X50990000Y-107550000D01*
X50990000Y-107550000D02*
X50990000Y-107660000D01*
X50990000Y-107660000D02*
X50980000Y-107650000D01*
X51000000Y-107300000D02*
X50990000Y-107550000D01*
X51000000Y-107450000D02*
X50990000Y-107550000D01*
X50990000Y-107275000D02*
X51015000Y-107300000D01*
X51015000Y-107300000D02*
X50990000Y-107550000D01*
X49650000Y-107950000D02*
X50800000Y-107950000D01*
X48350000Y-107650000D02*
X48650000Y-107950000D01*
X48650000Y-107950000D02*
X49650000Y-107950000D01*
X48350000Y-107650000D02*
X47100000Y-106400000D01*
X47100000Y-106400000D02*
X47100000Y-106399998D01*
X51550000Y-106399998D02*
X50350000Y-106399998D01*
X50350000Y-106399998D02*
X47550000Y-106399998D01*
X47550000Y-106399998D02*
X47100000Y-106399998D01*
X47100000Y-106399998D02*
X45600002Y-106399998D01*
X45600002Y-106399998D02*
X45600000Y-106400000D01*
X45600000Y-106400000D02*
X45306865Y-106812539D01*
X45306865Y-106812539D02*
X45527461Y-106812539D01*
X45306865Y-106812539D02*
X45327461Y-106812539D01*
X45306865Y-106812539D02*
X45306865Y-106633135D01*
X60000000Y-105400000D02*
X58800000Y-105400000D01*
X57800002Y-106399998D02*
X51700000Y-106399998D01*
X51700000Y-106399998D02*
X51550000Y-106399998D01*
X58800000Y-105400000D02*
X57800002Y-106399998D01*
X60450000Y-105400000D02*
X62850000Y-103000000D01*
X60450000Y-105400000D02*
X60000000Y-105400000D01*
X60000000Y-105400000D02*
X59950000Y-105400000D01*
X62690000Y-102850000D02*
X62791041Y-102960229D01*
X62665000Y-102825000D02*
X62791041Y-102960229D01*
X54050000Y-102410000D02*
X54060000Y-102410000D01*
X54060000Y-102410000D02*
X54650000Y-103000000D01*
X54040000Y-102400000D02*
X54050000Y-102410000D01*
X54040000Y-102400000D02*
X51140000Y-102400000D01*
X57100000Y-103000000D02*
X59950000Y-100150000D01*
X54650000Y-103000000D02*
X57100000Y-103000000D01*
X59950000Y-100150000D02*
X59679771Y-99848959D01*
X57290000Y-103450000D02*
X59440000Y-101300000D01*
X59440000Y-101300000D02*
X59679771Y-101051041D01*
X59640000Y-101050000D02*
X59679771Y-101051041D01*
X49190000Y-102750000D02*
X49190000Y-101240000D01*
X49190000Y-101240000D02*
X48900000Y-100950000D01*
X48900000Y-100950000D02*
X48850000Y-100950000D01*
X49190000Y-102750000D02*
X49190000Y-102750000D01*
X49190000Y-102750000D02*
X49440000Y-103000000D01*
X49440000Y-103000000D02*
X54040000Y-103000000D01*
X54040000Y-103000000D02*
X54490000Y-103450000D01*
X54490000Y-103450000D02*
X56990000Y-103450000D01*
X56990000Y-103450000D02*
X57090000Y-103450000D01*
X57090000Y-103450000D02*
X57190000Y-103450000D01*
X57190000Y-103450000D02*
X57240000Y-103450000D01*
X57240000Y-103450000D02*
X57290000Y-103450000D01*
X56340000Y-102400000D02*
X57050000Y-102400000D01*
X59050000Y-99850000D02*
X58850000Y-99650000D01*
X59050000Y-100400000D02*
X59050000Y-99850000D01*
X57050000Y-102400000D02*
X59050000Y-100400000D01*
X56340000Y-102400000D02*
X56540000Y-102400000D01*
X58850000Y-99250000D02*
X58850000Y-99240000D01*
X58850000Y-99650000D02*
X58850000Y-99250000D01*
X59090000Y-99000000D02*
X59490000Y-99000000D01*
X59490000Y-99000000D02*
X59740000Y-99250000D01*
X58850000Y-99240000D02*
X59090000Y-99000000D01*
X59740000Y-99250000D02*
X59997969Y-99530761D01*
X57450000Y-103900000D02*
X54300000Y-103900000D01*
X54300000Y-103900000D02*
X53850000Y-103450000D01*
X59980761Y-101369239D02*
X57450000Y-103900000D01*
X59997969Y-101369239D02*
X59980761Y-101369239D01*
X59840000Y-101500000D02*
X59997969Y-101369239D01*
X48700000Y-103750000D02*
X46350000Y-103750000D01*
X46350000Y-103750000D02*
X45350000Y-102750000D01*
X53850000Y-103450000D02*
X49000000Y-103450000D01*
X49000000Y-103450000D02*
X48700000Y-103750000D01*
X43450000Y-97600000D02*
X42650000Y-97600000D01*
X45350000Y-102750000D02*
X45350000Y-98800000D01*
X45350000Y-98800000D02*
X45550000Y-98600000D01*
X42050000Y-99250000D02*
X42650000Y-99850000D01*
X42050000Y-98200000D02*
X42050000Y-99250000D01*
X42650000Y-97600000D02*
X42050000Y-98200000D01*
X42650000Y-99850000D02*
X43240000Y-99875000D01*
X46800000Y-94200000D02*
X46800000Y-94115688D01*
X46607844Y-94942156D02*
X46800000Y-94750000D01*
X46800000Y-94750000D02*
X46800000Y-94200000D01*
X46250000Y-94942156D02*
X46607844Y-94942156D01*
X46634312Y-93950000D02*
X46200000Y-93950000D01*
X46800000Y-94115688D02*
X46634312Y-93950000D01*
X46200000Y-93950000D02*
X46090000Y-93950000D01*
X45907844Y-94942156D02*
X46250000Y-94942156D01*
X46250000Y-94942156D02*
X46242156Y-94942156D01*
X45250000Y-95600000D02*
X45907844Y-94942156D01*
X46240000Y-93950000D02*
X46090000Y-93950000D01*
X61588959Y-102960229D02*
X61588959Y-103661041D01*
X61588959Y-103661041D02*
X60250002Y-104999998D01*
X61265000Y-103275000D02*
X61588959Y-102960229D01*
X61315000Y-103225000D02*
X61588959Y-102960229D01*
X61415000Y-103125000D02*
X61588959Y-102960229D01*
X44250000Y-104550000D02*
X44250000Y-103150000D01*
X44250000Y-103150000D02*
X44450000Y-102950000D01*
X45550000Y-105050000D02*
X44750000Y-105050000D01*
X44750000Y-105050000D02*
X44300000Y-104600000D01*
X44300000Y-104600000D02*
X44250000Y-104550000D01*
X43240000Y-98625000D02*
X43775000Y-98625000D01*
X43775000Y-98625000D02*
X44400000Y-98000000D01*
X44400000Y-98000000D02*
X44400000Y-95550000D01*
X44450000Y-99250000D02*
X43800000Y-98600000D01*
X44450000Y-102950000D02*
X44450000Y-99250000D01*
X46499996Y-105999996D02*
X45550000Y-105050000D01*
X57634316Y-105999996D02*
X46499996Y-105999996D01*
X58634314Y-104999998D02*
X57634316Y-105999996D01*
X60250002Y-104999998D02*
X58634314Y-104999998D01*
X43800000Y-98600000D02*
X43240000Y-98625000D01*
X46390000Y-94450000D02*
X46090000Y-94450000D01*
X45300000Y-94950000D02*
X45800000Y-94450000D01*
X45000000Y-94950000D02*
X45300000Y-94950000D01*
X44400000Y-95550000D02*
X45000000Y-94950000D01*
X45800000Y-94450000D02*
X46090000Y-94450000D01*
X45950000Y-92950000D02*
X46090000Y-92950000D01*
X46390000Y-92950000D02*
X46090000Y-92950000D01*
X60750000Y-97750000D02*
X60750000Y-97050000D01*
X60750000Y-97050000D02*
X60950000Y-96850000D01*
X59700000Y-94950000D02*
X58600000Y-96050000D01*
X58600000Y-96050000D02*
X55600000Y-96050000D01*
X55600000Y-96050000D02*
X53850000Y-94300000D01*
X53850000Y-94300000D02*
X53400000Y-94300000D01*
X53400000Y-94300000D02*
X53000000Y-93900000D01*
X53000000Y-93900000D02*
X53000000Y-92450000D01*
X53000000Y-92450000D02*
X50800000Y-90250000D01*
X50800000Y-90250000D02*
X50750000Y-90200000D01*
X61257969Y-98257969D02*
X60750000Y-97750000D01*
X61270761Y-98257969D02*
X61257969Y-98257969D01*
X61270761Y-98257969D02*
X61270761Y-98230761D01*
X61015000Y-98000000D02*
X61270761Y-98257969D01*
X49850000Y-89800000D02*
X49850000Y-89250000D01*
X49850000Y-89250000D02*
X49100000Y-88500000D01*
X49100000Y-88500000D02*
X49150000Y-88550000D01*
X50650000Y-90096875D02*
X50146875Y-90096875D01*
X50146875Y-90096875D02*
X49800000Y-89750000D01*
X49800000Y-89750000D02*
X49850000Y-89800000D01*
X49850000Y-89850000D02*
X49850000Y-89800000D01*
X48250000Y-90650000D02*
X45950000Y-92950000D01*
X50750000Y-90200000D02*
X50650000Y-90096875D01*
X48250000Y-90650000D02*
X48250000Y-90650000D01*
X48250000Y-90650000D02*
X47050000Y-89450000D01*
X47050000Y-89450000D02*
X46950000Y-89450000D01*
X46950000Y-89450000D02*
X47042892Y-89620304D01*
X47042892Y-89620304D02*
X47042892Y-89802892D01*
X47042892Y-89620304D02*
X47042892Y-89902892D01*
X47042892Y-89902892D02*
X47390000Y-90250000D01*
X59300000Y-103350000D02*
X60450000Y-102200000D01*
X59300000Y-103450000D02*
X59300000Y-103350000D01*
X59300000Y-103500000D02*
X59300000Y-103450000D01*
X59300000Y-103950000D02*
X59300000Y-103500000D01*
X60450000Y-102200000D02*
X60634365Y-102005635D01*
X65150000Y-105650000D02*
X65700000Y-105650000D01*
X65700000Y-105650000D02*
X66100000Y-105250000D01*
X66100000Y-105250000D02*
X66050000Y-105300000D01*
X63540000Y-105650000D02*
X65150000Y-105650000D01*
X62940000Y-105650000D02*
X63540000Y-105650000D01*
X63540000Y-105650000D02*
X63590000Y-105650000D01*
X63590000Y-105650000D02*
X65590000Y-103650000D01*
X65590000Y-103650000D02*
X65615736Y-103624264D01*
X46600000Y-93450000D02*
X46300000Y-93450000D01*
X46300000Y-93450000D02*
X46090000Y-93450000D01*
X46190000Y-93450000D02*
X46090000Y-93450000D01*
X60750000Y-103150000D02*
X60750000Y-103934312D01*
X60750000Y-103934312D02*
X60084316Y-104599996D01*
X60084316Y-104599996D02*
X58468628Y-104599996D01*
X58468628Y-104599996D02*
X57468630Y-105599994D01*
X57468630Y-105599994D02*
X46665682Y-105599994D01*
X46665682Y-105599994D02*
X44900000Y-103834312D01*
X61257969Y-102642031D02*
X60750000Y-103150000D01*
X61270761Y-102642031D02*
X61257969Y-102642031D01*
X61065000Y-102825000D02*
X61270761Y-102642031D01*
X46400000Y-95850000D02*
X46300000Y-95850000D01*
X46300000Y-95850000D02*
X45050000Y-97100000D01*
X47050000Y-95100000D02*
X46300000Y-95850000D01*
X48104107Y-88959756D02*
X48104107Y-89204107D01*
X48104107Y-89204107D02*
X48900000Y-90000000D01*
X48900000Y-90900000D02*
X47250000Y-92550000D01*
X48900000Y-90000000D02*
X48900000Y-90900000D01*
X47250000Y-94000000D02*
X47250000Y-92550000D01*
X48450000Y-89450000D02*
X48104107Y-88959756D01*
X47250000Y-94150000D02*
X47250000Y-94000000D01*
X46700000Y-93450000D02*
X46600000Y-93450000D01*
X47250000Y-94000000D02*
X46700000Y-93450000D01*
X44900000Y-97400000D02*
X44900000Y-97250000D01*
X47250000Y-94900000D02*
X47250000Y-94150000D01*
X44900000Y-97250000D02*
X45050000Y-97100000D01*
X45050000Y-97100000D02*
X47050000Y-95100000D01*
X47050000Y-95100000D02*
X47250000Y-94900000D01*
X48400000Y-89400000D02*
X48104107Y-88959756D01*
X44900000Y-103834312D02*
X44900000Y-97400000D01*
X48104107Y-88959756D02*
X48104107Y-89264107D01*
X57700000Y-97925000D02*
X57700000Y-97950000D01*
X57700000Y-98650000D02*
X57700000Y-97925000D01*
X58350000Y-95000000D02*
X57200000Y-95000000D01*
X57200000Y-95000000D02*
X57050000Y-94850000D01*
X57050000Y-94850000D02*
X57103816Y-94855212D01*
X58500000Y-93850000D02*
X57850000Y-93200000D01*
X57850000Y-93200000D02*
X57850000Y-93150000D01*
X57850000Y-93150000D02*
X57731237Y-93481966D01*
X57103816Y-94855212D02*
X57440000Y-93950000D01*
X57440000Y-93950000D02*
X57731237Y-93481966D01*
X57740000Y-93800000D02*
X57731237Y-93481966D01*
X57900000Y-100700000D02*
X57900000Y-98850000D01*
X57900000Y-98850000D02*
X57700000Y-98650000D01*
X57900000Y-100700000D02*
X57900000Y-100700000D01*
X60100000Y-103200000D02*
X60100000Y-103500000D01*
X60952563Y-102347437D02*
X60100000Y-103200000D01*
X60952563Y-102323833D02*
X60952563Y-102347437D01*
X61015000Y-102225000D02*
X60952563Y-102323833D01*
X61588959Y-97939771D02*
X61588959Y-96911041D01*
X62100000Y-96400000D02*
X61700000Y-96000000D01*
X61700000Y-96000000D02*
X61200000Y-96000000D01*
X61588959Y-96911041D02*
X62100000Y-96400000D01*
X60550000Y-94400000D02*
X60300000Y-93700000D01*
X57500000Y-92100000D02*
X56750000Y-92550000D01*
X58500000Y-92450000D02*
X57500000Y-92100000D01*
X58850000Y-93150000D02*
X58500000Y-92450000D01*
X60300000Y-93700000D02*
X58850000Y-93150000D01*
X56750000Y-92550000D02*
X56556621Y-93054441D01*
X60550000Y-94400000D02*
X60550000Y-94400000D01*
X54903816Y-94055212D02*
X55890000Y-93650000D01*
X55890000Y-93650000D02*
X56440000Y-93400000D01*
X56440000Y-93400000D02*
X56556621Y-93054441D01*
X56440000Y-93600000D02*
X56556621Y-93054441D01*
X86350000Y-106140000D02*
X86350000Y-106150000D01*
X85400000Y-107100000D02*
X85400000Y-107900000D01*
X86350000Y-106150000D02*
X85400000Y-107100000D01*
X87119998Y-103671555D02*
X87119998Y-105370002D01*
X87119998Y-105370002D02*
X86350000Y-106140000D01*
X87119998Y-103671555D02*
X87119998Y-103579998D01*
X87119998Y-103579998D02*
X86840000Y-103300000D01*
X86840000Y-103300000D02*
X86840000Y-101900000D01*
X86840000Y-101900000D02*
X84840000Y-99900000D01*
X87119998Y-103579998D02*
X86740000Y-103200000D01*
X67340000Y-99900000D02*
X67290000Y-99900000D01*
X64690000Y-98600000D02*
X64390000Y-98900000D01*
X65990000Y-98600000D02*
X64690000Y-98600000D01*
X67290000Y-99900000D02*
X65990000Y-98600000D01*
X64390000Y-98900000D02*
X64063833Y-99212563D01*
X84840000Y-99900000D02*
X67340000Y-99900000D01*
X67340000Y-99900000D02*
X67390000Y-99900000D01*
X64490000Y-98150000D02*
X64040000Y-98600000D01*
X66140000Y-98150000D02*
X64490000Y-98150000D01*
X66290000Y-98300000D02*
X66140000Y-98150000D01*
X64040000Y-98600000D02*
X63745635Y-98894365D01*
X89840152Y-97109775D02*
X89840152Y-97159848D01*
X89840152Y-97159848D02*
X89450000Y-97550000D01*
X89450000Y-97550000D02*
X89450000Y-99000000D01*
X89450000Y-99000000D02*
X89450000Y-99100000D01*
X89840152Y-97109775D02*
X89540225Y-97109775D01*
X89540225Y-97109775D02*
X89050000Y-97600000D01*
X86400000Y-99450000D02*
X84800000Y-99450000D01*
X88250000Y-97600000D02*
X86400000Y-99450000D01*
X89050000Y-97600000D02*
X88250000Y-97600000D01*
X67440000Y-99450000D02*
X66290000Y-98300000D01*
X84800000Y-99450000D02*
X68040000Y-99450000D01*
X68040000Y-99450000D02*
X67440000Y-99450000D01*
X89840152Y-97109775D02*
X89530225Y-97109775D01*
X67440000Y-100350000D02*
X67140000Y-100350000D01*
X64889998Y-99000002D02*
X64665000Y-99225000D01*
X65790002Y-99000002D02*
X64889998Y-99000002D01*
X67140000Y-100350000D02*
X65790002Y-99000002D01*
X64665000Y-99225000D02*
X64382031Y-99530761D01*
X86190000Y-102200000D02*
X86190000Y-101900000D01*
X84640000Y-100350000D02*
X67440000Y-100350000D01*
X67440000Y-100350000D02*
X67440000Y-100350000D01*
X86190000Y-101900000D02*
X84640000Y-100350000D01*
X87200000Y-100900000D02*
X86800000Y-100900000D01*
X86800000Y-100900000D02*
X86250000Y-100350000D01*
X88026716Y-102811112D02*
X88026716Y-102776716D01*
X88026716Y-102776716D02*
X87300000Y-102050000D01*
X87300000Y-102050000D02*
X87300000Y-101000000D01*
X87300000Y-101000000D02*
X87150000Y-100850000D01*
X87150000Y-100850000D02*
X87200000Y-100900000D01*
X88026716Y-102811112D02*
X88026716Y-102626716D01*
X88026716Y-102626716D02*
X87600000Y-102200000D01*
X88026716Y-102811112D02*
X88026716Y-102686716D01*
X88026716Y-102686716D02*
X87590000Y-102250000D01*
X86250000Y-100350000D02*
X86240000Y-100350000D01*
D29*
X64750000Y-95000000D02*
X64250000Y-95000000D01*
X64250000Y-95000000D02*
X63500000Y-94250000D01*
X63500000Y-94250000D02*
X63500000Y-94300000D01*
X64800000Y-93400000D02*
X64800000Y-94950000D01*
X64800000Y-94950000D02*
X64750000Y-95000000D01*
D30*
X60640000Y-98275000D02*
X60952563Y-98576167D01*
X64700229Y-99848959D02*
X65998959Y-99848959D01*
X65998959Y-99848959D02*
X66950000Y-100800000D01*
X64740000Y-99825000D02*
X64700229Y-99848959D01*
X70600000Y-100800000D02*
X71100000Y-101300000D01*
X66950000Y-100800000D02*
X70600000Y-100800000D01*
X64315000Y-97725000D02*
X64265000Y-97725000D01*
X64265000Y-97725000D02*
X63765000Y-98225000D01*
X63765000Y-98225000D02*
X63427437Y-98576167D01*
X64315000Y-97725000D02*
X64315000Y-97725000D01*
X66340000Y-97725000D02*
X64315000Y-97725000D01*
X86540000Y-97700000D02*
X87540000Y-97700000D01*
X87540000Y-97700000D02*
X88715000Y-96525000D01*
X88715000Y-96525000D02*
X88933434Y-96249331D01*
X88933434Y-96249331D02*
X88933434Y-96306566D01*
X88933434Y-96306566D02*
X88915000Y-96325000D01*
X88915000Y-96325000D02*
X88933434Y-96249331D01*
X84665000Y-99000000D02*
X85215000Y-99000000D01*
X85215000Y-99000000D02*
X86465000Y-97750000D01*
X86465000Y-97750000D02*
X86540000Y-97700000D01*
X68440000Y-99000000D02*
X67615000Y-99000000D01*
X67615000Y-99000000D02*
X66340000Y-97725000D01*
X84665000Y-99000000D02*
X68440000Y-99000000D01*
X68440000Y-99000000D02*
X68390000Y-99000000D01*
X78700000Y-95250000D02*
X83800000Y-95250000D01*
X83800000Y-95250000D02*
X83825000Y-95275000D01*
X83825000Y-95275000D02*
X84300000Y-95250000D01*
X76950000Y-94400000D02*
X77550000Y-95000000D01*
X73550000Y-94400000D02*
X76950000Y-94400000D01*
X71850000Y-96100000D02*
X73550000Y-94400000D01*
X68150000Y-96100000D02*
X71850000Y-96100000D01*
X77550000Y-95000000D02*
X78700000Y-95250000D01*
X78700000Y-95250000D02*
X77750000Y-95250000D01*
X77750000Y-95250000D02*
X77600000Y-95400000D01*
X64090000Y-97300000D02*
X63190000Y-98200000D01*
X63190000Y-98200000D02*
X63109239Y-98257969D01*
X66950000Y-97310000D02*
X69060000Y-97310000D01*
X69060000Y-97310000D02*
X69250000Y-97500000D01*
X69250000Y-97500000D02*
X69250000Y-97450000D01*
X66550000Y-97310000D02*
X66950000Y-97310000D01*
X66950000Y-97310000D02*
X66940000Y-97310000D01*
X66940000Y-97310000D02*
X68150000Y-96100000D01*
X66550000Y-97310000D02*
X66540000Y-97300000D01*
X66540000Y-97300000D02*
X64090000Y-97300000D01*
X77600000Y-95400000D02*
X77600000Y-96700000D01*
M02*
