G04 #@! TF.FileFunction,Soldermask,Top*
%FSLAX46Y46*%
G04 Gerber Fmt 4.6, Leading zero omitted, Abs format (unit mm)*
G04 Created by KiCad (PCBNEW 4.0.2-4+6225~38~ubuntu14.04.1-stable) date Wed 22 Jun 2016 06:39:26 PM CDT*
%MOMM*%
G01*
G04 APERTURE LIST*
%ADD10C,0.100000*%
%ADD11C,0.010000*%
G04 APERTURE END LIST*
D10*
D11*
G36*
X47236410Y-84210257D02*
X47233714Y-84237309D01*
X47218994Y-84305003D01*
X47194267Y-84405107D01*
X47161545Y-84529388D01*
X47131961Y-84637123D01*
X46975216Y-85241126D01*
X46852486Y-85810638D01*
X46763658Y-86348864D01*
X46708619Y-86859013D01*
X46687258Y-87344289D01*
X46699461Y-87807900D01*
X46745116Y-88253052D01*
X46824111Y-88682952D01*
X46936332Y-89100806D01*
X46971487Y-89209509D01*
X47046677Y-89411531D01*
X47147215Y-89647217D01*
X47269003Y-89908773D01*
X47407942Y-90188405D01*
X47559936Y-90478319D01*
X47720886Y-90770721D01*
X47886694Y-91057817D01*
X48053262Y-91331813D01*
X48216493Y-91584915D01*
X48234786Y-91612212D01*
X48342047Y-91767986D01*
X48471155Y-91949827D01*
X48612144Y-92144134D01*
X48755046Y-92337305D01*
X48889895Y-92515738D01*
X49006724Y-92665830D01*
X49007947Y-92667367D01*
X49289121Y-93018508D01*
X49554556Y-93345618D01*
X49799973Y-93643473D01*
X50021092Y-93906849D01*
X50079437Y-93975306D01*
X50200354Y-94117164D01*
X50331894Y-94272372D01*
X50461639Y-94426219D01*
X50577165Y-94563992D01*
X50628100Y-94625125D01*
X50923254Y-94966636D01*
X51203316Y-95261800D01*
X51470206Y-95512193D01*
X51725845Y-95719388D01*
X51972154Y-95884960D01*
X52211053Y-96010483D01*
X52412834Y-96087851D01*
X52589307Y-96128780D01*
X52785603Y-96149707D01*
X52983056Y-96150130D01*
X53163005Y-96129547D01*
X53244086Y-96110192D01*
X53468588Y-96018070D01*
X53678888Y-95882176D01*
X53867286Y-95709175D01*
X54026080Y-95505729D01*
X54108946Y-95361967D01*
X54187794Y-95197724D01*
X54253702Y-95041467D01*
X54309292Y-94883735D01*
X54357190Y-94715066D01*
X54400019Y-94526001D01*
X54440403Y-94307079D01*
X54480967Y-94048839D01*
X54489644Y-93989489D01*
X54520212Y-93771689D01*
X54543051Y-93589431D01*
X54559235Y-93428174D01*
X54569841Y-93273379D01*
X54575945Y-93110503D01*
X54578625Y-92925008D01*
X54579039Y-92781782D01*
X54576783Y-92521200D01*
X54569007Y-92301226D01*
X54554199Y-92111773D01*
X54530849Y-91942757D01*
X54497445Y-91784091D01*
X54452475Y-91625692D01*
X54394429Y-91457472D01*
X54371388Y-91396096D01*
X54297852Y-91211702D01*
X54223315Y-91044614D01*
X54142796Y-90886642D01*
X54051316Y-90729594D01*
X53943897Y-90565281D01*
X53815559Y-90385511D01*
X53661323Y-90182094D01*
X53536597Y-90022910D01*
X53351141Y-89787520D01*
X53195651Y-89587980D01*
X53067656Y-89420978D01*
X52964685Y-89283201D01*
X52884267Y-89171339D01*
X52823931Y-89082078D01*
X52781206Y-89012108D01*
X52777605Y-89005682D01*
X52705100Y-88874999D01*
X52781545Y-88914530D01*
X52897836Y-88986979D01*
X53040175Y-89096377D01*
X53204335Y-89238815D01*
X53386087Y-89410388D01*
X53581205Y-89607189D01*
X53785460Y-89825310D01*
X53876830Y-89926686D01*
X54039578Y-90104536D01*
X54178417Y-90244163D01*
X54298721Y-90348920D01*
X54405864Y-90422158D01*
X54505218Y-90467228D01*
X54602157Y-90487482D01*
X54702054Y-90486271D01*
X54760211Y-90477669D01*
X54820106Y-90464749D01*
X54873216Y-90447228D01*
X54925805Y-90420324D01*
X54984136Y-90379257D01*
X55054474Y-90319245D01*
X55143081Y-90235507D01*
X55256220Y-90123262D01*
X55354515Y-90024008D01*
X55441457Y-89937046D01*
X55531839Y-89849184D01*
X55629622Y-89756900D01*
X55738768Y-89656674D01*
X55863239Y-89544984D01*
X56006998Y-89418309D01*
X56174006Y-89273128D01*
X56368226Y-89105920D01*
X56593618Y-88913163D01*
X56851573Y-88693524D01*
X56906705Y-88649879D01*
X56940311Y-88637133D01*
X56967894Y-88651330D01*
X56978269Y-88661206D01*
X56993164Y-88675161D01*
X57002988Y-88687745D01*
X57004366Y-88703949D01*
X56993920Y-88728763D01*
X56968275Y-88767177D01*
X56924053Y-88824181D01*
X56857877Y-88904765D01*
X56766372Y-89013919D01*
X56646160Y-89156634D01*
X56630192Y-89175603D01*
X56323181Y-89557595D01*
X56060444Y-89922669D01*
X55839993Y-90275022D01*
X55659843Y-90618850D01*
X55518007Y-90958351D01*
X55412498Y-91297720D01*
X55341330Y-91641154D01*
X55303492Y-91978294D01*
X55293259Y-92158410D01*
X55291458Y-92296389D01*
X55299354Y-92400439D01*
X55318211Y-92478765D01*
X55349294Y-92539574D01*
X55393867Y-92591074D01*
X55398604Y-92595552D01*
X55483962Y-92665618D01*
X55565891Y-92708007D01*
X55652350Y-92722101D01*
X55751297Y-92707283D01*
X55870691Y-92662933D01*
X56018491Y-92588435D01*
X56103525Y-92540835D01*
X56230122Y-92469708D01*
X56354352Y-92402162D01*
X56463027Y-92345228D01*
X56542957Y-92305936D01*
X56551494Y-92302068D01*
X56625847Y-92268882D01*
X56733574Y-92220701D01*
X56861655Y-92163351D01*
X56997071Y-92102660D01*
X57032593Y-92086730D01*
X57200528Y-92012686D01*
X57363031Y-91943394D01*
X57513452Y-91881464D01*
X57645146Y-91829509D01*
X57751464Y-91790140D01*
X57825759Y-91765970D01*
X57861384Y-91759611D01*
X57863053Y-91760423D01*
X57848106Y-91781026D01*
X57796183Y-91834380D01*
X57708345Y-91919488D01*
X57585655Y-92035357D01*
X57429178Y-92180989D01*
X57239974Y-92355391D01*
X57019107Y-92557566D01*
X56767641Y-92786519D01*
X56756659Y-92796494D01*
X56602939Y-92937725D01*
X56483608Y-93051666D01*
X56394012Y-93143611D01*
X56329500Y-93218854D01*
X56285420Y-93282689D01*
X56257120Y-93340409D01*
X56244347Y-93379493D01*
X56233432Y-93510194D01*
X56267844Y-93633039D01*
X56342082Y-93738681D01*
X56450644Y-93817775D01*
X56518479Y-93845199D01*
X56574210Y-93862318D01*
X56670987Y-93891841D01*
X56801183Y-93931450D01*
X56957172Y-93978826D01*
X57131325Y-94031651D01*
X57316016Y-94087608D01*
X57327719Y-94091151D01*
X57544470Y-94157033D01*
X57716969Y-94210179D01*
X57849756Y-94252190D01*
X57947366Y-94284667D01*
X58014338Y-94309211D01*
X58055209Y-94327423D01*
X58074516Y-94340903D01*
X58076797Y-94351252D01*
X58074299Y-94354544D01*
X58046535Y-94359170D01*
X57975340Y-94365592D01*
X57868079Y-94373303D01*
X57732118Y-94381792D01*
X57574826Y-94390552D01*
X57490251Y-94394886D01*
X57304971Y-94405309D01*
X57118618Y-94417936D01*
X56943472Y-94431779D01*
X56791813Y-94445850D01*
X56675921Y-94459163D01*
X56656017Y-94461955D01*
X56297643Y-94531210D01*
X55980992Y-94627896D01*
X55704273Y-94753131D01*
X55465698Y-94908030D01*
X55263476Y-95093710D01*
X55095818Y-95311287D01*
X54988790Y-95501999D01*
X54920121Y-95654271D01*
X54876455Y-95781966D01*
X54853300Y-95901933D01*
X54846164Y-96031019D01*
X54846148Y-96037051D01*
X54858420Y-96209329D01*
X54898676Y-96372520D01*
X54971568Y-96541716D01*
X55039152Y-96662894D01*
X55195135Y-96886510D01*
X55395429Y-97113636D01*
X55634073Y-97340137D01*
X55905106Y-97561884D01*
X56202566Y-97774745D01*
X56520490Y-97974588D01*
X56852917Y-98157282D01*
X57193886Y-98318694D01*
X57537434Y-98454695D01*
X57706367Y-98511265D01*
X58309616Y-98684434D01*
X58958749Y-98839987D01*
X59651815Y-98977564D01*
X60386864Y-99096802D01*
X61161946Y-99197340D01*
X61723584Y-99256047D01*
X61818227Y-99262349D01*
X61963647Y-99268140D01*
X62159770Y-99273418D01*
X62406524Y-99278184D01*
X62703838Y-99282438D01*
X63051639Y-99286179D01*
X63449854Y-99289407D01*
X63898412Y-99292123D01*
X64397239Y-99294326D01*
X64946265Y-99296016D01*
X65545415Y-99297192D01*
X66194620Y-99297856D01*
X66893805Y-99298006D01*
X67642898Y-99297642D01*
X68441829Y-99296764D01*
X69290523Y-99295373D01*
X70188909Y-99293468D01*
X71136915Y-99291049D01*
X72134468Y-99288115D01*
X73181496Y-99284667D01*
X74277926Y-99280704D01*
X74525286Y-99279765D01*
X75652742Y-99275325D01*
X76730541Y-99270820D01*
X77759876Y-99266239D01*
X78741941Y-99261571D01*
X79677929Y-99256803D01*
X80569034Y-99251924D01*
X81416449Y-99246923D01*
X82221368Y-99241788D01*
X82984985Y-99236508D01*
X83708492Y-99231070D01*
X84393083Y-99225463D01*
X85039953Y-99219676D01*
X85650293Y-99213697D01*
X86225299Y-99207514D01*
X86766163Y-99201116D01*
X87274079Y-99194492D01*
X87750241Y-99187628D01*
X88195841Y-99180515D01*
X88612074Y-99173140D01*
X89000133Y-99165491D01*
X89361212Y-99157558D01*
X89696504Y-99149329D01*
X90007202Y-99140791D01*
X90294500Y-99131933D01*
X90517878Y-99124264D01*
X90811572Y-99112917D01*
X91059617Y-99101140D01*
X91267213Y-99087880D01*
X91439559Y-99072087D01*
X91581853Y-99052707D01*
X91699293Y-99028690D01*
X91797080Y-98998983D01*
X91880411Y-98962534D01*
X91954485Y-98918292D01*
X92024502Y-98865204D01*
X92091803Y-98805797D01*
X92246573Y-98628663D01*
X92370512Y-98412127D01*
X92464046Y-98155406D01*
X92480827Y-98092498D01*
X92500938Y-98006328D01*
X92515681Y-97924841D01*
X92525831Y-97837791D01*
X92532164Y-97734932D01*
X92535456Y-97606018D01*
X92536482Y-97440804D01*
X92536425Y-97358358D01*
X92534652Y-97190260D01*
X92530316Y-97028261D01*
X92523911Y-96883516D01*
X92515932Y-96767181D01*
X92506873Y-96690412D01*
X92506767Y-96689812D01*
X92490449Y-96578347D01*
X92491488Y-96507894D01*
X92512569Y-96470776D01*
X92556379Y-96459318D01*
X92586940Y-96460743D01*
X92622623Y-96467232D01*
X92651397Y-96483287D01*
X92675896Y-96515475D01*
X92698751Y-96570359D01*
X92722594Y-96654505D01*
X92750059Y-96774478D01*
X92783777Y-96936844D01*
X92789841Y-96966763D01*
X92854615Y-97335711D01*
X92891530Y-97664193D01*
X92900570Y-97951704D01*
X92881721Y-98197741D01*
X92834967Y-98401801D01*
X92832624Y-98408767D01*
X92799094Y-98492461D01*
X92747760Y-98603455D01*
X92686532Y-98725178D01*
X92642182Y-98807607D01*
X92583434Y-98918247D01*
X92533568Y-99021138D01*
X92498562Y-99103396D01*
X92485229Y-99145915D01*
X92477989Y-99256971D01*
X92494819Y-99360605D01*
X92532095Y-99439715D01*
X92551933Y-99460674D01*
X92633959Y-99503269D01*
X92755489Y-99533750D01*
X92906279Y-99550524D01*
X93076082Y-99551999D01*
X93123984Y-99549560D01*
X93286184Y-99534416D01*
X93436421Y-99508514D01*
X93590423Y-99468004D01*
X93763920Y-99409034D01*
X93881919Y-99363976D01*
X93991221Y-99323679D01*
X94091031Y-99291589D01*
X94166587Y-99272244D01*
X94191852Y-99268706D01*
X94246211Y-99272704D01*
X94266222Y-99299328D01*
X94268128Y-99326445D01*
X94260805Y-99358224D01*
X94234116Y-99392133D01*
X94180985Y-99434122D01*
X94094334Y-99490141D01*
X94020379Y-99534702D01*
X93809978Y-99666359D01*
X93629318Y-99793184D01*
X93481234Y-99912467D01*
X93368564Y-100021499D01*
X93294142Y-100117572D01*
X93260805Y-100197977D01*
X93267726Y-100253658D01*
X93305036Y-100311569D01*
X93353148Y-100371271D01*
X93419177Y-100453699D01*
X93498332Y-100567014D01*
X93581234Y-100696504D01*
X93658503Y-100827457D01*
X93720758Y-100945162D01*
X93725996Y-100956056D01*
X93851797Y-101264137D01*
X93947868Y-101590225D01*
X93989145Y-101791863D01*
X94011665Y-101936563D01*
X94022293Y-102038699D01*
X94020080Y-102105368D01*
X94004077Y-102143666D01*
X93973334Y-102160689D01*
X93939390Y-102163764D01*
X93906123Y-102161427D01*
X93880443Y-102148850D01*
X93857135Y-102117686D01*
X93830986Y-102059585D01*
X93796781Y-101966201D01*
X93772654Y-101896797D01*
X93640160Y-101553450D01*
X93494022Y-101252742D01*
X93330733Y-100987480D01*
X93325373Y-100979766D01*
X93175432Y-100781889D01*
X93023252Y-100619429D01*
X92854560Y-100478398D01*
X92717178Y-100383758D01*
X92497944Y-100248280D01*
X92302027Y-100141046D01*
X92115105Y-100056105D01*
X91922859Y-99987504D01*
X91710968Y-99929293D01*
X91522183Y-99887136D01*
X91495152Y-99881615D01*
X91468050Y-99876494D01*
X91438962Y-99871760D01*
X91405974Y-99867397D01*
X91367170Y-99863391D01*
X91320636Y-99859727D01*
X91264455Y-99856392D01*
X91196714Y-99853370D01*
X91115497Y-99850648D01*
X91018890Y-99848210D01*
X90904977Y-99846043D01*
X90771843Y-99844131D01*
X90617574Y-99842460D01*
X90440254Y-99841017D01*
X90237968Y-99839786D01*
X90008802Y-99838752D01*
X89750841Y-99837902D01*
X89462169Y-99837222D01*
X89140872Y-99836695D01*
X88785034Y-99836309D01*
X88392740Y-99836048D01*
X87962077Y-99835898D01*
X87491127Y-99835845D01*
X86977978Y-99835874D01*
X86420713Y-99835971D01*
X85817418Y-99836120D01*
X85166177Y-99836309D01*
X84809870Y-99836417D01*
X84243846Y-99836495D01*
X83631153Y-99836405D01*
X82975974Y-99836152D01*
X82282489Y-99835742D01*
X81554881Y-99835183D01*
X80797333Y-99834480D01*
X80014025Y-99833639D01*
X79209140Y-99832667D01*
X78386859Y-99831570D01*
X77551364Y-99830354D01*
X76706838Y-99829026D01*
X75857462Y-99827592D01*
X75007419Y-99826057D01*
X74160889Y-99824429D01*
X73322055Y-99822713D01*
X72495098Y-99820916D01*
X71684201Y-99819044D01*
X70893546Y-99817103D01*
X70127314Y-99815100D01*
X69618179Y-99813693D01*
X68936490Y-99811839D01*
X68259246Y-99810138D01*
X67588754Y-99808592D01*
X66927325Y-99807202D01*
X66277268Y-99805970D01*
X65640892Y-99804896D01*
X65020507Y-99803982D01*
X64418422Y-99803228D01*
X63836946Y-99802636D01*
X63278390Y-99802207D01*
X62745062Y-99801941D01*
X62239272Y-99801841D01*
X61763330Y-99801907D01*
X61319544Y-99802141D01*
X60910225Y-99802543D01*
X60537681Y-99803114D01*
X60204222Y-99803856D01*
X59912158Y-99804770D01*
X59663798Y-99805857D01*
X59461452Y-99807118D01*
X59307428Y-99808554D01*
X59295456Y-99808698D01*
X58971846Y-99812741D01*
X58694959Y-99816356D01*
X58460672Y-99819730D01*
X58264861Y-99823047D01*
X58103401Y-99826493D01*
X57972170Y-99830252D01*
X57867043Y-99834509D01*
X57783897Y-99839450D01*
X57718608Y-99845259D01*
X57667051Y-99852122D01*
X57625104Y-99860224D01*
X57588642Y-99869749D01*
X57553542Y-99880883D01*
X57533278Y-99887775D01*
X57317709Y-99986066D01*
X57128081Y-100121540D01*
X56971078Y-100288023D01*
X56853383Y-100479339D01*
X56826795Y-100540511D01*
X56791441Y-100670239D01*
X56770852Y-100832877D01*
X56765274Y-101012601D01*
X56774955Y-101193586D01*
X56800141Y-101360008D01*
X56813162Y-101413714D01*
X56868530Y-101591867D01*
X56939957Y-101776976D01*
X57029762Y-101973107D01*
X57140262Y-102184323D01*
X57273774Y-102414689D01*
X57432617Y-102668270D01*
X57619107Y-102949131D01*
X57835563Y-103261337D01*
X57991348Y-103480112D01*
X58096096Y-103631945D01*
X58208418Y-103804774D01*
X58316544Y-103979891D01*
X58408704Y-104138586D01*
X58429822Y-104177117D01*
X58598135Y-104476103D01*
X58757744Y-104730119D01*
X58912777Y-104943397D01*
X59067362Y-105120173D01*
X59225626Y-105264680D01*
X59391697Y-105381154D01*
X59569701Y-105473827D01*
X59763768Y-105546936D01*
X59765720Y-105547556D01*
X59900301Y-105586844D01*
X60035045Y-105618286D01*
X60177626Y-105642644D01*
X60335718Y-105660679D01*
X60516997Y-105673154D01*
X60729137Y-105680831D01*
X60979812Y-105684471D01*
X61150241Y-105685035D01*
X61365346Y-105685917D01*
X61542632Y-105688395D01*
X61679281Y-105692368D01*
X61772473Y-105697736D01*
X61819390Y-105704398D01*
X61824014Y-105709122D01*
X61790888Y-105723914D01*
X61716750Y-105747522D01*
X61610236Y-105777760D01*
X61479981Y-105812440D01*
X61334620Y-105849377D01*
X61182789Y-105886384D01*
X61033123Y-105921275D01*
X60894256Y-105951862D01*
X60774825Y-105975961D01*
X60757418Y-105979192D01*
X60647871Y-105995105D01*
X60503714Y-106010171D01*
X60341186Y-106022983D01*
X60176525Y-106032137D01*
X60121645Y-106034209D01*
X59920634Y-106037553D01*
X59733317Y-106032984D01*
X59551074Y-106019099D01*
X59365282Y-105994495D01*
X59167320Y-105957769D01*
X58948565Y-105907519D01*
X58700397Y-105842342D01*
X58414194Y-105760834D01*
X58380166Y-105750854D01*
X58214662Y-105705418D01*
X58087023Y-105679487D01*
X57988072Y-105673261D01*
X57908629Y-105686942D01*
X57839516Y-105720730D01*
X57783720Y-105763926D01*
X57730236Y-105814130D01*
X57690518Y-105863064D01*
X57664437Y-105917337D01*
X57651862Y-105983556D01*
X57652663Y-106068331D01*
X57666710Y-106178269D01*
X57693872Y-106319979D01*
X57734020Y-106500069D01*
X57766498Y-106638638D01*
X57919062Y-107375865D01*
X58027249Y-108108344D01*
X58090976Y-108832897D01*
X58110161Y-109546346D01*
X58084722Y-110245513D01*
X58014576Y-110927219D01*
X57899641Y-111588287D01*
X57895170Y-111609309D01*
X57855684Y-111784483D01*
X57809487Y-111973809D01*
X57758403Y-112171192D01*
X57704256Y-112370533D01*
X57648868Y-112565737D01*
X57594062Y-112750706D01*
X57541664Y-112919343D01*
X57493495Y-113065552D01*
X57451379Y-113183235D01*
X57417140Y-113266296D01*
X57392602Y-113308638D01*
X57385698Y-113312813D01*
X57372132Y-113292060D01*
X57374679Y-113255605D01*
X57405165Y-113098209D01*
X57437266Y-112900198D01*
X57469751Y-112671730D01*
X57501391Y-112422960D01*
X57530959Y-112164047D01*
X57557225Y-111905146D01*
X57578960Y-111656415D01*
X57594100Y-111441979D01*
X57606868Y-110855296D01*
X57573544Y-110267169D01*
X57493611Y-109670704D01*
X57439601Y-109384584D01*
X57407684Y-109237085D01*
X57369235Y-109071512D01*
X57326387Y-108895902D01*
X57281277Y-108718292D01*
X57236041Y-108546717D01*
X57192814Y-108389214D01*
X57153732Y-108253821D01*
X57120930Y-108148572D01*
X57096544Y-108081506D01*
X57089410Y-108066800D01*
X57001361Y-107961620D01*
X56884546Y-107898242D01*
X56786589Y-107878592D01*
X56704245Y-107876745D01*
X56630481Y-107892497D01*
X56542786Y-107931303D01*
X56519889Y-107943211D01*
X56429560Y-107987016D01*
X56344298Y-108021894D01*
X56295522Y-108036978D01*
X56234165Y-108063191D01*
X56155526Y-108113578D01*
X56088946Y-108166745D01*
X55992435Y-108242546D01*
X55880210Y-108316760D01*
X55812689Y-108354594D01*
X55747377Y-108389952D01*
X55642856Y-108449637D01*
X55503176Y-108531242D01*
X55332384Y-108632359D01*
X55134530Y-108750581D01*
X54913662Y-108883501D01*
X54673827Y-109028712D01*
X54454970Y-109161903D01*
X54435021Y-109170126D01*
X54441171Y-109154016D01*
X54475031Y-109111807D01*
X54538210Y-109041732D01*
X54632320Y-108942024D01*
X54758971Y-108810917D01*
X54919774Y-108646644D01*
X54986301Y-108579079D01*
X55128958Y-108433702D01*
X55266771Y-108292005D01*
X55393731Y-108160259D01*
X55503832Y-108044737D01*
X55591066Y-107951708D01*
X55649428Y-107887445D01*
X55655782Y-107880139D01*
X55844586Y-107645708D01*
X56021754Y-107396451D01*
X56182111Y-107141335D01*
X56320480Y-106889321D01*
X56431683Y-106649377D01*
X56510545Y-106430464D01*
X56526665Y-106372041D01*
X56576577Y-106076696D01*
X56579655Y-105776572D01*
X56536720Y-105480779D01*
X56448595Y-105198425D01*
X56413475Y-105117714D01*
X56266600Y-104857218D01*
X56085621Y-104634146D01*
X55868700Y-104446620D01*
X55614005Y-104292765D01*
X55599773Y-104285690D01*
X55380300Y-104193127D01*
X55164915Y-104136914D01*
X54936399Y-104113614D01*
X54747954Y-104115575D01*
X54601521Y-104127037D01*
X54461919Y-104148448D01*
X54323561Y-104182337D01*
X54180859Y-104231234D01*
X54028226Y-104297668D01*
X53860074Y-104384167D01*
X53670817Y-104493262D01*
X53454866Y-104627481D01*
X53206635Y-104789353D01*
X53094965Y-104863809D01*
X52646803Y-105169940D01*
X52244750Y-105456879D01*
X51888069Y-105725213D01*
X51576021Y-105975527D01*
X51307867Y-106208405D01*
X51082870Y-106424432D01*
X50959384Y-106556125D01*
X50753432Y-106794166D01*
X50584076Y-107007286D01*
X50447555Y-107201501D01*
X50340110Y-107382828D01*
X50257980Y-107557282D01*
X50197402Y-107730881D01*
X50176690Y-107808208D01*
X50139972Y-108031809D01*
X50130088Y-108279846D01*
X50146583Y-108533847D01*
X50189000Y-108775341D01*
X50201838Y-108825225D01*
X50288329Y-109083621D01*
X50413040Y-109369735D01*
X50574112Y-109679982D01*
X50769688Y-110010781D01*
X50992560Y-110350751D01*
X51075016Y-110471152D01*
X51131384Y-110554747D01*
X51164243Y-110606731D01*
X51176177Y-110632294D01*
X51169766Y-110636629D01*
X51147593Y-110624930D01*
X51120198Y-110607489D01*
X50971944Y-110501053D01*
X50807440Y-110364194D01*
X50639086Y-110208498D01*
X50479282Y-110045552D01*
X50340429Y-109886943D01*
X50314844Y-109854955D01*
X50272281Y-109797516D01*
X50207901Y-109706566D01*
X50127890Y-109591036D01*
X50038433Y-109459861D01*
X49945719Y-109321973D01*
X49945083Y-109321021D01*
X49835405Y-109157916D01*
X49748240Y-109032250D01*
X49678746Y-108938591D01*
X49622084Y-108871511D01*
X49573412Y-108825580D01*
X49527890Y-108795369D01*
X49480676Y-108775446D01*
X49450712Y-108766494D01*
X49310555Y-108752649D01*
X49179381Y-108788149D01*
X49060023Y-108871862D01*
X48991145Y-108950215D01*
X48931746Y-109028882D01*
X48857972Y-109125382D01*
X48792957Y-109209579D01*
X48632621Y-109437144D01*
X48470405Y-109707164D01*
X48309864Y-110011535D01*
X48154552Y-110342153D01*
X48008025Y-110690912D01*
X47873838Y-111049710D01*
X47755545Y-111410440D01*
X47656702Y-111765000D01*
X47637174Y-111844485D01*
X47593768Y-112043630D01*
X47548764Y-112281600D01*
X47503890Y-112546478D01*
X47460875Y-112826344D01*
X47421447Y-113109283D01*
X47387334Y-113383377D01*
X47360265Y-113636708D01*
X47341967Y-113857358D01*
X47339462Y-113897378D01*
X47328390Y-113976436D01*
X47304880Y-114014066D01*
X47290937Y-114019505D01*
X47273216Y-114016916D01*
X47259973Y-113996334D01*
X47249738Y-113950169D01*
X47241039Y-113870828D01*
X47232405Y-113750717D01*
X47229384Y-113701907D01*
X47223553Y-113576962D01*
X47218543Y-113414332D01*
X47214616Y-113227181D01*
X47212031Y-113028672D01*
X47211050Y-112831968D01*
X47211099Y-112778879D01*
X47227221Y-112195298D01*
X47274115Y-111645240D01*
X47353852Y-111120253D01*
X47468502Y-110611884D01*
X47620136Y-110111678D01*
X47810825Y-109611184D01*
X48042638Y-109101948D01*
X48176429Y-108837938D01*
X48311208Y-108584436D01*
X48458520Y-108314788D01*
X48613684Y-108037074D01*
X48772021Y-107759370D01*
X48928851Y-107489755D01*
X49079493Y-107236306D01*
X49219268Y-107007102D01*
X49343495Y-106810221D01*
X49409465Y-106709707D01*
X49464765Y-106625171D01*
X49507106Y-106556776D01*
X49529913Y-106515303D01*
X49532092Y-106508703D01*
X49546023Y-106478636D01*
X49580551Y-106426485D01*
X49591033Y-106412210D01*
X49656195Y-106317247D01*
X49737011Y-106187072D01*
X49827303Y-106032398D01*
X49920892Y-105863937D01*
X50011601Y-105692404D01*
X50051552Y-105613630D01*
X50195489Y-105297690D01*
X50298388Y-105006364D01*
X50360909Y-104735164D01*
X50383714Y-104479603D01*
X50367467Y-104235193D01*
X50312827Y-103997447D01*
X50296990Y-103949256D01*
X50181978Y-103684342D01*
X50033506Y-103454951D01*
X49854407Y-103263194D01*
X49647513Y-103111186D01*
X49415660Y-103001037D01*
X49161679Y-102934861D01*
X48909170Y-102914631D01*
X48760682Y-102922390D01*
X48598731Y-102946669D01*
X48417150Y-102989131D01*
X48209773Y-103051440D01*
X47970436Y-103135259D01*
X47692972Y-103242250D01*
X47689559Y-103243613D01*
X47316256Y-103409522D01*
X46927500Y-103613787D01*
X46532636Y-103850368D01*
X46141006Y-104113225D01*
X45761956Y-104396320D01*
X45404829Y-104693612D01*
X45298759Y-104788876D01*
X44975612Y-105093057D01*
X44683165Y-105385501D01*
X44423816Y-105663493D01*
X44199964Y-105924318D01*
X44014008Y-106165262D01*
X43868344Y-106383609D01*
X43826944Y-106454876D01*
X43679923Y-106768203D01*
X43583138Y-107087957D01*
X43536481Y-107413400D01*
X43539844Y-107743793D01*
X43593120Y-108078397D01*
X43696201Y-108416475D01*
X43848980Y-108757287D01*
X44051349Y-109100096D01*
X44253468Y-109381201D01*
X44337674Y-109487965D01*
X44427233Y-109598922D01*
X44506791Y-109695122D01*
X44529771Y-109722194D01*
X44586987Y-109791719D01*
X44626494Y-109845208D01*
X44640781Y-109872381D01*
X44640350Y-109873491D01*
X44609305Y-109873146D01*
X44542283Y-109855403D01*
X44449476Y-109824175D01*
X44341076Y-109783374D01*
X44227275Y-109736914D01*
X44118266Y-109688706D01*
X44024241Y-109642663D01*
X43989350Y-109623587D01*
X43830820Y-109518024D01*
X43681577Y-109391499D01*
X43553615Y-109255662D01*
X43458931Y-109122166D01*
X43443092Y-109092960D01*
X43413046Y-109027862D01*
X43369465Y-108925766D01*
X43316713Y-108797269D01*
X43259154Y-108652971D01*
X43212132Y-108532116D01*
X43127018Y-108316895D01*
X43051829Y-108142060D01*
X42982063Y-107999236D01*
X42913220Y-107880047D01*
X42840797Y-107776119D01*
X42760295Y-107679077D01*
X42743897Y-107660926D01*
X42572252Y-107499595D01*
X42376958Y-107367513D01*
X42153431Y-107262925D01*
X41897093Y-107184081D01*
X41603362Y-107129227D01*
X41268829Y-107096684D01*
X41050188Y-107081174D01*
X40872494Y-107063452D01*
X40725847Y-107041745D01*
X40600344Y-107014283D01*
X40486086Y-106979293D01*
X40378939Y-106937469D01*
X40079277Y-106791258D01*
X39802610Y-106615220D01*
X39534786Y-106400114D01*
X39480011Y-106350650D01*
X39407601Y-106282962D01*
X39369645Y-106243000D01*
X39362483Y-106224830D01*
X39382455Y-106222516D01*
X39402944Y-106225719D01*
X39666569Y-106273321D01*
X39887853Y-106311970D01*
X40074320Y-106342687D01*
X40233494Y-106366490D01*
X40372898Y-106384399D01*
X40500055Y-106397435D01*
X40622488Y-106406616D01*
X40747722Y-106412963D01*
X40798459Y-106414874D01*
X41197304Y-106415431D01*
X41561758Y-106386727D01*
X41900295Y-106326855D01*
X42221388Y-106233908D01*
X42533514Y-106105981D01*
X42807599Y-105962895D01*
X42917678Y-105895916D01*
X43036715Y-105815362D01*
X43166629Y-105719455D01*
X43309338Y-105606416D01*
X43466759Y-105474465D01*
X43640810Y-105321825D01*
X43833409Y-105146716D01*
X44046474Y-104947359D01*
X44281922Y-104721975D01*
X44541672Y-104468786D01*
X44827641Y-104186013D01*
X45141746Y-103871876D01*
X45485907Y-103524598D01*
X45862040Y-103142398D01*
X45999061Y-103002637D01*
X46176601Y-102821012D01*
X46322401Y-102670533D01*
X46440549Y-102546263D01*
X46535134Y-102443264D01*
X46610245Y-102356598D01*
X46669972Y-102281329D01*
X46718403Y-102212519D01*
X46759628Y-102145229D01*
X46797736Y-102074524D01*
X46836815Y-101995466D01*
X46841853Y-101984998D01*
X46892352Y-101877389D01*
X46924292Y-101797162D01*
X46941863Y-101726223D01*
X46949258Y-101646476D01*
X46950666Y-101539826D01*
X46950604Y-101515415D01*
X46942152Y-101333351D01*
X46932862Y-101283886D01*
X50044294Y-101283886D01*
X50159647Y-101558559D01*
X50205428Y-101666804D01*
X50243925Y-101756387D01*
X50270995Y-101817762D01*
X50282390Y-101841289D01*
X50308547Y-101839104D01*
X50373877Y-101827040D01*
X50468116Y-101807134D01*
X50565641Y-101785023D01*
X50681083Y-101758301D01*
X50780763Y-101735586D01*
X50852692Y-101719590D01*
X50882460Y-101713404D01*
X50914443Y-101727989D01*
X50974086Y-101772781D01*
X51054258Y-101840902D01*
X51147825Y-101925476D01*
X51247656Y-102019626D01*
X51346616Y-102116475D01*
X51437574Y-102209145D01*
X51513396Y-102290760D01*
X51566950Y-102354443D01*
X51591103Y-102393316D01*
X51591779Y-102397290D01*
X51586326Y-102439601D01*
X51571350Y-102519459D01*
X51549218Y-102624968D01*
X51525400Y-102730901D01*
X51500107Y-102844821D01*
X51481197Y-102939380D01*
X51470569Y-103004373D01*
X51469855Y-103029420D01*
X51496368Y-103043177D01*
X51559934Y-103072120D01*
X51650682Y-103111847D01*
X51745994Y-103152573D01*
X51846454Y-103196361D01*
X51920055Y-103226444D01*
X51974961Y-103238839D01*
X52019336Y-103229558D01*
X52061347Y-103194616D01*
X52109157Y-103130029D01*
X52170932Y-103031809D01*
X52247447Y-102907789D01*
X52417878Y-102634797D01*
X52865339Y-102634466D01*
X53312800Y-102634134D01*
X53705906Y-103268762D01*
X53786517Y-103234561D01*
X53848405Y-103208347D01*
X53939563Y-103169788D01*
X54042415Y-103126317D01*
X54064175Y-103117125D01*
X54154016Y-103076583D01*
X54222389Y-103040795D01*
X54258331Y-103015692D01*
X54261222Y-103010476D01*
X54255904Y-102977569D01*
X54241473Y-102906066D01*
X54220213Y-102806928D01*
X54197658Y-102705480D01*
X54172116Y-102588822D01*
X54151474Y-102487868D01*
X54138064Y-102414469D01*
X54134094Y-102382529D01*
X54151813Y-102352516D01*
X54201037Y-102294372D01*
X54275865Y-102214417D01*
X54370400Y-102118969D01*
X54470981Y-102021694D01*
X54807868Y-101702228D01*
X55125219Y-101772436D01*
X55244447Y-101798425D01*
X55343650Y-101819312D01*
X55413442Y-101833176D01*
X55444437Y-101838094D01*
X55445162Y-101837938D01*
X55464261Y-101796892D01*
X55494967Y-101724265D01*
X55532543Y-101632040D01*
X55572253Y-101532202D01*
X55609358Y-101436734D01*
X55639122Y-101357619D01*
X55656808Y-101306842D01*
X55659671Y-101295284D01*
X55639082Y-101272051D01*
X55582591Y-101228491D01*
X55498055Y-101170185D01*
X55393329Y-101102710D01*
X55355328Y-101079168D01*
X55051036Y-100892492D01*
X55049754Y-100002602D01*
X55355142Y-99814303D01*
X55478773Y-99736764D01*
X55563938Y-99679563D01*
X55616425Y-99637988D01*
X55642022Y-99607327D01*
X55646516Y-99582871D01*
X55645323Y-99578093D01*
X55629262Y-99534803D01*
X55598484Y-99457498D01*
X55558134Y-99358977D01*
X55531899Y-99296022D01*
X55493895Y-99203109D01*
X55464194Y-99137763D01*
X55433790Y-99097089D01*
X55393675Y-99078194D01*
X55334844Y-99078184D01*
X55248291Y-99094166D01*
X55125007Y-99123246D01*
X55049713Y-99141107D01*
X54783049Y-99203497D01*
X54105133Y-98520863D01*
X54172275Y-98232003D01*
X54199567Y-98115407D01*
X54223189Y-98016014D01*
X54240486Y-97944894D01*
X54248541Y-97913916D01*
X54230309Y-97893725D01*
X54175200Y-97861112D01*
X54094216Y-97820777D01*
X53998363Y-97777419D01*
X53898644Y-97735737D01*
X53806063Y-97700431D01*
X53731624Y-97676199D01*
X53686332Y-97667742D01*
X53678338Y-97670408D01*
X53659998Y-97698523D01*
X53619825Y-97761110D01*
X53563231Y-97849709D01*
X53495629Y-97955857D01*
X53474636Y-97988875D01*
X53285547Y-98286386D01*
X52864425Y-98285915D01*
X52443304Y-98285444D01*
X52244734Y-97969068D01*
X52046165Y-97652693D01*
X51914204Y-97704654D01*
X51739898Y-97774498D01*
X51612794Y-97828164D01*
X51533208Y-97865514D01*
X51504467Y-97883103D01*
X51500033Y-97916198D01*
X51508365Y-97991234D01*
X51528437Y-98101209D01*
X51552334Y-98209960D01*
X51623722Y-98516180D01*
X51374792Y-98776308D01*
X51276934Y-98878567D01*
X51184524Y-98975130D01*
X51106808Y-99056337D01*
X51053034Y-99112522D01*
X51045564Y-99120327D01*
X50965266Y-99204217D01*
X50661842Y-99137599D01*
X50541848Y-99111455D01*
X50438620Y-99089341D01*
X50363069Y-99073568D01*
X50326107Y-99066448D01*
X50325922Y-99066421D01*
X50307132Y-99086621D01*
X50273838Y-99142579D01*
X50231346Y-99223216D01*
X50184959Y-99317456D01*
X50139981Y-99414221D01*
X50101715Y-99502433D01*
X50075467Y-99571015D01*
X50066501Y-99608229D01*
X50087054Y-99625598D01*
X50143187Y-99664424D01*
X50227147Y-99719553D01*
X50331184Y-99785829D01*
X50371606Y-99811143D01*
X50676237Y-100001064D01*
X50675515Y-100446778D01*
X50674794Y-100892492D01*
X50529319Y-100979994D01*
X50430830Y-101040096D01*
X50315476Y-101111732D01*
X50214069Y-101175691D01*
X50044294Y-101283886D01*
X46932862Y-101283886D01*
X46914150Y-101184255D01*
X46860594Y-101054021D01*
X46775475Y-100928540D01*
X46652789Y-100793707D01*
X46636320Y-100777281D01*
X46515622Y-100665447D01*
X46398868Y-100576677D01*
X46264819Y-100495698D01*
X46188649Y-100455395D01*
X45992982Y-100360332D01*
X45820532Y-100290044D01*
X45653717Y-100238957D01*
X45474953Y-100201492D01*
X45313469Y-100177829D01*
X44943909Y-100154633D01*
X44576565Y-100177738D01*
X44218056Y-100245710D01*
X43874997Y-100357115D01*
X43554008Y-100510519D01*
X43428624Y-100586314D01*
X43257539Y-100712900D01*
X43079470Y-100873008D01*
X42907459Y-101053416D01*
X42754551Y-101240906D01*
X42684446Y-101340545D01*
X42577291Y-101522245D01*
X42467761Y-101743782D01*
X42360344Y-101994603D01*
X42259526Y-102264160D01*
X42169794Y-102541902D01*
X42161355Y-102570570D01*
X42119629Y-102712971D01*
X42078442Y-102852294D01*
X42042022Y-102974325D01*
X42014595Y-103064846D01*
X42010200Y-103079079D01*
X41962835Y-103231631D01*
X41934611Y-103129930D01*
X41888017Y-102951330D01*
X41855037Y-102794601D01*
X41832776Y-102640598D01*
X41818332Y-102470178D01*
X41810500Y-102310193D01*
X41805582Y-102095290D01*
X41809940Y-101904361D01*
X41825347Y-101724275D01*
X41853573Y-101541900D01*
X41896390Y-101344106D01*
X41955570Y-101117760D01*
X41985833Y-101010668D01*
X42036328Y-100830397D01*
X42071202Y-100690730D01*
X42090596Y-100583928D01*
X42094649Y-100502248D01*
X42083503Y-100437949D01*
X42057296Y-100383289D01*
X42016170Y-100330526D01*
X41998499Y-100311311D01*
X41916936Y-100240276D01*
X41829050Y-100199824D01*
X41723947Y-100187996D01*
X41590734Y-100202831D01*
X41500952Y-100221783D01*
X41285580Y-100275804D01*
X41070066Y-100337369D01*
X40848080Y-100408840D01*
X40613291Y-100492581D01*
X40359368Y-100590954D01*
X40079983Y-100706323D01*
X39768803Y-100841050D01*
X39419500Y-100997500D01*
X39403336Y-101004838D01*
X39222607Y-101087051D01*
X39056233Y-101162977D01*
X38910013Y-101229950D01*
X38789745Y-101285306D01*
X38701228Y-101326378D01*
X38650261Y-101350503D01*
X38640574Y-101355434D01*
X38620268Y-101363176D01*
X38633871Y-101342996D01*
X38676390Y-101299724D01*
X38742833Y-101238189D01*
X38828209Y-101163220D01*
X38914554Y-101090371D01*
X39205293Y-100865401D01*
X39520266Y-100653354D01*
X39865033Y-100451135D01*
X40245154Y-100255651D01*
X40666188Y-100063807D01*
X41027288Y-99914420D01*
X41172296Y-99857082D01*
X41307140Y-99804451D01*
X41422217Y-99760223D01*
X41507923Y-99728093D01*
X41550671Y-99713003D01*
X41666239Y-99650663D01*
X41757031Y-99552733D01*
X41813695Y-99432078D01*
X41828189Y-99331172D01*
X41827619Y-99299157D01*
X41824355Y-99268516D01*
X41816058Y-99236597D01*
X41800393Y-99200753D01*
X41775024Y-99158331D01*
X41737614Y-99106682D01*
X41685828Y-99043156D01*
X41617329Y-98965102D01*
X41529781Y-98869871D01*
X41420848Y-98754811D01*
X41288193Y-98617274D01*
X41129481Y-98454608D01*
X40942375Y-98264163D01*
X40724539Y-98043290D01*
X40473637Y-97789338D01*
X40431166Y-97746366D01*
X40251127Y-97563045D01*
X40107571Y-97413781D01*
X40000209Y-97297506D01*
X39928754Y-97213152D01*
X39892919Y-97159649D01*
X39892416Y-97135929D01*
X39926957Y-97140925D01*
X39996256Y-97173567D01*
X40100024Y-97232787D01*
X40237974Y-97317516D01*
X40331727Y-97376776D01*
X40542920Y-97510171D01*
X40724008Y-97621791D01*
X40886971Y-97718407D01*
X41043789Y-97806788D01*
X41206439Y-97893704D01*
X41386903Y-97985925D01*
X41573934Y-98078802D01*
X41909975Y-98237083D01*
X42258518Y-98388128D01*
X42608754Y-98527824D01*
X42949879Y-98652060D01*
X43271083Y-98756727D01*
X43561561Y-98837712D01*
X43582543Y-98842896D01*
X43903284Y-98916260D01*
X44249952Y-98986593D01*
X44604855Y-99050734D01*
X44950302Y-99105522D01*
X45268602Y-99147796D01*
X45324185Y-99154112D01*
X45431329Y-99163034D01*
X45577883Y-99171106D01*
X45752409Y-99177920D01*
X45943466Y-99183067D01*
X46139617Y-99186139D01*
X46239500Y-99186780D01*
X46447267Y-99186877D01*
X46613503Y-99185449D01*
X46747519Y-99181949D01*
X46858624Y-99175833D01*
X46956129Y-99166555D01*
X47049344Y-99153570D01*
X47147580Y-99136334D01*
X47168371Y-99132381D01*
X47522222Y-99053143D01*
X47846092Y-98957592D01*
X48134393Y-98847750D01*
X48381534Y-98725638D01*
X48505464Y-98648869D01*
X48652458Y-98538537D01*
X48805040Y-98405887D01*
X48950488Y-98263304D01*
X49076080Y-98123176D01*
X49160392Y-98011248D01*
X49245503Y-97868690D01*
X49333453Y-97696785D01*
X49415341Y-97514872D01*
X49482262Y-97342293D01*
X49513613Y-97243944D01*
X49564003Y-97034214D01*
X49597133Y-96818745D01*
X49614760Y-96582459D01*
X49618829Y-96341341D01*
X49608509Y-96030929D01*
X49577978Y-95746896D01*
X49524068Y-95474373D01*
X49443611Y-95198491D01*
X49333437Y-94904382D01*
X49291009Y-94803103D01*
X49115406Y-94452076D01*
X48895193Y-94116468D01*
X48627801Y-93792486D01*
X48553866Y-93713473D01*
X48447720Y-93608092D01*
X48333056Y-93503369D01*
X48217550Y-93405372D01*
X48108874Y-93320168D01*
X48014702Y-93253825D01*
X47942709Y-93212409D01*
X47906069Y-93201301D01*
X47862009Y-93185874D01*
X47796626Y-93146020D01*
X47743550Y-93105956D01*
X47597420Y-93008176D01*
X47410887Y-92918000D01*
X47194154Y-92838044D01*
X46957424Y-92770927D01*
X46710899Y-92719265D01*
X46464782Y-92685676D01*
X46229276Y-92672777D01*
X46073823Y-92677634D01*
X45774683Y-92718096D01*
X45471742Y-92792749D01*
X45181731Y-92896510D01*
X44921379Y-93024293D01*
X44908327Y-93031873D01*
X44725294Y-93151585D01*
X44523817Y-93305138D01*
X44313639Y-93484052D01*
X44104507Y-93679844D01*
X43906163Y-93884034D01*
X43822694Y-93976777D01*
X43770759Y-94038991D01*
X43694263Y-94134533D01*
X43598886Y-94255969D01*
X43490305Y-94395864D01*
X43374200Y-94546783D01*
X43256248Y-94701291D01*
X43142129Y-94851955D01*
X43037521Y-94991339D01*
X42948103Y-95112008D01*
X42879553Y-95206529D01*
X42841628Y-95261223D01*
X42808644Y-95301837D01*
X42787295Y-95311771D01*
X42787126Y-95311611D01*
X42786324Y-95281823D01*
X42796036Y-95211996D01*
X42814263Y-95111378D01*
X42839007Y-94989218D01*
X42868269Y-94854764D01*
X42900050Y-94717264D01*
X42932351Y-94585967D01*
X42963174Y-94470120D01*
X42984947Y-94396296D01*
X43042404Y-94236532D01*
X43120991Y-94049915D01*
X43213363Y-93851728D01*
X43312179Y-93657252D01*
X43410096Y-93481769D01*
X43473604Y-93379279D01*
X43715570Y-93048242D01*
X43990455Y-92744356D01*
X44302223Y-92464103D01*
X44654837Y-92203962D01*
X45052261Y-91960415D01*
X45103627Y-91931875D01*
X45237607Y-91859482D01*
X45373566Y-91788229D01*
X45496819Y-91725679D01*
X45592680Y-91679394D01*
X45603864Y-91674287D01*
X45784287Y-91592405D01*
X45924599Y-91527611D01*
X46031300Y-91476659D01*
X46110888Y-91436307D01*
X46169862Y-91403308D01*
X46214721Y-91374419D01*
X46236742Y-91358337D01*
X46356142Y-91240942D01*
X46445625Y-91099191D01*
X46500200Y-90945102D01*
X46514879Y-90790693D01*
X46504763Y-90712770D01*
X46469803Y-90613974D01*
X46401296Y-90484233D01*
X46298403Y-90322161D01*
X46160286Y-90126369D01*
X46106499Y-90053673D01*
X45988045Y-89912509D01*
X45834475Y-89756127D01*
X45655553Y-89593219D01*
X45461043Y-89432476D01*
X45260708Y-89282590D01*
X45170355Y-89220394D01*
X45031757Y-89133019D01*
X44858005Y-89031588D01*
X44660623Y-88922218D01*
X44451133Y-88811027D01*
X44241061Y-88704132D01*
X44041929Y-88607652D01*
X43866696Y-88528322D01*
X43776878Y-88485680D01*
X43717286Y-88449353D01*
X43695982Y-88424409D01*
X43696831Y-88421525D01*
X43724119Y-88404209D01*
X43731771Y-88406554D01*
X43761645Y-88413254D01*
X43833953Y-88425163D01*
X43940680Y-88441088D01*
X44073814Y-88459839D01*
X44225341Y-88480227D01*
X44244879Y-88482792D01*
X44428299Y-88508653D01*
X44622789Y-88539224D01*
X44811852Y-88571705D01*
X44978988Y-88603294D01*
X45078071Y-88624272D01*
X45297440Y-88669288D01*
X45476550Y-88694255D01*
X45622207Y-88698371D01*
X45741217Y-88680837D01*
X45840388Y-88640852D01*
X45926526Y-88577616D01*
X45983819Y-88517798D01*
X46034263Y-88446795D01*
X46075079Y-88359685D01*
X46107636Y-88250053D01*
X46133299Y-88111482D01*
X46153437Y-87937557D01*
X46169416Y-87721863D01*
X46175054Y-87620420D01*
X46198118Y-87327066D01*
X46237220Y-87011589D01*
X46290427Y-86681824D01*
X46355809Y-86345610D01*
X46431433Y-86010784D01*
X46515366Y-85685182D01*
X46605678Y-85376642D01*
X46700436Y-85093002D01*
X46797709Y-84842097D01*
X46895563Y-84631766D01*
X46925390Y-84576603D01*
X46968668Y-84508691D01*
X47025848Y-84430717D01*
X47088807Y-84352248D01*
X47149419Y-84282854D01*
X47199563Y-84232104D01*
X47231113Y-84209567D01*
X47236410Y-84210257D01*
X47236410Y-84210257D01*
G37*
X47236410Y-84210257D02*
X47233714Y-84237309D01*
X47218994Y-84305003D01*
X47194267Y-84405107D01*
X47161545Y-84529388D01*
X47131961Y-84637123D01*
X46975216Y-85241126D01*
X46852486Y-85810638D01*
X46763658Y-86348864D01*
X46708619Y-86859013D01*
X46687258Y-87344289D01*
X46699461Y-87807900D01*
X46745116Y-88253052D01*
X46824111Y-88682952D01*
X46936332Y-89100806D01*
X46971487Y-89209509D01*
X47046677Y-89411531D01*
X47147215Y-89647217D01*
X47269003Y-89908773D01*
X47407942Y-90188405D01*
X47559936Y-90478319D01*
X47720886Y-90770721D01*
X47886694Y-91057817D01*
X48053262Y-91331813D01*
X48216493Y-91584915D01*
X48234786Y-91612212D01*
X48342047Y-91767986D01*
X48471155Y-91949827D01*
X48612144Y-92144134D01*
X48755046Y-92337305D01*
X48889895Y-92515738D01*
X49006724Y-92665830D01*
X49007947Y-92667367D01*
X49289121Y-93018508D01*
X49554556Y-93345618D01*
X49799973Y-93643473D01*
X50021092Y-93906849D01*
X50079437Y-93975306D01*
X50200354Y-94117164D01*
X50331894Y-94272372D01*
X50461639Y-94426219D01*
X50577165Y-94563992D01*
X50628100Y-94625125D01*
X50923254Y-94966636D01*
X51203316Y-95261800D01*
X51470206Y-95512193D01*
X51725845Y-95719388D01*
X51972154Y-95884960D01*
X52211053Y-96010483D01*
X52412834Y-96087851D01*
X52589307Y-96128780D01*
X52785603Y-96149707D01*
X52983056Y-96150130D01*
X53163005Y-96129547D01*
X53244086Y-96110192D01*
X53468588Y-96018070D01*
X53678888Y-95882176D01*
X53867286Y-95709175D01*
X54026080Y-95505729D01*
X54108946Y-95361967D01*
X54187794Y-95197724D01*
X54253702Y-95041467D01*
X54309292Y-94883735D01*
X54357190Y-94715066D01*
X54400019Y-94526001D01*
X54440403Y-94307079D01*
X54480967Y-94048839D01*
X54489644Y-93989489D01*
X54520212Y-93771689D01*
X54543051Y-93589431D01*
X54559235Y-93428174D01*
X54569841Y-93273379D01*
X54575945Y-93110503D01*
X54578625Y-92925008D01*
X54579039Y-92781782D01*
X54576783Y-92521200D01*
X54569007Y-92301226D01*
X54554199Y-92111773D01*
X54530849Y-91942757D01*
X54497445Y-91784091D01*
X54452475Y-91625692D01*
X54394429Y-91457472D01*
X54371388Y-91396096D01*
X54297852Y-91211702D01*
X54223315Y-91044614D01*
X54142796Y-90886642D01*
X54051316Y-90729594D01*
X53943897Y-90565281D01*
X53815559Y-90385511D01*
X53661323Y-90182094D01*
X53536597Y-90022910D01*
X53351141Y-89787520D01*
X53195651Y-89587980D01*
X53067656Y-89420978D01*
X52964685Y-89283201D01*
X52884267Y-89171339D01*
X52823931Y-89082078D01*
X52781206Y-89012108D01*
X52777605Y-89005682D01*
X52705100Y-88874999D01*
X52781545Y-88914530D01*
X52897836Y-88986979D01*
X53040175Y-89096377D01*
X53204335Y-89238815D01*
X53386087Y-89410388D01*
X53581205Y-89607189D01*
X53785460Y-89825310D01*
X53876830Y-89926686D01*
X54039578Y-90104536D01*
X54178417Y-90244163D01*
X54298721Y-90348920D01*
X54405864Y-90422158D01*
X54505218Y-90467228D01*
X54602157Y-90487482D01*
X54702054Y-90486271D01*
X54760211Y-90477669D01*
X54820106Y-90464749D01*
X54873216Y-90447228D01*
X54925805Y-90420324D01*
X54984136Y-90379257D01*
X55054474Y-90319245D01*
X55143081Y-90235507D01*
X55256220Y-90123262D01*
X55354515Y-90024008D01*
X55441457Y-89937046D01*
X55531839Y-89849184D01*
X55629622Y-89756900D01*
X55738768Y-89656674D01*
X55863239Y-89544984D01*
X56006998Y-89418309D01*
X56174006Y-89273128D01*
X56368226Y-89105920D01*
X56593618Y-88913163D01*
X56851573Y-88693524D01*
X56906705Y-88649879D01*
X56940311Y-88637133D01*
X56967894Y-88651330D01*
X56978269Y-88661206D01*
X56993164Y-88675161D01*
X57002988Y-88687745D01*
X57004366Y-88703949D01*
X56993920Y-88728763D01*
X56968275Y-88767177D01*
X56924053Y-88824181D01*
X56857877Y-88904765D01*
X56766372Y-89013919D01*
X56646160Y-89156634D01*
X56630192Y-89175603D01*
X56323181Y-89557595D01*
X56060444Y-89922669D01*
X55839993Y-90275022D01*
X55659843Y-90618850D01*
X55518007Y-90958351D01*
X55412498Y-91297720D01*
X55341330Y-91641154D01*
X55303492Y-91978294D01*
X55293259Y-92158410D01*
X55291458Y-92296389D01*
X55299354Y-92400439D01*
X55318211Y-92478765D01*
X55349294Y-92539574D01*
X55393867Y-92591074D01*
X55398604Y-92595552D01*
X55483962Y-92665618D01*
X55565891Y-92708007D01*
X55652350Y-92722101D01*
X55751297Y-92707283D01*
X55870691Y-92662933D01*
X56018491Y-92588435D01*
X56103525Y-92540835D01*
X56230122Y-92469708D01*
X56354352Y-92402162D01*
X56463027Y-92345228D01*
X56542957Y-92305936D01*
X56551494Y-92302068D01*
X56625847Y-92268882D01*
X56733574Y-92220701D01*
X56861655Y-92163351D01*
X56997071Y-92102660D01*
X57032593Y-92086730D01*
X57200528Y-92012686D01*
X57363031Y-91943394D01*
X57513452Y-91881464D01*
X57645146Y-91829509D01*
X57751464Y-91790140D01*
X57825759Y-91765970D01*
X57861384Y-91759611D01*
X57863053Y-91760423D01*
X57848106Y-91781026D01*
X57796183Y-91834380D01*
X57708345Y-91919488D01*
X57585655Y-92035357D01*
X57429178Y-92180989D01*
X57239974Y-92355391D01*
X57019107Y-92557566D01*
X56767641Y-92786519D01*
X56756659Y-92796494D01*
X56602939Y-92937725D01*
X56483608Y-93051666D01*
X56394012Y-93143611D01*
X56329500Y-93218854D01*
X56285420Y-93282689D01*
X56257120Y-93340409D01*
X56244347Y-93379493D01*
X56233432Y-93510194D01*
X56267844Y-93633039D01*
X56342082Y-93738681D01*
X56450644Y-93817775D01*
X56518479Y-93845199D01*
X56574210Y-93862318D01*
X56670987Y-93891841D01*
X56801183Y-93931450D01*
X56957172Y-93978826D01*
X57131325Y-94031651D01*
X57316016Y-94087608D01*
X57327719Y-94091151D01*
X57544470Y-94157033D01*
X57716969Y-94210179D01*
X57849756Y-94252190D01*
X57947366Y-94284667D01*
X58014338Y-94309211D01*
X58055209Y-94327423D01*
X58074516Y-94340903D01*
X58076797Y-94351252D01*
X58074299Y-94354544D01*
X58046535Y-94359170D01*
X57975340Y-94365592D01*
X57868079Y-94373303D01*
X57732118Y-94381792D01*
X57574826Y-94390552D01*
X57490251Y-94394886D01*
X57304971Y-94405309D01*
X57118618Y-94417936D01*
X56943472Y-94431779D01*
X56791813Y-94445850D01*
X56675921Y-94459163D01*
X56656017Y-94461955D01*
X56297643Y-94531210D01*
X55980992Y-94627896D01*
X55704273Y-94753131D01*
X55465698Y-94908030D01*
X55263476Y-95093710D01*
X55095818Y-95311287D01*
X54988790Y-95501999D01*
X54920121Y-95654271D01*
X54876455Y-95781966D01*
X54853300Y-95901933D01*
X54846164Y-96031019D01*
X54846148Y-96037051D01*
X54858420Y-96209329D01*
X54898676Y-96372520D01*
X54971568Y-96541716D01*
X55039152Y-96662894D01*
X55195135Y-96886510D01*
X55395429Y-97113636D01*
X55634073Y-97340137D01*
X55905106Y-97561884D01*
X56202566Y-97774745D01*
X56520490Y-97974588D01*
X56852917Y-98157282D01*
X57193886Y-98318694D01*
X57537434Y-98454695D01*
X57706367Y-98511265D01*
X58309616Y-98684434D01*
X58958749Y-98839987D01*
X59651815Y-98977564D01*
X60386864Y-99096802D01*
X61161946Y-99197340D01*
X61723584Y-99256047D01*
X61818227Y-99262349D01*
X61963647Y-99268140D01*
X62159770Y-99273418D01*
X62406524Y-99278184D01*
X62703838Y-99282438D01*
X63051639Y-99286179D01*
X63449854Y-99289407D01*
X63898412Y-99292123D01*
X64397239Y-99294326D01*
X64946265Y-99296016D01*
X65545415Y-99297192D01*
X66194620Y-99297856D01*
X66893805Y-99298006D01*
X67642898Y-99297642D01*
X68441829Y-99296764D01*
X69290523Y-99295373D01*
X70188909Y-99293468D01*
X71136915Y-99291049D01*
X72134468Y-99288115D01*
X73181496Y-99284667D01*
X74277926Y-99280704D01*
X74525286Y-99279765D01*
X75652742Y-99275325D01*
X76730541Y-99270820D01*
X77759876Y-99266239D01*
X78741941Y-99261571D01*
X79677929Y-99256803D01*
X80569034Y-99251924D01*
X81416449Y-99246923D01*
X82221368Y-99241788D01*
X82984985Y-99236508D01*
X83708492Y-99231070D01*
X84393083Y-99225463D01*
X85039953Y-99219676D01*
X85650293Y-99213697D01*
X86225299Y-99207514D01*
X86766163Y-99201116D01*
X87274079Y-99194492D01*
X87750241Y-99187628D01*
X88195841Y-99180515D01*
X88612074Y-99173140D01*
X89000133Y-99165491D01*
X89361212Y-99157558D01*
X89696504Y-99149329D01*
X90007202Y-99140791D01*
X90294500Y-99131933D01*
X90517878Y-99124264D01*
X90811572Y-99112917D01*
X91059617Y-99101140D01*
X91267213Y-99087880D01*
X91439559Y-99072087D01*
X91581853Y-99052707D01*
X91699293Y-99028690D01*
X91797080Y-98998983D01*
X91880411Y-98962534D01*
X91954485Y-98918292D01*
X92024502Y-98865204D01*
X92091803Y-98805797D01*
X92246573Y-98628663D01*
X92370512Y-98412127D01*
X92464046Y-98155406D01*
X92480827Y-98092498D01*
X92500938Y-98006328D01*
X92515681Y-97924841D01*
X92525831Y-97837791D01*
X92532164Y-97734932D01*
X92535456Y-97606018D01*
X92536482Y-97440804D01*
X92536425Y-97358358D01*
X92534652Y-97190260D01*
X92530316Y-97028261D01*
X92523911Y-96883516D01*
X92515932Y-96767181D01*
X92506873Y-96690412D01*
X92506767Y-96689812D01*
X92490449Y-96578347D01*
X92491488Y-96507894D01*
X92512569Y-96470776D01*
X92556379Y-96459318D01*
X92586940Y-96460743D01*
X92622623Y-96467232D01*
X92651397Y-96483287D01*
X92675896Y-96515475D01*
X92698751Y-96570359D01*
X92722594Y-96654505D01*
X92750059Y-96774478D01*
X92783777Y-96936844D01*
X92789841Y-96966763D01*
X92854615Y-97335711D01*
X92891530Y-97664193D01*
X92900570Y-97951704D01*
X92881721Y-98197741D01*
X92834967Y-98401801D01*
X92832624Y-98408767D01*
X92799094Y-98492461D01*
X92747760Y-98603455D01*
X92686532Y-98725178D01*
X92642182Y-98807607D01*
X92583434Y-98918247D01*
X92533568Y-99021138D01*
X92498562Y-99103396D01*
X92485229Y-99145915D01*
X92477989Y-99256971D01*
X92494819Y-99360605D01*
X92532095Y-99439715D01*
X92551933Y-99460674D01*
X92633959Y-99503269D01*
X92755489Y-99533750D01*
X92906279Y-99550524D01*
X93076082Y-99551999D01*
X93123984Y-99549560D01*
X93286184Y-99534416D01*
X93436421Y-99508514D01*
X93590423Y-99468004D01*
X93763920Y-99409034D01*
X93881919Y-99363976D01*
X93991221Y-99323679D01*
X94091031Y-99291589D01*
X94166587Y-99272244D01*
X94191852Y-99268706D01*
X94246211Y-99272704D01*
X94266222Y-99299328D01*
X94268128Y-99326445D01*
X94260805Y-99358224D01*
X94234116Y-99392133D01*
X94180985Y-99434122D01*
X94094334Y-99490141D01*
X94020379Y-99534702D01*
X93809978Y-99666359D01*
X93629318Y-99793184D01*
X93481234Y-99912467D01*
X93368564Y-100021499D01*
X93294142Y-100117572D01*
X93260805Y-100197977D01*
X93267726Y-100253658D01*
X93305036Y-100311569D01*
X93353148Y-100371271D01*
X93419177Y-100453699D01*
X93498332Y-100567014D01*
X93581234Y-100696504D01*
X93658503Y-100827457D01*
X93720758Y-100945162D01*
X93725996Y-100956056D01*
X93851797Y-101264137D01*
X93947868Y-101590225D01*
X93989145Y-101791863D01*
X94011665Y-101936563D01*
X94022293Y-102038699D01*
X94020080Y-102105368D01*
X94004077Y-102143666D01*
X93973334Y-102160689D01*
X93939390Y-102163764D01*
X93906123Y-102161427D01*
X93880443Y-102148850D01*
X93857135Y-102117686D01*
X93830986Y-102059585D01*
X93796781Y-101966201D01*
X93772654Y-101896797D01*
X93640160Y-101553450D01*
X93494022Y-101252742D01*
X93330733Y-100987480D01*
X93325373Y-100979766D01*
X93175432Y-100781889D01*
X93023252Y-100619429D01*
X92854560Y-100478398D01*
X92717178Y-100383758D01*
X92497944Y-100248280D01*
X92302027Y-100141046D01*
X92115105Y-100056105D01*
X91922859Y-99987504D01*
X91710968Y-99929293D01*
X91522183Y-99887136D01*
X91495152Y-99881615D01*
X91468050Y-99876494D01*
X91438962Y-99871760D01*
X91405974Y-99867397D01*
X91367170Y-99863391D01*
X91320636Y-99859727D01*
X91264455Y-99856392D01*
X91196714Y-99853370D01*
X91115497Y-99850648D01*
X91018890Y-99848210D01*
X90904977Y-99846043D01*
X90771843Y-99844131D01*
X90617574Y-99842460D01*
X90440254Y-99841017D01*
X90237968Y-99839786D01*
X90008802Y-99838752D01*
X89750841Y-99837902D01*
X89462169Y-99837222D01*
X89140872Y-99836695D01*
X88785034Y-99836309D01*
X88392740Y-99836048D01*
X87962077Y-99835898D01*
X87491127Y-99835845D01*
X86977978Y-99835874D01*
X86420713Y-99835971D01*
X85817418Y-99836120D01*
X85166177Y-99836309D01*
X84809870Y-99836417D01*
X84243846Y-99836495D01*
X83631153Y-99836405D01*
X82975974Y-99836152D01*
X82282489Y-99835742D01*
X81554881Y-99835183D01*
X80797333Y-99834480D01*
X80014025Y-99833639D01*
X79209140Y-99832667D01*
X78386859Y-99831570D01*
X77551364Y-99830354D01*
X76706838Y-99829026D01*
X75857462Y-99827592D01*
X75007419Y-99826057D01*
X74160889Y-99824429D01*
X73322055Y-99822713D01*
X72495098Y-99820916D01*
X71684201Y-99819044D01*
X70893546Y-99817103D01*
X70127314Y-99815100D01*
X69618179Y-99813693D01*
X68936490Y-99811839D01*
X68259246Y-99810138D01*
X67588754Y-99808592D01*
X66927325Y-99807202D01*
X66277268Y-99805970D01*
X65640892Y-99804896D01*
X65020507Y-99803982D01*
X64418422Y-99803228D01*
X63836946Y-99802636D01*
X63278390Y-99802207D01*
X62745062Y-99801941D01*
X62239272Y-99801841D01*
X61763330Y-99801907D01*
X61319544Y-99802141D01*
X60910225Y-99802543D01*
X60537681Y-99803114D01*
X60204222Y-99803856D01*
X59912158Y-99804770D01*
X59663798Y-99805857D01*
X59461452Y-99807118D01*
X59307428Y-99808554D01*
X59295456Y-99808698D01*
X58971846Y-99812741D01*
X58694959Y-99816356D01*
X58460672Y-99819730D01*
X58264861Y-99823047D01*
X58103401Y-99826493D01*
X57972170Y-99830252D01*
X57867043Y-99834509D01*
X57783897Y-99839450D01*
X57718608Y-99845259D01*
X57667051Y-99852122D01*
X57625104Y-99860224D01*
X57588642Y-99869749D01*
X57553542Y-99880883D01*
X57533278Y-99887775D01*
X57317709Y-99986066D01*
X57128081Y-100121540D01*
X56971078Y-100288023D01*
X56853383Y-100479339D01*
X56826795Y-100540511D01*
X56791441Y-100670239D01*
X56770852Y-100832877D01*
X56765274Y-101012601D01*
X56774955Y-101193586D01*
X56800141Y-101360008D01*
X56813162Y-101413714D01*
X56868530Y-101591867D01*
X56939957Y-101776976D01*
X57029762Y-101973107D01*
X57140262Y-102184323D01*
X57273774Y-102414689D01*
X57432617Y-102668270D01*
X57619107Y-102949131D01*
X57835563Y-103261337D01*
X57991348Y-103480112D01*
X58096096Y-103631945D01*
X58208418Y-103804774D01*
X58316544Y-103979891D01*
X58408704Y-104138586D01*
X58429822Y-104177117D01*
X58598135Y-104476103D01*
X58757744Y-104730119D01*
X58912777Y-104943397D01*
X59067362Y-105120173D01*
X59225626Y-105264680D01*
X59391697Y-105381154D01*
X59569701Y-105473827D01*
X59763768Y-105546936D01*
X59765720Y-105547556D01*
X59900301Y-105586844D01*
X60035045Y-105618286D01*
X60177626Y-105642644D01*
X60335718Y-105660679D01*
X60516997Y-105673154D01*
X60729137Y-105680831D01*
X60979812Y-105684471D01*
X61150241Y-105685035D01*
X61365346Y-105685917D01*
X61542632Y-105688395D01*
X61679281Y-105692368D01*
X61772473Y-105697736D01*
X61819390Y-105704398D01*
X61824014Y-105709122D01*
X61790888Y-105723914D01*
X61716750Y-105747522D01*
X61610236Y-105777760D01*
X61479981Y-105812440D01*
X61334620Y-105849377D01*
X61182789Y-105886384D01*
X61033123Y-105921275D01*
X60894256Y-105951862D01*
X60774825Y-105975961D01*
X60757418Y-105979192D01*
X60647871Y-105995105D01*
X60503714Y-106010171D01*
X60341186Y-106022983D01*
X60176525Y-106032137D01*
X60121645Y-106034209D01*
X59920634Y-106037553D01*
X59733317Y-106032984D01*
X59551074Y-106019099D01*
X59365282Y-105994495D01*
X59167320Y-105957769D01*
X58948565Y-105907519D01*
X58700397Y-105842342D01*
X58414194Y-105760834D01*
X58380166Y-105750854D01*
X58214662Y-105705418D01*
X58087023Y-105679487D01*
X57988072Y-105673261D01*
X57908629Y-105686942D01*
X57839516Y-105720730D01*
X57783720Y-105763926D01*
X57730236Y-105814130D01*
X57690518Y-105863064D01*
X57664437Y-105917337D01*
X57651862Y-105983556D01*
X57652663Y-106068331D01*
X57666710Y-106178269D01*
X57693872Y-106319979D01*
X57734020Y-106500069D01*
X57766498Y-106638638D01*
X57919062Y-107375865D01*
X58027249Y-108108344D01*
X58090976Y-108832897D01*
X58110161Y-109546346D01*
X58084722Y-110245513D01*
X58014576Y-110927219D01*
X57899641Y-111588287D01*
X57895170Y-111609309D01*
X57855684Y-111784483D01*
X57809487Y-111973809D01*
X57758403Y-112171192D01*
X57704256Y-112370533D01*
X57648868Y-112565737D01*
X57594062Y-112750706D01*
X57541664Y-112919343D01*
X57493495Y-113065552D01*
X57451379Y-113183235D01*
X57417140Y-113266296D01*
X57392602Y-113308638D01*
X57385698Y-113312813D01*
X57372132Y-113292060D01*
X57374679Y-113255605D01*
X57405165Y-113098209D01*
X57437266Y-112900198D01*
X57469751Y-112671730D01*
X57501391Y-112422960D01*
X57530959Y-112164047D01*
X57557225Y-111905146D01*
X57578960Y-111656415D01*
X57594100Y-111441979D01*
X57606868Y-110855296D01*
X57573544Y-110267169D01*
X57493611Y-109670704D01*
X57439601Y-109384584D01*
X57407684Y-109237085D01*
X57369235Y-109071512D01*
X57326387Y-108895902D01*
X57281277Y-108718292D01*
X57236041Y-108546717D01*
X57192814Y-108389214D01*
X57153732Y-108253821D01*
X57120930Y-108148572D01*
X57096544Y-108081506D01*
X57089410Y-108066800D01*
X57001361Y-107961620D01*
X56884546Y-107898242D01*
X56786589Y-107878592D01*
X56704245Y-107876745D01*
X56630481Y-107892497D01*
X56542786Y-107931303D01*
X56519889Y-107943211D01*
X56429560Y-107987016D01*
X56344298Y-108021894D01*
X56295522Y-108036978D01*
X56234165Y-108063191D01*
X56155526Y-108113578D01*
X56088946Y-108166745D01*
X55992435Y-108242546D01*
X55880210Y-108316760D01*
X55812689Y-108354594D01*
X55747377Y-108389952D01*
X55642856Y-108449637D01*
X55503176Y-108531242D01*
X55332384Y-108632359D01*
X55134530Y-108750581D01*
X54913662Y-108883501D01*
X54673827Y-109028712D01*
X54454970Y-109161903D01*
X54435021Y-109170126D01*
X54441171Y-109154016D01*
X54475031Y-109111807D01*
X54538210Y-109041732D01*
X54632320Y-108942024D01*
X54758971Y-108810917D01*
X54919774Y-108646644D01*
X54986301Y-108579079D01*
X55128958Y-108433702D01*
X55266771Y-108292005D01*
X55393731Y-108160259D01*
X55503832Y-108044737D01*
X55591066Y-107951708D01*
X55649428Y-107887445D01*
X55655782Y-107880139D01*
X55844586Y-107645708D01*
X56021754Y-107396451D01*
X56182111Y-107141335D01*
X56320480Y-106889321D01*
X56431683Y-106649377D01*
X56510545Y-106430464D01*
X56526665Y-106372041D01*
X56576577Y-106076696D01*
X56579655Y-105776572D01*
X56536720Y-105480779D01*
X56448595Y-105198425D01*
X56413475Y-105117714D01*
X56266600Y-104857218D01*
X56085621Y-104634146D01*
X55868700Y-104446620D01*
X55614005Y-104292765D01*
X55599773Y-104285690D01*
X55380300Y-104193127D01*
X55164915Y-104136914D01*
X54936399Y-104113614D01*
X54747954Y-104115575D01*
X54601521Y-104127037D01*
X54461919Y-104148448D01*
X54323561Y-104182337D01*
X54180859Y-104231234D01*
X54028226Y-104297668D01*
X53860074Y-104384167D01*
X53670817Y-104493262D01*
X53454866Y-104627481D01*
X53206635Y-104789353D01*
X53094965Y-104863809D01*
X52646803Y-105169940D01*
X52244750Y-105456879D01*
X51888069Y-105725213D01*
X51576021Y-105975527D01*
X51307867Y-106208405D01*
X51082870Y-106424432D01*
X50959384Y-106556125D01*
X50753432Y-106794166D01*
X50584076Y-107007286D01*
X50447555Y-107201501D01*
X50340110Y-107382828D01*
X50257980Y-107557282D01*
X50197402Y-107730881D01*
X50176690Y-107808208D01*
X50139972Y-108031809D01*
X50130088Y-108279846D01*
X50146583Y-108533847D01*
X50189000Y-108775341D01*
X50201838Y-108825225D01*
X50288329Y-109083621D01*
X50413040Y-109369735D01*
X50574112Y-109679982D01*
X50769688Y-110010781D01*
X50992560Y-110350751D01*
X51075016Y-110471152D01*
X51131384Y-110554747D01*
X51164243Y-110606731D01*
X51176177Y-110632294D01*
X51169766Y-110636629D01*
X51147593Y-110624930D01*
X51120198Y-110607489D01*
X50971944Y-110501053D01*
X50807440Y-110364194D01*
X50639086Y-110208498D01*
X50479282Y-110045552D01*
X50340429Y-109886943D01*
X50314844Y-109854955D01*
X50272281Y-109797516D01*
X50207901Y-109706566D01*
X50127890Y-109591036D01*
X50038433Y-109459861D01*
X49945719Y-109321973D01*
X49945083Y-109321021D01*
X49835405Y-109157916D01*
X49748240Y-109032250D01*
X49678746Y-108938591D01*
X49622084Y-108871511D01*
X49573412Y-108825580D01*
X49527890Y-108795369D01*
X49480676Y-108775446D01*
X49450712Y-108766494D01*
X49310555Y-108752649D01*
X49179381Y-108788149D01*
X49060023Y-108871862D01*
X48991145Y-108950215D01*
X48931746Y-109028882D01*
X48857972Y-109125382D01*
X48792957Y-109209579D01*
X48632621Y-109437144D01*
X48470405Y-109707164D01*
X48309864Y-110011535D01*
X48154552Y-110342153D01*
X48008025Y-110690912D01*
X47873838Y-111049710D01*
X47755545Y-111410440D01*
X47656702Y-111765000D01*
X47637174Y-111844485D01*
X47593768Y-112043630D01*
X47548764Y-112281600D01*
X47503890Y-112546478D01*
X47460875Y-112826344D01*
X47421447Y-113109283D01*
X47387334Y-113383377D01*
X47360265Y-113636708D01*
X47341967Y-113857358D01*
X47339462Y-113897378D01*
X47328390Y-113976436D01*
X47304880Y-114014066D01*
X47290937Y-114019505D01*
X47273216Y-114016916D01*
X47259973Y-113996334D01*
X47249738Y-113950169D01*
X47241039Y-113870828D01*
X47232405Y-113750717D01*
X47229384Y-113701907D01*
X47223553Y-113576962D01*
X47218543Y-113414332D01*
X47214616Y-113227181D01*
X47212031Y-113028672D01*
X47211050Y-112831968D01*
X47211099Y-112778879D01*
X47227221Y-112195298D01*
X47274115Y-111645240D01*
X47353852Y-111120253D01*
X47468502Y-110611884D01*
X47620136Y-110111678D01*
X47810825Y-109611184D01*
X48042638Y-109101948D01*
X48176429Y-108837938D01*
X48311208Y-108584436D01*
X48458520Y-108314788D01*
X48613684Y-108037074D01*
X48772021Y-107759370D01*
X48928851Y-107489755D01*
X49079493Y-107236306D01*
X49219268Y-107007102D01*
X49343495Y-106810221D01*
X49409465Y-106709707D01*
X49464765Y-106625171D01*
X49507106Y-106556776D01*
X49529913Y-106515303D01*
X49532092Y-106508703D01*
X49546023Y-106478636D01*
X49580551Y-106426485D01*
X49591033Y-106412210D01*
X49656195Y-106317247D01*
X49737011Y-106187072D01*
X49827303Y-106032398D01*
X49920892Y-105863937D01*
X50011601Y-105692404D01*
X50051552Y-105613630D01*
X50195489Y-105297690D01*
X50298388Y-105006364D01*
X50360909Y-104735164D01*
X50383714Y-104479603D01*
X50367467Y-104235193D01*
X50312827Y-103997447D01*
X50296990Y-103949256D01*
X50181978Y-103684342D01*
X50033506Y-103454951D01*
X49854407Y-103263194D01*
X49647513Y-103111186D01*
X49415660Y-103001037D01*
X49161679Y-102934861D01*
X48909170Y-102914631D01*
X48760682Y-102922390D01*
X48598731Y-102946669D01*
X48417150Y-102989131D01*
X48209773Y-103051440D01*
X47970436Y-103135259D01*
X47692972Y-103242250D01*
X47689559Y-103243613D01*
X47316256Y-103409522D01*
X46927500Y-103613787D01*
X46532636Y-103850368D01*
X46141006Y-104113225D01*
X45761956Y-104396320D01*
X45404829Y-104693612D01*
X45298759Y-104788876D01*
X44975612Y-105093057D01*
X44683165Y-105385501D01*
X44423816Y-105663493D01*
X44199964Y-105924318D01*
X44014008Y-106165262D01*
X43868344Y-106383609D01*
X43826944Y-106454876D01*
X43679923Y-106768203D01*
X43583138Y-107087957D01*
X43536481Y-107413400D01*
X43539844Y-107743793D01*
X43593120Y-108078397D01*
X43696201Y-108416475D01*
X43848980Y-108757287D01*
X44051349Y-109100096D01*
X44253468Y-109381201D01*
X44337674Y-109487965D01*
X44427233Y-109598922D01*
X44506791Y-109695122D01*
X44529771Y-109722194D01*
X44586987Y-109791719D01*
X44626494Y-109845208D01*
X44640781Y-109872381D01*
X44640350Y-109873491D01*
X44609305Y-109873146D01*
X44542283Y-109855403D01*
X44449476Y-109824175D01*
X44341076Y-109783374D01*
X44227275Y-109736914D01*
X44118266Y-109688706D01*
X44024241Y-109642663D01*
X43989350Y-109623587D01*
X43830820Y-109518024D01*
X43681577Y-109391499D01*
X43553615Y-109255662D01*
X43458931Y-109122166D01*
X43443092Y-109092960D01*
X43413046Y-109027862D01*
X43369465Y-108925766D01*
X43316713Y-108797269D01*
X43259154Y-108652971D01*
X43212132Y-108532116D01*
X43127018Y-108316895D01*
X43051829Y-108142060D01*
X42982063Y-107999236D01*
X42913220Y-107880047D01*
X42840797Y-107776119D01*
X42760295Y-107679077D01*
X42743897Y-107660926D01*
X42572252Y-107499595D01*
X42376958Y-107367513D01*
X42153431Y-107262925D01*
X41897093Y-107184081D01*
X41603362Y-107129227D01*
X41268829Y-107096684D01*
X41050188Y-107081174D01*
X40872494Y-107063452D01*
X40725847Y-107041745D01*
X40600344Y-107014283D01*
X40486086Y-106979293D01*
X40378939Y-106937469D01*
X40079277Y-106791258D01*
X39802610Y-106615220D01*
X39534786Y-106400114D01*
X39480011Y-106350650D01*
X39407601Y-106282962D01*
X39369645Y-106243000D01*
X39362483Y-106224830D01*
X39382455Y-106222516D01*
X39402944Y-106225719D01*
X39666569Y-106273321D01*
X39887853Y-106311970D01*
X40074320Y-106342687D01*
X40233494Y-106366490D01*
X40372898Y-106384399D01*
X40500055Y-106397435D01*
X40622488Y-106406616D01*
X40747722Y-106412963D01*
X40798459Y-106414874D01*
X41197304Y-106415431D01*
X41561758Y-106386727D01*
X41900295Y-106326855D01*
X42221388Y-106233908D01*
X42533514Y-106105981D01*
X42807599Y-105962895D01*
X42917678Y-105895916D01*
X43036715Y-105815362D01*
X43166629Y-105719455D01*
X43309338Y-105606416D01*
X43466759Y-105474465D01*
X43640810Y-105321825D01*
X43833409Y-105146716D01*
X44046474Y-104947359D01*
X44281922Y-104721975D01*
X44541672Y-104468786D01*
X44827641Y-104186013D01*
X45141746Y-103871876D01*
X45485907Y-103524598D01*
X45862040Y-103142398D01*
X45999061Y-103002637D01*
X46176601Y-102821012D01*
X46322401Y-102670533D01*
X46440549Y-102546263D01*
X46535134Y-102443264D01*
X46610245Y-102356598D01*
X46669972Y-102281329D01*
X46718403Y-102212519D01*
X46759628Y-102145229D01*
X46797736Y-102074524D01*
X46836815Y-101995466D01*
X46841853Y-101984998D01*
X46892352Y-101877389D01*
X46924292Y-101797162D01*
X46941863Y-101726223D01*
X46949258Y-101646476D01*
X46950666Y-101539826D01*
X46950604Y-101515415D01*
X46942152Y-101333351D01*
X46932862Y-101283886D01*
X50044294Y-101283886D01*
X50159647Y-101558559D01*
X50205428Y-101666804D01*
X50243925Y-101756387D01*
X50270995Y-101817762D01*
X50282390Y-101841289D01*
X50308547Y-101839104D01*
X50373877Y-101827040D01*
X50468116Y-101807134D01*
X50565641Y-101785023D01*
X50681083Y-101758301D01*
X50780763Y-101735586D01*
X50852692Y-101719590D01*
X50882460Y-101713404D01*
X50914443Y-101727989D01*
X50974086Y-101772781D01*
X51054258Y-101840902D01*
X51147825Y-101925476D01*
X51247656Y-102019626D01*
X51346616Y-102116475D01*
X51437574Y-102209145D01*
X51513396Y-102290760D01*
X51566950Y-102354443D01*
X51591103Y-102393316D01*
X51591779Y-102397290D01*
X51586326Y-102439601D01*
X51571350Y-102519459D01*
X51549218Y-102624968D01*
X51525400Y-102730901D01*
X51500107Y-102844821D01*
X51481197Y-102939380D01*
X51470569Y-103004373D01*
X51469855Y-103029420D01*
X51496368Y-103043177D01*
X51559934Y-103072120D01*
X51650682Y-103111847D01*
X51745994Y-103152573D01*
X51846454Y-103196361D01*
X51920055Y-103226444D01*
X51974961Y-103238839D01*
X52019336Y-103229558D01*
X52061347Y-103194616D01*
X52109157Y-103130029D01*
X52170932Y-103031809D01*
X52247447Y-102907789D01*
X52417878Y-102634797D01*
X52865339Y-102634466D01*
X53312800Y-102634134D01*
X53705906Y-103268762D01*
X53786517Y-103234561D01*
X53848405Y-103208347D01*
X53939563Y-103169788D01*
X54042415Y-103126317D01*
X54064175Y-103117125D01*
X54154016Y-103076583D01*
X54222389Y-103040795D01*
X54258331Y-103015692D01*
X54261222Y-103010476D01*
X54255904Y-102977569D01*
X54241473Y-102906066D01*
X54220213Y-102806928D01*
X54197658Y-102705480D01*
X54172116Y-102588822D01*
X54151474Y-102487868D01*
X54138064Y-102414469D01*
X54134094Y-102382529D01*
X54151813Y-102352516D01*
X54201037Y-102294372D01*
X54275865Y-102214417D01*
X54370400Y-102118969D01*
X54470981Y-102021694D01*
X54807868Y-101702228D01*
X55125219Y-101772436D01*
X55244447Y-101798425D01*
X55343650Y-101819312D01*
X55413442Y-101833176D01*
X55444437Y-101838094D01*
X55445162Y-101837938D01*
X55464261Y-101796892D01*
X55494967Y-101724265D01*
X55532543Y-101632040D01*
X55572253Y-101532202D01*
X55609358Y-101436734D01*
X55639122Y-101357619D01*
X55656808Y-101306842D01*
X55659671Y-101295284D01*
X55639082Y-101272051D01*
X55582591Y-101228491D01*
X55498055Y-101170185D01*
X55393329Y-101102710D01*
X55355328Y-101079168D01*
X55051036Y-100892492D01*
X55049754Y-100002602D01*
X55355142Y-99814303D01*
X55478773Y-99736764D01*
X55563938Y-99679563D01*
X55616425Y-99637988D01*
X55642022Y-99607327D01*
X55646516Y-99582871D01*
X55645323Y-99578093D01*
X55629262Y-99534803D01*
X55598484Y-99457498D01*
X55558134Y-99358977D01*
X55531899Y-99296022D01*
X55493895Y-99203109D01*
X55464194Y-99137763D01*
X55433790Y-99097089D01*
X55393675Y-99078194D01*
X55334844Y-99078184D01*
X55248291Y-99094166D01*
X55125007Y-99123246D01*
X55049713Y-99141107D01*
X54783049Y-99203497D01*
X54105133Y-98520863D01*
X54172275Y-98232003D01*
X54199567Y-98115407D01*
X54223189Y-98016014D01*
X54240486Y-97944894D01*
X54248541Y-97913916D01*
X54230309Y-97893725D01*
X54175200Y-97861112D01*
X54094216Y-97820777D01*
X53998363Y-97777419D01*
X53898644Y-97735737D01*
X53806063Y-97700431D01*
X53731624Y-97676199D01*
X53686332Y-97667742D01*
X53678338Y-97670408D01*
X53659998Y-97698523D01*
X53619825Y-97761110D01*
X53563231Y-97849709D01*
X53495629Y-97955857D01*
X53474636Y-97988875D01*
X53285547Y-98286386D01*
X52864425Y-98285915D01*
X52443304Y-98285444D01*
X52244734Y-97969068D01*
X52046165Y-97652693D01*
X51914204Y-97704654D01*
X51739898Y-97774498D01*
X51612794Y-97828164D01*
X51533208Y-97865514D01*
X51504467Y-97883103D01*
X51500033Y-97916198D01*
X51508365Y-97991234D01*
X51528437Y-98101209D01*
X51552334Y-98209960D01*
X51623722Y-98516180D01*
X51374792Y-98776308D01*
X51276934Y-98878567D01*
X51184524Y-98975130D01*
X51106808Y-99056337D01*
X51053034Y-99112522D01*
X51045564Y-99120327D01*
X50965266Y-99204217D01*
X50661842Y-99137599D01*
X50541848Y-99111455D01*
X50438620Y-99089341D01*
X50363069Y-99073568D01*
X50326107Y-99066448D01*
X50325922Y-99066421D01*
X50307132Y-99086621D01*
X50273838Y-99142579D01*
X50231346Y-99223216D01*
X50184959Y-99317456D01*
X50139981Y-99414221D01*
X50101715Y-99502433D01*
X50075467Y-99571015D01*
X50066501Y-99608229D01*
X50087054Y-99625598D01*
X50143187Y-99664424D01*
X50227147Y-99719553D01*
X50331184Y-99785829D01*
X50371606Y-99811143D01*
X50676237Y-100001064D01*
X50675515Y-100446778D01*
X50674794Y-100892492D01*
X50529319Y-100979994D01*
X50430830Y-101040096D01*
X50315476Y-101111732D01*
X50214069Y-101175691D01*
X50044294Y-101283886D01*
X46932862Y-101283886D01*
X46914150Y-101184255D01*
X46860594Y-101054021D01*
X46775475Y-100928540D01*
X46652789Y-100793707D01*
X46636320Y-100777281D01*
X46515622Y-100665447D01*
X46398868Y-100576677D01*
X46264819Y-100495698D01*
X46188649Y-100455395D01*
X45992982Y-100360332D01*
X45820532Y-100290044D01*
X45653717Y-100238957D01*
X45474953Y-100201492D01*
X45313469Y-100177829D01*
X44943909Y-100154633D01*
X44576565Y-100177738D01*
X44218056Y-100245710D01*
X43874997Y-100357115D01*
X43554008Y-100510519D01*
X43428624Y-100586314D01*
X43257539Y-100712900D01*
X43079470Y-100873008D01*
X42907459Y-101053416D01*
X42754551Y-101240906D01*
X42684446Y-101340545D01*
X42577291Y-101522245D01*
X42467761Y-101743782D01*
X42360344Y-101994603D01*
X42259526Y-102264160D01*
X42169794Y-102541902D01*
X42161355Y-102570570D01*
X42119629Y-102712971D01*
X42078442Y-102852294D01*
X42042022Y-102974325D01*
X42014595Y-103064846D01*
X42010200Y-103079079D01*
X41962835Y-103231631D01*
X41934611Y-103129930D01*
X41888017Y-102951330D01*
X41855037Y-102794601D01*
X41832776Y-102640598D01*
X41818332Y-102470178D01*
X41810500Y-102310193D01*
X41805582Y-102095290D01*
X41809940Y-101904361D01*
X41825347Y-101724275D01*
X41853573Y-101541900D01*
X41896390Y-101344106D01*
X41955570Y-101117760D01*
X41985833Y-101010668D01*
X42036328Y-100830397D01*
X42071202Y-100690730D01*
X42090596Y-100583928D01*
X42094649Y-100502248D01*
X42083503Y-100437949D01*
X42057296Y-100383289D01*
X42016170Y-100330526D01*
X41998499Y-100311311D01*
X41916936Y-100240276D01*
X41829050Y-100199824D01*
X41723947Y-100187996D01*
X41590734Y-100202831D01*
X41500952Y-100221783D01*
X41285580Y-100275804D01*
X41070066Y-100337369D01*
X40848080Y-100408840D01*
X40613291Y-100492581D01*
X40359368Y-100590954D01*
X40079983Y-100706323D01*
X39768803Y-100841050D01*
X39419500Y-100997500D01*
X39403336Y-101004838D01*
X39222607Y-101087051D01*
X39056233Y-101162977D01*
X38910013Y-101229950D01*
X38789745Y-101285306D01*
X38701228Y-101326378D01*
X38650261Y-101350503D01*
X38640574Y-101355434D01*
X38620268Y-101363176D01*
X38633871Y-101342996D01*
X38676390Y-101299724D01*
X38742833Y-101238189D01*
X38828209Y-101163220D01*
X38914554Y-101090371D01*
X39205293Y-100865401D01*
X39520266Y-100653354D01*
X39865033Y-100451135D01*
X40245154Y-100255651D01*
X40666188Y-100063807D01*
X41027288Y-99914420D01*
X41172296Y-99857082D01*
X41307140Y-99804451D01*
X41422217Y-99760223D01*
X41507923Y-99728093D01*
X41550671Y-99713003D01*
X41666239Y-99650663D01*
X41757031Y-99552733D01*
X41813695Y-99432078D01*
X41828189Y-99331172D01*
X41827619Y-99299157D01*
X41824355Y-99268516D01*
X41816058Y-99236597D01*
X41800393Y-99200753D01*
X41775024Y-99158331D01*
X41737614Y-99106682D01*
X41685828Y-99043156D01*
X41617329Y-98965102D01*
X41529781Y-98869871D01*
X41420848Y-98754811D01*
X41288193Y-98617274D01*
X41129481Y-98454608D01*
X40942375Y-98264163D01*
X40724539Y-98043290D01*
X40473637Y-97789338D01*
X40431166Y-97746366D01*
X40251127Y-97563045D01*
X40107571Y-97413781D01*
X40000209Y-97297506D01*
X39928754Y-97213152D01*
X39892919Y-97159649D01*
X39892416Y-97135929D01*
X39926957Y-97140925D01*
X39996256Y-97173567D01*
X40100024Y-97232787D01*
X40237974Y-97317516D01*
X40331727Y-97376776D01*
X40542920Y-97510171D01*
X40724008Y-97621791D01*
X40886971Y-97718407D01*
X41043789Y-97806788D01*
X41206439Y-97893704D01*
X41386903Y-97985925D01*
X41573934Y-98078802D01*
X41909975Y-98237083D01*
X42258518Y-98388128D01*
X42608754Y-98527824D01*
X42949879Y-98652060D01*
X43271083Y-98756727D01*
X43561561Y-98837712D01*
X43582543Y-98842896D01*
X43903284Y-98916260D01*
X44249952Y-98986593D01*
X44604855Y-99050734D01*
X44950302Y-99105522D01*
X45268602Y-99147796D01*
X45324185Y-99154112D01*
X45431329Y-99163034D01*
X45577883Y-99171106D01*
X45752409Y-99177920D01*
X45943466Y-99183067D01*
X46139617Y-99186139D01*
X46239500Y-99186780D01*
X46447267Y-99186877D01*
X46613503Y-99185449D01*
X46747519Y-99181949D01*
X46858624Y-99175833D01*
X46956129Y-99166555D01*
X47049344Y-99153570D01*
X47147580Y-99136334D01*
X47168371Y-99132381D01*
X47522222Y-99053143D01*
X47846092Y-98957592D01*
X48134393Y-98847750D01*
X48381534Y-98725638D01*
X48505464Y-98648869D01*
X48652458Y-98538537D01*
X48805040Y-98405887D01*
X48950488Y-98263304D01*
X49076080Y-98123176D01*
X49160392Y-98011248D01*
X49245503Y-97868690D01*
X49333453Y-97696785D01*
X49415341Y-97514872D01*
X49482262Y-97342293D01*
X49513613Y-97243944D01*
X49564003Y-97034214D01*
X49597133Y-96818745D01*
X49614760Y-96582459D01*
X49618829Y-96341341D01*
X49608509Y-96030929D01*
X49577978Y-95746896D01*
X49524068Y-95474373D01*
X49443611Y-95198491D01*
X49333437Y-94904382D01*
X49291009Y-94803103D01*
X49115406Y-94452076D01*
X48895193Y-94116468D01*
X48627801Y-93792486D01*
X48553866Y-93713473D01*
X48447720Y-93608092D01*
X48333056Y-93503369D01*
X48217550Y-93405372D01*
X48108874Y-93320168D01*
X48014702Y-93253825D01*
X47942709Y-93212409D01*
X47906069Y-93201301D01*
X47862009Y-93185874D01*
X47796626Y-93146020D01*
X47743550Y-93105956D01*
X47597420Y-93008176D01*
X47410887Y-92918000D01*
X47194154Y-92838044D01*
X46957424Y-92770927D01*
X46710899Y-92719265D01*
X46464782Y-92685676D01*
X46229276Y-92672777D01*
X46073823Y-92677634D01*
X45774683Y-92718096D01*
X45471742Y-92792749D01*
X45181731Y-92896510D01*
X44921379Y-93024293D01*
X44908327Y-93031873D01*
X44725294Y-93151585D01*
X44523817Y-93305138D01*
X44313639Y-93484052D01*
X44104507Y-93679844D01*
X43906163Y-93884034D01*
X43822694Y-93976777D01*
X43770759Y-94038991D01*
X43694263Y-94134533D01*
X43598886Y-94255969D01*
X43490305Y-94395864D01*
X43374200Y-94546783D01*
X43256248Y-94701291D01*
X43142129Y-94851955D01*
X43037521Y-94991339D01*
X42948103Y-95112008D01*
X42879553Y-95206529D01*
X42841628Y-95261223D01*
X42808644Y-95301837D01*
X42787295Y-95311771D01*
X42787126Y-95311611D01*
X42786324Y-95281823D01*
X42796036Y-95211996D01*
X42814263Y-95111378D01*
X42839007Y-94989218D01*
X42868269Y-94854764D01*
X42900050Y-94717264D01*
X42932351Y-94585967D01*
X42963174Y-94470120D01*
X42984947Y-94396296D01*
X43042404Y-94236532D01*
X43120991Y-94049915D01*
X43213363Y-93851728D01*
X43312179Y-93657252D01*
X43410096Y-93481769D01*
X43473604Y-93379279D01*
X43715570Y-93048242D01*
X43990455Y-92744356D01*
X44302223Y-92464103D01*
X44654837Y-92203962D01*
X45052261Y-91960415D01*
X45103627Y-91931875D01*
X45237607Y-91859482D01*
X45373566Y-91788229D01*
X45496819Y-91725679D01*
X45592680Y-91679394D01*
X45603864Y-91674287D01*
X45784287Y-91592405D01*
X45924599Y-91527611D01*
X46031300Y-91476659D01*
X46110888Y-91436307D01*
X46169862Y-91403308D01*
X46214721Y-91374419D01*
X46236742Y-91358337D01*
X46356142Y-91240942D01*
X46445625Y-91099191D01*
X46500200Y-90945102D01*
X46514879Y-90790693D01*
X46504763Y-90712770D01*
X46469803Y-90613974D01*
X46401296Y-90484233D01*
X46298403Y-90322161D01*
X46160286Y-90126369D01*
X46106499Y-90053673D01*
X45988045Y-89912509D01*
X45834475Y-89756127D01*
X45655553Y-89593219D01*
X45461043Y-89432476D01*
X45260708Y-89282590D01*
X45170355Y-89220394D01*
X45031757Y-89133019D01*
X44858005Y-89031588D01*
X44660623Y-88922218D01*
X44451133Y-88811027D01*
X44241061Y-88704132D01*
X44041929Y-88607652D01*
X43866696Y-88528322D01*
X43776878Y-88485680D01*
X43717286Y-88449353D01*
X43695982Y-88424409D01*
X43696831Y-88421525D01*
X43724119Y-88404209D01*
X43731771Y-88406554D01*
X43761645Y-88413254D01*
X43833953Y-88425163D01*
X43940680Y-88441088D01*
X44073814Y-88459839D01*
X44225341Y-88480227D01*
X44244879Y-88482792D01*
X44428299Y-88508653D01*
X44622789Y-88539224D01*
X44811852Y-88571705D01*
X44978988Y-88603294D01*
X45078071Y-88624272D01*
X45297440Y-88669288D01*
X45476550Y-88694255D01*
X45622207Y-88698371D01*
X45741217Y-88680837D01*
X45840388Y-88640852D01*
X45926526Y-88577616D01*
X45983819Y-88517798D01*
X46034263Y-88446795D01*
X46075079Y-88359685D01*
X46107636Y-88250053D01*
X46133299Y-88111482D01*
X46153437Y-87937557D01*
X46169416Y-87721863D01*
X46175054Y-87620420D01*
X46198118Y-87327066D01*
X46237220Y-87011589D01*
X46290427Y-86681824D01*
X46355809Y-86345610D01*
X46431433Y-86010784D01*
X46515366Y-85685182D01*
X46605678Y-85376642D01*
X46700436Y-85093002D01*
X46797709Y-84842097D01*
X46895563Y-84631766D01*
X46925390Y-84576603D01*
X46968668Y-84508691D01*
X47025848Y-84430717D01*
X47088807Y-84352248D01*
X47149419Y-84282854D01*
X47199563Y-84232104D01*
X47231113Y-84209567D01*
X47236410Y-84210257D01*
M02*
