G04 #@! TF.FileFunction,Paste,Bot*
%FSLAX46Y46*%
G04 Gerber Fmt 4.6, Leading zero omitted, Abs format (unit mm)*
G04 Created by KiCad (PCBNEW 4.0.2-4+6225~38~ubuntu14.04.1-stable) date Wed 22 Jun 2016 06:39:26 PM CDT*
%MOMM*%
G01*
G04 APERTURE LIST*
%ADD10C,0.100000*%
%ADD11R,1.200000X1.000000*%
%ADD12R,1.000000X1.200000*%
%ADD13R,0.500000X0.800000*%
%ADD14R,0.800000X0.500000*%
%ADD15R,1.700000X0.600000*%
%ADD16R,2.700000X1.000000*%
%ADD17R,1.400000X0.800000*%
%ADD18R,0.800000X0.300000*%
%ADD19R,0.300000X0.800000*%
%ADD20R,0.800000X0.800000*%
%ADD21R,0.600000X1.200000*%
%ADD22R,2.800000X1.000000*%
%ADD23R,1.250000X1.800000*%
G04 APERTURE END LIST*
D10*
D11*
X63500000Y-91000000D03*
X63500000Y-93000000D03*
D12*
X64750000Y-95000000D03*
X66750000Y-95000000D03*
D13*
X76100000Y-96700000D03*
X76100000Y-97900000D03*
D10*
G36*
X65920330Y-101666117D02*
X66273883Y-102019670D01*
X65708198Y-102585355D01*
X65354645Y-102231802D01*
X65920330Y-101666117D01*
X65920330Y-101666117D01*
G37*
G36*
X65071802Y-102514645D02*
X65425355Y-102868198D01*
X64859670Y-103433883D01*
X64506117Y-103080330D01*
X65071802Y-102514645D01*
X65071802Y-102514645D01*
G37*
G36*
X65509670Y-104083883D02*
X65156117Y-103730330D01*
X65721802Y-103164645D01*
X66075355Y-103518198D01*
X65509670Y-104083883D01*
X65509670Y-104083883D01*
G37*
G36*
X66358198Y-103235355D02*
X66004645Y-102881802D01*
X66570330Y-102316117D01*
X66923883Y-102669670D01*
X66358198Y-103235355D01*
X66358198Y-103235355D01*
G37*
G36*
X57565198Y-94757097D02*
X57394188Y-95226943D01*
X56642434Y-94953327D01*
X56813444Y-94483481D01*
X57565198Y-94757097D01*
X57565198Y-94757097D01*
G37*
G36*
X56437566Y-94346673D02*
X56266556Y-94816519D01*
X55514802Y-94542903D01*
X55685812Y-94073057D01*
X56437566Y-94346673D01*
X56437566Y-94346673D01*
G37*
G36*
X55365198Y-93957097D02*
X55194188Y-94426943D01*
X54442434Y-94153327D01*
X54613444Y-93683481D01*
X55365198Y-93957097D01*
X55365198Y-93957097D01*
G37*
G36*
X54237566Y-93546673D02*
X54066556Y-94016519D01*
X53314802Y-93742903D01*
X53485812Y-93273057D01*
X54237566Y-93546673D01*
X54237566Y-93546673D01*
G37*
D13*
X48850000Y-99750000D03*
X48850000Y-100950000D03*
D14*
X49940000Y-102400000D03*
X51140000Y-102400000D03*
X55140000Y-102400000D03*
X56340000Y-102400000D03*
D10*
G36*
X58509670Y-98983883D02*
X58156117Y-98630330D01*
X58721802Y-98064645D01*
X59075355Y-98418198D01*
X58509670Y-98983883D01*
X58509670Y-98983883D01*
G37*
G36*
X59358198Y-98135355D02*
X59004645Y-97781802D01*
X59570330Y-97216117D01*
X59923883Y-97569670D01*
X59358198Y-98135355D01*
X59358198Y-98135355D01*
G37*
D13*
X77600000Y-96700000D03*
X77600000Y-97900000D03*
D10*
G36*
X47243340Y-90487415D02*
X46344995Y-89044164D01*
X46854378Y-88727101D01*
X47752723Y-90170352D01*
X47243340Y-90487415D01*
X47243340Y-90487415D01*
G37*
G36*
X48304555Y-89826867D02*
X47406210Y-88383616D01*
X47915593Y-88066553D01*
X48813938Y-89509804D01*
X48304555Y-89826867D01*
X48304555Y-89826867D01*
G37*
G36*
X46182126Y-91147963D02*
X45283781Y-89704712D01*
X45793164Y-89387649D01*
X46691509Y-90830900D01*
X46182126Y-91147963D01*
X46182126Y-91147963D01*
G37*
G36*
X45120911Y-91808511D02*
X44222566Y-90365260D01*
X44731949Y-90048197D01*
X45630294Y-91491448D01*
X45120911Y-91808511D01*
X45120911Y-91808511D01*
G37*
G36*
X48421513Y-86750434D02*
X46994729Y-84458210D01*
X47843701Y-83929772D01*
X49270485Y-86221996D01*
X48421513Y-86750434D01*
X48421513Y-86750434D01*
G37*
G36*
X41969329Y-90766565D02*
X40542545Y-88474341D01*
X41391517Y-87945903D01*
X42818301Y-90238127D01*
X41969329Y-90766565D01*
X41969329Y-90766565D01*
G37*
G36*
X55993835Y-93715158D02*
X56575269Y-92117680D01*
X57139085Y-92322892D01*
X56557651Y-93920370D01*
X55993835Y-93715158D01*
X55993835Y-93715158D01*
G37*
G36*
X57168450Y-94142683D02*
X57749884Y-92545205D01*
X58313700Y-92750417D01*
X57732266Y-94347895D01*
X57168450Y-94142683D01*
X57168450Y-94142683D01*
G37*
G36*
X54819219Y-93287633D02*
X55400653Y-91690155D01*
X55964469Y-91895367D01*
X55383035Y-93492845D01*
X54819219Y-93287633D01*
X54819219Y-93287633D01*
G37*
G36*
X53644603Y-92860108D02*
X54226037Y-91262630D01*
X54789853Y-91467842D01*
X54208419Y-93065320D01*
X53644603Y-92860108D01*
X53644603Y-92860108D01*
G37*
G36*
X59661571Y-92336451D02*
X60585026Y-89799281D01*
X61524719Y-90141301D01*
X60601264Y-92678471D01*
X59661571Y-92336451D01*
X59661571Y-92336451D01*
G37*
G36*
X52519907Y-89737098D02*
X53443362Y-87199928D01*
X54383055Y-87541948D01*
X53459600Y-90079118D01*
X52519907Y-89737098D01*
X52519907Y-89737098D01*
G37*
D15*
X43250000Y-99875000D03*
X43250000Y-98625000D03*
X43250000Y-101125000D03*
X43250000Y-102375000D03*
D16*
X40200000Y-96700000D03*
X40200000Y-104300000D03*
D10*
G36*
X47030661Y-107217610D02*
X45926599Y-108510300D01*
X45470355Y-108120632D01*
X46574417Y-106827942D01*
X47030661Y-107217610D01*
X47030661Y-107217610D01*
G37*
G36*
X46080153Y-106405800D02*
X44976091Y-107698490D01*
X44519847Y-107308822D01*
X45623909Y-106016132D01*
X46080153Y-106405800D01*
X46080153Y-106405800D01*
G37*
G36*
X47981168Y-108029420D02*
X46877106Y-109322110D01*
X46420862Y-108932442D01*
X47524924Y-107639752D01*
X47981168Y-108029420D01*
X47981168Y-108029420D01*
G37*
G36*
X48931676Y-108841230D02*
X47827614Y-110133920D01*
X47371370Y-109744252D01*
X48475432Y-108451562D01*
X48931676Y-108841230D01*
X48931676Y-108841230D01*
G37*
G36*
X43112360Y-107224537D02*
X41358850Y-109277633D01*
X40598444Y-108628185D01*
X42351954Y-106575089D01*
X43112360Y-107224537D01*
X43112360Y-107224537D01*
G37*
G36*
X48891445Y-112160342D02*
X47137935Y-114213438D01*
X46377529Y-113563990D01*
X48131039Y-111510894D01*
X48891445Y-112160342D01*
X48891445Y-112160342D01*
G37*
G36*
X57138645Y-107326564D02*
X58047044Y-108763509D01*
X57539887Y-109084120D01*
X56631488Y-107647175D01*
X57138645Y-107326564D01*
X57138645Y-107326564D01*
G37*
G36*
X56082067Y-107994504D02*
X56990466Y-109431449D01*
X56483309Y-109752060D01*
X55574910Y-108315115D01*
X56082067Y-107994504D01*
X56082067Y-107994504D01*
G37*
G36*
X58195222Y-106658623D02*
X59103621Y-108095568D01*
X58596464Y-108416179D01*
X57688065Y-106979234D01*
X58195222Y-106658623D01*
X58195222Y-106658623D01*
G37*
G36*
X59251799Y-105990683D02*
X60160198Y-107427628D01*
X59653041Y-107748239D01*
X58744642Y-106311294D01*
X59251799Y-105990683D01*
X59251799Y-105990683D01*
G37*
G36*
X55986589Y-111071679D02*
X57429341Y-113353886D01*
X56584079Y-113888239D01*
X55141327Y-111606032D01*
X55986589Y-111071679D01*
X55986589Y-111071679D01*
G37*
G36*
X62410579Y-107010601D02*
X63853331Y-109292808D01*
X63008069Y-109827161D01*
X61565317Y-107544954D01*
X62410579Y-107010601D01*
X62410579Y-107010601D01*
G37*
G36*
X88148594Y-96631182D02*
X89318797Y-95398045D01*
X89754022Y-95811058D01*
X88583819Y-97044195D01*
X88148594Y-96631182D01*
X88148594Y-96631182D01*
G37*
G36*
X89055312Y-97491625D02*
X90225515Y-96258488D01*
X90660740Y-96671501D01*
X89490537Y-97904638D01*
X89055312Y-97491625D01*
X89055312Y-97491625D01*
G37*
G36*
X87241876Y-95770739D02*
X88412079Y-94537602D01*
X88847304Y-94950615D01*
X87677101Y-96183752D01*
X87241876Y-95770739D01*
X87241876Y-95770739D01*
G37*
G36*
X86335158Y-94910296D02*
X87505361Y-93677159D01*
X87940586Y-94090172D01*
X86770383Y-95323309D01*
X86335158Y-94910296D01*
X86335158Y-94910296D01*
G37*
G36*
X92061887Y-96829332D02*
X93920444Y-94870821D01*
X94645819Y-95559176D01*
X92787262Y-97517687D01*
X92061887Y-96829332D01*
X92061887Y-96829332D01*
G37*
G36*
X86549042Y-91597837D02*
X88407599Y-89639326D01*
X89132974Y-90327681D01*
X87274417Y-92286192D01*
X86549042Y-91597837D01*
X86549042Y-91597837D01*
G37*
G36*
X87677101Y-101966248D02*
X88847304Y-103199385D01*
X88412079Y-103612398D01*
X87241876Y-102379261D01*
X87677101Y-101966248D01*
X87677101Y-101966248D01*
G37*
G36*
X86770383Y-102826691D02*
X87940586Y-104059828D01*
X87505361Y-104472841D01*
X86335158Y-103239704D01*
X86770383Y-102826691D01*
X86770383Y-102826691D01*
G37*
G36*
X88583819Y-101105805D02*
X89754022Y-102338942D01*
X89318797Y-102751955D01*
X88148594Y-101518818D01*
X88583819Y-101105805D01*
X88583819Y-101105805D01*
G37*
G36*
X89490537Y-100245362D02*
X90660740Y-101478499D01*
X90225515Y-101891512D01*
X89055312Y-100658375D01*
X89490537Y-100245362D01*
X89490537Y-100245362D01*
G37*
G36*
X87274417Y-105863808D02*
X89132974Y-107822319D01*
X88407599Y-108510674D01*
X86549042Y-106552163D01*
X87274417Y-105863808D01*
X87274417Y-105863808D01*
G37*
G36*
X92787262Y-100632313D02*
X94645819Y-102590824D01*
X93920444Y-103279179D01*
X92061887Y-101320668D01*
X92787262Y-100632313D01*
X92787262Y-100632313D01*
G37*
G36*
X62190000Y-102147056D02*
X60492944Y-100450000D01*
X62190000Y-98752944D01*
X63887056Y-100450000D01*
X62190000Y-102147056D01*
X62190000Y-102147056D01*
G37*
G36*
X63399153Y-99396411D02*
X63243589Y-99240847D01*
X64092117Y-98392319D01*
X64247681Y-98547883D01*
X63399153Y-99396411D01*
X63399153Y-99396411D01*
G37*
G36*
X63717351Y-99714609D02*
X63561787Y-99559045D01*
X64410315Y-98710517D01*
X64565879Y-98866081D01*
X63717351Y-99714609D01*
X63717351Y-99714609D01*
G37*
G36*
X64035549Y-100032807D02*
X63879985Y-99877243D01*
X64728513Y-99028715D01*
X64884077Y-99184279D01*
X64035549Y-100032807D01*
X64035549Y-100032807D01*
G37*
G36*
X64353747Y-100351005D02*
X64198183Y-100195441D01*
X65046711Y-99346913D01*
X65202275Y-99502477D01*
X64353747Y-100351005D01*
X64353747Y-100351005D01*
G37*
G36*
X63080955Y-99078213D02*
X62925391Y-98922649D01*
X63773919Y-98074121D01*
X63929483Y-98229685D01*
X63080955Y-99078213D01*
X63080955Y-99078213D01*
G37*
G36*
X62762757Y-98760015D02*
X62607193Y-98604451D01*
X63455721Y-97755923D01*
X63611285Y-97911487D01*
X62762757Y-98760015D01*
X62762757Y-98760015D01*
G37*
G36*
X62444559Y-98441817D02*
X62288995Y-98286253D01*
X63137523Y-97437725D01*
X63293087Y-97593289D01*
X62444559Y-98441817D01*
X62444559Y-98441817D01*
G37*
G36*
X61935441Y-98441817D02*
X61086913Y-97593289D01*
X61242477Y-97437725D01*
X62091005Y-98286253D01*
X61935441Y-98441817D01*
X61935441Y-98441817D01*
G37*
G36*
X61617243Y-98760015D02*
X60768715Y-97911487D01*
X60924279Y-97755923D01*
X61772807Y-98604451D01*
X61617243Y-98760015D01*
X61617243Y-98760015D01*
G37*
G36*
X61299045Y-99078213D02*
X60450517Y-98229685D01*
X60606081Y-98074121D01*
X61454609Y-98922649D01*
X61299045Y-99078213D01*
X61299045Y-99078213D01*
G37*
G36*
X60980847Y-99396411D02*
X60132319Y-98547883D01*
X60287883Y-98392319D01*
X61136411Y-99240847D01*
X60980847Y-99396411D01*
X60980847Y-99396411D01*
G37*
G36*
X60662649Y-99714609D02*
X59814121Y-98866081D01*
X59969685Y-98710517D01*
X60818213Y-99559045D01*
X60662649Y-99714609D01*
X60662649Y-99714609D01*
G37*
G36*
X60344451Y-100032807D02*
X59495923Y-99184279D01*
X59651487Y-99028715D01*
X60500015Y-99877243D01*
X60344451Y-100032807D01*
X60344451Y-100032807D01*
G37*
G36*
X60026253Y-100351005D02*
X59177725Y-99502477D01*
X59333289Y-99346913D01*
X60181817Y-100195441D01*
X60026253Y-100351005D01*
X60026253Y-100351005D01*
G37*
G36*
X59333289Y-101553087D02*
X59177725Y-101397523D01*
X60026253Y-100548995D01*
X60181817Y-100704559D01*
X59333289Y-101553087D01*
X59333289Y-101553087D01*
G37*
G36*
X59651487Y-101871285D02*
X59495923Y-101715721D01*
X60344451Y-100867193D01*
X60500015Y-101022757D01*
X59651487Y-101871285D01*
X59651487Y-101871285D01*
G37*
G36*
X59969685Y-102189483D02*
X59814121Y-102033919D01*
X60662649Y-101185391D01*
X60818213Y-101340955D01*
X59969685Y-102189483D01*
X59969685Y-102189483D01*
G37*
G36*
X60287883Y-102507681D02*
X60132319Y-102352117D01*
X60980847Y-101503589D01*
X61136411Y-101659153D01*
X60287883Y-102507681D01*
X60287883Y-102507681D01*
G37*
G36*
X60606081Y-102825879D02*
X60450517Y-102670315D01*
X61299045Y-101821787D01*
X61454609Y-101977351D01*
X60606081Y-102825879D01*
X60606081Y-102825879D01*
G37*
G36*
X60924279Y-103144077D02*
X60768715Y-102988513D01*
X61617243Y-102139985D01*
X61772807Y-102295549D01*
X60924279Y-103144077D01*
X60924279Y-103144077D01*
G37*
G36*
X61242477Y-103462275D02*
X61086913Y-103306711D01*
X61935441Y-102458183D01*
X62091005Y-102613747D01*
X61242477Y-103462275D01*
X61242477Y-103462275D01*
G37*
G36*
X63137523Y-103462275D02*
X62288995Y-102613747D01*
X62444559Y-102458183D01*
X63293087Y-103306711D01*
X63137523Y-103462275D01*
X63137523Y-103462275D01*
G37*
G36*
X63455721Y-103144077D02*
X62607193Y-102295549D01*
X62762757Y-102139985D01*
X63611285Y-102988513D01*
X63455721Y-103144077D01*
X63455721Y-103144077D01*
G37*
G36*
X63773919Y-102825879D02*
X62925391Y-101977351D01*
X63080955Y-101821787D01*
X63929483Y-102670315D01*
X63773919Y-102825879D01*
X63773919Y-102825879D01*
G37*
G36*
X64092117Y-102507681D02*
X63243589Y-101659153D01*
X63399153Y-101503589D01*
X64247681Y-102352117D01*
X64092117Y-102507681D01*
X64092117Y-102507681D01*
G37*
G36*
X64410315Y-102189483D02*
X63561787Y-101340955D01*
X63717351Y-101185391D01*
X64565879Y-102033919D01*
X64410315Y-102189483D01*
X64410315Y-102189483D01*
G37*
G36*
X64728513Y-101871285D02*
X63879985Y-101022757D01*
X64035549Y-100867193D01*
X64884077Y-101715721D01*
X64728513Y-101871285D01*
X64728513Y-101871285D01*
G37*
G36*
X65046711Y-101553087D02*
X64198183Y-100704559D01*
X64353747Y-100548995D01*
X65202275Y-101397523D01*
X65046711Y-101553087D01*
X65046711Y-101553087D01*
G37*
D17*
X55440000Y-101250000D03*
X55440000Y-99650000D03*
X50240000Y-101250000D03*
X50240000Y-99650000D03*
D18*
X44790000Y-92950000D03*
X44790000Y-93450000D03*
X44790000Y-93950000D03*
X44790000Y-94450000D03*
X46090000Y-94450000D03*
X46090000Y-93950000D03*
X46090000Y-93450000D03*
X46090000Y-92950000D03*
D19*
X50990000Y-108850000D03*
X51490000Y-108850000D03*
X51990000Y-108850000D03*
X52490000Y-108850000D03*
X52490000Y-107550000D03*
X51990000Y-107550000D03*
X51490000Y-107550000D03*
X50990000Y-107550000D03*
D20*
X63500000Y-96150000D03*
X63500000Y-94250000D03*
D21*
X65750000Y-91100000D03*
X64800000Y-91100000D03*
X66700000Y-91100000D03*
X66700000Y-93400000D03*
X64800000Y-93400000D03*
D22*
X75050000Y-91250000D03*
X69450000Y-91250000D03*
X75050000Y-95250000D03*
X69450000Y-95250000D03*
X84300000Y-91250000D03*
X78700000Y-91250000D03*
X84300000Y-95250000D03*
X78700000Y-95250000D03*
D23*
X67990000Y-104800000D03*
X67990000Y-107400000D03*
M02*
