M48
;DRILL file {KiCad 4.0.2-4+6225~38~ubuntu14.04.1-stable} date Wed 22 Jun 2016 06:39:30 PM CDT
;FORMAT={-:-/ absolute / metric / decimal}
FMAT,2
METRIC,TZ
T1C0.400
T2C3.000
%
G90
G05
M71
T1
X41.14Y-101.6
X43.45Y-97.6
X44.14Y-89.5
X44.7Y-106.2
X45.25Y-95.6
X45.55Y-98.6
X46.74Y-110.1
X46.9Y-104.95
X48.25Y-90.65
X48.6Y-107.
X49.15Y-88.55
X53.14Y-91.7
X55.84Y-95.4
X57.275Y-101.3
X57.7Y-97.95
X57.9Y-100.7
X58.5Y-93.85
X58.6Y-110.2
X59.05Y-110.95
X59.3Y-103.95
X59.7Y-94.95
X59.84Y-108.7
X60.09Y-96.95
X60.1Y-103.5
X60.4Y-109.35
X60.55Y-94.4
X60.95Y-96.85
X61.2Y-96.
X61.25Y-109.45
X61.3Y-94.
X62.94Y-105.65
X64.165Y-108.65
X67.09Y-103.35
X68.Y-92.4
X68.Y-93.8
X73.925Y-92.9
X73.925Y-96.025
X80.1Y-92.325
X85.7Y-90.2
X86.19Y-102.2
X86.24Y-100.35
X90.64Y-102.6
X90.74Y-94.1
T2
X52.84Y-100.45
T0
M30
