<?xml version="1.0" encoding="UTF-8" standalone="no"?>
<!-- Generator: Adobe Illustrator 13.0.2, SVG Export Plug-In . SVG Version: 6.00 Build 14948)  -->

<svg
   xmlns:dc="http://purl.org/dc/elements/1.1/"
   xmlns:cc="http://creativecommons.org/ns#"
   xmlns:rdf="http://www.w3.org/1999/02/22-rdf-syntax-ns#"
   xmlns:svg="http://www.w3.org/2000/svg"
   xmlns="http://www.w3.org/2000/svg"
   xmlns:sodipodi="http://sodipodi.sourceforge.net/DTD/sodipodi-0.dtd"
   xmlns:inkscape="http://www.inkscape.org/namespaces/inkscape"
   version="1.2"
   id="Layer_1"
   x="0px"
   y="0px"
   viewBox="0 0 24.803148 28.346457"
   xml:space="preserve"
   inkscape:version="0.91 r"
   sodipodi:docname="oshw-logo.svg"
   width="7mm"
   height="8mm"
   inkscape:export-filename="/home/zach/Documents/NeuroTinker/NeuroBytes-v09/oshw-logo.png"
   inkscape:export-xdpi="4996.5776"
   inkscape:export-ydpi="4996.5776"><metadata
     id="metadata4312"><rdf:RDF><cc:Work
         rdf:about=""><dc:format>image/svg+xml</dc:format><dc:type
           rdf:resource="http://purl.org/dc/dcmitype/StillImage" /><dc:title /></cc:Work></rdf:RDF></metadata><defs
     id="defs4310" /><sodipodi:namedview
     pagecolor="#ffffff"
     bordercolor="#666666"
     borderopacity="1"
     objecttolerance="10"
     gridtolerance="10"
     guidetolerance="10"
     inkscape:pageopacity="0"
     inkscape:pageshadow="2"
     inkscape:window-width="1920"
     inkscape:window-height="1053"
     id="namedview4308"
     showgrid="false"
     units="mm"
     inkscape:zoom="16.72109"
     inkscape:cx="-6.3993633"
     inkscape:cy="13.63269"
     inkscape:window-x="0"
     inkscape:window-y="0"
     inkscape:window-maximized="1"
     inkscape:current-layer="Layer_1" /><g
     id="g4314"
     transform="matrix(0.14359225,0,0,0.14359225,0,25.166529)"
     inkscape:export-xdpi="4996.5776"
     inkscape:export-ydpi="4996.5776"><path
       style="fill:#0099b0"
       inkscape:connector-curvature="0"
       id="path4272"
       d="m 152.336,-101.24432 -16.439,-3.057 c -0.4,-0.075 -0.838,-0.451 -0.973,-0.837 l -5.039,-11.756 c -0.188,-0.363 -0.152,-0.933 0.08,-1.271 l 9.578,-13.96 c 0.229,-0.336 0.184,-0.847 -0.105,-1.136 l -11.963,-11.963 c -0.289,-0.289 -0.799,-0.336 -1.135,-0.105 l -14.205,9.748 c -0.336,0.231 -0.912,0.272 -1.277,0.092 l -11.396,-4.665 c -0.387,-0.128 -0.764,-0.561 -0.84,-0.962 l -3.165,-17.003 c -0.074,-0.401 -0.469,-0.729 -0.877,-0.729 l -16.92,0 c -0.407,0 -0.802,0.328 -0.876,0.729 l -3.164,17.003 c -0.076,0.401 -0.452,0.834 -0.84,0.962 l -11.397,4.665 c -0.366,0.18 -0.942,0.139 -1.277,-0.092 l -14.204,-9.748 c -0.337,-0.231 -0.848,-0.184 -1.136,0.105 l -11.964,11.963 c -0.288,0.289 -0.336,0.8 -0.105,1.136 l 9.579,13.96 c 0.23,0.338 0.266,0.908 0.079,1.271 l -5.04,11.756 c -0.134,0.386 -0.571,0.762 -0.973,0.837 l -16.438,3.057 c -0.402,0.076 -0.729,0.47 -0.729,0.878 l 10e-4,16.919004 c 0,0.408 0.328,0.805 0.729,0.878 l 16.035,2.984 c 0.401,0.073 0.83,0.454 0.952,0.843 l 5.006,12.505 c 0.179,0.367 0.137,0.941 -0.095,1.277 l -9.108,13.273008 c -0.23,0.336 -0.183,0.848 0.105,1.137 l 11.965,11.963 c 0.288,0.287 0.799,0.334 1.136,0.105 l 13.038,-8.949 c 0.336,-0.23 0.899,-0.248 1.25,-0.043 l 5.75,3.07 c 0.364,0.186 0.789,0.029 0.945,-0.348 L 78.74,-73.399316 c 0.157,-0.377 0,-0.858 -0.348,-1.071 l -1.439,-0.881 c -0.266,-0.162 -0.627,-0.441 -0.91,-0.697 -5.191,-3.324 -8.635,-9.139 -8.635,-15.761 0,-10.334004 8.378,-18.711004 18.711,-18.711004 10.333,0 18.71,8.377 18.71,18.711004 0,6.622 -3.443,12.437 -8.635,15.761 -0.281,0.256 -0.643,0.535 -0.908,0.697 l -1.439,0.881 c -0.346,0.213 -0.504,0.694 -0.348,1.071 l 11.855,28.648008 c 0.156,0.377 0.58,0.533 0.945,0.348 l 5.75,-3.07 c 0.352,-0.205 0.914,-0.188 1.25,0.043 l 13.039,8.949 c 0.336,0.229 0.848,0.182 1.135,-0.105 l 11.965,-11.963 c 0.289,-0.289 0.336,-0.801 0.105,-1.137 l -9.109,-13.273008 c -0.23,-0.336 -0.273,-0.91 -0.094,-1.277 l 5.006,-12.505 c 0.123,-0.389 0.549,-0.77 0.951,-0.843 l 16.035,-2.984 c 0.4,-0.073 0.729,-0.47 0.729,-0.878 l 0.002,-16.919004 c 0.001,-0.409 -0.327,-0.803 -0.727,-0.879" /><path
       style="fill:#0099b0;fill-rule:evenodd"
       inkscape:connector-curvature="0"
       id="path4274"
       d="m 45.597,21.932692 3.613,0 0,-12.2540005 c 0,-4.426 -3.046,-5.914 -7.473,-5.914 -2.692,0 -4.675,0.707 -6.056,2.621 l 2.833,2.16 c 0.637,-1.027 1.523,-1.383 3.4,-1.383 2.585,0 3.683,0.604 3.683,2.303 l 0,1.8770005 -4.994,0 c -3.86,0 -5.843,2.445 -5.843,5.313 0,3.117 2.337,5.49 6.339,5.49 2.444,0 3.684,-0.566 4.427,-1.807 l 0.071,0 0,1.594 z m 0,-6.305 c 0,2.799 -1.027,3.117 -4.037,3.117 -2.444,0 -3.401,-1.063 -3.401,-2.266 0,-1.311 0.992,-2.162 3.118,-2.162 l 4.32,0 0,1.311 z" /><path
       style="fill:#0099b0;fill-rule:evenodd"
       inkscape:connector-curvature="0"
       id="path4276"
       d="m 53.178,21.932692 3.612,0 0,-10.803 c 0,-2.6190005 1.736,-3.7540005 3.507,-3.7540005 0.921,0 1.523,0.248 2.373,0.887 l 2.62,-3.117 c -1.098,-0.85 -2.301,-1.381 -3.754,-1.381 -1.912,0 -3.542,0.709 -4.675,2.125 l -0.071,0 0,-1.912 -3.612,0 0,17.9550005 z" /><path
       style="fill:#0099b0;fill-rule:evenodd"
       inkscape:connector-curvature="0"
       id="path4278"
       d="m 76.095,21.932692 3.612,0 0,-25.2170005 -3.612,0 0,9.174 c -1.346,-1.275 -2.798,-2.125 -4.64,-2.125 -2.196,0 -3.789,0.99 -4.816,2.338 -0.992,1.273 -1.275,2.441 -1.275,6.8360005 0,4.426 0.283,5.594 1.275,6.869 1.027,1.346 2.62,2.338 4.816,2.338 1.842,0 3.507,-0.852 4.64,-2.09 l 0,1.877 z M 72.553,7.3756915 c 3.365,0 3.542,2.9770005 3.542,5.5630005 0,2.621 -0.177,5.594 -3.542,5.594 -3.4,0 -3.577,-2.797 -3.577,-5.594 0,-2.764 0.177,-5.5630005 3.577,-5.5630005" /><polygon
       transform="translate(0,-158.84832)"
       style="fill:#0099b0;fill-rule:evenodd"
       id="polygon4280"
       points="87.377,180.781 90.564,180.781 94.318,168.208 94.389,168.208 98.143,180.781 101.332,180.781 107.068,162.826 103.242,162.826 99.809,175.398 99.736,175.398 95.664,162.826 93.043,162.826 88.971,175.398 88.9,175.398 85.464,162.826 81.64,162.826 " /><path
       style="fill:#0099b0;fill-rule:evenodd"
       inkscape:connector-curvature="0"
       id="path4282"
       d="m 118.186,21.932692 3.613,0 0,-12.2540005 c 0,-4.426 -3.047,-5.914 -7.473,-5.914 -2.691,0 -4.676,0.707 -6.057,2.621 l 2.834,2.16 c 0.637,-1.027 1.521,-1.383 3.398,-1.383 2.586,0 3.684,0.604 3.684,2.303 l 0,1.8770005 -4.994,0 c -3.859,0 -5.844,2.445 -5.844,5.313 0,3.117 2.338,5.49 6.34,5.49 2.443,0 3.684,-0.566 4.428,-1.807 l 0.07,0 0,1.594 z m 0,-6.305 c 0,2.799 -1.027,3.117 -4.037,3.117 -2.443,0 -3.4,-1.063 -3.4,-2.266 0,-1.311 0.992,-2.162 3.117,-2.162 l 4.32,0 0,1.311 z" /><path
       style="fill:#0099b0;fill-rule:evenodd"
       inkscape:connector-curvature="0"
       id="path4284"
       d="m 125.768,21.932692 3.611,0 0,-10.803 c 0,-2.6190005 1.734,-3.7540005 3.506,-3.7540005 0.922,0 1.523,0.248 2.373,0.887 l 2.621,-3.117 c -1.098,-0.85 -2.303,-1.381 -3.754,-1.381 -1.912,0 -3.541,0.709 -4.674,2.125 l -0.072,0 0,-1.912 -3.611,0 0,17.9550005 z" /><path
       style="fill:#0099b0;fill-rule:evenodd"
       inkscape:connector-curvature="0"
       id="path4286"
       d="m 152.748,14.318692 0,-2.977 c 0,-4.6390005 -3.434,-7.5780005 -7.4,-7.5780005 -3.471,0 -7.402,2.266 -7.402,9.2420005 0,7.367 4.285,9.139 7.969,9.139 2.408,0 4.709,-0.85 6.48,-2.904 l -2.621,-2.232 c -1.063,1.1 -2.551,1.736 -3.93,1.736 -2.48,0 -4.285,-1.488 -4.285,-4.426 l 11.189,0 z m -11.189,-2.976 c 0.07,-2.7270005 1.664,-4.1800005 3.789,-4.1800005 2.125,0 3.684,1.453 3.789,4.1800005 l -7.578,0 z" /><path
       style="fill:#0099b0;fill-rule:evenodd"
       inkscape:connector-curvature="0"
       id="path4288"
       d="m 0,-15.423308 c 0,3.895 0.566,5.383 1.947,6.9059995 0.992,1.098 2.657,2.301 5.455,2.301 2.797,0 4.462,-1.203 5.454,-2.301 1.381,-1.5229995 1.948,-3.0119995 1.948,-6.9059995 0,-3.861 -0.567,-5.348 -1.948,-6.871 -0.992,-1.098 -2.657,-2.303 -5.454,-2.303 -2.798,0 -4.463,1.205 -5.455,2.303 -1.381,1.524 -1.947,3.01 -1.947,6.871 m 11.191,0.035 c 0,2.586 -0.212,3.293 -0.885,4.25 -0.532,0.744 -1.665,1.3109995 -2.904,1.3109995 -1.24,0 -2.373,-0.5659995 -2.904,-1.3109995 -0.673,-0.957 -0.886,-1.664 -0.886,-4.285 0,-2.586 0.213,-3.295 0.886,-4.25 0.531,-0.744 1.664,-1.311 2.904,-1.311 1.239,0 2.372,0.566 2.904,1.311 0.673,0.955 0.885,1.664 0.885,4.285" /><path
       style="fill:#0099b0;fill-rule:evenodd"
       inkscape:connector-curvature="0"
       id="path4290"
       d="m 49.469,-14.042308 0,-2.975 c 0,-4.641 -3.435,-7.58 -7.401,-7.58 -3.472,0 -7.402,2.268 -7.402,9.244 0,7.3649995 4.285,9.1369995 7.968,9.1369995 2.409,0 4.71,-0.85 6.481,-2.904 l -2.621,-2.2299995 c -1.062,1.098 -2.549,1.7359995 -3.93,1.7359995 -2.48,0 -4.286,-1.4879995 -4.286,-4.4279995 l 11.191,0 z m -11.191,-2.974 c 0.071,-2.729 1.665,-4.18 3.79,-4.18 2.125,0 3.683,1.451 3.789,4.18 l -7.579,0 z" /><path
       style="fill:#0099b0;fill-rule:evenodd"
       inkscape:connector-curvature="0"
       id="path4292"
       d="m 52.552,-6.4293085 3.612,0 0,-10.6929995 c 0,-2.445 1.523,-3.861 3.577,-3.861 2.019,0 3.542,1.416 3.542,3.861 l 0,10.6929995 3.612,0 0,-11.9339995 c 0,-4.074 -3.187,-6.234 -5.985,-6.234 -1.912,0 -3.542,0.709 -4.674,2.125 l -0.072,0 0,-1.912 -3.612,0 0,17.9549995 z" /><path
       style="fill:#0099b0;fill-rule:evenodd"
       inkscape:connector-curvature="0"
       id="path4294"
       d="m 76.662,-9.4383085 c 2.302,2.16 4.994,3.223 7.898,3.223 4.179,0 7.437,-2.018 7.437,-5.5249995 0,-2.867 -1.486,-5.135 -5.206,-5.383 l -2.975,-0.211 c -1.806,-0.143 -2.372,-0.922 -2.372,-1.701 0,-1.238 0.779,-2.16 3.08,-2.16 1.949,0 3.402,0.674 4.818,1.664 l 2.23,-2.619 c -1.771,-1.488 -3.895,-2.445 -7.049,-2.445 -3.789,0 -6.693,1.877 -6.693,5.525 0,3.08 2.196,4.852 5.17,5.1 l 3.188,0.283 c 1.241,0.105 2.196,0.496 2.196,1.771 0,1.523 -1.489,2.3009995 -3.542,2.3009995 -2.408,0 -4.108,-0.7769995 -5.666,-2.3009995 l -2.514,2.4779995 z" /><path
       style="fill:#0099b0;fill-rule:evenodd"
       inkscape:connector-curvature="0"
       id="path4296"
       d="m 94.051,-15.423308 c 0,3.895 0.568,5.383 1.949,6.9059995 0.992,1.098 2.656,2.301 5.453,2.301 2.799,0 4.463,-1.203 5.455,-2.301 1.381,-1.5229995 1.947,-3.0119995 1.947,-6.9059995 0,-3.861 -0.566,-5.348 -1.947,-6.871 -0.992,-1.098 -2.656,-2.303 -5.455,-2.303 -2.797,0 -4.461,1.205 -5.453,2.303 -1.381,1.524 -1.949,3.01 -1.949,6.871 m 11.191,0.035 c 0,2.586 -0.211,3.293 -0.885,4.25 -0.531,0.744 -1.664,1.3109995 -2.904,1.3109995 -1.238,0 -2.373,-0.5659995 -2.902,-1.3109995 -0.674,-0.957 -0.887,-1.664 -0.887,-4.285 0,-2.586 0.213,-3.295 0.887,-4.25 0.529,-0.744 1.664,-1.311 2.902,-1.311 1.24,0 2.373,0.566 2.904,1.311 0.674,0.955 0.885,1.664 0.885,4.285" /><path
       style="fill:#0099b0;fill-rule:evenodd"
       inkscape:connector-curvature="0"
       id="path4298"
       d="m 111.939,-12.448308 c 0,4.0719995 3.188,6.2319995 6.021,6.2319995 1.875,0 3.506,-0.709 4.639,-2.125 l 0.07,0 0,1.914 3.611,0 0,-17.9569995 -3.611,0 0,10.695 c 0,2.443 -1.523,3.8609995 -3.543,3.8609995 -2.053,0 -3.576,-1.4179995 -3.576,-3.8609995 l 0,-10.695 -3.611,0 0,11.936 z" /><path
       style="fill:#0099b0;fill-rule:evenodd"
       inkscape:connector-curvature="0"
       id="path4300"
       d="m 130.242,-6.4293085 3.613,0 0,-10.8009995 c 0,-2.621 1.734,-3.754 3.506,-3.754 0.922,0 1.523,0.248 2.373,0.885 l 2.621,-3.117 c -1.1,-0.85 -2.301,-1.381 -3.754,-1.381 -1.912,0 -3.543,0.709 -4.676,2.125 l -0.07,0 0,-1.912 -3.613,0 0,17.9549995 z" /><path
       style="fill:#0099b0;fill-rule:evenodd"
       inkscape:connector-curvature="0"
       id="path4302"
       d="m 153.859,-11.704308 c -0.885,1.098 -2.16,1.8769995 -3.646,1.8769995 -2.939,0 -4.676,-1.6659995 -4.676,-5.5629995 0,-3.93 1.736,-5.594 4.676,-5.594 1.486,0 2.762,0.779 3.646,1.877 l 2.656,-2.373 c -1.557,-1.807 -3.719,-3.117 -6.445,-3.117 -4.143,0 -8.145,2.621 -8.145,9.207 0,6.5549995 4.002,9.1739995 8.145,9.1739995 2.727,0 4.889,-1.311 6.445,-3.115 l -2.656,-2.3729995 z" /><path
       style="fill:#0099b0;fill-rule:evenodd"
       inkscape:connector-curvature="0"
       id="path4304"
       d="m 172.238,-14.042308 0,-2.975 c 0,-4.641 -3.438,-7.58 -7.402,-7.58 -3.473,0 -7.402,2.268 -7.402,9.244 0,7.3649995 4.285,9.1369995 7.969,9.1369995 2.408,0 4.711,-0.85 6.48,-2.904 l -2.621,-2.2299995 c -1.063,1.098 -2.549,1.7359995 -3.93,1.7359995 -2.48,0 -4.285,-1.4879995 -4.285,-4.4279995 l 11.191,0 z m -11.191,-2.974 c 0.07,-2.729 1.664,-4.18 3.789,-4.18 2.125,0 3.682,1.451 3.789,4.18 l -7.578,0 z" /><path
       style="fill:#0099b0"
       inkscape:connector-curvature="0"
       id="path4306"
       d="m 25.041,-9.8273085 c 3.4,0 3.577,-2.7989995 3.577,-5.5609995 0,-2.799 -0.177,-5.596 -3.577,-5.596 -3.364,0 -3.542,2.975 -3.542,5.596 0,2.586 0.177,5.5609995 3.542,5.5609995 m -7.168,31.7600005 0,-46.316 3.626,0 0,1.877 c 1.134,-1.24 2.798,-2.09 4.64,-2.09 2.195,0 3.79,0.992 4.817,2.338 0.991,1.275 1.274,2.443 1.274,6.871 0,4.391 -0.283,5.5609995 -1.274,6.8339995 -1.027,1.346 -2.622,2.338 -4.817,2.338 -1.842,0 -3.294,-0.85 -4.64,-2.125 l -0.013,14.23 c 1.204,-1.416 2.833,-2.125 4.745,-2.125 2.798,0 5.985,2.16 5.985,6.232 l 0,11.9360005 -3.612,0 0,-10.695 c 0,-2.4450005 -1.523,-3.8610005 -3.542,-3.8610005 -2.054,0 -3.576,1.416 -3.576,3.8610005 l 0,10.695 -3.613,0 z" /></g></svg>