<?xml version="1.0" encoding="UTF-8" standalone="no"?>
<!-- Created with Inkscape (http://www.inkscape.org/) -->

<svg
   xmlns:dc="http://purl.org/dc/elements/1.1/"
   xmlns:cc="http://creativecommons.org/ns#"
   xmlns:rdf="http://www.w3.org/1999/02/22-rdf-syntax-ns#"
   xmlns:svg="http://www.w3.org/2000/svg"
   xmlns="http://www.w3.org/2000/svg"
   xmlns:sodipodi="http://sodipodi.sourceforge.net/DTD/sodipodi-0.dtd"
   xmlns:inkscape="http://www.inkscape.org/namespaces/inkscape"
   width="176mm"
   height="125mm"
   viewBox="0 0 623.62202 442.9134"
   id="svg2"
   version="1.1"
   inkscape:version="0.91 r"
   sodipodi:docname="v09_outline.svg">
  <defs
     id="defs4">
    <clipPath
       id="clipPath4517"
       clipPathUnits="userSpaceOnUse">
      <path
         inkscape:connector-curvature="0"
         id="path4519"
         d="M 0,288 288,288 288,0 0,0 0,288 Z" />
    </clipPath>
    <clipPath
       id="clipPath4525"
       clipPathUnits="userSpaceOnUse">
      <path
         inkscape:connector-curvature="0"
         id="path4527"
         d="M -3.05176e-5,288 288,288 l 0,-288.113495 -288.0000305176,0 0,288.113495 z" />
    </clipPath>
    <clipPath
       id="clipPath5260"
       clipPathUnits="userSpaceOnUse">
      <path
         inkscape:connector-curvature="0"
         id="path5262"
         d="m 0,293.985 612,0 L 612,0 0,0 0,293.985 Z" />
    </clipPath>
    <clipPath
       id="clipPath5530"
       clipPathUnits="userSpaceOnUse">
      <path
         inkscape:connector-curvature="0"
         id="path5532"
         d="m 41.4501,290.635 538.6679,0 0,-288.635 -538.6679,0 0,288.635 z" />
    </clipPath>
  </defs>
  <sodipodi:namedview
     id="base"
     pagecolor="#ffffff"
     bordercolor="#666666"
     borderopacity="1.0"
     inkscape:pageopacity="0.0"
     inkscape:pageshadow="2"
     inkscape:zoom="2.8284271"
     inkscape:cx="259.49233"
     inkscape:cy="237.27288"
     inkscape:document-units="mm"
     inkscape:current-layer="layer1"
     showgrid="false"
     showborder="true"
     units="mm"
     showguides="true"
     inkscape:guide-bbox="true"
     inkscape:window-width="1366"
     inkscape:window-height="716"
     inkscape:window-x="0"
     inkscape:window-y="0"
     inkscape:window-maximized="1">
    <sodipodi:guide
       position="392.99997,463.00001"
       orientation="1,0"
       id="guide4359" />
    <sodipodi:guide
       position="582.99995,332.00001"
       orientation="1,0"
       id="guide4361" />
    <sodipodi:guide
       position="211.74998,231.5"
       orientation="0.84279299,0.53823784"
       id="guide5694" />
    <sodipodi:guide
       position="360.62443,245.85219"
       orientation="1,0"
       id="guide5699" />
    <sodipodi:guide
       position="336.47231,272.08144"
       orientation="0.68925493,0.72451891"
       id="guide5703" />
    <sodipodi:guide
       position="335.1484,271.0625"
       orientation="0,1"
       id="guide5705" />
    <sodipodi:guide
       position="335.99722,201.58067"
       orientation="0,1"
       id="guide5707" />
    <sodipodi:guide
       position="359.39059,224.28125"
       orientation="0.68974918,-0.72404839"
       id="guide5713" />
    <sodipodi:guide
       position="160.93749,208"
       orientation="1,0"
       id="guide5810" />
  </sodipodi:namedview>
  <metadata
     id="metadata7">
    <rdf:RDF>
      <cc:Work
         rdf:about="">
        <dc:format>image/svg+xml</dc:format>
        <dc:type
           rdf:resource="http://purl.org/dc/dcmitype/StillImage" />
        <dc:title />
      </cc:Work>
    </rdf:RDF>
  </metadata>
  <g
     inkscape:label="v08 board outline"
     inkscape:groupmode="layer"
     id="layer1"
     transform="translate(0,-609.44873)"
     style="display:none">
    <g
       id="g4336"
       transform="matrix(0,0.00899999,-0.00899999,0,717.91108,-71.347809)">
      <g
         id="g4288"
         style="fill:#000000;fill-opacity:1;stroke:#000000;stroke-linecap:round;stroke-linejoin:round;stroke-opacity:1" />
      <g
         id="g4290"
         style="fill:#000000;fill-opacity:0;stroke:#000000;stroke-width:-0.0003937;stroke-linecap:round;stroke-linejoin:round;stroke-opacity:1" />
      <g
         id="g4292"
         style="fill:#000000;fill-opacity:0;stroke:#000000;stroke-width:98.42520142;stroke-linecap:round;stroke-linejoin:round;stroke-opacity:1">
        <path
           id="path4294"
           d="m 108267,24409 0,11811"
           inkscape:connector-curvature="0" />
        <path
           id="path4296"
           d="m 108267,18110 0,-3937"
           inkscape:connector-curvature="0" />
        <path
           id="path4298"
           d="m 104330,24409 3937,0"
           inkscape:connector-curvature="0" />
        <path
           id="path4300"
           d="m 104330,18110 0,6299"
           inkscape:connector-curvature="0" />
        <path
           id="path4302"
           d="m 108267,18110 -3937,0"
           inkscape:connector-curvature="0" />
        <circle
           id="circle4304"
           r="590.55103"
           cy="36220.5"
           cx="91732.297" />
        <circle
           id="circle4306"
           r="590.55103"
           cy="36220.5"
           cx="106299" />
        <circle
           id="circle4308"
           r="590.55103"
           cy="14173.2"
           cx="106299" />
        <circle
           id="circle4310"
           r="590.55103"
           cy="14173.2"
           cx="91732.297" />
        <path
           id="path4312"
           d="m 91732,12204 14567,0"
           inkscape:connector-curvature="0" />
        <path
           id="path4314"
           d="m 89763,36220 0,-22047"
           inkscape:connector-curvature="0" />
        <path
           id="path4316"
           d="m 106299,38188 -14567,0"
           inkscape:connector-curvature="0" />
        <path
           id="path4318"
           d="m 106299,38189 a 1968.5,1968.5 0 0 0 1969,-1968.5"
           inkscape:connector-curvature="0" />
        <path
           id="path4320"
           d="M 89763.8,36220.5 A 1968.5,1968.5 0 0 0 91732.3,38189"
           inkscape:connector-curvature="0" />
        <path
           id="path4322"
           d="m 91732.3,12204.7 a 1968.5,1968.5 0 0 0 -1968.5,1968.5"
           inkscape:connector-curvature="0" />
        <path
           id="path4324"
           d="m 108268,14173.2 a 1968.5,1968.5 0 0 0 -1969,-1968.5"
           inkscape:connector-curvature="0" />
      </g>
      <g
         id="g4326"
         style="fill:#000000;fill-opacity:1;stroke:#000000;stroke-width:3.93701005;stroke-linecap:round;stroke-linejoin:round;stroke-opacity:1">
        <polyline
           id="polyline4328"
           points="92883,32433 92903,32406 92948,32369 93023,32316 93118,32252 93321,32120 93523,31995 93735,31873 93969,31746 94236,31608 94289,31581 94507,31466 94680,31364 94812,31272 94904,31188 94960,31108 94982,31030 94973,30951 94955,30906 94899,30831 94804,30751 94761,30722 94675,30672 94568,30618 94454,30566 94344,30520 94250,30487 94186,30472 94177,30471 94143,30455 94139,30440 94146,30412 94169,30340 94204,30229 94251,30083 94309,29906 94375,29702 94450,29476 94530,29232 94616,28973 94628,28936 94717,28670 94801,28413 94881,28171 94954,27947 95019,27747 95074,27575 95118,27436 95149,27335 95166,27276 95166,27275 95172,27252 95177,27227 95181,27197 95186,27162 95190,27117 95193,27063 95197,26996 95199,26914 95202,26815 95204,26697 95206,26558 95208,26395 95209,26207 95210,25991 95211,25746 95212,25469 95213,25157 95213,24809 95214,24424 95214,23997 95214,23528 95214,23014 95215,22454 95215,22186 95216,17284 96383,16065 97551,14847 99951,14848 101139,16095 102326,17341 102351,26709 102416,26846 102436,26888 102457,26927 102483,26968 102516,27015 102560,27070 102616,27137 102689,27219 102781,27320 102895,27443 103034,27592 103200,27769 103398,27978 103448,28031 103605,28198 103751,28354 103883,28495 103997,28617 104088,28718 104155,28792 104193,28837 104201,28848 104184,28869 104134,28921 104055,28999 103953,29099 103829,29219 103690,29352 103538,29497 103527,29508 103371,29657 103224,29798 103092,29928 102978,30042 102888,30135 102825,30202 102794,30241 102752,30349 102741,30484 102759,30631 102805,30777 102826,30821 102923,30989 103056,31181 103219,31391 103406,31613 103614,31842 103837,32073 104069,32298 104306,32513 104357,32557 104451,32638 104530,32709 104585,32762 104611,32790 104613,32793 104597,32816 104554,32871 104489,32950 104408,33048 104344,33124 104276,33203 104181,33316 104061,33457 103922,33622 103766,33807 103599,34005 103423,34213 103244,34425 103154,34532 102981,34736 102815,34930 102660,35111 102518,35274 102393,35417 102288,35535 102206,35625 102150,35683 102129,35702 101961,35806 101767,35893 101571,35954 101549,35959 101494,35968 101410,35977 101294,35985 101143,35994 100956,36003 100729,36012 100460,36022 100146,36033 99786,36044 99726,36046 99438,36055 99161,36063 98900,36070 98659,36077 98443,36083 98256,36088 98104,36092 97991,36095 97922,36096 97909,36096 97847,36096 97847,35971 98011,35971 98065,35970 98164,35968 98304,35964 98479,35959 98685,35954 98917,35947 99170,35940 99440,35932 99722,35924 99776,35922 100103,35912 100385,35904 100624,35896 100826,35888 100993,35881 101131,35875 101244,35868 101334,35861 101408,35853 101467,35845 101517,35836 101562,35826 101572,35823 101769,35760 101934,35678 102083,35567 102183,35471 102223,35427 102290,35351 102381,35247 102491,35118 102619,34969 102761,34802 102913,34623 103073,34434 103237,34239 103403,34043 103567,33848 103726,33659 103876,33480 104015,33313 104140,33163 104247,33034 104333,32929 104395,32853 104430,32808 104437,32797 104418,32777 104368,32731 104295,32665 104204,32587 104186,32571 103977,32385 103753,32167 103523,31931 103299,31685 103253,31634 103044,31381 102877,31151 102752,30942 102667,30751 102622,30576 102616,30415 102648,30266 102663,30227 102683,30188 102712,30144 102754,30092 102812,30026 102891,29944 102994,29842 103124,29715 103285,29561 103380,29471 104041,28842 103846,28638 103680,28463 103510,28284 103340,28104 103174,27928 103016,27760 102871,27604 102741,27465 102631,27345 102545,27251 102486,27186 102463,27159 102336,26963 102256,26754 102241,26685 102237,26644 102234,26566 102231,26449 102228,26291 102225,26093 102223,25852 102221,25570 102219,25243 102217,24873 102216,24457 102215,23995 102214,23486 102214,22929 102214,22324 102214,21972 102214,17407 101057,16191 99901,14976 98751,14975 97601,14974 97251,15344 97157,15443 97034,15572 96888,15725 96724,15896 96550,16078 96370,16266 96191,16453 96120,16527 95339,17342 95338,22200 95338,22790 95338,23332 95338,23828 95337,24280 95337,24690 95336,25060 95335,25393 95334,25690 95333,25954 95332,26186 95330,26389 95328,26564 95326,26713 95324,26840 95321,26945 95318,27031 95315,27100 95311,27153 95307,27194 95303,27223 95301,27231 95287,27286 95258,27383 95216,27518 95163,27687 95100,27884 95029,28105 94950,28345 94867,28600 94779,28865 94777,28872 94691,29132 94609,29377 94534,29604 94466,29808 94408,29986 94359,30134 94322,30247 94299,30321 94289,30352 94289,30353 94310,30367 94364,30392 94407,30409 94605,30493 94777,30586 94918,30684 95023,30783 95087,30879 95101,30920 95111,31028 95089,31126 95028,31226 94943,31321 94881,31378 94813,31432 94731,31486 94625,31547 94488,31620 94376,31677 94223,31755 94068,31836 93923,31913 93800,31980 93730,32019 93632,32077 93522,32144 93407,32215 93295,32286 93195,32350 93113,32405 93059,32443 93039,32460 93051,32482 93086,32543 93142,32638 93215,32763 93304,32914 93405,33085 93517,33274 93636,33475 93759,33684 93885,33896 94011,34108 94134,34315 94251,34513 94360,34697 94459,34862 94544,35006 94613,35122 94665,35207 94695,35257 94702,35268 94725,35259 94784,35229 94872,35181 94980,35121 95056,35077 95437,34863 95785,34685 96100,34542 96383,34434 96637,34360 96862,34320 97059,34314 97231,34342 97377,34403 97501,34497 97532,34530 97584,34600 97630,34685 97669,34790 97705,34920 97737,35082 97768,35279 97798,35519 97817,35690 97847,35971 97847,36096 97742,36096 97728,35990 97721,35930 97709,35831 97693,35704 97676,35559 97663,35450 97630,35211 97597,35016 97560,34862 97519,34743 97472,34655 97447,34621 97348,34530 97227,34468 97083,34436 96914,34435 96719,34465 96496,34526 96244,34618 95959,34743 95642,34901 95291,35091 95128,35183 94991,35261 94869,35330 94768,35385 94696,35424 94658,35442 94653,35443 94640,35420 94603,35358 94545,35260 94467,35130 94373,34971 94264,34786 94141,34580 94008,34355 93867,34116 93789,33984 93642,33737 93503,33501 93372,33281 93253,33080 93147,32901 93057,32749 92985,32628 92932,32540 92902,32489 92896,32479 92883,32455 92883,32433 "
           style="fill-rule:evenodd" />
      </g>
    </g>
    <g
       transform="matrix(1.25,0,0,-1.25,4.99997,1001.3621)"
       inkscape:label="NT_SquareLogo_Good"
       id="g4511" />
    <g
       inkscape:groupmode="layer"
       id="layer2"
       inkscape:label="NT logo"
       style="display:none">
      <g
         transform="matrix(0.36579302,0,0,-0.36579302,146.01378,869.52744)"
         inkscape:label="Final_Rectangle_Logo (4)"
         id="g5250">
        <g
           transform="translate(265.4239,229.4406)"
           id="g5252">
          <path
             inkscape:connector-curvature="0"
             id="path5254"
             style="fill:#5967cc;fill-opacity:1;fill-rule:nonzero;stroke:none"
             d="m 0,0 15.14,0 23.791,-41.649 0.309,42.17 15.757,0 0,-80.062 -14.83,0 -24.409,46.086 0,-45.403 L 0,-78.858 0,0 Z" />
        </g>
        <g
           id="g5256">
          <g
             clip-path="url(#clipPath5260)"
             id="g5258">
            <g
               transform="translate(346.7757,183.9084)"
               id="g5264">
              <path
                 inkscape:connector-curvature="0"
                 id="path5266"
                 style="fill:#5967cc;fill-opacity:1;fill-rule:nonzero;stroke:none"
                 d="m 0,0 0,-10.882 c 0,-2.524 0.71,-4.469 2.129,-5.836 1.42,-1.367 3.338,-2.05 5.757,-2.05 3.049,0 5.073,0.893 6.072,2.681 0.999,1.787 1.603,3.575 1.814,5.362 l 16.087,0 c 0,-3.364 -0.552,-6.519 -1.656,-9.463 -1.104,-2.944 -2.708,-5.467 -4.811,-7.57 -2.103,-2.208 -4.626,-3.943 -7.57,-5.205 -2.944,-1.261 -6.256,-1.892 -9.936,-1.892 -4.942,0 -9.2,1.051 -12.775,3.154 -3.575,2.103 -6.309,4.889 -8.201,8.359 -1.157,2.103 -1.946,4.521 -2.366,7.255 -0.421,2.734 -0.631,5.73 -0.631,8.99 l 0,26.338 c 0,3.26 0.21,6.256 0.631,8.99 0.42,2.734 1.209,5.152 2.366,7.255 1.892,3.47 4.626,6.256 8.201,8.359 C -1.314,45.948 2.944,47 7.886,47 c 3.68,0 7.018,-0.631 10.015,-1.893 2.996,-1.262 5.52,-3.023 7.57,-5.284 2.051,-2.26 3.628,-4.915 4.732,-7.964 1.104,-3.05 1.656,-6.309 1.656,-9.779 L 31.859,0 0,0 Z m 0,12.617 15.772,0 0,9.148 c 0,3.049 -0.71,5.336 -2.13,6.861 -1.419,1.524 -3.338,2.286 -5.756,2.286 -2.419,0 -4.337,-0.762 -5.757,-2.286 C 0.71,27.101 0,24.814 0,21.765 l 0,-9.148 z" />
            </g>
            <g
               transform="translate(436.6188,149.9994)"
               id="g5268">
              <path
                 inkscape:connector-curvature="0"
                 id="path5270"
                 style="fill:#5967cc;fill-opacity:1;fill-rule:nonzero;stroke:none"
                 d="m 0,0 -16.087,0 0,7.728 -0.316,0 c -1.682,-2.523 -3.706,-4.6 -6.072,-6.23 -2.365,-1.63 -5.388,-2.444 -9.068,-2.444 -1.998,0 -3.996,0.341 -5.994,1.025 -1.997,0.683 -3.785,1.814 -5.362,3.391 -1.577,1.577 -2.839,3.601 -3.785,6.072 -0.946,2.471 -1.42,5.494 -1.42,9.069 l 0,61.351 16.088,0 0,-55.358 c 0,-2.944 0.683,-5.258 2.05,-6.94 1.367,-1.682 3.312,-2.523 5.835,-2.523 3.05,0 5.152,0.946 6.309,2.839 1.157,1.892 1.735,4.626 1.735,8.201 l 0,53.781 L 0,79.962 0,0 Z" />
            </g>
            <g
               transform="translate(449.867,229.9617)"
               id="g5272">
              <path
                 inkscape:connector-curvature="0"
                 id="path5274"
                 style="fill:#5967cc;fill-opacity:1;fill-rule:nonzero;stroke:none"
                 d="m 0,0 16.087,0 0,-8.517 c 3.259,2.944 6.466,5.258 9.621,6.94 3.154,1.682 7.044,2.523 11.671,2.523 l 0,-17.033 c -1.577,0.631 -3.207,0.946 -4.889,0.946 -1.683,0 -3.496,-0.289 -5.442,-0.867 -1.945,-0.578 -3.732,-1.551 -5.362,-2.918 -1.63,-1.367 -2.97,-3.154 -4.022,-5.362 -1.051,-2.208 -1.577,-4.942 -1.577,-8.202 l 0,-47.472 L 0,-79.962 0,0 Z" />
            </g>
            <g
               transform="translate(491.3464,203.1498)"
               id="g5276">
              <path
                 inkscape:connector-curvature="0"
                 id="path5278"
                 style="fill:#5967cc;fill-opacity:1;fill-rule:nonzero;stroke:none"
                 d="m 0,0 c 0,3.259 0.21,6.256 0.631,8.99 0.42,2.734 1.209,5.152 2.366,7.255 1.892,3.47 4.626,6.256 8.201,8.359 3.575,2.103 7.833,3.154 12.775,3.154 4.942,0 9.2,-1.051 12.775,-3.154 3.575,-2.103 6.309,-4.889 8.201,-8.359 1.157,-2.103 1.945,-4.521 2.366,-7.255 0.42,-2.734 0.631,-5.731 0.631,-8.99 l 0,-26.339 c 0,-3.259 -0.211,-6.256 -0.631,-8.989 -0.421,-2.734 -1.209,-5.152 -2.366,-7.255 -1.892,-3.47 -4.626,-6.256 -8.201,-8.359 -3.575,-2.103 -7.833,-3.155 -12.775,-3.155 -4.942,0 -9.2,1.052 -12.775,3.155 -3.575,2.103 -6.309,4.889 -8.201,8.359 -1.157,2.103 -1.946,4.521 -2.366,7.255 C 0.21,-32.595 0,-29.598 0,-26.339 L 0,0 Z m 16.087,-28.862 c 0,-3.049 0.71,-5.336 2.129,-6.861 1.42,-1.524 3.339,-2.287 5.757,-2.287 2.418,0 4.337,0.763 5.757,2.287 1.419,1.525 2.129,3.812 2.129,6.861 l 0,31.385 c 0,3.05 -0.71,5.337 -2.129,6.861 -1.42,1.525 -3.339,2.287 -5.757,2.287 -2.418,0 -4.337,-0.762 -5.757,-2.287 C 16.797,7.86 16.087,5.573 16.087,2.523 l 0,-31.385 z" />
            </g>
            <g
               transform="translate(282.4431,119.4235)"
               id="g5280">
              <path
                 inkscape:connector-curvature="0"
                 id="path5282"
                 style="fill:#ebdc00;fill-opacity:1;fill-rule:nonzero;stroke:none"
                 d="m 0,0 -17.124,0 0,13.931 49.049,0 0,-13.931 -17.123,0 0,-59.642 L 0,-59.642 0,0 Z" />
            </g>
            <path
               inkscape:connector-curvature="0"
               id="path5284"
               style="fill:#ebdc00;fill-opacity:1;fill-rule:nonzero;stroke:none"
               d="m 321.312,133.355 14.802,0 0,-73.573 -14.802,0 0,73.573 z" />
            <g
               transform="translate(344.4072,133.3546)"
               id="g5286">
              <path
                 inkscape:connector-curvature="0"
                 id="path5288"
                 style="fill:#ebdc00;fill-opacity:1;fill-rule:nonzero;stroke:none"
                 d="m 0,0 14.802,0 0,-7.111 0.29,0 c 1.548,2.322 3.41,4.233 5.587,5.732 2.177,1.5 4.958,2.25 8.344,2.25 1.838,0 3.676,-0.315 5.514,-0.944 1.838,-0.628 3.483,-1.668 4.934,-3.12 1.451,-1.451 2.612,-3.313 3.483,-5.586 0.871,-2.274 1.306,-5.055 1.306,-8.345 l 0,-56.449 -14.802,0 0,50.935 c 0,2.709 -0.629,4.837 -1.886,6.385 -1.258,1.548 -3.048,2.322 -5.369,2.322 -2.806,0 -4.741,-0.871 -5.805,-2.612 -1.064,-1.742 -1.596,-4.257 -1.596,-7.546 l 0,-49.484 L 0,-73.573 0,0 Z" />
            </g>
            <g
               transform="translate(398.9091,133.3546)"
               id="g5290">
              <path
                 inkscape:connector-curvature="0"
                 id="path5292"
                 style="fill:#ebdc00;fill-opacity:1;fill-rule:nonzero;stroke:none"
                 d="m 0,0 14.802,0 0,-32.07 0.29,0 L 32.941,0 47.743,0 30.184,-29.894 l 21.187,-43.679 -16.108,0 -13.351,31.78 -7.11,-11.174 0,-20.606 L 0,-73.573 0,0 Z" />
            </g>
            <g
               transform="translate(467.1131,90.981)"
               id="g5294">
              <path
                 inkscape:connector-curvature="0"
                 id="path5296"
                 style="fill:#ebdc00;fill-opacity:1;fill-rule:nonzero;stroke:none"
                 d="m 0,0 0,-10.013 c 0,-2.322 0.653,-4.112 1.959,-5.369 1.306,-1.258 3.072,-1.887 5.297,-1.887 2.805,0 4.668,0.823 5.587,2.467 0.919,1.645 1.475,3.289 1.669,4.934 l 14.801,0 c 0,-3.096 -0.508,-5.998 -1.523,-8.707 -1.016,-2.708 -2.492,-5.03 -4.426,-6.965 -1.935,-2.032 -4.257,-3.628 -6.966,-4.789 -2.709,-1.161 -5.756,-1.741 -9.142,-1.741 -4.547,0 -8.465,0.967 -11.755,2.902 -3.289,1.935 -5.804,4.498 -7.546,7.691 -1.064,1.935 -1.789,4.16 -2.176,6.675 -0.387,2.516 -0.581,5.273 -0.581,8.272 l 0,24.234 c 0,2.999 0.194,5.756 0.581,8.272 0.387,2.515 1.112,4.74 2.176,6.675 1.742,3.192 4.257,5.756 7.546,7.691 3.29,1.935 7.208,2.902 11.755,2.902 3.386,0 6.457,-0.58 9.215,-1.741 2.757,-1.161 5.079,-2.781 6.965,-4.861 1.887,-2.08 3.338,-4.523 4.354,-7.329 1.015,-2.805 1.523,-5.804 1.523,-8.997 L 29.313,0 0,0 Z m 0,11.609 14.512,0 0,8.417 c 0,2.805 -0.653,4.91 -1.96,6.312 -1.306,1.403 -3.071,2.105 -5.296,2.105 -2.225,0 -3.991,-0.702 -5.297,-2.105 C 0.653,24.936 0,22.831 0,20.026 l 0,-8.417 z" />
            </g>
            <g
               transform="translate(507.31,133.3546)"
               id="g5298">
              <path
                 inkscape:connector-curvature="0"
                 id="path5300"
                 style="fill:#ebdc00;fill-opacity:1;fill-rule:nonzero;stroke:none"
                 d="m 0,0 14.802,0 0,-7.836 c 2.999,2.709 5.949,4.837 8.852,6.385 2.902,1.548 6.481,2.322 10.738,2.322 l 0,-15.673 c -1.451,0.581 -2.95,0.871 -4.498,0.871 -1.548,0 -3.217,-0.266 -5.007,-0.798 -1.79,-0.532 -3.434,-1.427 -4.934,-2.685 -1.499,-1.257 -2.733,-2.902 -3.7,-4.934 -0.967,-2.031 -1.451,-4.547 -1.451,-7.546 l 0,-43.679 L 0,-73.573 0,0 Z" />
            </g>
            <g
               transform="translate(93.7732,199.6315)"
               id="g5302">
              <path
                 inkscape:connector-curvature="0"
                 id="path5304"
                 style="fill:#000073;fill-opacity:1;fill-rule:nonzero;stroke:none"
                 d="M 0,0 C -0.252,-0.664 -0.162,-1.025 0.14,-1.402 2.078,0.639 4.17,2.505 6.473,4.11 4.682,5.904 2.894,7.702 1.106,9.499 0.377,8.832 -0.304,8.125 -0.976,7.409 0.547,5.366 1.042,2.748 0,0" />
            </g>
            <g
               transform="translate(176.3406,173.4808)"
               id="g5306">
              <path
                 inkscape:connector-curvature="0"
                 id="path5308"
                 style="fill:#000073;fill-opacity:1;fill-rule:nonzero;stroke:none"
                 d="m 0,0 c 0.517,-0.475 0.991,-1.243 1.565,-1.328 0.43,-0.064 0.991,0.752 1.81,1.443 C 2.49,0.702 1.9,1.4 1.405,1.338 0.889,1.274 0.465,0.477 0,0" />
            </g>
            <g
               transform="translate(78.7846,121.3637)"
               id="g5310">
              <path
                 inkscape:connector-curvature="0"
                 id="path5312"
                 style="fill:#000073;fill-opacity:1;fill-rule:nonzero;stroke:none"
                 d="m 0,0 c -1.671,1.671 -3.338,3.347 -5.01,5.018 -0.791,-2.866 -1.234,-5.741 -1.31,-8.62 0.403,-0.162 0.845,-0.244 1.371,-0.233 1.18,0.022 2.36,0.016 3.54,0.017 0.462,1.248 0.976,2.482 1.552,3.69 C 0.095,-0.086 0.045,-0.045 0,0" />
            </g>
            <g
               transform="translate(209.995,202.3776)"
               id="g5314">
              <path
                 inkscape:connector-curvature="0"
                 id="path5316"
                 style="fill:#000073;fill-opacity:1;fill-rule:nonzero;stroke:none"
                 d="M 0,0 C 0.498,-0.494 0.941,-1.28 1.512,-1.386 1.638,-1.41 1.785,-1.343 1.942,-1.24 1.967,-0.563 2.168,0.097 2.527,0.671 2.108,1.031 1.762,1.313 1.451,1.286 0.934,1.241 0.481,0.46 0,0" />
            </g>
            <g
               transform="translate(71.1195,135.9984)"
               id="g5318">
              <path
                 inkscape:connector-curvature="0"
                 id="path5320"
                 style="fill:#000073;fill-opacity:1;fill-rule:nonzero;stroke:none"
                 d="M 0,0 C 2.35,2.215 4.785,4.465 7.091,6.869 8.042,7.86 8.864,8.51 10.278,8.499 16.1,8.452 21.922,8.448 27.743,8.518 c 0.746,0.009 1.67,0.353 2.197,0.866 0.357,0.347 0.707,0.701 1.063,1.05 -0.688,0.095 -1.349,0.189 -1.947,0.278 -3.253,0.486 -6.468,1.175 -9.664,1.988 -1.192,-0.843 -2.614,-1.338 -4.093,-1.334 -2.917,0.009 -5.63,1.935 -6.707,4.752 -1.782,0.674 -3.559,1.403 -5.33,2.186 -0.139,-2.755 -1.595,-4.955 -3.994,-6.145 l 1.273,-1.3 C 1.461,9.92 1.843,8.578 1.554,7.296 1.265,6.013 0.345,4.965 -0.89,4.511 L -3.108,3.695 C -3.863,3.417 -4.591,3.139 -5.312,2.861 c 1.102,-1.102 2.203,-2.205 3.3,-3.302 l 1.487,0.375 C -0.352,-0.021 -0.176,-0.019 0,0" />
            </g>
            <g
               transform="translate(197.0311,194.1407)"
               id="g5322">
              <path
                 inkscape:connector-curvature="0"
                 id="path5324"
                 style="fill:#000073;fill-opacity:1;fill-rule:nonzero;stroke:none"
                 d="m 0,0 c -0.485,-0.507 -1.263,-0.964 -1.359,-1.537 -0.073,-0.429 0.732,-1.006 1.406,-1.838 0.605,0.871 1.315,1.447 1.265,1.945 C 1.259,-0.914 0.468,-0.473 0,0" />
            </g>
            <g
               transform="translate(157.1719,174.4683)"
               id="g5326">
              <path
                 inkscape:connector-curvature="0"
                 id="path5328"
                 style="fill:#000073;fill-opacity:1;fill-rule:nonzero;stroke:none"
                 d="M 0,0 C 0.424,0.425 1.171,0.73 1.776,0.741 5.351,0.81 8.928,0.775 12.481,0.775 12.797,1.616 13.175,2.332 13.579,2.988 9.707,5.267 6.272,8.696 3.388,11.967 1.84,11.957 0.291,11.959 -1.257,11.943 -2.146,11.934 -3.24,11.466 -3.88,10.842 -5.792,8.98 -7.684,7.096 -9.575,5.211 -8.846,1.399 -8.7,-2.471 -9.255,-6.19 c -0.134,-0.894 -0.311,-1.754 -0.51,-2.598 0.721,0.032 1.581,0.401 2.086,0.901 C -5.071,-5.307 -2.591,-2.598 0,0" />
            </g>
            <g
               transform="translate(195.8434,200.7381)"
               id="g5330">
              <path
                 inkscape:connector-curvature="0"
                 id="path5332"
                 style="fill:#000073;fill-opacity:1;fill-rule:nonzero;stroke:none"
                 d="m 0,0 c 1.759,0.335 2.629,0.159 4.955,-0.767 1.5,1.146 2.313,2.571 2.858,4.479 0.428,1.501 1.125,2.771 2.005,3.78 C 9.485,7.58 9.161,7.712 8.854,7.891 7.603,8.623 6.864,9.994 6.941,11.441 l 0.116,2.164 c -2.36,0 -4.72,0.007 -7.08,0.007 C 0.636,9.436 0.636,4.93 0,0" />
            </g>
            <g
               transform="translate(92.0785,249.7092)"
               id="g5334">
              <path
                 inkscape:connector-curvature="0"
                 id="path5336"
                 style="fill:#000073;fill-opacity:1;fill-rule:nonzero;stroke:none"
                 d="m 0,0 c -0.396,0.058 -0.792,0.095 -1.189,0.164 l -0.087,-0.4 c 0.227,-0.1 0.456,-0.203 0.684,-0.303 0.014,0.012 0.023,0.03 0.038,0.042 C -0.359,-0.33 -0.174,-0.165 0,0" />
            </g>
            <g
               transform="translate(103.8758,247.8064)"
               id="g5338">
              <path
                 inkscape:connector-curvature="0"
                 id="path5340"
                 style="fill:#000073;fill-opacity:1;fill-rule:nonzero;stroke:none"
                 d="M 0,0 C -1.068,-0.459 -2.234,-0.605 -3.429,-0.31 -5.17,0.119 -6.326,-0.264 -7.279,-0.964 -2.31,-3.327 2.526,-6.091 6.747,-10.029 6.749,-6.896 6.758,-3.763 6.76,-0.63 6.304,-0.798 5.724,-0.937 5.011,-0.937 4.053,-0.937 3.083,-0.727 0,0" />
            </g>
            <g
               transform="translate(110.4656,218.8187)"
               id="g5342">
              <path
                 inkscape:connector-curvature="0"
                 id="path5344"
                 style="fill:#000073;fill-opacity:1;fill-rule:nonzero;stroke:none"
                 d="m 0,0 c -2.852,-1.353 -6.18,-2.995 -9.252,-4.907 -0.778,-0.483 -1.503,-0.969 -2.205,-1.46 1.986,-1.987 3.978,-3.98 5.959,-5.962 3.315,1.507 6.726,2.246 10.34,2.246 0.995,0 2.016,-0.059 3.036,-0.174 3.92,-0.444 7.672,-1.678 11.151,-3.552 -2.791,2.826 -5.526,5.707 -8.308,8.542 C 8.413,-2.915 6.07,-0.598 3.73,1.723 2.556,1.008 1.421,0.549 0.808,0.31 L 0,0 Z" />
            </g>
            <g
               transform="translate(125.0665,290.6353)"
               id="g5346">
              <path
                 inkscape:connector-curvature="0"
                 id="path5348"
                 style="fill:#000073;fill-opacity:1;fill-rule:nonzero;stroke:none"
                 d="m 0,0 c -1.773,-1.368 -3.216,-3.753 -4.4,-6.523 0.823,0.597 1.784,0.986 2.93,1.077 C -0.992,-3.624 -0.499,-1.808 0,0" />
            </g>
            <g
               transform="translate(151.3126,187.7112)"
               id="g5350">
              <path
                 inkscape:connector-curvature="0"
                 id="path5352"
                 style="fill:#000073;fill-opacity:1;fill-rule:nonzero;stroke:none"
                 d="M 0,0 C 1.456,1.581 2.783,2.003 4.732,1.986 5.312,1.981 5.893,1.983 6.473,1.979 6.325,2.157 6.172,2.34 6.028,2.513 L 4.452,4.391 C 3.587,5.407 2.712,6.436 1.834,7.472 1.125,7.435 0.416,7.39 -0.285,7.358 -0.766,7.336 -1.292,6.858 -1.681,6.473 -3.395,4.769 -5.099,3.056 -6.811,1.349 -5.864,-0.608 -5.1,-2.64 -4.504,-4.708 -2.981,-3.159 -1.471,-1.597 0,0" />
            </g>
            <g
               transform="translate(82.327,185.2075)"
               id="g5354">
              <path
                 inkscape:connector-curvature="0"
                 id="path5356"
                 style="fill:#000073;fill-opacity:1;fill-rule:nonzero;stroke:none"
                 d="m 0,0 c -0.128,-0.747 -0.285,-1.477 -0.382,-2.242 0.366,0.479 0.748,1.011 1.118,1.509 C 0.492,-0.487 0.245,-0.245 0,0" />
            </g>
            <g
               transform="translate(67.5841,157.5818)"
               id="g5358">
              <path
                 inkscape:connector-curvature="0"
                 id="path5360"
                 style="fill:#000073;fill-opacity:1;fill-rule:nonzero;stroke:none"
                 d="M 0,0 C -0.456,0.239 -0.914,0.458 -1.37,0.705 -1.104,0.376 -0.734,-0.009 -0.394,-0.47 -0.263,-0.299 -0.131,-0.148 0,0" />
            </g>
            <g
               transform="translate(60.015,161.8561)"
               id="g5362">
              <path
                 inkscape:connector-curvature="0"
                 id="path5364"
                 style="fill:#000073;fill-opacity:1;fill-rule:nonzero;stroke:none"
                 d="M 0,0 C -1.674,1.031 -3.348,2.131 -5.021,3.264 -4.92,2.811 -4.87,2.329 -4.844,1.834 l 4.778,-4.877 C -0.072,-2.027 -0.04,-1.013 0,0" />
            </g>
            <g
               transform="translate(84.9516,187.0253)"
               id="g5366">
              <path
                 inkscape:connector-curvature="0"
                 id="path5368"
                 style="fill:#000073;fill-opacity:1;fill-rule:nonzero;stroke:none"
                 d="M 0,0 C 1.785,2.443 3.593,4.916 5.515,7.282 4.774,7.914 4.063,8.043 3.205,7.728 2.182,7.353 1.065,7.367 -0.014,7.608 -0.778,5.697 -1.408,3.695 -1.918,1.617 -1.322,1.02 -0.725,0.424 -0.128,-0.173 -0.085,-0.113 -0.044,-0.06 0,0" />
            </g>
            <g
               transform="translate(117.3618,106.8035)"
               id="g5370">
              <path
                 inkscape:connector-curvature="0"
                 id="path5372"
                 style="fill:#000073;fill-opacity:1;fill-rule:nonzero;stroke:none"
                 d="M 0,0 C 0.004,2.075 0.001,4.15 0,6.225 -0.301,5.907 -0.602,5.587 -0.907,5.281 -3.095,3.081 -5.283,0.844 -7.478,-1.4 l -0.294,-0.301 c -0.636,-0.652 -1.286,-1.311 -1.927,-1.965 1.994,-10e-4 3.987,-0.002 5.981,-10e-4 1.882,0 3.715,1.809 3.718,3.667" />
            </g>
            <g
               transform="translate(212.3628,210.7667)"
               id="g5374">
              <path
                 inkscape:connector-curvature="0"
                 id="path5376"
                 style="fill:#000073;fill-opacity:1;fill-rule:nonzero;stroke:none"
                 d="m 0,0 c 1.199,-0.171 2.431,-0.616 3.644,-1.388 0.609,-0.388 1.114,-0.905 1.569,-1.469 l 1.825,1.688 C 6.075,-0.12 5.166,1.065 4.156,2.002 3.702,1.8 3.229,1.595 2.73,1.383 2.145,1.133 1.094,0.59 0,0" />
            </g>
            <g
               transform="translate(88.4252,132.3084)"
               id="g5378">
              <path
                 inkscape:connector-curvature="0"
                 id="path5380"
                 style="fill:#000073;fill-opacity:1;fill-rule:nonzero;stroke:none"
                 d="m 0,0 c 0.269,0.167 0.556,0.316 0.834,0.474 l 0,2.052 c 3.726,1.268 7.505,1.478 11.28,1.413 0.799,0.071 1.599,0.119 2.397,0.119 1.366,0 2.717,-0.144 4.054,-0.351 2.004,-0.062 3.035,0.599 4.229,1.813 2.549,2.591 5.203,5.089 7.755,7.674 -1.123,-0.061 -2.271,-0.097 -3.455,-0.097 -2.318,0 -4.593,0.116 -6.735,0.289 C 18.655,11.685 16.965,9.972 15.258,8.275 14.144,7.167 13.006,6.6 11.196,6.931 8.973,7.337 6.621,7.039 4.324,7.041 1.226,7.043 -1.872,7.055 -4.97,7.027 -5.47,7.022 -6.131,6.999 -6.442,6.699 -8.646,4.57 -10.828,2.384 -13.053,0.157 c 0.038,-0.504 0.012,-1.016 -0.154,-1.512 l -0.474,-1.427 c 1.899,-1.894 3.768,-3.75 5.64,-5.568 1.922,3.218 4.46,6.123 8.041,8.35" />
            </g>
            <g
               transform="translate(152.0506,46.3764)"
               id="g5382">
              <path
                 inkscape:connector-curvature="0"
                 id="path5384"
                 style="fill:#000073;fill-opacity:1;fill-rule:nonzero;stroke:none"
                 d="M 0,0 C 0.301,-0.433 0.51,-0.738 0.557,-0.812 1.869,-2.818 3.198,-4.567 4.575,-6.111 5.53,-6.125 6.482,-6.118 7.437,-6.106 6.012,-3.922 4.595,-1.553 3.438,0.957 1.96,1.002 0.488,1.077 -0.941,1.359 -0.582,0.837 -0.25,0.359 0,0" />
            </g>
            <g
               transform="translate(129.7851,26.6974)"
               id="g5386">
              <path
                 inkscape:connector-curvature="0"
                 id="path5388"
                 style="fill:#000073;fill-opacity:1;fill-rule:nonzero;stroke:none"
                 d="m 0,0 c 1.971,6.957 4.894,14.001 9.339,20.826 0.352,0.542 0.797,1.087 1.353,1.752 0.191,0.229 0.39,0.467 0.578,0.708 l 0.379,0.486 c -0.017,4.907 -0.03,9.814 -0.034,14.721 l -0.732,-1.28 C 7.404,31.149 3.807,24.879 1.038,18.483 -1.738,12.075 -3.368,5.841 -4.226,-0.501 -3.433,-0.503 -2.641,-0.498 -1.848,-0.5 -1.112,-0.502 -0.531,-0.351 0,0" />
            </g>
            <g
               transform="translate(102.8502,90.361)"
               id="g5390">
              <path
                 inkscape:connector-curvature="0"
                 id="path5392"
                 style="fill:#000073;fill-opacity:1;fill-rule:nonzero;stroke:none"
                 d="M 0,0 C 0.429,-0.071 1.005,0.734 1.836,1.41 0.959,2.015 0.382,2.724 -0.113,2.67 -0.63,2.614 -1.067,1.824 -1.54,1.356 -1.032,0.872 -0.573,0.095 0,0" />
            </g>
            <g
               transform="translate(158.6035,109.6503)"
               id="g5394">
              <path
                 inkscape:connector-curvature="0"
                 id="path5396"
                 style="fill:#000073;fill-opacity:1;fill-rule:nonzero;stroke:none"
                 d="M 0,0 C 0.498,-0.028 1.04,0.707 1.889,1.358 1.028,1.989 0.414,2.765 -0.013,2.673 -0.58,2.551 -1.001,1.752 -1.485,1.244 -0.992,0.798 -0.517,0.029 0,0" />
            </g>
            <g
               transform="translate(100.1288,42.0705)"
               id="g5398">
              <path
                 inkscape:connector-curvature="0"
                 id="path5400"
                 style="fill:#000073;fill-opacity:1;fill-rule:nonzero;stroke:none"
                 d="m 0,0 c -0.049,0.055 -0.098,0.112 -0.147,0.167 -0.163,0 -0.326,0.001 -0.489,0.001 C -0.422,0.113 -0.219,0.05 0,0" />
            </g>
            <g
               transform="translate(200.188,54.7527)"
               id="g5402">
              <path
                 inkscape:connector-curvature="0"
                 id="path5404"
                 style="fill:#000073;fill-opacity:1;fill-rule:nonzero;stroke:none"
                 d="m 0,0 c 0.156,-0.774 0.202,-1.554 0.109,-2.324 1.266,0.778 2.533,1.555 3.796,2.339 0.242,0.15 0.52,0.304 0.79,0.456 C 4.691,1.943 4.696,3.416 4.694,4.888 3.136,3.174 1.544,1.542 0,0" />
            </g>
            <g
               transform="translate(158.6043,90.4233)"
               id="g5406">
              <path
                 inkscape:connector-curvature="0"
                 id="path5408"
                 style="fill:#000073;fill-opacity:1;fill-rule:nonzero;stroke:none"
                 d="M 0,0 C 0.428,-0.087 1.034,0.695 1.888,1.335 1.036,1.974 0.486,2.704 -0.015,2.672 -0.53,2.64 -0.998,1.864 -1.487,1.413 -0.998,0.91 -0.568,0.115 0,0" />
            </g>
            <g
               transform="translate(131.7687,214.6301)"
               id="g5410">
              <path
                 inkscape:connector-curvature="0"
                 id="path5412"
                 style="fill:#000073;fill-opacity:1;fill-rule:nonzero;stroke:none"
                 d="m 0,0 c -0.672,2.597 -0.213,4.864 1.243,6.73 -2.828,4.361 -5.401,8.862 -7.587,13.504 -0.496,-0.002 -0.993,-0.01 -1.489,-0.009 -2.226,0.003 -4.698,1.63 -5.52,3.616 -0.911,2.202 -0.329,4.832 1.244,6.566 0.469,0.517 0.979,0.893 1.511,1.207 -0.819,3.237 -1.294,6.457 -1.493,9.658 -1.301,1.345 -1.989,3.351 -1.657,5.148 0.183,0.992 0.834,2.046 1.708,2.933 0.231,3.429 0.703,6.837 1.342,10.224 -1.21,0.755 -2.204,1.867 -2.718,3.056 -0.768,-2.806 -1.355,-5.526 -1.808,-7.64 l -0.288,-1.334 c -0.567,-2.609 -1.024,-5.316 -1.357,-7.991 -0.028,-0.326 -0.044,-1.103 -0.065,-1.856 -0.1,-3.777 -0.185,-6.287 -0.997,-8.147 -0.003,-5.328 0.008,-10.655 0.026,-15.983 0.517,-0.623 1.048,-1.22 1.537,-1.896 0.133,-0.186 0.375,-0.563 0.655,-1.037 0.441,-0.741 0.664,-1.082 0.774,-1.238 0.906,-1.054 1.638,-2.777 1.223,-4.78 -0.239,-1.157 -0.821,-2.105 -1.534,-2.91 4.816,-4.907 9.686,-9.762 14.586,-14.586 C -0.169,-7.252 0.685,-7.607 1.38,-7.62 4.802,-7.686 8.226,-7.684 11.649,-7.64 11.047,-6.877 10.446,-6.11 9.85,-5.338 9.078,-5.593 8.27,-5.741 7.449,-5.736 4.078,-5.715 0.809,-3.13 0,0" />
            </g>
            <g
               transform="translate(65.5614,134.6076)"
               id="g5414">
              <path
                 inkscape:connector-curvature="0"
                 id="path5416"
                 style="fill:#000073;fill-opacity:1;fill-rule:nonzero;stroke:none"
                 d="M 0,0 C -0.987,0.988 -1.974,1.977 -2.961,2.965 -5.463,1.921 -7.752,0.859 -9.882,-0.24 -9.094,-1.044 -8.303,-1.846 -7.514,-2.65 -5.069,-1.661 -2.57,-0.756 0,0" />
            </g>
            <g
               transform="translate(214.6543,241.1364)"
               id="g5418">
              <path
                 inkscape:connector-curvature="0"
                 id="path5420"
                 style="fill:#000073;fill-opacity:1;fill-rule:nonzero;stroke:none"
                 d="M 0,0 C 1.257,1.55 2.529,3.05 3.772,4.512 L 4.96,5.915 C 4.618,6.089 4.267,6.243 3.91,6.377 2.528,5.188 1.132,4.013 -0.329,2.787 -0.779,2.41 -1.237,2.022 -1.692,1.639 -1.559,1.547 -1.426,1.454 -1.319,1.349 -0.871,0.908 -0.441,0.448 0,0" />
            </g>
            <g
               transform="translate(131.9931,203.5097)"
               id="g5422">
              <path
                 inkscape:connector-curvature="0"
                 id="path5424"
                 style="fill:#000073;fill-opacity:1;fill-rule:nonzero;stroke:none"
                 d="m 0,0 c 3.164,-2.092 6.054,-4.739 8.517,-7.946 0.451,-0.587 0.846,-1.212 1.26,-1.824 1.316,1.32 2.642,2.63 3.959,3.95 0.328,0.33 0.497,0.867 0.869,1.096 0.776,0.477 1.591,1.083 2.428,1.296 -0.939,1.128 -1.876,2.269 -2.812,3.419 C 9.521,-0.069 4.819,-0.065 0.119,-0.012 0.081,-0.012 0.039,-0.002 0,0" />
            </g>
            <g
               transform="translate(76.2864,114.3412)"
               id="g5426">
              <path
                 inkscape:connector-curvature="0"
                 id="path5428"
                 style="fill:#000073;fill-opacity:1;fill-rule:nonzero;stroke:none"
                 d="m 0,0 c -0.72,-0.003 -1.439,0.003 -2.159,-0.002 -0.51,-0.004 -1.034,-0.301 -1.526,-0.244 -0.012,0.001 -0.025,0.004 -0.038,0.005 0.125,-1.581 0.348,-3.162 0.689,-4.741 0.541,0.114 1.085,0.162 1.623,0.149 C -0.968,-3.249 -0.51,-1.627 0,0" />
            </g>
            <g
               transform="translate(52.8663,132.8438)"
               id="g5430">
              <path
                 inkscape:connector-curvature="0"
                 id="path5432"
                 style="fill:#000073;fill-opacity:1;fill-rule:nonzero;stroke:none"
                 d="m 0,0 c -0.765,-0.437 -1.517,-0.878 -2.244,-1.331 -1.733,-1.078 -3.361,-2.204 -4.899,-3.386 0.653,-0.002 1.306,0.006 1.959,0.003 0.472,-10e-4 0.933,-0.057 1.381,-0.149 1.958,0.914 3.936,1.829 5.95,2.705 C 1.425,-1.444 0.718,-0.716 0,0" />
            </g>
            <g
               transform="translate(238.2755,80.602)"
               id="g5434">
              <path
                 inkscape:connector-curvature="0"
                 id="path5436"
                 style="fill:#000073;fill-opacity:1;fill-rule:nonzero;stroke:none"
                 d="m 0,0 c 2.451,-0.58 4.729,-0.982 6.984,-1.196 1.037,-0.1 2.104,-0.15 3.171,-0.15 4.55,0 9.004,0.909 13.596,2.057 0.271,0.488 0.577,0.956 0.949,1.38 C 24.208,2.078 23.713,2.064 23.203,2.049 21.718,2.004 20.176,1.959 18.631,1.959 14.87,1.959 10.035,2.198 5.998,4.061 5.515,4.283 5.08,4.552 4.636,4.813 3.296,3.478 1.962,2.135 0.619,0.802 0.356,0.54 0.162,0.275 0,0" />
            </g>
            <g
               transform="translate(190.8596,125.2805)"
               id="g5438">
              <path
                 inkscape:connector-curvature="0"
                 id="path5440"
                 style="fill:#000073;fill-opacity:1;fill-rule:nonzero;stroke:none"
                 d="m 0,0 c 0.024,-0.517 0.788,-1 1.229,-1.497 0.513,0.478 1.316,0.891 1.444,1.458 C 2.77,0.386 2,1.008 1.378,1.873 0.719,1.031 -0.023,0.498 0,0" />
            </g>
            <g
               transform="translate(222.983,53.3802)"
               id="g5442">
              <path
                 inkscape:connector-curvature="0"
                 id="path5444"
                 style="fill:#000073;fill-opacity:1;fill-rule:nonzero;stroke:none"
                 d="m 0,0 c -0.353,0.244 -0.648,0.494 -0.918,0.715 0.109,-0.423 0.216,-0.84 0.319,-1.252 C -0.415,-0.36 -0.217,-0.177 0,0" />
            </g>
            <g
               transform="translate(127.8092,23.1541)"
               id="g5446">
              <path
                 inkscape:connector-curvature="0"
                 id="path5448"
                 style="fill:#000073;fill-opacity:1;fill-rule:nonzero;stroke:none"
                 d="m 0,0 c -0.884,-0.054 -1.749,-0.111 -2.615,-0.168 -0.637,-6.712 -0.489,-13.596 0.046,-20.986 l 0.592,0.046 c 0.381,5.329 0.969,10.998 2.094,16.814 -0.001,1.158 0.005,2.317 0.004,3.475 C 0.121,-0.665 0.077,-0.511 0,0" />
            </g>
            <g
               transform="translate(570.5148,128.8786)"
               id="g5450">
              <path
                 inkscape:connector-curvature="0"
                 id="path5452"
                 style="fill:#000073;fill-opacity:1;fill-rule:nonzero;stroke:none"
                 d="m 0,0 c 0.393,-0.537 0.763,-1.079 1.109,-1.628 l 0,1.703 C 0.729,0.053 0.371,0.026 0,0" />
            </g>
            <g
               transform="translate(551.4511,140.3769)"
               id="g5454">
              <path
                 inkscape:connector-curvature="0"
                 id="path5456"
                 style="fill:#000073;fill-opacity:1;fill-rule:nonzero;stroke:none"
                 d="m 0,0 c -14.902,0.038 -214.433,0.028 -229.335,0.028 -60.301,0 -120.602,-0.005 -180.903,0.027 -1.498,0.001 -2.597,-0.41 -3.645,-1.487 -0.994,-1.022 -2.006,-2.024 -3.013,-3.033 l -0.002,0.002 c -0.602,-0.611 -2.91,-2.957 -5.147,-5.291 -0.649,-0.677 -1.126,-1.827 -1.136,-2.765 -0.08,-7.319 -0.203,-14.644 0.012,-21.956 0.206,0.089 0.413,0.173 0.619,0.26 0.001,2.062 0.003,4.125 0.038,6.187 0.012,0.694 0.369,1.553 0.859,2.042 5.323,5.304 10.747,10.509 16.04,15.844 1.263,1.273 1.958,3.124 3.257,4.344 0.899,0.846 2.367,1.434 3.614,1.497 3.782,0.19 7.581,0.045 11.373,0.08 1.677,0.015 3.115,-0.431 4.199,-1.761 2.761,-3.386 1.313,-7.046 1.079,-7.327 -1.626,-1.946 -3.523,-2.998 -6.196,-2.827 -3.085,0.198 -6.197,0.15 -9.289,0.012 -2.355,-0.105 -4.26,0.533 -5.717,2.405 -0.23,0.296 -0.467,0.586 -0.765,0.959 -4.91,-4.929 -9.714,-9.713 -14.449,-14.563 -0.488,-0.501 -0.787,-1.395 -0.802,-2.114 -0.024,-1.16 -0.024,-2.321 -0.03,-3.482 1.072,0.413 2.257,0.843 3.51,1.211 0.327,1.988 2.007,2.781 3.146,4.022 2.69,2.929 5.632,5.624 8.393,8.49 0.702,0.729 1.293,1.218 2.391,1.21 7.636,-0.051 15.274,-0.011 22.91,-0.056 0.61,-0.004 1.384,-0.261 1.8,-0.679 3.606,-3.622 7.114,-7.341 10.715,-10.968 4.197,-4.227 8.397,-8.452 12.62,-12.653 0.388,0.027 0.774,0.064 1.173,0.064 0.94,0 1.883,-0.083 2.801,-0.245 7.222,-1.273 12.789,-7.218 13.851,-14.792 0.985,-7.029 -2.604,-13.74 -7.359,-19.698 10e-4,-2.145 -0.011,-4.29 -0.014,-6.435 0.386,0.211 0.767,0.426 1.124,0.648 0.843,0.525 1.083,0.791 1.1,0.811 l 0.31,0.364 c 0.516,0.603 1.204,1.035 1.973,1.235 0,0 0.879,0.236 0.906,0.241 l 1.701,0.944 c 0.581,0.323 1.229,0.487 1.879,0.487 0.51,0 1.02,-0.101 1.5,-0.303 0.139,-0.058 0.26,-0.145 0.39,-0.219 0.675,0.188 1.371,0.322 2.097,0.329 3.281,0.034 6.377,-2.106 7.63,-5.385 1.203,-3.15 0.49,-5.962 -1.838,-8.38 -0.256,-0.267 -0.508,-0.538 -0.83,-0.879 0.425,-0.292 0.837,-0.523 1.188,-0.825 0.998,-0.863 1.831,-1.781 1.17,-3.275 -0.162,-0.364 -0.096,-0.839 -0.096,-1.262 -0.003,-5.074 -0.005,-10.147 0.004,-15.22 3.051,15.711 2.428,32.203 -1.92,49.251 l -0.676,2.648 c -0.347,1.36 0.068,2.8 1.084,3.767 0.731,0.695 1.691,1.067 2.67,1.067 0.375,0 0.751,-0.058 1.119,-0.169 -11.236,11.305 -22.515,22.566 -33.772,33.851 -0.714,0.716 -1.263,1.155 -2.432,0.746 -3.729,-1.303 -7.845,0.975 -9.473,4.324 -0.023,0.049 -0.074,0.096 -0.108,0.144 -0.728,2.288 -1.242,2.859 0,6.582 0.086,0.111 0.169,0.229 0.246,0.387 1.747,3.56 5.725,5.042 8.636,4.405 4.35,-0.954 6.928,-4.799 6.709,-8.348 -0.069,-1.119 -0.465,-2.218 -0.685,-3.21 11.966,-11.965 23.998,-23.996 36.098,-36.095 1.007,1.008 2.063,2.062 3.093,3.09 -2.463,2.656 -4.168,5.851 -5.653,8.639 -0.609,1.143 -1.184,2.225 -1.786,3.208 -0.617,1.007 -1.745,2.571 -2.945,4.236 -5.737,7.959 -12.875,17.865 -11.253,26.076 0.227,1.156 0.594,2.179 1.219,3.219 2.079,3.454 5.946,5.426 9.976,5.51 37.647,0.792 273.877,-0.896 318.767,-0.014 2.099,0.041 4.196,-0.18 6.242,-0.65 C 2.505,-1.598 3.001,-1.718 3.476,-1.836 3.09,-1.449 2.713,-1.052 2.324,-0.668 1.815,-0.166 0.788,-0.002 0,0" />
            </g>
            <g
               transform="translate(146.8566,73.4896)"
               id="g5458">
              <path
                 inkscape:connector-curvature="0"
                 id="path5460"
                 style="fill:#000073;fill-opacity:1;fill-rule:nonzero;stroke:none"
                 d="m 0,0 c 0.043,0.278 0.128,0.563 0.241,0.848 -0.389,-0.601 -0.779,-1.2 -1.162,-1.787 -0.441,-0.674 -0.884,-1.354 -1.32,-2.031 0.002,-5.819 0.007,-11.638 0.004,-17.457 0.261,0.055 0.527,0.091 0.799,0.091 0.051,0 0.101,-0.001 0.151,-0.003 0.447,-0.018 0.871,-0.136 1.276,-0.298 -0.046,0.466 -0.059,0.934 0.01,1.391 0.347,2.324 3.315,5.137 5.908,5.028 0.061,-0.003 0.122,-10e-4 0.182,-0.003 0.172,2.413 0.821,4.86 2.132,7.31 C 6.828,-6.862 5.442,-6.776 4.094,-6.502 1.359,-5.943 -0.427,-2.737 0,0" />
            </g>
            <g
               transform="translate(223.1051,8.8581)"
               id="g5462">
              <path
                 inkscape:connector-curvature="0"
                 id="path5464"
                 style="fill:#000073;fill-opacity:1;fill-rule:nonzero;stroke:none"
                 d="M 0,0 0.159,-0.008 C 0.591,1.109 0.992,2.232 1.383,3.358 1.096,3.667 0.86,3.993 0.665,4.332 0.455,2.914 0.235,1.481 0,0" />
            </g>
            <g
               transform="translate(158.5842,73.9595)"
               id="g5466">
              <path
                 inkscape:connector-curvature="0"
                 id="path5468"
                 style="fill:#000073;fill-opacity:1;fill-rule:nonzero;stroke:none"
                 d="m 0,0 c -0.489,-0.503 -1.27,-0.954 -1.371,-1.526 -0.06,-0.343 0.439,-0.791 0.982,-1.382 0.503,0.624 0.997,1.258 1.521,1.855 C 0.865,-0.691 0.345,-0.354 0,0" />
            </g>
            <g
               transform="translate(575.9832,117.1889)"
               id="g5470">
              <path
                 inkscape:connector-curvature="0"
                 id="path5472"
                 style="fill:#000073;fill-opacity:1;fill-rule:nonzero;stroke:none"
                 d="m 0,0 c 0.07,-0.293 0.331,-0.496 0.629,-0.496 0.015,0 0.35,0.025 0.35,0.025 0.34,0.025 0.603,0.313 0.598,0.654 -0.004,0.22 -0.084,3.072 -1.173,6.785 l -3.035,0 C -0.797,3.235 -0.014,0.062 0,0" />
            </g>
            <g
               transform="translate(170.4879,119.1856)"
               id="g5474">
              <path
                 inkscape:connector-curvature="0"
                 id="path5476"
                 style="fill:#000073;fill-opacity:1;fill-rule:nonzero;stroke:none"
                 d="m 0,0 c -6.408,-0.059 -12.817,-0.051 -19.225,-0.004 -1.218,0.009 -2.114,-0.377 -2.934,-1.248 -2.552,-2.711 -4.964,-5.6 -7.8,-7.979 -0.16,-0.135 -0.292,-0.27 -0.424,-0.405 0.444,0.037 0.889,0.061 1.335,0.061 1.046,0 2.055,-0.111 2.999,-0.33 1.132,-0.263 2.171,-0.658 3.135,-1.144 -0.992,1.73 -1.163,3.642 -0.063,5.488 1.197,2.008 2.908,3.393 5.533,3.318 3.736,-0.106 7.477,-0.022 11.215,-0.028 3.251,-0.006 5.974,-2.689 5.983,-5.88 0.01,-3.292 -2.697,-5.971 -6.048,-5.975 -3.739,-0.005 -7.539,-0.412 -11.195,0.136 -0.589,0.088 -1.092,0.076 -1.55,0.008 1.951,-2.114 3.222,-4.766 3.767,-7.517 1.171,0 2.342,0 3.514,0 0.002,0.052 0.005,0.103 0.008,0.154 2.534,-0.161 5.123,-0.05 7.585,-0.558 2.553,-0.527 4.34,-3.898 3.908,-6.509 -0.384,-2.332 -3.314,-5.063 -5.786,-4.979 -3.656,0.123 -7.32,0.043 -10.981,0.04 -1.365,-3.309 -3.222,-6.537 -5.164,-9.611 1.184,1.329 2.896,2.345 4.481,2.277 3.837,-0.165 7.686,-0.036 11.529,-0.045 0.276,0 0.541,-0.047 0.807,-0.085 5.329,4.825 11.149,8.747 16.51,12.345 l 1.323,0.901 c 1.133,0.773 2.305,1.572 3.509,2.322 2.078,1.292 4.656,2.698 7.618,3.5 C 16.79,-14.96 9.986,-8.177 3.208,-1.37 2.286,-0.444 1.341,0.012 0,0" />
            </g>
            <g
               transform="translate(95.7327,47.3766)"
               id="g5478">
              <path
                 inkscape:connector-curvature="0"
                 id="path5480"
                 style="fill:#000073;fill-opacity:1;fill-rule:nonzero;stroke:none"
                 d="m 0,0 c -3.343,0.027 -5.48,1.51 -6.38,4.442 -0.538,1.755 -0.12,3.502 1.106,5.011 -0.675,1.925 -1.145,3.963 -1.32,6.131 -3.737,3.729 -7.467,7.46 -11.215,11.152 -0.315,0.311 -0.987,0.529 -1.401,0.425 -2.481,-0.626 -4.572,-0.065 -6.277,1.311 -1.825,-0.261 -3.71,-0.404 -5.679,-0.405 -4.084,0 -8.186,0.567 -12.156,1.367 -0.519,-0.492 -1.096,-0.865 -1.702,-1.164 3.166,-2.686 6.331,-4.561 9.583,-5.657 1.528,-0.515 3.655,-0.638 5.918,-0.77 4.23,-0.245 9.409,-0.587 13.575,-3.901 2.117,-0.928 3.922,-2.789 4.569,-5.034 0.114,-0.393 0.149,-0.771 0.2,-1.152 0.803,-1.659 1.416,-3.352 1.985,-4.948 0.792,-2.216 1.538,-4.309 2.606,-5.694 0.889,-1.15 1.933,-2.157 3.13,-3.032 1.653,-0.001 3.306,-0.001 4.959,-0.002 C 0.993,-1.296 0.493,-0.654 0,0" />
            </g>
            <g
               transform="translate(217.0497,196.562)"
               id="g5482">
              <path
                 inkscape:connector-curvature="0"
                 id="path5484"
                 style="fill:#000073;fill-opacity:1;fill-rule:nonzero;stroke:none"
                 d="m 0,0 c -3.421,-3.219 -8.229,-3.191 -11.361,0.119 -0.072,0.076 -0.168,0.131 -0.731,0.561 -0.068,-0.85 -0.286,-1.479 -0.134,-1.999 1.748,-5.973 -3.218,-11.014 -8.229,-10.689 -1.32,0.086 -2.538,0.493 -3.618,1.116 -0.517,-1.438 -1.152,-2.817 -1.938,-4.093 0.464,-0.446 0.918,-0.901 1.383,-1.344 0.448,-0.427 1.377,-0.479 2.084,-0.483 1.584,-0.007 3.168,-10e-4 4.751,-0.004 0.471,1.337 1.146,2.684 2.081,4.011 1.211,1.714 2.775,3.174 4.649,4.34 5.741,3.571 13.114,3.794 19.651,3.991 0.308,0.009 0.592,0.019 0.891,0.029 0.407,0.387 0.804,0.781 1.216,1.167 L 0,0 Z" />
            </g>
            <g
               transform="translate(93.9036,80.5916)"
               id="g5486">
              <path
                 inkscape:connector-curvature="0"
                 id="path5488"
                 style="fill:#000073;fill-opacity:1;fill-rule:nonzero;stroke:none"
                 d="m 0,0 c -2.565,-0.168 -4.238,0.297 -5.66,2.398 -0.194,0.287 -0.439,0.538 -0.701,0.778 -1.423,-1.228 -2.922,-2.338 -4.46,-3.296 -0.194,-0.121 -0.396,-0.223 -0.591,-0.339 -0.315,-1.078 -0.886,-2.172 -1.789,-3.242 -0.168,-0.199 -0.349,-0.387 -0.629,-0.695 3.071,-3.075 6.103,-6.113 9.126,-9.134 0.118,0.996 0.315,1.97 0.579,2.923 -0.386,0.785 -0.62,1.655 -0.618,2.585 0.007,2.784 2.063,5.17 4.739,5.749 0.57,0.806 1.174,1.585 1.795,2.348 C 1.194,0.048 0.596,0.039 0,0" />
            </g>
            <g
               transform="translate(204.2736,161.3963)"
               id="g5490">
              <path
                 inkscape:connector-curvature="0"
                 id="path5492"
                 style="fill:#000073;fill-opacity:1;fill-rule:nonzero;stroke:none"
                 d="m 0,0 c -1.725,-1.822 -3.534,-3.565 -5.309,-5.341 -1.161,-1.162 -2.363,-2.132 -4.179,-1.357 -0.363,0.154 -0.845,0.034 -1.273,0.034 -17.215,0 -34.43,0.007 -51.645,0.014 -0.809,-0.906 -1.68,-1.761 -2.638,-2.542 28.94,-0.027 57.881,-0.032 86.822,-0.038 -0.858,0.26 -1.752,0.511 -2.584,0.777 C 12.644,-5.691 7.22,-2.5 2.98,1.044 2.818,1.049 2.656,1.045 2.494,1.051 1.444,1.093 0.713,0.754 0,0" />
            </g>
            <g
               transform="translate(92.3413,88.0825)"
               id="g5494">
              <path
                 inkscape:connector-curvature="0"
                 id="path5496"
                 style="fill:#000073;fill-opacity:1;fill-rule:nonzero;stroke:none"
                 d="m 0,0 c -0.871,-0.804 -1.755,-1.587 -2.637,-2.374 0.541,-0.528 1.124,-1.031 1.673,-1.55 0.25,-0.238 0.784,-0.242 1.187,-0.242 1.999,-0.004 3.997,0.008 5.996,0.006 0.606,0.642 1.215,1.262 1.821,1.867 C 6.903,-2.305 5.766,-2.321 4.629,-2.318 2.765,-2.313 1.094,-1.388 0,0" />
            </g>
            <g
               transform="translate(228.0538,217.603)"
               id="g5498">
              <path
                 inkscape:connector-curvature="0"
                 id="path5500"
                 style="fill:#000073;fill-opacity:1;fill-rule:nonzero;stroke:none"
                 d="m 0,0 c -2.286,-0.813 -4.488,-1.707 -6.661,-2.643 0.609,-0.61 1.222,-1.216 1.831,-1.825 L 0,0 Z" />
            </g>
            <g
               transform="translate(123.4513,145.9431)"
               id="g5502">
              <path
                 inkscape:connector-curvature="0"
                 id="path5504"
                 style="fill:#000073;fill-opacity:1;fill-rule:nonzero;stroke:none"
                 d="m 0,0 c -3.327,-3.369 -6.699,-6.695 -10.005,-10.085 -0.345,-0.354 -0.611,-0.886 -0.749,-1.415 0.541,-0.22 1.091,-0.421 1.612,-0.677 4.798,-2.362 7.429,-5.309 8.045,-9.005 0.466,-2.784 -0.347,-5.285 -1.716,-7.545 0.118,-0.385 0.16,-0.82 0.112,-1.386 -0.271,-3.226 -0.226,-6.501 0.004,-9.734 0.078,-1.103 -0.051,-1.767 -0.81,-2.47 -1.073,-0.994 -2.111,-2.031 -3.102,-3.107 -0.664,-0.722 -1.314,-1.149 -2.349,-0.783 -0.53,0.187 -1.143,0.186 -1.719,0.187 -2.754,0.005 -5.509,0.002 -8.264,0.001 -0.77,-0.781 -1.555,-1.555 -2.332,-2.335 1.957,-0.011 3.914,-0.008 5.867,0.066 1.681,0.063 2.962,-0.463 4.027,-1.347 2.111,1.62 4.267,3.139 6.471,4.51 2.112,1.314 4.27,2.5 6.45,3.573 0.027,8.363 0.039,16.727 -0.003,25.09 -0.005,1.149 0.416,1.812 1.318,2.471 1.065,0.778 1.966,1.787 2.908,2.725 1.918,1.908 3.284,3.204 3.367,3.282 1.065,1.084 2.107,2.186 3.065,3.356 1.718,2.097 3.527,2.327 5.883,2.326 75.577,-0.038 335.784,-0.034 411.36,-0.011 1.222,0 1.911,-0.443 2.757,-1.362 1.913,-2.078 3.904,-4.084 5.908,-6.078 1.048,-0.561 1.993,-1.181 3.279,-1.942 1.043,-0.617 1.998,-1.356 2.876,-2.171 1.244,-0.006 2.511,-0.004 3.91,-0.004 l 0,1.425 c -0.385,0.479 -0.794,0.951 -1.231,1.413 -0.236,0.25 -0.384,0.593 -0.316,0.93 0.396,1.98 5.131,5.29 9.701,7.72 0.179,0.095 0.303,0.269 0.335,0.469 0.032,0.2 -0.033,0.405 -0.173,0.55 l -0.195,0.201 c -0.124,0.128 -0.294,0.196 -0.464,0.196 -0.096,0 -0.193,-0.021 -0.282,-0.065 -5.131,-2.493 -8.908,-3.016 -11.175,-3.016 -3.001,0 -4.582,0.888 -4.787,1.187 -1.265,2.245 -0.07,4.234 1.316,6.538 0.688,1.147 1.401,2.333 1.785,3.585 1.902,6.205 -1.43,17.889 -1.574,18.384 -0.08,0.279 -0.334,0.466 -0.62,0.466 -0.021,0 -0.583,-0.053 -0.583,-0.053 -0.181,-0.018 -0.345,-0.111 -0.454,-0.256 -0.108,-0.145 -0.15,-0.329 -0.117,-0.507 0.014,-0.078 1.459,-7.862 0.137,-14.545 -0.719,-3.636 -2.94,-8.834 -8.59,-9.926 C 420.203,-1.237 248.969,-1.43 156.127,-1.593 140.811,-1.619 126.875,0.265 114.752,3.018 80.062,3.023 45.373,3.025 10.683,3.049 7.613,1.578 4.038,0.563 0,0" />
            </g>
            <g
               transform="translate(189.36,178.9317)"
               id="g5506">
              <path
                 inkscape:connector-curvature="0"
                 id="path5508"
                 style="fill:#000073;fill-opacity:1;fill-rule:nonzero;stroke:none"
                 d="m 0,0 c -0.054,0.067 -0.114,0.128 -0.169,0.194 -0.819,-0.89 -1.741,-1.695 -2.815,-2.363 -0.302,-0.188 -0.623,-0.342 -0.94,-0.503 0.4,-1.062 0.595,-2.203 0.484,-3.385 -0.375,-4.01 -3.38,-7.103 -7.45,-7.534 -3.847,-0.407 -7.69,2.273 -8.76,6.697 -3.179,0 -6.382,0.061 -9.578,-0.049 -0.688,-0.024 -1.491,-0.534 -2.008,-1.052 -2.666,-2.675 -5.235,-5.446 -7.895,-8.126 -0.389,-0.392 -1.087,-0.658 -1.645,-0.663 -0.732,-0.006 -1.465,0.069 -2.198,0.143 -0.312,-0.838 -0.658,-1.649 -1.044,-2.428 16.126,-0.005 32.251,-0.006 48.376,-0.027 1.214,-0.002 1.988,0.48 2.924,1.186 3.08,2.324 4.332,5.224 3.771,9.046 -0.218,0.346 -0.471,0.683 -0.669,1.034 -0.987,1.751 -1.352,3.718 -1.15,5.769 C 7.912,-2.089 6.59,-2.125 5.27,-2.196 2.88,-2.324 1.475,-1.829 0,0" />
            </g>
            <g
               transform="translate(211.3361,236.804)"
               id="g5510">
              <path
                 inkscape:connector-curvature="0"
                 id="path5512"
                 style="fill:#000073;fill-opacity:1;fill-rule:nonzero;stroke:none"
                 d="m 0,0 c -0.21,0.207 -0.418,0.417 -0.627,0.624 -0.526,0.519 -1.434,0.882 -2.178,0.908 -0.233,0.008 -0.467,0.004 -0.7,0.011 -1.674,-1.508 -3.016,-2.789 -4.172,-3.993 -0.144,-0.15 -0.321,-0.307 -0.552,-0.489 -1.927,-2.805 -4.069,-4.226 -6.371,-4.227 -1.282,0 -2.186,0.465 -2.651,0.77 -1.424,0.957 -2.956,2.525 -4.69,4.486 -0.675,-0.016 -1.352,-0.041 -2.025,-0.041 -0.003,-0.05 -0.006,-0.099 -0.008,-0.149 -0.557,0.034 -1.118,0.052 -1.678,0.069 1.587,-1.933 3.181,-3.923 4.633,-6.135 1.908,-2.907 3.33,-5.952 4.329,-9.175 2.935,0.002 5.871,0.01 8.806,0.011 C -6.665,-10.659 -3.609,-5.025 0,0" />
            </g>
            <g
               transform="translate(158.4669,128.7886)"
               id="g5514">
              <path
                 inkscape:connector-curvature="0"
                 id="path5516"
                 style="fill:#000073;fill-opacity:1;fill-rule:nonzero;stroke:none"
                 d="M 0,0 C 0.503,0.489 1.298,0.919 1.413,1.487 1.5,1.915 0.718,2.52 0.077,3.375 -0.561,2.522 -1.291,1.973 -1.26,1.472 -1.227,0.957 -0.451,0.489 0,0" />
            </g>
            <g
               transform="translate(131.9931,203.5097)"
               id="g5518">
              <path
                 inkscape:connector-curvature="0"
                 id="path5520"
                 style="fill:#000073;fill-opacity:1;fill-rule:nonzero;stroke:none"
                 d="M 0,0 C -0.816,0.539 -1.647,1.041 -2.499,1.5 -2.224,1.221 -1.954,0.936 -1.677,0.658 -1.287,0.268 -0.589,0.034 0,0" />
            </g>
            <g
               transform="translate(148.3003,76.2241)"
               id="g5522">
              <path
                 inkscape:connector-curvature="0"
                 id="path5524"
                 style="fill:#000073;fill-opacity:1;fill-rule:nonzero;stroke:none"
                 d="M 0,0 C -0.526,-0.59 -0.948,-1.238 -1.203,-1.886 -0.8,-1.265 -0.401,-0.635 0,0" />
            </g>
            <g
               id="g5526">
              <g
                 id="g5528" />
              <g
                 id="g5534">
                <g
                   style="opacity:0.60000598"
                   id="g5536"
                   clip-path="url(#clipPath5530)">
                  <g
                     id="g5538"
                     transform="translate(265.2278,82.7295)">
                    <path
                       inkscape:connector-curvature="0"
                       id="path5540"
                       style="fill:#000073;fill-opacity:1;fill-rule:nonzero;stroke:none"
                       d="m 0,0 c -1.172,0 -2.435,-0.038 -3.749,-0.079 -1.485,-0.045 -3.027,-0.09 -4.572,-0.09 -3.761,0 -8.596,0.239 -12.633,2.102 -5.75,2.65 -8.696,8.181 -11.08,12.656 -0.61,1.143 -1.185,2.225 -1.787,3.208 -0.617,1.007 -1.745,2.571 -2.945,4.237 -5.737,7.959 -12.875,17.865 -11.253,26.075 0.227,1.157 0.594,2.18 1.22,3.219 2.078,3.455 5.945,5.426 9.976,5.511 37.647,0.791 273.877,-0.897 318.766,-0.015 2.099,0.042 4.197,-0.18 6.242,-0.649 6.996,-1.607 7.995,-2.629 11.422,-4.656 8.151,-4.822 11.12,-16.938 11.148,-17.06 0.071,-0.292 0.331,-0.495 0.629,-0.495 0.016,0 0.351,0.024 0.351,0.024 0.339,0.026 0.602,0.313 0.597,0.654 -0.007,0.416 -0.25,10.213 -7.169,17.54 -0.236,0.249 -0.384,0.593 -0.317,0.929 0.396,1.981 5.131,5.291 9.702,7.72 0.179,0.096 0.303,0.27 0.335,0.47 0.031,0.2 -0.034,0.404 -0.174,0.55 l -0.195,0.2 c -0.124,0.129 -0.294,0.196 -0.463,0.196 -0.097,0 -0.193,-0.021 -0.283,-0.064 -5.131,-2.493 -8.907,-3.016 -11.174,-3.016 -3.001,0 -4.583,0.887 -4.787,1.187 -1.265,2.245 -0.071,4.234 1.315,6.537 0.688,1.148 1.401,2.334 1.785,3.586 1.902,6.205 -1.429,17.889 -1.573,18.384 -0.08,0.278 -0.335,0.466 -0.62,0.466 -0.021,0 -0.583,-0.054 -0.583,-0.054 -0.181,-0.017 -0.346,-0.11 -0.454,-0.255 -0.109,-0.146 -0.151,-0.33 -0.118,-0.508 0.014,-0.077 1.46,-7.861 0.137,-14.544 -0.718,-3.636 -2.94,-8.835 -8.589,-9.926 -10.681,-2.063 -181.915,-2.257 -274.757,-2.419 -21.963,-0.039 -41.179,3.811 -56.11,8.593 -11.518,4.857 -19.688,10.998 -23.724,18.158 -2.069,3.671 -1.487,8.283 1.594,12.655 1.211,1.714 2.775,3.174 4.649,4.34 5.741,3.572 13.114,3.794 19.651,3.991 1.511,0.047 2.941,0.089 4.159,0.16 l 0.077,0.384 -15.202,4.659 c -1.326,0.406 -2.333,1.491 -2.641,2.842 -0.31,1.352 0.128,2.765 1.146,3.707 l 14.877,13.763 c -3.678,-1.307 -7.175,-2.762 -10.605,-4.408 -0.701,-0.337 -1.503,-0.682 -2.356,-1.045 -1.368,-0.584 -5.278,-2.759 -6.363,-3.447 -0.632,-0.401 -1.354,-0.604 -2.075,-0.604 -0.675,0 -1.351,0.177 -1.957,0.53 -1.251,0.732 -1.99,2.103 -1.913,3.551 l 0.154,2.89 c 0,0 0.027,0.719 0.044,0.955 1.004,12.626 8.676,21.658 15.443,29.624 l 1.206,1.422 -0.713,0.743 c -1.495,-1.291 -3.01,-2.562 -4.593,-3.89 -2.066,-1.729 -4.199,-3.52 -6.207,-5.315 -1.817,-1.628 -3.235,-2.979 -4.46,-4.254 -0.143,-0.15 -0.32,-0.308 -0.551,-0.49 -1.927,-2.805 -4.07,-4.225 -6.372,-4.226 -1.282,0 -2.186,0.465 -2.65,0.77 -1.953,1.312 -4.099,3.752 -6.706,6.813 -0.597,0.701 -1.5,1.759 -1.753,2.003 l -0.778,0.725 c -2.458,2.3 -4.476,4.187 -6.872,5.408 1.587,-3.169 3.927,-5.993 6.562,-9.174 1.955,-2.36 3.976,-4.8 5.779,-7.545 5.414,-8.251 7.123,-17.535 5.374,-29.211 -0.088,-0.596 -0.175,-1.249 -0.289,-2.111 -0.909,-6.869 -2.155,-16.276 -9.026,-20.554 -0.919,-0.57 -1.91,-1.022 -2.952,-1.343 -1.279,-0.395 -2.609,-0.593 -3.949,-0.593 -9.324,-10e-4 -17.036,9.267 -22.135,15.397 l -1.576,1.878 c -11.956,14.049 -25.508,29.974 -32.606,47.949 -6.86,17.37 -2.601,34.242 1.908,50.585 -4.811,-3.711 -7.21,-14.893 -8.522,-21.013 l -0.288,-1.334 c -0.567,-2.609 -1.024,-5.315 -1.358,-7.99 -0.027,-0.327 -0.043,-1.104 -0.064,-1.856 -0.151,-5.678 -0.226,-8.528 -2.871,-10.542 -0.056,-0.041 -0.268,-0.188 -0.319,-0.219 -0.391,-0.243 -1.307,-0.812 -2.758,-0.812 -1.049,0 -2.08,0.243 -5.92,1.152 l -0.333,0.079 c -0.904,0.212 -1.894,0.448 -2.127,0.495 -1.825,0.275 -3.663,0.495 -5.498,0.715 l -0.218,0.025 c -1.299,0.155 -2.599,0.311 -3.901,0.537 l -0.087,-0.399 c 8.925,-3.919 18.094,-8.055 24.598,-17.058 0.133,-0.185 0.375,-0.562 0.655,-1.037 0.441,-0.741 0.664,-1.081 0.774,-1.237 0.906,-1.055 1.638,-2.778 1.223,-4.78 -0.806,-3.901 -5.303,-5.656 -6.779,-6.233 l -0.808,-0.31 c -2.852,-1.353 -6.18,-2.994 -9.253,-4.907 -1.342,-0.834 -2.552,-1.667 -3.701,-2.544 -8.71,-6.659 -14.051,-16.43 -15.566,-28.402 0.983,1.289 1.976,2.65 3.006,4.06 4.8,6.571 9.762,13.366 16.689,17.676 4.363,2.714 8.834,4.034 13.667,4.034 0.995,0 2.016,-0.059 3.036,-0.173 8.606,-0.975 16.478,-5.591 22.166,-12.999 6.019,-7.838 8.787,-18.039 7.407,-27.286 -1.195,-7.99 -4.975,-14.017 -11.238,-17.914 -5.288,-3.29 -12.407,-4.958 -21.159,-4.958 -5.921,0 -11.593,0.744 -15.344,1.305 -15.825,2.361 -30.885,8.563 -46.002,18.945 l -0.432,-0.507 17.919,-18.291 c 0.92,-0.939 1.302,-2.281 1.013,-3.563 -0.289,-1.283 -1.209,-2.331 -2.444,-2.785 l -2.218,-0.817 c -7.084,-2.605 -12.609,-5.205 -17.389,-8.179 -3.434,-2.138 -6.463,-4.458 -9.173,-7.036 2.132,0.94 4.266,1.937 6.371,2.923 6.356,2.974 12.925,6.048 20.069,7.85 l 2.704,0.682 c 0.314,0.08 0.633,0.119 0.948,0.119 1.063,0 2.097,-0.439 2.84,-1.239 0.963,-1.037 1.284,-2.516 0.837,-3.859 l -0.881,-2.649 c -2.414,-7.258 -2.528,-14.6 -0.335,-21.876 0.272,0.937 0.536,1.884 0.808,2.85 2.309,8.262 4.926,17.625 13.614,23.03 2.139,1.33 4.576,2.369 7.244,3.087 2.395,0.644 4.838,0.971 7.268,0.971 3.982,0 7.915,-0.9 11.372,-2.601 4.798,-2.362 7.43,-5.308 8.046,-9.004 0.852,-5.092 -2.505,-9.266 -5.9,-12.677 -2.188,-2.2 -4.376,-4.437 -6.57,-6.681 l -0.295,-0.302 c -7.033,-7.195 -14.306,-14.635 -21.993,-21.29 -1.438,-1.247 -2.957,-2.37 -4.514,-3.34 -5.436,-3.383 -11.494,-5.027 -18.516,-5.028 -5.459,0 -10.951,1.011 -16.115,2.241 3.926,-3.813 7.816,-6.339 11.84,-7.695 1.528,-0.515 3.655,-0.638 5.918,-0.769 4.542,-0.264 10.195,-0.592 14.494,-4.646 3.209,-3.029 4.605,-6.939 5.835,-10.39 0.792,-2.216 1.538,-4.309 2.606,-5.694 2.453,-3.176 6.049,-5.286 10.984,-6.42 -5.182,5.858 -11.073,13.091 -11.071,22.809 0,10.113 8.342,18.102 14.429,23.932 l 1.132,1.087 c 4.356,4.207 9.042,7.881 13.924,10.92 3.831,2.383 7.806,4.386 11.812,5.952 l 0.596,0.233 c 2.79,1.101 6.613,2.608 10.489,2.608 1.046,0 2.055,-0.112 2.999,-0.331 8.162,-1.896 11.963,-10.125 10.923,-16.984 -1.05,-6.923 -5.499,-13.734 -9.426,-19.746 -1.288,-1.969 -2.621,-4.006 -3.637,-5.79 l -1.631,-2.85 c -3.479,-6.064 -7.075,-12.334 -9.845,-18.73 -6.159,-14.221 -6.713,-27.576 -5.583,-43.181 l 0.592,0.046 c 1.001,13.975 3.39,30.274 13.293,45.478 0.352,0.541 0.797,1.087 1.352,1.752 0.191,0.229 0.391,0.467 0.578,0.708 l 1.309,1.678 c 0.735,0.944 1.864,1.492 3.055,1.492 0.051,0 0.101,-0.001 0.15,-0.003 1.248,-0.048 2.393,-0.695 3.082,-1.735 l 1.175,-1.779 c 0.792,-1.2 1.689,-2.489 2.225,-3.26 0.301,-0.433 0.509,-0.739 0.557,-0.812 3.297,-5.041 6.685,-8.517 10.731,-10.954 -0.387,0.568 -0.79,1.148 -1.202,1.743 -5.716,8.254 -14.352,20.726 -5.414,32.856 6.979,9.473 16.512,15.873 24.904,21.506 l 1.323,0.901 c 1.133,0.773 2.305,1.572 3.509,2.322 3.113,1.936 7.326,4.16 12.311,4.16 0.941,0 1.883,-0.082 2.801,-0.244 7.223,-1.274 12.79,-7.219 13.851,-14.793 1.636,-11.676 -9.326,-22.492 -17.342,-30.401 -1.282,-1.265 -2.505,-2.472 -3.526,-3.54 l 0.131,-0.146 c 1.368,0.846 4.423,2.721 4.423,2.721 1.662,1.021 3.327,2.042 4.986,3.073 0.753,0.466 1.659,0.947 2.62,1.45 0.831,0.434 1.692,0.881 2.46,1.358 0.842,0.525 1.082,0.791 1.1,0.812 l 0.31,0.363 c 0.515,0.604 1.203,1.035 1.972,1.235 0,0 0.88,0.236 0.906,0.241 l 1.701,0.944 c 0.581,0.323 1.23,0.487 1.879,0.487 0.51,0 1.02,-0.101 1.5,-0.302 1.097,-0.461 1.92,-1.398 2.235,-2.544 l 0.727,-2.637 c 0.147,-0.518 0.291,-1.038 0.429,-1.566 0.82,-3.133 1.472,-5.918 1.994,-8.514 2.612,-13.006 1.335,-23.677 -0.822,-37.237 l 0.16,-0.008 c 8.021,20.763 9.056,43.179 3.072,66.641 l -0.676,2.648 c -0.347,1.359 0.068,2.8 1.084,3.767 0.731,0.694 1.691,1.066 2.67,1.066 0.384,0 0.769,-0.056 1.146,-0.173 l 2.61,-0.808 c 4.628,-1.432 8.356,-2.23 12.089,-2.586 1.037,-0.1 2.104,-0.15 3.171,-0.15 5.838,0 11.513,1.491 17.531,3.073 l 0.405,0.106 -0.083,0.283 C 0.715,-0.004 0.362,0 0,0" />
                  </g>
                </g>
              </g>
            </g>
            <g
               transform="translate(179.4246,119.1285)"
               id="g5542">
              <path
                 inkscape:connector-curvature="0"
                 id="path5544"
                 style="fill:#ffffff;fill-opacity:1;fill-rule:nonzero;stroke:none"
                 d="M 0,0 C 7.842,0.005 14.183,6.305 14.206,14.114 14.229,21.971 7.854,28.324 -0.041,28.309 -7.861,28.294 -14.221,21.923 -14.188,14.137 -14.154,6.309 -7.817,-0.005 0,0 m 24.892,27.814 c 0.79,-1.913 1.521,-3.683 2.29,-5.546 -2.065,-1.303 -4.076,-2.572 -5.981,-3.775 l 0,-8.422 C 23.096,8.883 25.178,7.576 27.315,6.235 26.552,4.392 25.819,2.623 25.018,0.688 c -2.373,0.537 -4.722,1.068 -6.25,1.414 -2.295,-2.251 -4.255,-4.174 -6.532,-6.408 0.376,-1.636 0.918,-3.994 1.487,-6.47 -1.83,-0.762 -3.631,-1.513 -5.552,-2.313 -1.324,2.113 -2.626,4.193 -3.818,6.096 l -8.612,0 c -1.178,-1.874 -2.486,-3.957 -3.828,-6.093 -1.881,0.784 -3.684,1.535 -5.547,2.311 0.564,2.448 1.107,4.806 1.481,6.429 -2.266,2.203 -4.234,4.118 -6.611,6.43 -1.397,-0.32 -3.755,-0.86 -6.217,-1.423 -0.779,1.865 -1.531,3.666 -2.317,5.547 2.129,1.332 4.217,2.639 6.176,3.865 l 0,8.417 c -1.897,1.197 -3.942,2.487 -6.04,3.81 0.771,1.863 1.503,3.632 2.292,5.536 2.424,-0.548 4.816,-1.089 6.491,-1.468 2.148,2.249 3.99,4.177 6.324,6.62 -0.285,1.261 -0.818,3.617 -1.379,6.101 1.817,0.759 3.616,1.51 5.539,2.313 1.306,-2.074 2.594,-4.116 3.831,-6.078 l 8.225,0 c 1.194,1.902 2.479,3.949 3.812,6.071 1.875,-0.776 3.677,-1.523 5.558,-2.302 -0.546,-2.394 -1.075,-4.712 -1.402,-6.149 2.248,-2.308 4.135,-4.245 6.4,-6.57 1.532,0.347 3.887,0.88 6.363,1.44" />
            </g>
          </g>
        </g>
      </g>
    </g>
    <g
       inkscape:groupmode="layer"
       id="layer3"
       inkscape:label="v09 board outline"
       style="display:none" />
    <g
       inkscape:groupmode="layer"
       id="layer4"
       inkscape:label="connectors"
       style="display:none">
      <rect
         style="opacity:1;fill:#8cffff;fill-opacity:0.68452382;stroke:none;stroke-width:5;stroke-linecap:butt;stroke-miterlimit:4;stroke-dasharray:none;stroke-opacity:1"
         id="rect5716"
         width="29.232283"
         height="14.704724"
         x="-267.48734"
         y="750.31531"
         transform="matrix(0.84931084,-0.52789307,0.52789307,0.84931084,0,0)" />
      <rect
         style="display:inline;opacity:1;fill:#8cffff;fill-opacity:0.68452382;stroke:none;stroke-width:5;stroke-linecap:butt;stroke-miterlimit:4;stroke-dasharray:none;stroke-opacity:1"
         id="rect5716-4"
         width="29.232283"
         height="14.704724"
         x="-835.11182"
         y="164.88316"
         transform="matrix(0.00177215,-0.99999843,0.99999843,0.00177215,0,0)" />
      <rect
         style="display:inline;opacity:1;fill:#8cffff;fill-opacity:0.68452382;stroke:none;stroke-width:5;stroke-linecap:butt;stroke-miterlimit:4;stroke-dasharray:none;stroke-opacity:1"
         id="rect5716-4-5"
         width="29.232283"
         height="14.704724"
         x="-708.57501"
         y="-536.06122"
         transform="matrix(-0.76101761,-0.64873122,0.64873122,-0.76101761,0,0)" />
      <rect
         style="display:inline;opacity:1;fill:#8cffff;fill-opacity:0.68452382;stroke:none;stroke-width:5;stroke-linecap:butt;stroke-miterlimit:4;stroke-dasharray:none;stroke-opacity:1"
         id="rect5716-4-5-0"
         width="29.232283"
         height="14.704724"
         x="241.44647"
         y="-853.75671"
         transform="matrix(-0.8470261,0.5315513,-0.5315513,-0.8470261,0,0)" />
      <rect
         style="display:inline;opacity:1;fill:#8cffff;fill-opacity:0.68452382;stroke:none;stroke-width:5;stroke-linecap:butt;stroke-miterlimit:4;stroke-dasharray:none;stroke-opacity:1"
         id="rect5716-8"
         width="29.232283"
         height="14.704724"
         x="446.35199"
         y="668.62799"
         transform="matrix(0.94874853,0.31603201,-0.31603201,0.94874853,0,0)" />
      <rect
         style="display:inline;opacity:1;fill:#8cffff;fill-opacity:0.68452382;stroke:none;stroke-width:5;stroke-linecap:butt;stroke-miterlimit:4;stroke-dasharray:none;stroke-opacity:1"
         id="rect5716-4-5-0-3"
         width="29.232283"
         height="14.704724"
         x="311.26114"
         y="-845.66309"
         transform="matrix(-0.72548331,0.68823976,-0.68823976,-0.72548331,0,0)" />
      <rect
         style="display:inline;opacity:1;fill:#8cffff;fill-opacity:0.68452382;stroke:none;stroke-width:5;stroke-linecap:butt;stroke-miterlimit:4;stroke-dasharray:none;stroke-opacity:1"
         id="rect5716-4-5-0-3-5"
         width="29.232283"
         height="14.704724"
         x="784.60022"
         y="337.03769"
         transform="matrix(0.72358389,0.69023645,-0.69023645,0.72358389,0,0)" />
      <rect
         style="opacity:1;fill:#800080;fill-opacity:0.68452382;stroke:none;stroke-width:0.60000002;stroke-linecap:butt;stroke-linejoin:round;stroke-miterlimit:4;stroke-dasharray:none;stroke-opacity:1"
         id="rect4340"
         width="31.889763"
         height="17.716536"
         x="-268.40579"
         y="749.33447"
         transform="matrix(0.84973051,-0.52721728,0.52721728,0.84973051,0,0)" />
      <rect
         style="display:inline;opacity:1;fill:#800080;fill-opacity:0.68452382;stroke:none;stroke-width:0.60000002;stroke-linecap:butt;stroke-linejoin:round;stroke-miterlimit:4;stroke-dasharray:none;stroke-opacity:1"
         id="rect4340-7"
         width="31.889763"
         height="17.716536"
         x="463.13458"
         y="654.534"
         transform="matrix(0.94043409,0.33997606,-0.33997606,0.94043409,0,0)" />
      <rect
         style="display:inline;opacity:1;fill:#800080;fill-opacity:0.68452382;stroke:none;stroke-width:0.60000002;stroke-linecap:butt;stroke-linejoin:round;stroke-miterlimit:4;stroke-dasharray:none;stroke-opacity:1"
         id="rect4340-7-0"
         width="31.889763"
         height="17.716536"
         x="-836.66602"
         y="161.32735"
         transform="matrix(4.7320819e-4,-0.99999989,0.99999989,4.7320819e-4,0,0)" />
      <rect
         style="display:inline;opacity:1;fill:#800080;fill-opacity:0.68452382;stroke:none;stroke-width:0.60000002;stroke-linecap:butt;stroke-linejoin:round;stroke-miterlimit:4;stroke-dasharray:none;stroke-opacity:1"
         id="rect4340-7-0-1"
         width="31.889763"
         height="17.716536"
         x="-709.94324"
         y="-539.3847"
         transform="matrix(-0.76179512,-0.64781802,0.64781802,-0.76179512,0,0)" />
      <rect
         style="display:inline;opacity:1;fill:#800080;fill-opacity:0.68452382;stroke:none;stroke-width:0.60000002;stroke-linecap:butt;stroke-linejoin:round;stroke-miterlimit:4;stroke-dasharray:none;stroke-opacity:1"
         id="rect4340-7-0-1-8"
         width="31.889763"
         height="17.716536"
         x="247.83638"
         y="-853.44067"
         transform="matrix(-0.8420924,0.53933329,-0.53933329,-0.8420924,0,0)" />
      <rect
         style="display:inline;opacity:1;fill:#800080;fill-opacity:0.68452382;stroke:none;stroke-width:0.60000002;stroke-linecap:butt;stroke-linejoin:round;stroke-miterlimit:4;stroke-dasharray:none;stroke-opacity:1"
         id="rect4340-7-7"
         width="31.889763"
         height="17.716536"
         x="782.79028"
         y="334.05438"
         transform="matrix(0.7250512,0.68869497,-0.68869497,0.7250512,0,0)" />
      <rect
         style="display:inline;opacity:1;fill:#800080;fill-opacity:0.68452382;stroke:none;stroke-width:0.60000002;stroke-linecap:butt;stroke-linejoin:round;stroke-miterlimit:4;stroke-dasharray:none;stroke-opacity:1"
         id="rect4340-7-7-4"
         width="31.889763"
         height="17.716536"
         x="310.76968"
         y="-848.75177"
         transform="matrix(-0.72383752,0.68997047,-0.68997047,-0.72383752,0,0)" />
    </g>
  </g>
  <path
     style="fill:none;fill-rule:evenodd;stroke:#000000;stroke-width:0.2;stroke-linecap:butt;stroke-linejoin:miter;stroke-miterlimit:4;stroke-dasharray:none;stroke-opacity:1"
     d="m 166.98487,168.76741 c 0,0 6.13611,10.03875 8.96819,14.65128 2.00587,3.26691 0.31867,7.14677 -0.69102,8.36641 -2.81555,3.40097 -14.32275,3.52836 -14.32275,3.52836 l 0.006,31.99286 c -0.008,5.13485 2.23661,9.61501 6.17734,13.2811 l 24.27929,20.77781 c 0,0 5.61688,-6.52924 9.35494,-10.97239 2.6618,-3.16388 10.37083,-4.58548 13.89213,-2.52089 4.07384,2.38855 9.98213,12.19996 9.98213,12.19996 l 26.91217,-17.16688 c 2.87998,-1.49012 5.34427,-1.57481 9.64952,-1.57481 l 76.4091,-0.01 23.02952,-21.97746 -0.0111,-25.54408 -23.04679,-21.95324 c 0,0 -64.99174,0.0111 -95.04998,0.006 -2.68204,-4.5e-4 -8.15289,-0.5496 -10.48828,-1.33947 -8.8315,-2.98697 -19.07027,-6.98387 -19.07027,-6.98387 0,0 -1.88837,6.66941 -4.70408,7.18383 -1.66503,0.3042 -3.09356,-1.51857 -4.10408,-2.99005 -3.37242,-4.91079 -10.0885,-15.76837 -10.0885,-15.76837 z"
     id="path5814"
     inkscape:connector-curvature="0"
     sodipodi:nodetypes="cssccccsscccccccsscascc" />
</svg>
