  0
SECTION
  2
HEADER
  9
$ACADVER
  1
AC1014
  9
$HANDSEED
  5
FFFF
  9
$MEASUREMENT
 70
     1
  0
ENDSEC
  0
SECTION
  2
TABLES
  0
TABLE
  2
VPORT
  5
8
330
0
100
AcDbSymbolTable
 70
     4
  0
VPORT
  5
2E
330
8
100
AcDbSymbolTableRecord
100
AcDbViewportTableRecord
  2
*ACTIVE
 70
     0
 10
0.0
 20
0.0
 11
1.0
 21
1.0
 12
210.0
 22
148.5
 13
0.0
 23
0.0
 14
10.0
 24
10.0
 15
10.0
 25
10.0
 16
0.0
 26
0.0
 36
1.0
 17
0.0
 27
0.0
 37
0.0
 40
341.0
 41
1.24
 42
50.0
 43
0.0
 44
0.0
 50
0.0
 51
0.0
 71
     0
 72
   100
 73
     1
 74
     3
 75
     0
 76
     0
 77
     0
 78
     0
  0
ENDTAB
  0
TABLE
  2
LTYPE
  5
5
330
0
100
AcDbSymbolTable
 70
     1
  0
LTYPE
  5
14
330
5
100
AcDbSymbolTableRecord
100
AcDbLinetypeTableRecord
  2
BYBLOCK
 70
     0
  3

 72
    65
 73
     0
 40
0.0
  0
LTYPE
  5
15
330
5
100
AcDbSymbolTableRecord
100
AcDbLinetypeTableRecord
  2
BYLAYER
 70
     0
  3

 72
    65
 73
     0
 40
0.0
  0
LTYPE
  5
16
330
5
100
AcDbSymbolTableRecord
100
AcDbLinetypeTableRecord
  2
CONTINUOUS
 70
     0
  3
Solid line
 72
    65
 73
     0
 40
0.0
  0
ENDTAB
  0
TABLE
  2
LAYER
  5
2
100
AcDbSymbolTable
 70
5
  0
LAYER
  5
50
100
AcDbSymbolTableRecord
100
AcDbLayerTableRecord
  2
0
 70
0
  6
CONTINUOUS
  0
LAYER
  5
51
100
AcDbSymbolTableRecord
100
AcDbLayerTableRecord
  2
v08_board_outline
 70
0
  6
CONTINUOUS
  0
LAYER
  5
52
100
AcDbSymbolTableRecord
100
AcDbLayerTableRecord
  2
NT_logo
 70
0
  6
CONTINUOUS
  0
LAYER
  5
53
100
AcDbSymbolTableRecord
100
AcDbLayerTableRecord
  2
v09_board_outline
 70
0
  6
CONTINUOUS
  0
LAYER
  5
54
100
AcDbSymbolTableRecord
100
AcDbLayerTableRecord
  2
connectors
 70
0
  6
CONTINUOUS
  0
ENDTAB
  0
TABLE
  2
STYLE
  5
3
330
0
100
AcDbSymbolTable
 70
     1
  0
STYLE
  5
11
330
3
100
AcDbSymbolTableRecord
100
AcDbTextStyleTableRecord
  2
STANDARD
 70
     0
 40
0.0
 41
1.0
 50
0.0
 71
     0
 42
2.5
  3
txt
  4

  0
ENDTAB
  0
TABLE
  2
VIEW
  5
6
330
0
100
AcDbSymbolTable
 70
     0
  0
ENDTAB
  0
TABLE
  2
UCS
  5
7
330
0
100
AcDbSymbolTable
 70
     0
  0
ENDTAB
  0
TABLE
  2
APPID
  5
9
330
0
100
AcDbSymbolTable
 70
     2
  0
APPID
  5
12
330
9
100
AcDbSymbolTableRecord
100
AcDbRegAppTableRecord
  2
ACAD
 70
     0
  0
ENDTAB
  0
TABLE
  2
DIMSTYLE
  5
A
330
0
100
AcDbSymbolTable
 70
     1
  0
DIMSTYLE
105
27
330
A
100
AcDbSymbolTableRecord
100
AcDbDimStyleTableRecord
  2
ISO-25
 70
     0
  3

  4

  5

  6

  7

 40
1.0
 41
2.5
 42
0.625
 43
3.75
 44
1.25
 45
0.0
 46
0.0
 47
0.0
 48
0.0
140
2.5
141
2.5
142
0.0
143
0.03937007874016
144
1.0
145
0.0
146
1.0
147
0.625
 71
     0
 72
     0
 73
     0
 74
     0
 75
     0
 76
     0
 77
     1
 78
     8
170
     0
171
     3
172
     1
173
     0
174
     0
175
     0
176
     0
177
     0
178
     0
270
     2
271
     2
272
     2
273
     2
274
     3
340
11
275
     0
280
     0
281
     0
282
     0
283
     0
284
     8
285
     0
286
     0
287
     3
288
     0
  0
ENDTAB
  0
TABLE
  2
BLOCK_RECORD
  5
1
330
0
100
AcDbSymbolTable
 70
     1
  0
BLOCK_RECORD
  5
1F
330
1
100
AcDbSymbolTableRecord
100
AcDbBlockTableRecord
  2
*MODEL_SPACE
  0
BLOCK_RECORD
  5
1B
330
1
100
AcDbSymbolTableRecord
100
AcDbBlockTableRecord
  2
*PAPER_SPACE
  0
ENDTAB
  0
ENDSEC
  0
SECTION
  2
BLOCKS
  0
BLOCK
  5
20
330
1F
100
AcDbEntity
  8
0
100
AcDbBlockBegin
  2
*MODEL_SPACE
 70
     0
 10
0.0
 20
0.0
 30
0.0
  3
*MODEL_SPACE
  1

  0
ENDBLK
  5
21
330
1F
100
AcDbEntity
  8
0
100
AcDbBlockEnd
  0
BLOCK
  5
1C
330
1B
100
AcDbEntity
 67
     1
  8
0
100
AcDbBlockBegin
  2
*PAPER_SPACE
  1

  0
ENDBLK
  5
1D
330
1B
100
AcDbEntity
 67
     1
  8
0
100
AcDbBlockEnd
  0
ENDSEC
  0
SECTION
  2
ENTITIES
  0
LWPOLYLINE
  5
100
100
AcDbEntity
  8
0
 62
7
100
AcDbPolyline
 90
150
 70
1
 10
47.126841
 20
77.370087
 30
0.0
 10
49.657864
 20
73.235170
 30
0.0
 10
49.752095
 20
73.060494
 30
0.0
 10
49.823703
 20
72.883117
 30
0.0
 10
49.874500
 20
72.704392
 30
0.0
 10
49.906287
 20
72.525672
 30
0.0
 10
49.920878
 20
72.348312
 30
0.0
 10
49.920031
 20
72.173661
 30
0.0
 10
49.905638
 20
72.003075
 30
0.0
 10
49.879476
 20
71.837907
 30
0.0
 10
49.843329
 20
71.679510
 30
0.0
 10
49.799017
 20
71.529238
 30
0.0
 10
49.748341
 20
71.388440
 30
0.0
 10
49.693116
 20
71.258477
 30
0.0
 10
49.635145
 20
71.140694
 30
0.0
 10
49.576234
 20
71.036450
 30
0.0
 10
49.518189
 20
70.947095
 30
0.0
 10
49.462820
 20
70.873983
 30
0.0
 10
49.286476
 20
70.704624
 30
0.0
 10
49.060992
 20
70.555619
 30
0.0
 10
48.794718
 20
70.425664
 30
0.0
 10
48.496003
 20
70.313461
 30
0.0
 10
48.173197
 20
70.217712
 30
0.0
 10
47.834652
 20
70.137109
 30
0.0
 10
47.488718
 20
70.070358
 30
0.0
 10
47.143743
 20
70.016154
 30
0.0
 10
46.808082
 20
69.973200
 30
0.0
 10
46.490083
 20
69.940191
 30
0.0
 10
46.198096
 20
69.915836
 30
0.0
 10
45.940475
 20
69.898818
 30
0.0
 10
45.725563
 20
69.887839
 30
0.0
 10
45.561718
 20
69.881602
 30
0.0
 10
45.457288
 20
69.878780
 30
0.0
 10
45.420621
 20
69.878215
 30
0.0
 10
45.422315
 20
60.849119
 30
0.0
 10
45.429314
 20
60.579577
 30
0.0
 10
45.450960
 20
60.314430
 30
0.0
 10
45.487059
 20
60.053747
 30
0.0
 10
45.537368
 20
59.797590
 30
0.0
 10
45.601656
 20
59.546029
 30
0.0
 10
45.679693
 20
59.299127
 30
0.0
 10
45.771252
 20
59.056949
 30
0.0
 10
45.876100
 20
58.819563
 30
0.0
 10
45.994007
 20
58.587038
 30
0.0
 10
46.124743
 20
58.359434
 30
0.0
 10
46.268078
 20
58.136820
 30
0.0
 10
46.423783
 20
57.919263
 30
0.0
 10
46.591629
 20
57.706823
 30
0.0
 10
46.771382
 20
57.499573
 30
0.0
 10
46.962816
 20
57.297576
 30
0.0
 10
47.165697
 20
57.100898
 30
0.0
 10
54.017853
 20
51.236938
 30
0.0
 10
56.658025
 20
54.333590
 30
0.0
 10
56.814934
 20
54.495129
 30
0.0
 10
57.001413
 20
54.644424
 30
0.0
 10
57.213638
 20
54.780752
 30
0.0
 10
57.447798
 20
54.903391
 30
0.0
 10
57.700071
 20
55.011624
 30
0.0
 10
57.966641
 20
55.104729
 30
0.0
 10
58.243687
 20
55.181981
 30
0.0
 10
58.527394
 20
55.242662
 30
0.0
 10
58.813946
 20
55.286051
 30
0.0
 10
59.099521
 20
55.311423
 30
0.0
 10
59.380303
 20
55.318055
 30
0.0
 10
59.652473
 20
55.305242
 30
0.0
 10
59.912216
 20
55.272253
 30
0.0
 10
60.155712
 20
55.218368
 30
0.0
 10
60.379144
 20
55.142865
 30
0.0
 10
60.578692
 20
55.045025
 30
0.0
 10
60.799799
 20
54.895269
 30
0.0
 10
61.029842
 20
54.703539
 30
0.0
 10
61.265613
 20
54.476959
 30
0.0
 10
61.503918
 20
54.222654
 30
0.0
 10
61.741552
 20
53.947750
 30
0.0
 10
61.975317
 20
53.659370
 30
0.0
 10
62.202009
 20
53.364640
 30
0.0
 10
62.418428
 20
53.070685
 30
0.0
 10
62.621377
 20
52.784631
 30
0.0
 10
62.807650
 20
52.513601
 30
0.0
 10
62.974048
 20
52.264721
 30
0.0
 10
63.117369
 20
52.045112
 30
0.0
 10
63.234412
 20
51.861905
 30
0.0
 10
63.321977
 20
51.722222
 30
0.0
 10
63.376864
 20
51.633187
 30
0.0
 10
63.395885
 20
51.601925
 30
0.0
 10
70.991098
 20
56.446800
 30
0.0
 10
71.291639
 20
56.586641
 30
0.0
 10
71.588647
 20
56.693662
 30
0.0
 10
71.889583
 20
56.772236
 30
0.0
 10
72.201910
 20
56.826727
 30
0.0
 10
72.533095
 20
56.861506
 30
0.0
 10
72.890594
 20
56.880951
 30
0.0
 10
73.281879
 20
56.889417
 30
0.0
 10
73.714407
 20
56.891393
 30
0.0
 10
95.278753
 20
56.894215
 30
0.0
 10
101.778195
 20
63.096743
 30
0.0
 10
101.775062
 20
70.305850
 30
0.0
 10
95.270746
 20
76.501542
 30
0.0
 10
68.445530
 20
76.499849
 30
0.0
 10
68.294789
 20
76.501542
 30
0.0
 10
68.128052
 20
76.506848
 30
0.0
 10
67.947766
 20
76.515540
 30
0.0
 10
67.756380
 20
76.527478
 30
0.0
 10
67.556346
 20
76.542549
 30
0.0
 10
67.350109
 20
76.560611
 30
0.0
 10
67.140122
 20
76.581524
 30
0.0
 10
66.928831
 20
76.605174
 30
0.0
 10
66.718685
 20
76.631449
 30
0.0
 10
66.512135
 20
76.660202
 30
0.0
 10
66.311633
 20
76.691311
 30
0.0
 10
66.119621
 20
76.724647
 30
0.0
 10
65.938555
 20
76.760089
 30
0.0
 10
65.770881
 20
76.797500
 30
0.0
 10
65.619046
 20
76.836763
 30
0.0
 10
65.485504
 20
76.877741
 30
0.0
 10
60.103450
 20
78.848745
 30
0.0
 10
60.097269
 20
78.827578
 30
0.0
 10
60.078981
 20
78.767592
 30
0.0
 10
60.049012
 20
78.674091
 30
0.0
 10
60.007746
 20
78.552383
 30
0.0
 10
59.955574
 20
78.407764
 30
0.0
 10
59.892901
 20
78.245540
 30
0.0
 10
59.820121
 20
78.071011
 30
0.0
 10
59.737631
 20
77.889477
 30
0.0
 10
59.645829
 20
77.706244
 30
0.0
 10
59.545110
 20
77.526610
 30
0.0
 10
59.435876
 20
77.355879
 30
0.0
 10
59.318519
 20
77.199351
 30
0.0
 10
59.193441
 20
77.062329
 30
0.0
 10
59.061037
 20
76.950114
 30
0.0
 10
58.921701
 20
76.868010
 30
0.0
 10
58.775837
 20
76.821317
 30
0.0
 10
58.688523
 20
76.812088
 30
0.0
 10
58.602849
 20
76.815898
 30
0.0
 10
58.518891
 20
76.831731
 30
0.0
 10
58.436722
 20
76.858570
 30
0.0
 10
58.356415
 20
76.895366
 30
0.0
 10
58.278051
 20
76.941109
 30
0.0
 10
58.201698
 20
76.994776
 30
0.0
 10
58.127437
 20
77.055338
 30
0.0
 10
58.055341
 20
77.121773
 30
0.0
 10
57.985482
 20
77.193057
 30
0.0
 10
57.917941
 20
77.268162
 30
0.0
 10
57.852787
 20
77.346069
 30
0.0
 10
57.790100
 20
77.425749
 30
0.0
 10
57.729950
 20
77.506180
 30
0.0
 10
57.672419
 20
77.586336
 30
0.0
 10
57.617574
 20
77.665192
 30
0.0
 10
54.770376
 20
82.115377
 30
0.0
 10
47.126841
 20
77.370087
 30
0.0
  0
ENDSEC
  0
SECTION
  2
OBJECTS
  0
DICTIONARY
  5
C
330
0
100
AcDbDictionary
  3
ACAD_GROUP
350
D
  3
ACAD_MLINESTYLE
350
17
  0
DICTIONARY
  5
D
330
C
100
AcDbDictionary
  0
DICTIONARY
  5
1A
330
C
100
AcDbDictionary
  0
DICTIONARY
  5
17
330
C
100
AcDbDictionary
  3
STANDARD
350
18
  0
DICTIONARY
  5
19
330
C
100
AcDbDictionary
  0
ENDSEC
  0
EOF
